<svg width="175" height="155" viewBox="0 0 175 155" xmlns="http://www.w3.org/2000/svg" xmlns:xlink="http://www.w3.org/1999/xlink">
    <defs>
        <path id="a" d="M174.848.31v100.948H0V.309h174.848z"/>
    </defs>
    <g fill="none" fill-rule="evenodd">
        <g transform="translate(0 53.51)">
            <mask id="b" fill="#fff">
                <use xlink:href="#a"/>
            </mask>
            <path d="M2.617 55.376c-3.49 2.014-3.49 5.31 0 7.326l64.165 37.045c3.49 2.015 9.2 2.015 12.688 0l92.761-53.555c3.49-2.015 3.49-5.312 0-7.326L108.066 1.82c-3.49-2.014-9.199-2.014-12.688 0L2.617 55.376z" fill="#DEE5EC" opacity=".25" mask="url(#b)"/>
        </g>
        <path fill="#DEE5EC" opacity=".25" d="M104.09 90.134l17.505-10.106 17.504 10.106-17.504 10.106zM90.004 131.458l17.504-10.106 17.503-10.106-17.503-10.106-17.504-10.106L72.5 80.93l-52.512 30.317 17.504 10.106 17.505 10.106L72.5 141.564l17.504-10.106"/>
        <path stroke="#CBD6E5" stroke-width="5" stroke-linecap="round" stroke-linejoin="round" d="M121.595 67.134v-7.318l5.803-21.656"/>
        <g>
            <path d="M121.595 68.785c-.912 0-1.651-.74-1.651-1.651v-7.318c0-.144.018-.288.056-.427l5.803-21.657c.235-.88 1.143-1.404 2.022-1.167.88.236 1.403 1.14 1.167 2.022l-5.746 21.447v7.1c0 .912-.74 1.65-1.651 1.65z" stroke="#CBD6E5" stroke-width="5" stroke-linecap="round" stroke-linejoin="round"/>
            <path stroke="#CBD6E5" stroke-width="5" stroke-linecap="round" stroke-linejoin="round" d="M104.09 69.922l17.505-10.106 17.504 10.106-17.504 10.106zM104.09 90.134V68.271"/>
            <path d="M104.09 91.785c-.91 0-1.65-.739-1.65-1.65V68.27c0-.912.74-1.65 1.65-1.65.913 0 1.652.738 1.652 1.65v21.863c0 .912-.74 1.651-1.651 1.651zM121.595 100.24V78.377M121.595 101.89c-.912 0-1.651-.738-1.651-1.65V78.377c0-.912.739-1.651 1.65-1.651.912 0 1.652.739 1.652 1.65v21.864c0 .912-.74 1.65-1.651 1.65zM124.303 49.71l2.707-10.105 17.447 9.279-2.68 10.519z" stroke="#CBD6E5" stroke-width="5" stroke-linecap="round" stroke-linejoin="round"/>
            <path d="M139.099 91.785c-.912 0-1.651-.739-1.651-1.65V69.921c0-.137.017-.274.051-.407l5.728-22.493c.225-.884 1.125-1.419 2.007-1.193.884.225 1.418 1.124 1.193 2.008l-5.677 22.292v20.005c0 .912-.74 1.651-1.651 1.651zM72.5 81.33V59.465M72.5 82.98c-.912 0-1.651-.739-1.651-1.65V59.465c0-.912.74-1.65 1.651-1.65.912 0 1.65.738 1.65 1.65V81.33c0 .912-.738 1.651-1.65 1.651z" stroke="#CBD6E5" stroke-width="5" stroke-linecap="round" stroke-linejoin="round"/>
            <path stroke="#CBD6E5" stroke-width="5" stroke-linecap="round" stroke-linejoin="round" d="M90.004 111.646l17.504-10.105 17.503-10.107-17.503-10.105-17.504-10.106L72.5 61.118 19.988 91.434l17.504 10.107 17.505 10.105L72.5 121.752l17.504-10.106M125.011 111.646V89.783"/>
            <path d="M125.011 113.297c-.911 0-1.65-.739-1.65-1.65V89.782c0-.911.739-1.65 1.65-1.65.912 0 1.651.739 1.651 1.65v21.863c0 .912-.739 1.651-1.65 1.651z" stroke="#CBD6E5" stroke-width="5" stroke-linecap="round" stroke-linejoin="round"/>
            <path d="M72.5 141.964v-21.863" stroke="#33475C" stroke-width="5" stroke-linecap="round" stroke-linejoin="round"/>
            <path d="M72.5 143.615c-.912 0-1.651-.739-1.651-1.65V120.1c0-.912.74-1.65 1.651-1.65.912 0 1.65.738 1.65 1.65v21.863c0 .912-.738 1.651-1.65 1.651z" stroke="#CBD6E5" stroke-width="5" stroke-linecap="round" stroke-linejoin="round"/>
            <path d="M19.988 111.646V89.783" stroke="#33475C" stroke-width="5" stroke-linecap="round" stroke-linejoin="round"/>
            <path d="M19.988 113.297c-.911 0-1.65-.739-1.65-1.65V89.782c0-.911.739-1.65 1.65-1.65.912 0 1.651.739 1.651 1.65v21.863c0 .912-.739 1.651-1.65 1.651z" stroke="#CBD6E5" stroke-width="5" stroke-linecap="round" stroke-linejoin="round"/>
            <path d="M77.514 104.293c2.06 0 3.997-1.162 4.938-3.077l9.279-18.885 9.56-4.59-11.288-6.518-3.956-2.284-2.515 5.12L54.976 87.77c-2.74 1.316-3.894 4.603-2.579 7.343.947 1.971 2.915 3.122 4.965 3.122.799 0 1.61-.174 2.378-.543l15.941-7.654-1.168 2.377-.55-.13c-2.956-.706-5.925 1.117-6.63 4.075-.706 2.955 1.118 5.924 4.075 6.63l4.827 1.152c.426.102.855.15 1.279.15z" stroke="#33475C" stroke-width="5" stroke-linecap="round" stroke-linejoin="round"/>
            <path d="M128.846 35.216c-1.164 0-2.293-.616-2.895-1.708-1.199-2.174-11.765-21.38-13.397-26.16-.35-1.025-.176-2.156.467-3.027s1.675-1.383 2.753-1.34c.49.013 12.133.422 22.307 7.17 1.52 1.008 1.935 3.057.927 4.577-1.008 1.519-3.056 1.934-4.577.926-4.555-3.02-9.573-4.546-13.286-5.311 2.787 5.612 7.345 14.095 10.589 19.976.881 1.596.3 3.605-1.296 4.486-.506.279-1.053.411-1.592.411zM142.586 39.606c-1.442 0-2.766-.952-3.176-2.407-.496-1.755.526-3.58 2.281-4.074 6.602-1.862 13.02-6.943 16.41-9.961-3.687-2.457-8.687-3.192-8.748-3.2-1.807-.242-3.077-1.903-2.835-3.71.242-1.808 1.907-3.078 3.71-2.836.416.057 10.239 1.433 15.289 7.599 1.059 1.292.985 3.173-.173 4.378-.426.443-10.557 10.898-21.86 14.085-.3.086-.602.126-.898.126zM79.18 94.293c-.48 0-.968-.08-1.448-.246-2.296-.8-3.509-3.31-2.709-5.606l9.11-26.15c.534-1.533 1.868-2.647 3.472-2.9l25.592-4.033c2.4-.376 4.655 1.26 5.034 3.663.378 2.402-1.262 4.656-3.664 5.035L91.58 67.678l-8.242 23.66c-.633 1.816-2.336 2.955-4.157 2.955z" stroke="#CBD6E5" stroke-width="5" stroke-linecap="round" stroke-linejoin="round"/>
            <path d="M65.004 91.829c-1.557 0-3.067-.83-3.866-2.292-1.167-2.134-.383-4.81 1.75-5.975l28.91-15.8c.517-.283 1.084-.459 1.67-.518l27.684-2.794c2.42-.247 4.578 1.519 4.823 3.938.244 2.42-1.52 4.579-3.938 4.823l-26.799 2.704-28.126 15.373c-.67.367-1.394.54-2.108.54z" stroke="#CBD6E5" stroke-width="5" stroke-linecap="round" stroke-linejoin="round"/>
            <path d="M58.386 92.641c-.992 0-1.94-.539-2.43-1.458l-2.642-4.962c-.714-1.341-.206-3.008 1.135-3.723 1.343-.713 3.008-.205 3.722 1.136l1.519 2.85 2.301-.839c1.427-.521 3.007.214 3.528 1.642.52 1.428-.215 3.007-1.642 3.528l-4.549 1.659c-.31.113-.628.167-.942.167z" stroke="#33475C" stroke-width="5" stroke-linecap="round" stroke-linejoin="round"/>
            <path d="M151.929 10.718c-.992-2.608-3.062-4.737-5.526-6.047-2.464-1.31-5.298-1.836-8.087-1.78-1.557-.112-2.75-.092-4.264.156-1.601.26-3.384 2.053-4.205 3.452-1.878 3.196-3.42 6.76-4.018 10.418.548-.579 2.032-1.52 2.58-2.1-1.025 1.806-1.653 3.817-1.894 5.876 1.815 3.405 3.667 6.813 5.22 9.625.754 1.37 1.16 3.893.05 4.898.937 1.034 1.994 1.93 3.116 2.413 0 0 4.72 1.966 9.547-1.892 2.055-1.643 3.966-4.788 4.529-7.358l1.336-6.108 1.392 2.854c.286-1.856.533-3.718.74-5.584.327-2.957.54-6.041-.516-8.823z" stroke="#CBD6E5" stroke-width="5" stroke-linecap="round" stroke-linejoin="round"/>
            <path d="M142.746 32.625c-1.072-.793-2.265-1.46-3.506-2.02l-.054-.025c-.293-.13-.59-.255-.887-.374l-.086-.035c-.292-.115-.586-.223-.88-.327-.034-.012-.068-.025-.103-.036-.292-.103-.585-.197-.878-.288-.036-.01-.071-.022-.107-.033-.296-.09-.59-.173-.883-.251l-.094-.025c-.3-.08-.598-.152-.895-.22l-.067-.016c-.305-.068-.606-.131-.905-.188l-.039-.007c-.307-.059-.61-.11-.91-.157h-.003c-1.755-.269-3.535-.446-5.096.547-2.004 1.275-6.786 11.996-9.781 20.191 0 0-1.64 4.541-6.43 4.198 0 0-2.29.296-1.739 2.294 0 0 2.798.519 3.48 2.888.78 2.706-.09 5.503-.09 5.503l.383.784s3.087.379 4.202 3.115c.963 2.363.092 5.319.092 5.319s2.218 1.005 2.843 1.376c0 0 5.916-2.683 9.587-4.508 4.924-2.449 5.407-5.303 5.407-5.303s1.928-5.327 4.19-12.02c0 0 7.831-16.992 3.25-20.382z" stroke="#CBD6E5" stroke-width="5" stroke-linecap="round" stroke-linejoin="round"/>
            <path d="M134.712 33.932c-.393 0-.792-.07-1.18-.22-1.703-.652-2.555-2.562-1.903-4.264l3.641-9.499c.652-1.702 2.56-2.554 4.265-1.901 1.702.652 2.554 2.562 1.902 4.265l-3.64 9.498c-.505 1.314-1.757 2.121-3.085 2.121z" stroke="#33475C" stroke-width="5" stroke-linecap="round" stroke-linejoin="round"/>
            <path d="M130.655 12.495c.877-2.46 3.226-5.89 6.287-7.155 1.01 2.522 4.513 10.955 7.322 13.901-1.796 3.363-5.587 7.212-9.947 5.658-5.098-1.816-4.924-8.861-3.662-12.404z" stroke="#33475C" stroke-width="5" stroke-linecap="round" stroke-linejoin="round"/>
            <path d="M165.344 25.395c-.425.444-10.558 10.899-21.861 14.086-.3.084-.6.125-.897.125-1.442 0-2.767-.951-3.177-2.408-.494-1.754.527-3.579 2.283-4.073 6.602-1.862 13.019-6.942 16.409-9.961M91.58 67.678l-8.242 23.66c-.633 1.816-2.336 2.955-4.157 2.955-.48 0-.97-.08-1.449-.246-2.296-.8-3.509-3.31-2.709-5.606l9.11-26.15" stroke="#CBD6E5" stroke-width="5" stroke-linecap="round" stroke-linejoin="round"/>
            <path d="M76.24 100.34c-.455 0-.907-.112-1.315-.333l-4.654-2.53c-1.335-.725-1.83-2.396-1.104-3.731.726-1.334 2.396-1.83 3.732-1.104l1.884 1.023.846-2.234c.538-1.421 2.126-2.136 3.547-1.599 1.422.538 2.138 2.127 1.599 3.548l-1.962 5.183c-.282.743-.87 1.329-1.616 1.606-.31.114-.634.171-.958.171zM130.253 28.384s-7.841 22.11-5.202 23.33c2.64 1.219 15.44-20.498 15.44-20.498" stroke="#33475C" stroke-width="5" stroke-linecap="round" stroke-linejoin="round"/>
            <path d="M124.509 51.33c-.095 1.185-1.493 3.147-2.349 1.396-.855-1.751 2.4-2.042 2.349-1.395z" stroke="#33475C" stroke-width="5" stroke-linecap="round" stroke-linejoin="round"/>
            <path d="M125.051 51.713c1.082.246 1.466 4.505-.766 3.654-2.232-.85-.316-3.9.766-3.654zM73.341 94.385s-5.284-3.749-6.603-.917M59.738 92.325s-.914 1.751-2.822.96v-.004h.001c-1.184-.432-2.395-2.326-3.359-4.735-1.236-3.09-2.933-6.459-.608-7.564 0 0 2.99-1.868 5.631 3.421 0 0 2.194 3.694 1.157 7.922z" stroke="#33475C" stroke-width="5" stroke-linecap="round" stroke-linejoin="round"/>
            <path d="M56.916 93.285v-.004c.335.123.669.134.993 0 1.62-.671 1.043-3.844.11-6.682 0 0-2.276-6.67-5.069-5.617M74.782 93.665l-1.883-1.023-.005-.002c-4.998-2.604-6.156.828-6.156.828-1.062 2.346 2.41 3.822 5.349 5.384 2.939 1.562 5.65 2.22 6.38.806 1.777-2.913-3.685-5.993-3.685-5.993z" stroke="#33475C" stroke-width="5" stroke-linecap="round" stroke-linejoin="round"/>
            <path d="M78.466 99.658c.804-1.559-1.94-3.32-4.486-4.884-.206-.127-.42-.257-.639-.388 0 0-5.284-3.75-6.603-.918M131.493 11.098c.252-.457.662-.594 1.113-.604.916-.02 1.635.356 2.116 1.147.52.85.644 1.768.393 2.724-.347 1.322-.744 2.629-1.418 3.831-.06.11-.125.217-.168.333-.139.373-.05.571.305.698.047.016.099.014.147.027.203.056.569-.006.553.239-.02.334-.39.209-.613.209-.856 0-1.23-.564-.833-1.337.583-1.132 1.068-2.297 1.401-3.522.224-.821.354-1.641.013-2.48-.415-1.023-1.376-1.52-2.395-1.263-.182.046-.373.116-.614-.002zM135.915 21.835c-.349.387-.808.47-1.275.462-1.075-.016-2.033-.38-2.864-1.06-.419-.345-.494-.557-.482-1.284 1.204 1.584 2.752 2.11 4.621 1.882zM140.87 14.51s-.169.183-.446-.159l-.005.004c-.371-.782-1.137-1.319-2.06-1.394-.263-.022-.545.026-.792-.137.58-.666 1.662-.635 2.637.064.357.256.862 1.072.666 1.622z" stroke="#33475C" stroke-width="5" stroke-linecap="round" stroke-linejoin="round"/>
            <path d="M133.8 14.263c-.034.066-.088.208-.172.327-.24.337-.77.515-1.12.39-.338-.122-.586-.524-.524-.972.018-.135.042-.27.075-.401M139.046 15.865c-.035.067-.089.208-.173.327-.24.338-.77.516-1.12.39-.337-.122-.586-.523-.524-.971.02-.136.042-.271.075-.402" stroke="#33475C" stroke-width="5" stroke-linecap="round" stroke-linejoin="round"/>
            <path fill="#FFF" d="M121.595 67.134v-7.318l5.803-21.656"/>
            <path stroke="#33475C" stroke-linecap="round" stroke-linejoin="round" d="M121.595 67.134v-7.318l5.803-21.656"/>
            <path d="M121.595 68.785c-.912 0-1.651-.74-1.651-1.651v-7.318c0-.144.018-.288.056-.427l5.803-21.657c.235-.88 1.143-1.404 2.022-1.167.88.236 1.403 1.14 1.167 2.022l-5.746 21.447v7.1c0 .912-.74 1.65-1.651 1.65" fill="#FFF"/>
            <path d="M121.595 68.785c-.912 0-1.651-.74-1.651-1.651v-7.318c0-.144.018-.288.056-.427l5.803-21.657c.235-.88 1.143-1.404 2.022-1.167.88.236 1.403 1.14 1.167 2.022l-5.746 21.447v7.1c0 .912-.74 1.65-1.651 1.65z" stroke="#33475C" stroke-linecap="round" stroke-linejoin="round"/>
            <path fill="#E4EAEF" d="M104.09 69.922l17.505-10.106 17.504 10.106-17.504 10.106z"/>
            <path stroke="#CBD6E5" stroke-linecap="round" stroke-linejoin="round" d="M104.09 69.922l17.505-10.106 17.504 10.106-17.504 10.106z"/>
            <path d="M104.09 90.134V68.271" fill="#FFF"/>
            <path d="M104.09 90.134V68.271" stroke="#33475C" stroke-linecap="round" stroke-linejoin="round"/>
            <path d="M104.09 91.785c-.91 0-1.65-.739-1.65-1.65V68.27c0-.912.74-1.65 1.65-1.65.913 0 1.652.738 1.652 1.65v21.863c0 .912-.74 1.651-1.651 1.651" fill="#FFF"/>
            <path d="M104.09 91.785c-.91 0-1.65-.739-1.65-1.65V68.27c0-.912.74-1.65 1.65-1.65.913 0 1.652.738 1.652 1.65v21.863c0 .912-.74 1.651-1.651 1.651z" stroke="#CBD6E5" stroke-linecap="round" stroke-linejoin="round"/>
            <path d="M121.595 100.24V78.377" fill="#FFF"/>
            <path d="M121.595 100.24V78.377" stroke="#33475C" stroke-linecap="round" stroke-linejoin="round"/>
            <path d="M121.595 101.89c-.912 0-1.651-.738-1.651-1.65V78.377c0-.912.739-1.651 1.65-1.651.912 0 1.652.739 1.652 1.65v21.864c0 .912-.74 1.65-1.651 1.65" fill="#FFF"/>
            <path d="M121.595 101.89c-.912 0-1.651-.738-1.651-1.65V78.377c0-.912.739-1.651 1.65-1.651.912 0 1.652.739 1.652 1.65v21.864c0 .912-.74 1.65-1.651 1.65z" stroke="#CBD6E5" stroke-linecap="round" stroke-linejoin="round"/>
            <path fill="#E4EAEF" d="M124.303 49.71l2.707-10.105 17.447 9.279-2.68 10.519z"/>
            <path stroke="#CBD6E5" stroke-linecap="round" stroke-linejoin="round" d="M124.303 49.71l2.707-10.105 17.447 9.279-2.68 10.519z"/>
            <path d="M139.099 91.785c-.912 0-1.651-.739-1.651-1.65V69.921c0-.137.017-.274.051-.407l5.728-22.493c.225-.884 1.125-1.419 2.007-1.193.884.225 1.418 1.124 1.193 2.008l-5.677 22.292v20.005c0 .912-.74 1.651-1.651 1.651" fill="#FFF"/>
            <path d="M139.099 91.785c-.912 0-1.651-.739-1.651-1.65V69.921c0-.137.017-.274.051-.407l5.728-22.493c.225-.884 1.125-1.419 2.007-1.193.884.225 1.418 1.124 1.193 2.008l-5.677 22.292v20.005c0 .912-.74 1.651-1.651 1.651z" stroke="#CBD6E5" stroke-linecap="round" stroke-linejoin="round"/>
            <path d="M72.5 81.33V59.465" fill="#FFF"/>
            <path d="M72.5 81.33V59.465" stroke="#33475C" stroke-linecap="round" stroke-linejoin="round"/>
            <path d="M72.5 82.98c-.912 0-1.651-.739-1.651-1.65V59.465c0-.912.74-1.65 1.651-1.65.912 0 1.65.738 1.65 1.65V81.33c0 .912-.738 1.651-1.65 1.651" fill="#FFF"/>
            <path d="M72.5 82.98c-.912 0-1.651-.739-1.651-1.65V59.465c0-.912.74-1.65 1.651-1.65.912 0 1.65.738 1.65 1.65V81.33c0 .912-.738 1.651-1.65 1.651z" stroke="#CBD6E5" stroke-linecap="round" stroke-linejoin="round"/>
            <path fill="#F2F5F8" d="M90.004 111.646l17.504-10.105 17.503-10.107-17.503-10.105-17.504-10.106L72.5 61.118 19.988 91.434l17.504 10.107 17.505 10.105L72.5 121.752l17.504-10.106"/>
            <path stroke="#CBD6E5" stroke-linecap="round" stroke-linejoin="round" d="M90.004 111.646l17.504-10.105 17.503-10.107-17.503-10.105-17.504-10.106L72.5 61.118 19.988 91.434l17.504 10.107 17.505 10.105L72.5 121.752l17.504-10.106"/>
            <path d="M125.011 111.646V89.783" fill="#FFF"/>
            <path d="M125.011 111.646V89.783" stroke="#33475C" stroke-linecap="round" stroke-linejoin="round"/>
            <path d="M125.011 113.297c-.911 0-1.65-.739-1.65-1.65V89.782c0-.911.739-1.65 1.65-1.65.912 0 1.651.739 1.651 1.65v21.863c0 .912-.739 1.651-1.65 1.651" fill="#FFF"/>
            <path d="M125.011 113.297c-.911 0-1.65-.739-1.65-1.65V89.782c0-.911.739-1.65 1.65-1.65.912 0 1.651.739 1.651 1.65v21.863c0 .912-.739 1.651-1.65 1.651z" stroke="#CBD6E5" stroke-linecap="round" stroke-linejoin="round"/>
            <path d="M72.5 141.964v-21.863" fill="#FFF"/>
            <path d="M72.5 141.964v-21.863" stroke="#33475C" stroke-linecap="round" stroke-linejoin="round"/>
            <path d="M72.5 143.615c-.912 0-1.651-.739-1.651-1.65V120.1c0-.912.74-1.65 1.651-1.65.912 0 1.65.738 1.65 1.65v21.863c0 .912-.738 1.651-1.65 1.651" fill="#FFF"/>
            <path d="M72.5 143.615c-.912 0-1.651-.739-1.651-1.65V120.1c0-.912.74-1.65 1.651-1.65.912 0 1.65.738 1.65 1.65v21.863c0 .912-.738 1.651-1.65 1.651z" stroke="#CBD6E5" stroke-linecap="round" stroke-linejoin="round"/>
            <path d="M19.988 111.646V89.783" fill="#FFF"/>
            <path d="M19.988 111.646V89.783" stroke="#33475C" stroke-linecap="round" stroke-linejoin="round"/>
            <path d="M19.988 113.297c-.911 0-1.65-.739-1.65-1.65V89.782c0-.911.739-1.65 1.65-1.65.912 0 1.651.739 1.651 1.65v21.863c0 .912-.739 1.651-1.65 1.651" fill="#FFF"/>
            <path d="M19.988 113.297c-.911 0-1.65-.739-1.65-1.65V89.782c0-.911.739-1.65 1.65-1.65.912 0 1.651.739 1.651 1.65v21.863c0 .912-.739 1.651-1.65 1.651z" stroke="#CBD6E5" stroke-linecap="round" stroke-linejoin="round"/>
            <path d="M77.514 104.293c2.06 0 3.997-1.162 4.938-3.077l9.279-18.885 9.56-4.59-11.288-6.518-3.956-2.284-2.515 5.12L54.976 87.77c-2.74 1.316-3.894 4.603-2.579 7.343.947 1.971 2.915 3.122 4.965 3.122.799 0 1.61-.174 2.378-.543l15.941-7.654-1.168 2.377-.55-.13c-2.956-.706-5.925 1.117-6.63 4.075-.706 2.955 1.118 5.924 4.075 6.63l4.827 1.152c.426.102.855.15 1.279.15" fill="#DEE5EC" opacity=".5"/>
            <path d="M128.846 35.216c-1.164 0-2.293-.616-2.895-1.708-1.199-2.174-11.765-21.38-13.397-26.16-.35-1.025-.176-2.156.467-3.027s1.675-1.383 2.753-1.34c.49.013 12.133.422 22.307 7.17 1.52 1.008 1.935 3.057.927 4.577-1.008 1.519-3.056 1.934-4.577.926-4.555-3.02-9.573-4.546-13.286-5.311 2.787 5.612 7.345 14.095 10.589 19.976.881 1.596.3 3.605-1.296 4.486-.506.279-1.053.411-1.592.411" fill="#DEE5EC"/>
            <path d="M128.846 35.216c-1.164 0-2.293-.616-2.895-1.708-1.199-2.174-11.765-21.38-13.397-26.16-.35-1.025-.176-2.156.467-3.027s1.675-1.383 2.753-1.34c.49.013 12.133.422 22.307 7.17 1.52 1.008 1.935 3.057.927 4.577-1.008 1.519-3.056 1.934-4.577.926-4.555-3.02-9.573-4.546-13.286-5.311 2.787 5.612 7.345 14.095 10.589 19.976.881 1.596.3 3.605-1.296 4.486-.506.279-1.053.411-1.592.411z" stroke="#CBD6E5" stroke-linecap="round" stroke-linejoin="round"/>
            <path d="M142.586 39.606c-1.442 0-2.766-.952-3.176-2.407-.496-1.755.526-3.58 2.281-4.074 6.602-1.862 13.02-6.943 16.41-9.961-3.687-2.457-8.687-3.192-8.748-3.2-1.807-.242-3.077-1.903-2.835-3.71.242-1.808 1.907-3.078 3.71-2.836.416.057 10.239 1.433 15.289 7.599 1.059 1.292.985 3.173-.173 4.378-.426.443-10.557 10.898-21.86 14.085-.3.086-.602.126-.898.126" fill="#DEE5EC"/>
            <path d="M142.586 39.606c-1.442 0-2.766-.952-3.176-2.407-.496-1.755.526-3.58 2.281-4.074 6.602-1.862 13.02-6.943 16.41-9.961-3.687-2.457-8.687-3.192-8.748-3.2-1.807-.242-3.077-1.903-2.835-3.71.242-1.808 1.907-3.078 3.71-2.836.416.057 10.239 1.433 15.289 7.599 1.059 1.292.985 3.173-.173 4.378-.426.443-10.557 10.898-21.86 14.085-.3.086-.602.126-.898.126z" stroke="#CBD6E5" stroke-linecap="round" stroke-linejoin="round"/>
            <path d="M79.18 94.293c-.48 0-.968-.08-1.448-.246-2.296-.8-3.509-3.31-2.709-5.606l9.11-26.15c.534-1.533 1.868-2.647 3.472-2.9l25.592-4.033c2.4-.376 4.655 1.26 5.034 3.663.378 2.402-1.262 4.656-3.664 5.035L91.58 67.678l-8.242 23.66c-.633 1.816-2.336 2.955-4.157 2.955" fill="#D3DDE7"/>
            <path d="M79.18 94.293c-.48 0-.968-.08-1.448-.246-2.296-.8-3.509-3.31-2.709-5.606l9.11-26.15c.534-1.533 1.868-2.647 3.472-2.9l25.592-4.033c2.4-.376 4.655 1.26 5.034 3.663.378 2.402-1.262 4.656-3.664 5.035L91.58 67.678l-8.242 23.66c-.633 1.816-2.336 2.955-4.157 2.955z" stroke="#CBD6E5" stroke-linecap="round" stroke-linejoin="round"/>
            <path d="M65.004 91.829c-1.557 0-3.067-.83-3.866-2.292-1.167-2.134-.383-4.81 1.75-5.975l28.91-15.8c.517-.283 1.084-.459 1.67-.518l27.684-2.794c2.42-.247 4.578 1.519 4.823 3.938.244 2.42-1.52 4.579-3.938 4.823l-26.799 2.704-28.126 15.373c-.67.367-1.394.54-2.108.54" fill="#D3DDE7"/>
            <path d="M65.004 91.829c-1.557 0-3.067-.83-3.866-2.292-1.167-2.134-.383-4.81 1.75-5.975l28.91-15.8c.517-.283 1.084-.459 1.67-.518l27.684-2.794c2.42-.247 4.578 1.519 4.823 3.938.244 2.42-1.52 4.579-3.938 4.823l-26.799 2.704-28.126 15.373c-.67.367-1.394.54-2.108.54z" stroke="#CBD6E5" stroke-linecap="round" stroke-linejoin="round"/>
            <path d="M58.386 92.641c-.992 0-1.94-.539-2.43-1.458l-2.642-4.962c-.714-1.341-.206-3.008 1.135-3.723 1.343-.713 3.008-.205 3.722 1.136l1.519 2.85 2.301-.839c1.427-.521 3.007.214 3.528 1.642.52 1.428-.215 3.007-1.642 3.528l-4.549 1.659c-.31.113-.628.167-.942.167" fill="#DEE5EC"/>
            <path d="M58.386 92.641c-.992 0-1.94-.539-2.43-1.458l-2.642-4.962c-.714-1.341-.206-3.008 1.135-3.723 1.343-.713 3.008-.205 3.722 1.136l1.519 2.85 2.301-.839c1.427-.521 3.007.214 3.528 1.642.52 1.428-.215 3.007-1.642 3.528l-4.549 1.659c-.31.113-.628.167-.942.167z" stroke="#CBD6E5" stroke-linecap="round" stroke-linejoin="round"/>
            <path d="M151.929 10.718c-.992-2.608-3.062-4.737-5.526-6.047-2.464-1.31-5.298-1.836-8.087-1.78-1.557-.112-2.75-.092-4.264.156-1.601.26-3.384 2.053-4.205 3.452-1.878 3.196-3.42 6.76-4.018 10.418.548-.579 2.032-1.52 2.58-2.1-1.025 1.806-1.653 3.817-1.894 5.876 1.815 3.405 3.667 6.813 5.22 9.625.754 1.37 1.16 3.893.05 4.898.937 1.034 1.994 1.93 3.116 2.413 0 0 4.72 1.966 9.547-1.892 2.055-1.643 3.966-4.788 4.529-7.358l1.336-6.108 1.392 2.854c.286-1.856.533-3.718.74-5.584.327-2.957.54-6.041-.516-8.823" fill="#D3DDE7"/>
            <path d="M151.929 10.718c-.992-2.608-3.062-4.737-5.526-6.047-2.464-1.31-5.298-1.836-8.087-1.78-1.557-.112-2.75-.092-4.264.156-1.601.26-3.384 2.053-4.205 3.452-1.878 3.196-3.42 6.76-4.018 10.418.548-.579 2.032-1.52 2.58-2.1-1.025 1.806-1.653 3.817-1.894 5.876 1.815 3.405 3.667 6.813 5.22 9.625.754 1.37 1.16 3.893.05 4.898.937 1.034 1.994 1.93 3.116 2.413 0 0 4.72 1.966 9.547-1.892 2.055-1.643 3.966-4.788 4.529-7.358l1.336-6.108 1.392 2.854c.286-1.856.533-3.718.74-5.584.327-2.957.54-6.041-.516-8.823z" stroke="#CBD6E5" stroke-linecap="round" stroke-linejoin="round"/>
            <path d="M142.746 32.625c-1.072-.793-2.265-1.46-3.506-2.02l-.054-.025c-.293-.13-.59-.255-.887-.374l-.086-.035c-.292-.115-.586-.223-.88-.327-.034-.012-.068-.025-.103-.036-.292-.103-.585-.197-.878-.288-.036-.01-.071-.022-.107-.033-.296-.09-.59-.173-.883-.251l-.094-.025c-.3-.08-.598-.152-.895-.22l-.067-.016c-.305-.068-.606-.131-.905-.188l-.039-.007c-.307-.059-.61-.11-.91-.157h-.003c-1.755-.269-3.535-.446-5.096.547-2.004 1.275-6.786 11.996-9.781 20.191 0 0-1.64 4.541-6.43 4.198 0 0-2.29.296-1.739 2.294 0 0 2.798.519 3.48 2.888.78 2.706-.09 5.503-.09 5.503l.383.784s3.087.379 4.202 3.115c.963 2.363.092 5.319.092 5.319s2.218 1.005 2.843 1.376c0 0 5.916-2.683 9.587-4.508 4.924-2.449 5.407-5.303 5.407-5.303s1.928-5.327 4.19-12.02c0 0 7.831-16.992 3.25-20.382" fill="#F5F8FA"/>
            <path d="M142.746 32.625c-1.072-.793-2.265-1.46-3.506-2.02l-.054-.025c-.293-.13-.59-.255-.887-.374l-.086-.035c-.292-.115-.586-.223-.88-.327-.034-.012-.068-.025-.103-.036-.292-.103-.585-.197-.878-.288-.036-.01-.071-.022-.107-.033-.296-.09-.59-.173-.883-.251l-.094-.025c-.3-.08-.598-.152-.895-.22l-.067-.016c-.305-.068-.606-.131-.905-.188l-.039-.007c-.307-.059-.61-.11-.91-.157h-.003c-1.755-.269-3.535-.446-5.096.547-2.004 1.275-6.786 11.996-9.781 20.191 0 0-1.64 4.541-6.43 4.198 0 0-2.29.296-1.739 2.294 0 0 2.798.519 3.48 2.888.78 2.706-.09 5.503-.09 5.503l.383.784s3.087.379 4.202 3.115c.963 2.363.092 5.319.092 5.319s2.218 1.005 2.843 1.376c0 0 5.916-2.683 9.587-4.508 4.924-2.449 5.407-5.303 5.407-5.303s1.928-5.327 4.19-12.02c0 0 7.831-16.992 3.25-20.382z" stroke="#CBD6E5" stroke-linecap="round" stroke-linejoin="round"/>
            <path d="M134.712 33.932c-.393 0-.792-.07-1.18-.22-1.703-.652-2.555-2.562-1.903-4.264l3.641-9.499c.652-1.702 2.56-2.554 4.265-1.901 1.702.652 2.554 2.562 1.902 4.265l-3.64 9.498c-.505 1.314-1.757 2.121-3.085 2.121" fill="#DEE5EC"/>
            <path d="M134.712 33.932c-.393 0-.792-.07-1.18-.22-1.703-.652-2.555-2.562-1.903-4.264l3.641-9.499c.652-1.702 2.56-2.554 4.265-1.901 1.702.652 2.554 2.562 1.902 4.265l-3.64 9.498c-.505 1.314-1.757 2.121-3.085 2.121z" stroke="#CBD6E5" stroke-linecap="round" stroke-linejoin="round"/>
            <path d="M130.655 12.495c.877-2.46 3.226-5.89 6.287-7.155 1.01 2.522 4.513 10.955 7.322 13.901-1.796 3.363-5.587 7.212-9.947 5.658-5.098-1.816-4.924-8.861-3.662-12.404" fill="#DEE5EC"/>
            <path d="M130.655 12.495c.877-2.46 3.226-5.89 6.287-7.155 1.01 2.522 4.513 10.955 7.322 13.901-1.796 3.363-5.587 7.212-9.947 5.658-5.098-1.816-4.924-8.861-3.662-12.404z" stroke="#CBD6E5" stroke-linecap="round" stroke-linejoin="round"/>
            <path d="M165.344 25.395c-.425.444-10.558 10.899-21.861 14.086-.3.084-.6.125-.897.125-1.442 0-2.767-.951-3.177-2.408-.494-1.754.527-3.579 2.283-4.073 6.602-1.862 13.019-6.942 16.409-9.961" fill="#DEE5EC"/>
            <path d="M165.344 25.395c-.425.444-10.558 10.899-21.861 14.086-.3.084-.6.125-.897.125-1.442 0-2.767-.951-3.177-2.408-.494-1.754.527-3.579 2.283-4.073 6.602-1.862 13.019-6.942 16.409-9.961" stroke="#CBD6E5" stroke-linecap="round" stroke-linejoin="round"/>
            <path d="M91.58 67.678l-8.242 23.66c-.633 1.816-2.336 2.955-4.157 2.955-.48 0-.97-.08-1.449-.246-2.296-.8-3.509-3.31-2.709-5.606l9.11-26.15" fill="#D3DDE7"/>
            <path d="M91.58 67.678l-8.242 23.66c-.633 1.816-2.336 2.955-4.157 2.955-.48 0-.97-.08-1.449-.246-2.296-.8-3.509-3.31-2.709-5.606l9.11-26.15" stroke="#CBD6E5" stroke-linecap="round" stroke-linejoin="round"/>
            <path d="M76.24 100.34c-.455 0-.907-.112-1.315-.333l-4.654-2.53c-1.335-.725-1.83-2.396-1.104-3.731.726-1.334 2.396-1.83 3.732-1.104l1.884 1.023.846-2.234c.538-1.421 2.126-2.136 3.547-1.599 1.422.538 2.138 2.127 1.599 3.548l-1.962 5.183c-.282.743-.87 1.329-1.616 1.606-.31.114-.634.171-.958.171" fill="#DEE5EC"/>
            <path d="M76.24 100.34c-.455 0-.907-.112-1.315-.333l-4.654-2.53c-1.335-.725-1.83-2.396-1.104-3.731.726-1.334 2.396-1.83 3.732-1.104l1.884 1.023.846-2.234c.538-1.421 2.126-2.136 3.547-1.599 1.422.538 2.138 2.127 1.599 3.548l-1.962 5.183c-.282.743-.87 1.329-1.616 1.606-.31.114-.634.171-.958.171zM130.253 28.384s-7.841 22.11-5.202 23.33c2.64 1.219 15.44-20.498 15.44-20.498" stroke="#CBD6E5" stroke-linecap="round" stroke-linejoin="round"/>
            <path d="M124.509 51.33c-.095 1.185-1.493 3.147-2.349 1.396-.855-1.751 2.4-2.042 2.349-1.395" fill="#E4EAEF"/>
            <path d="M124.509 51.33c-.095 1.185-1.493 3.147-2.349 1.396-.855-1.751 2.4-2.042 2.349-1.395z" stroke="#CBD6E5" stroke-linecap="round" stroke-linejoin="round"/>
            <path d="M125.051 51.713c1.082.246 1.466 4.505-.766 3.654-2.232-.85-.316-3.9.766-3.654" fill="#E4EAEF"/>
            <path d="M125.051 51.713c1.082.246 1.466 4.505-.766 3.654-2.232-.85-.316-3.9.766-3.654z" stroke="#CBD6E5" stroke-linecap="round" stroke-linejoin="round"/>
            <path d="M73.341 94.385s-5.284-3.749-6.603-.917" fill="#506E91"/>
            <path d="M73.341 94.385s-5.284-3.749-6.603-.917" stroke="#33475C" stroke-linecap="round" stroke-linejoin="round"/>
            <path d="M59.738 92.325s-.914 1.751-2.822.96v-.004h.001c-1.184-.432-2.395-2.326-3.359-4.735-1.236-3.09-2.933-6.459-.608-7.564 0 0 2.99-1.868 5.631 3.421 0 0 2.194 3.694 1.157 7.922" fill="#D3DDE7"/>
            <path d="M59.738 92.325s-.914 1.751-2.822.96v-.004h.001c-1.184-.432-2.395-2.326-3.359-4.735-1.236-3.09-2.933-6.459-.608-7.564 0 0 2.99-1.868 5.631 3.421 0 0 2.194 3.694 1.157 7.922z" stroke="#CBD6E5" stroke-linecap="round" stroke-linejoin="round"/>
            <g>
                <path d="M56.916 93.285v-.004c.335.123.669.134.993 0 1.62-.671 1.043-3.844.11-6.682 0 0-2.276-6.67-5.069-5.617" fill="#D3DDE7"/>
                <path d="M56.916 93.285v-.004c.335.123.669.134.993 0 1.62-.671 1.043-3.844.11-6.682 0 0-2.276-6.67-5.069-5.617" stroke="#CBD6E5" stroke-linecap="round" stroke-linejoin="round"/>
            </g>
            <path d="M74.782 93.665l-1.883-1.023-.005-.002c-4.998-2.604-6.156.828-6.156.828-1.062 2.346 2.41 3.822 5.349 5.384 2.939 1.562 5.65 2.22 6.38.806 1.777-2.913-3.685-5.993-3.685-5.993" fill="#D3DDE7"/>
            <path d="M74.782 93.665l-1.883-1.023-.005-.002c-4.998-2.604-6.156.828-6.156.828-1.062 2.346 2.41 3.822 5.349 5.384 2.939 1.562 5.65 2.22 6.38.806 1.777-2.913-3.685-5.993-3.685-5.993z" stroke="#CBD6E5" stroke-linecap="round" stroke-linejoin="round"/>
            <g>
                <path d="M78.466 99.658c.804-1.559-1.94-3.32-4.486-4.884-.206-.127-.42-.257-.639-.388 0 0-5.284-3.75-6.603-.918" fill="#D3DDE7"/>
                <path d="M78.466 99.658c.804-1.559-1.94-3.32-4.486-4.884-.206-.127-.42-.257-.639-.388 0 0-5.284-3.75-6.603-.918" stroke="#CBD6E5" stroke-linecap="round" stroke-linejoin="round"/>
            </g>
            <path d="M131.493 11.098c.252-.457.662-.594 1.113-.604.916-.02 1.635.356 2.116 1.147.52.85.644 1.768.393 2.724-.347 1.322-.744 2.629-1.418 3.831-.06.11-.125.217-.168.333-.139.373-.05.571.305.698.047.016.099.014.147.027.203.056.569-.006.553.239-.02.334-.39.209-.613.209-.856 0-1.23-.564-.833-1.337.583-1.132 1.068-2.297 1.401-3.522.224-.821.354-1.641.013-2.48-.415-1.023-1.376-1.52-2.395-1.263-.182.046-.373.116-.614-.002M135.915 21.835c-.349.387-.808.47-1.275.462-1.075-.016-2.033-.38-2.864-1.06-.419-.345-.494-.557-.482-1.284 1.204 1.584 2.752 2.11 4.621 1.882M140.87 14.51s-.169.183-.446-.159l-.005.004c-.371-.782-1.137-1.319-2.06-1.394-.263-.022-.545.026-.792-.137.58-.666 1.662-.635 2.637.064.357.256.862 1.072.666 1.622" fill="#CBD6E5"/>
            <path d="M133.8 14.263c-.034.066-.088.208-.172.327-.24.337-.77.515-1.12.39-.338-.122-.586-.524-.524-.972.018-.135.042-.27.075-.401M139.046 15.865c-.035.067-.089.208-.173.327-.24.338-.77.516-1.12.39-.337-.122-.586-.523-.524-.971.02-.136.042-.271.075-.402" stroke="#CBD6E5" stroke-width=".5" stroke-linecap="round" stroke-linejoin="round"/>
        </g>
    </g>
</svg>
