<?xml version="1.0" encoding="utf-8"?>
<!-- Generator: Adobe Illustrator 24.1.2, SVG Export Plug-In . SVG Version: 6.00 Build 0)  -->
<svg version="1.1" id="Layer_1" xmlns="http://www.w3.org/2000/svg" xmlns:xlink="http://www.w3.org/1999/xlink" x="0px" y="0px"
	 viewBox="0 0 1000 1000" style="enable-background:new 0 0 1000 1000;" xml:space="preserve">
<style type="text/css">
	.st0{fill:#060707;}
	.st1{fill:#E2E5E9;}
	.st2{fill:#C3CAD1;}
	.st3{fill:#B0B6BC;}
	.st4{fill:#424F59;}
	.st5{fill:#5CC446;}
	.st6{fill:#53B13F;}
	.st7{fill:#303A41;}
	.st8{fill:#050504;}
	.st9{fill:#040403;}
	.st10{fill:#F1F1F1;}
	.st11{fill:#F8D765;}
	.st12{fill:#F6BE02;}
	.st13{fill:#EBCD60;}
</style>
<g>
	<path class="st0" d="M775.39,623.01c8.31,1.84,11.63,7.1,11.35,15.47c-0.32,9.78,0.23,19.6-0.19,29.37
		c-0.24,5.57,1.22,6.67,6.53,5.06c24.08-7.28,46.1-2.87,65.21,13.41c19.98,17.02,27.68,39.43,23,64.79
		c-4.87,26.37-20.88,44.73-46.85,52.89c-7.02,2.2-9.82,4.83-9.18,12.36c0.78,9.2,0.46,18.52,0.08,27.77
		c-0.21,5.15,1.35,6.77,6.61,6.69c19.58-0.29,39.18,0.08,58.76-0.22c7.49-0.11,13.13,2.11,16.64,8.9c0,2.65,0,5.3,0,7.96
		c-4.54,6.16-10.9,7.28-18.11,7.28c-259.5-0.08-519.01-0.08-778.51,0c-7.2,0-13.57-1.12-18.11-7.28c0-3.18,0-6.36,0-9.55
		c4.79-6.38,11.46-7.38,18.91-7.29c19.88,0.24,39.77-0.09,59.65,0.2c5.24,0.08,6.82-1.5,6.64-6.69
		c-0.37-10.59-0.27-21.21-0.03-31.81c0.09-4.14-1.21-5.86-5.38-7.09c-51.3-15.16-68.37-72.73-33.7-113.18
		c16.97-19.79,47.16-27.78,73.31-18.74c6.39,2.21,7.27,0.9,7.27-5.33c-0.16-135.47-0.16-270.95,0.01-406.42
		c0.01-5.81-1.28-7.63-7.37-7.64c-14.95-0.02-22.37-7.84-22.47-22.55c-0.08-10.34-0.14-20.68,0.02-31.02
		c0.19-12.4,7.71-20.18,20.07-21.04c1.85-0.13,3.71-0.08,5.56-0.08c106.58,0,213.16,0.03,319.74-0.06
		c9.17-0.01,19.09,0.64,22.29,10.06c6.11,17.98,6.02,36.87,0,54.91c-2.77,8.31-11.5,10.45-19.95,9.88c-5.2-0.35-7.08,1.27-6.7,6.63
		c0.47,6.6,0.48,13.28,0,19.87c-0.42,5.71,1.7,7.05,7.15,7.03c42.68-0.21,85.37-0.11,128.06-0.11c39.77,0,79.54-0.02,119.31,0.01
		c18.39,0.01,25.5,7.08,25.52,25.25c0.01,10.07,0.17,20.15-0.12,30.22c-0.29,9.88-7.14,17.95-17,18.75
		c-6.32,0.51-6.86,3.2-6.85,8.45c0.15,67.87,0.03,135.74,0.19,203.61c0.02,8.52-2.49,14.41-11.37,16.3
		c-10.42-2.71-12.63-5.74-12.63-17.68c-0.01-67.61-0.02-135.22,0.02-202.83c0-4.05,0.76-7.39-5.74-7.37
		c-73.44,0.25-146.89,0.2-220.34,0.06c-4.97-0.01-6.28,1.6-6.2,6.38c0.27,15.37-0.08,30.76,0.17,46.13
		c0.14,8.4-3.09,13.71-11.56,15.37c-10.08-2.71-12.42-5.81-12.43-17.09c-0.03-50.1-0.16-100.21,0.15-150.31
		c0.04-6.91-1.54-8.76-8.64-8.73c-73.17,0.29-146.34,0.18-219.51,0.2c-2.63,0-5.26,0.32-7.89,0.48c-6.88-0.15-13.78-0.01-20.62-0.56
		c-5.61-0.45-7.11,1.53-7.11,7.09c0.15,142.63,0.12,285.26,0.07,427.88c0,3.88,1.01,7.04,3.24,10.28
		c16.72,24.36,16.55,53.95-0.26,78.87c-1.5,2.22-2.95,4.31-2.94,7.18c0.05,20.15,0.08,40.3-0.03,60.44
		c-0.02,3.48,1.29,4.68,4.67,4.56c7.67-0.26,15.35-0.3,23.03-0.43c3.17,0.14,6.33,0.4,9.5,0.4c72.1,0.02,144.19-0.13,216.29,0.22
		c8.31,0.04,10.26-2.11,10.24-10.31c-0.28-119.8-0.2-239.6-0.19-359.4c0-12.8,2.05-15.8,12.54-18.58
		c8.41,1.74,11.63,7.06,11.45,15.42c-0.27,12.72-0.07,25.45-0.07,38.17c0,108.7,0,217.39,0,326.09c0,4.38-1.27,8.61,6.27,8.58
		c73.44-0.27,146.88-0.2,220.32-0.07c4.61,0.01,5.71-1.46,5.66-5.83c-0.22-18.03-0.22-36.06,0.01-54.08
		c0.05-4.1-1.59-6.97-3.89-9.98c-19.37-25.24-19.47-58.85-0.12-83.85c2.74-3.54,4.07-7.03,4-11.54
		c-0.23-15.37-0.15-30.75-0.06-46.13C762.84,628.8,765.44,625.61,775.39,623.01z M815.07,694.05
		c-21.79-1.05-40.31,12.78-45.57,34.03c-5.07,20.44,5.92,42.88,25.01,51.59c5.03,2.29,7.33,1.78,6.75-4.33
		c-0.45-4.78,0.12-9.52,1.71-14.09c3.77-4.85,8.58-7.11,14.58-5.03c6.16,2.14,7.75,7.44,8.08,13.28c0.13,2.37,0.19,4.77,0.01,7.13
		c-0.37,4.93,1.68,5.07,5.64,3.51c18.91-7.43,30.56-29.5,26.53-50.66C853.97,709.27,835.46,693.93,815.07,694.05z M179.21,761.24
		c3.77-4.85,8.58-7.11,14.58-5.03c6.16,2.14,7.75,7.44,8.08,13.28c0.13,2.37,0.19,4.77,0.01,7.13c-0.37,4.93,1.68,5.07,5.64,3.51
		c18.91-7.43,30.56-29.5,26.53-50.66c-3.85-20.21-22.35-35.55-42.74-35.43c-21.79-1.05-40.31,12.78-45.57,34.03
		c-5.07,20.44,5.91,42.86,25.01,51.58c5.03,2.3,7.33,1.78,6.75-4.33C177.04,770.56,177.61,765.82,179.21,761.24z M569.95,312.03
		c-6.86-0.04-13.72-0.1-20.57-0.1c-19.93-0.01-19.77-0.01-19.17,19.68c0.15,4.88,1.79,6.41,6.51,6.3
		c11.07-0.27,22.15-0.15,33.23-0.18c66.21,0.04,132.42,0.08,198.63,0.11c18.22,0.01,17.96,0,18.06-18.52
		c0.03-6.06-1.91-7.54-7.73-7.52C709.26,312.02,639.6,311.99,569.95,312.03z M384.89,230.66c44.51,0,89.03,0,133.54,0
		c18.26,0,17.9-0.01,18.35-18.34c0.18-7.16-2.03-8.78-8.93-8.76c-73.66,0.25-147.32,0.15-220.98,0.15c-2.91,0-5.84,0.08-8.74-0.18
		c-26.72-2.4-53.44-0.56-80.09,0.69c-8.93,0.42-5.83,11.3-6.06,14.32c-0.2,2.57-1.79,10.25,6.07,11.01c0.26,0.03,0.53,0,0.79,0.01
		c10.83,0.37,21.66,1.03,32.49,1.06C295.86,230.73,340.37,230.66,384.89,230.66z M219.34,826.61c0-4.76,0-9.52,0-14.28
		c0-10.47,0.13-9.82-9.95-7.77c-6.7,1.37-8.4,4.21-8.02,10.6c0.56,9.49,0.7,19.07-0.03,28.53c-0.57,7.37,3.23,7.58,8.51,7.22
		c4.67-0.32,10.59,1.87,9.61-6.87C218.82,838.3,219.34,832.42,219.34,826.61z M786.58,803.28c0,14.24,0.21,28.5-0.1,42.75
		c-0.13,5.68,3.39,5.15,6.71,4.75c3.27-0.39,8.62,2.64,8.51-4.56c-0.14-8.72-0.03-17.45-0.03-26.17c0-13.54,0-13.55-13.08-16.85
		C788.09,803.08,787.54,803.24,786.58,803.28z"/>
	<path class="st1" d="M775.39,623.01c-9.96,2.6-12.55,5.79-12.61,16.1c-0.08,15.38-0.16,30.76,0.06,46.13c0.07,4.51-1.26,8-4,11.54
		c-19.35,24.99-19.25,58.6,0.12,83.85c2.3,3,3.94,5.88,3.89,9.98c-0.23,18.02-0.23,36.06-0.01,54.08c0.05,4.37-1.05,5.84-5.66,5.83
		c-73.44-0.14-146.88-0.21-220.32,0.07c-7.53,0.03-6.27-4.21-6.27-8.58c0-108.7,0-217.39,0-326.09c0-12.73-0.2-25.46,0.07-38.17
		c0.18-8.36-3.05-13.69-11.45-15.42c-0.03-10.74-0.07-21.48-0.1-32.22c8.46-1.66,11.69-6.97,11.56-15.37
		c-0.26-15.37,0.1-30.76-0.17-46.13c-0.08-4.78,1.23-6.39,6.2-6.38c73.45,0.14,146.89,0.19,220.34-0.06
		c6.5-0.02,5.74,3.31,5.74,7.37c-0.03,67.61-0.03,135.22-0.02,202.83c0,11.93,2.21,14.97,12.63,17.68
		C775.4,601.02,775.39,612.01,775.39,623.01z M632.29,542.27c0-9.01,0.13-18.03-0.03-27.04c-0.21-11.99-7.63-20.19-19.48-20.69
		c-11.91-0.5-23.87-0.49-35.78,0.03c-11.27,0.49-19.19,8.78-19.39,20.17c-0.32,18.29-0.35,36.59,0.02,54.88
		c0.23,11.33,8.36,19.49,19.67,19.91c11.91,0.44,23.87,0.46,35.78-0.04c11.45-0.48,18.9-8.64,19.15-20.18
		C632.44,560.31,632.28,551.29,632.29,542.27z M729.37,542.87c0-8.75,0-17.5,0-26.25c0-0.53,0-1.06-0.02-1.59
		c-0.37-11.64-7.49-19.86-18.92-20.4c-12.17-0.57-24.4-0.55-36.56-0.03c-10.92,0.47-18.91,8.61-19.15,19.56
		c-0.4,18.55-0.39,37.12-0.01,55.67c0.23,10.96,8.26,19.19,19.07,19.64c12.17,0.51,24.4,0.52,36.57,0
		c11.33-0.48,18.73-8.78,18.96-20.35C729.49,560.37,729.35,551.62,729.37,542.87z M632.3,431.49c0-8.75,0-17.5,0-26.25
		c0-0.53,0-1.06-0.02-1.59c-0.39-11.89-7.89-20.02-19.79-20.45c-11.65-0.43-23.34-0.41-34.99,0.02
		c-11.34,0.41-19.62,8.49-19.86,19.73c-0.4,18.55-0.4,37.12,0.01,55.67c0.24,10.95,8.23,19.08,19.15,19.55
		c12.17,0.52,24.4,0.54,36.56-0.03c11.42-0.54,18.66-8.76,18.88-20.4C632.43,448.99,632.29,440.23,632.3,431.49z M729.36,431.06
		c0-9.01,0.12-18.03-0.03-27.04c-0.21-12-7.67-20.31-19.41-20.77c-11.91-0.47-23.87-0.47-35.78,0.01
		c-11.23,0.45-19.25,8.74-19.46,20.11c-0.34,18.29-0.35,36.59,0.01,54.88c0.22,11.35,8.24,19.51,19.6,19.97
		c11.91,0.49,23.87,0.5,35.78-0.02c11.55-0.51,18.97-8.59,19.23-20.09C729.51,449.09,729.34,440.07,729.36,431.06z M632.29,653.69
		c0-9.01,0.13-18.03-0.03-27.04c-0.22-12.31-7.77-20.4-20.18-20.88c-11.38-0.45-22.81-0.45-34.19,0.01
		c-12.16,0.48-20.15,8.8-20.32,20.99c-0.25,17.76-0.27,35.52,0.01,53.28c0.19,12.24,8.32,20.46,20.42,20.79
		c11.39,0.31,22.8,0.32,34.19-0.01c12.31-0.35,19.86-8.38,20.07-20.89C632.41,671.19,632.29,662.44,632.29,653.69z M729.37,653.67
		c0-8.48,0-16.97,0-25.45c0-0.53,0-1.06-0.01-1.59c-0.33-12.01-7.57-20.23-19.44-20.77c-11.9-0.54-23.87-0.53-35.77,0.02
		c-11.33,0.52-19.25,8.77-19.46,20.13c-0.33,18.28-0.36,36.59,0.02,54.87c0.24,11.68,8.6,19.66,20.39,19.97
		c11.39,0.3,22.8,0.32,34.19-0.01c12.29-0.36,19.83-8.41,20.04-20.92C729.48,671.16,729.36,662.41,729.37,653.67z M729.37,764.09
		c0-8.22,0-16.44,0-24.65c0-0.53,0-1.06-0.01-1.59c-0.34-11.87-7.71-20.22-19.53-20.79c-11.64-0.56-23.34-0.53-34.98-0.04
		c-12.05,0.51-20.04,9.02-20.2,21.19c-0.24,17.76-0.27,35.53,0.02,53.28c0.2,12.22,8.42,20.38,20.53,20.68
		c11.39,0.28,22.8,0.29,34.19-0.02c11.92-0.33,19.66-8.3,19.92-20.22C729.5,782.65,729.34,773.37,729.37,764.09z M632.29,764.95
		c0-9.01,0.13-18.03-0.03-27.04c-0.21-11.9-7.64-20.27-19.44-20.84c-11.9-0.57-23.87-0.56-35.77,0.03
		c-11.27,0.56-19.22,8.96-19.43,20.25c-0.33,18.29-0.36,36.59,0.02,54.87c0.25,11.69,8.64,19.66,20.42,19.94
		c11.39,0.28,22.8,0.29,34.19-0.02c11.94-0.32,19.71-8.27,19.98-20.16C632.44,782.98,632.28,773.96,632.29,764.95z"/>
	<path class="st2" d="M519.13,430.1c0.03,10.74,0.07,21.48,0.1,32.22c-10.49,2.78-12.54,5.78-12.54,18.58
		c-0.01,119.8-0.09,239.6,0.19,359.4c0.02,8.19-1.92,10.35-10.24,10.31c-72.09-0.36-144.19-0.2-216.29-0.22
		c-3.17,0-6.33-0.26-9.5-0.4c-0.01-198.44-0.02-396.89-0.04-595.33c2.63-0.17,5.26-0.48,7.89-0.48
		c73.17-0.03,146.34,0.09,219.51-0.2c7.1-0.03,8.68,1.82,8.64,8.73c-0.32,50.1-0.19,100.2-0.15,150.31
		C506.71,424.28,509.05,427.38,519.13,430.1z M380.83,771.96c10.77-0.03,21.53-0.05,32.3-0.08c1.29,8.55,6.56,12.19,14.89,12.1
		c2.91-0.03,5.83,0.07,8.74-0.01c14.71-0.4,22.5-7.98,22.57-22.73c0.16-34.97,0.17-69.95,0-104.92
		c-0.07-14.49-8.32-22.49-22.85-22.52c-41.07-0.09-82.14-0.09-123.21,0c-14.34,0.03-22.68,8.26-22.75,22.7
		c-0.16,34.97-0.17,69.95,0,104.92c0.07,14.21,8,22.27,22.06,22.49c17.75,0.27,35.5,0.04,53.26,0.08
		C374.11,784.01,379.51,780.56,380.83,771.96z M375.12,430.74c20.41,0,40.82,0.13,61.22-0.04c15.2-0.13,22.93-7.86,22.99-23.1
		c0.14-34.72,0.15-69.44-0.01-104.15c-0.07-14.93-8.27-22.87-23.29-22.89c-40.55-0.07-81.1-0.06-121.65-0.01
		c-15.83,0.02-23.86,8.04-23.9,24c-0.08,33.92-0.07,67.85-0.01,101.77c0.03,16.6,7.7,24.33,24.21,24.41
		C334.84,430.82,354.98,430.74,375.12,430.74z M375.27,457.15c-20.14,0-40.29-0.03-60.43,0.01c-16.36,0.04-24.32,7.94-24.35,24.35
		c-0.07,33.92-0.07,67.85,0,101.77c0.04,16.09,7.79,24.01,23.76,24.05c40.55,0.1,81.1,0.11,121.65-0.01
		c15.69-0.04,23.39-7.76,23.45-23.45c0.12-34.45,0.12-68.91,0-103.36c-0.06-15.45-8.14-23.3-23.65-23.35
		C415.55,457.1,395.41,457.15,375.27,457.15z"/>
	<path class="st3" d="M270.82,254.65c0.01,198.44,0.02,396.89,0.04,595.33c-7.68,0.13-15.35,0.17-23.03,0.43
		c-3.38,0.12-4.69-1.08-4.67-4.56c0.11-20.15,0.08-40.3,0.03-60.44c-0.01-2.87,1.44-4.96,2.94-7.18
		c16.81-24.92,16.98-54.51,0.26-78.87c-2.23-3.24-3.24-6.4-3.24-10.28c0.06-142.63,0.08-285.26-0.07-427.88
		c-0.01-5.56,1.49-7.54,7.11-7.09C257.04,254.64,263.94,254.5,270.82,254.65z"/>
	<path class="st4" d="M384.89,230.66c-44.51,0-89.03,0.07-133.54-0.05c-10.83-0.03-21.66-0.69-32.49-1.06
		c-0.26-0.01-0.53,0.01-0.79-0.01c-7.86-0.76-6.27-6.69-6.07-11.01c0.15-3.23-2.87-13.9,6.06-14.32
		c26.65-1.24,53.38-3.08,80.09-0.69c2.89,0.26,5.82,0.18,8.74,0.18c73.66,0.01,147.32,0.1,220.98-0.15c6.89-0.02,9.1,1.6,8.93,8.76
		c-0.45,18.33-0.09,18.34-18.35,18.34C473.91,230.66,429.4,230.66,384.89,230.66z"/>
	<path class="st4" d="M569.95,312.03c69.65-0.04,139.31-0.01,208.96-0.23c5.82-0.02,7.76,1.46,7.73,7.52
		c-0.1,18.52,0.16,18.53-18.06,18.52c-66.21-0.03-132.42-0.07-198.63-0.11C569.95,329.16,569.95,320.59,569.95,312.03z"/>
	<path class="st5" d="M191.3,694.05c20.39-0.12,38.89,15.21,42.74,35.43c4.03,21.16-7.62,43.23-26.53,50.66
		c-3.96,1.55-6.01,1.42-5.64-3.51c0.18-2.36,0.12-4.76-0.01-7.13c-0.33-5.84-1.91-11.14-8.08-13.28c-6-2.08-10.81,0.18-14.58,5.03
		c-3.28-1.1-3.76-4.11-4.63-6.83c-4.25-13.35-2.47-26.11,2.61-39.02C180.45,707.11,187.83,701.95,191.3,694.05z"/>
	<path class="st5" d="M815.07,694.05c20.39-0.12,38.89,15.21,42.74,35.43c4.03,21.16-7.62,43.23-26.53,50.66
		c-3.96,1.56-6.01,1.42-5.64-3.51c0.18-2.36,0.12-4.76-0.01-7.13c-0.33-5.84-1.91-11.14-8.08-13.28c-6-2.08-10.81,0.18-14.58,5.03
		c-3.28-1.1-3.77-4.11-4.63-6.83c-4.31-13.64-2.4-26.6,2.95-39.73C804.56,706.67,811.83,701.8,815.07,694.05z"/>
	<path class="st6" d="M191.3,694.05c-3.47,7.9-10.85,13.06-14.11,21.34c-5.08,12.91-6.86,25.67-2.61,39.02
		c0.86,2.71,1.35,5.73,4.63,6.83c-1.6,4.57-2.16,9.31-1.71,14.1c0.58,6.1-1.72,6.63-6.75,4.33c-19.1-8.72-30.08-31.14-25.01-51.58
		C150.99,706.83,169.51,693.01,191.3,694.05z"/>
	<path class="st6" d="M815.07,694.05c-3.24,7.74-10.51,12.62-13.78,20.63c-5.35,13.13-7.25,26.1-2.95,39.73
		c0.86,2.71,1.35,5.73,4.63,6.83c-1.6,4.57-2.17,9.31-1.71,14.1c0.58,6.11-1.72,6.62-6.75,4.33c-19.09-8.71-30.08-31.14-25.01-51.59
		C774.77,706.83,793.28,693.01,815.07,694.05z"/>
	<path class="st7" d="M569.95,312.03c0,8.57,0,17.13,0,25.7c-11.08,0.04-22.16-0.09-33.23,0.18c-4.72,0.12-6.36-1.42-6.51-6.3
		c-0.6-19.69-0.76-19.69,19.17-19.68C556.24,311.93,563.09,311.99,569.95,312.03z"/>
	<path class="st8" d="M632.29,542.27c-0.01,9.01,0.15,18.03-0.05,27.04c-0.25,11.54-7.71,19.7-19.15,20.18
		c-11.91,0.5-23.87,0.48-35.78,0.04c-11.31-0.42-19.44-8.58-19.67-19.91c-0.37-18.29-0.34-36.59-0.02-54.88
		c0.2-11.4,8.12-19.68,19.39-20.17c11.91-0.52,23.87-0.53,35.78-0.03c11.86,0.49,19.27,8.7,19.48,20.69
		C632.42,524.24,632.29,533.26,632.29,542.27z M608.41,542.11c0-1.32,0-2.65,0-3.97c0-21.17,0.01-21.05-21.7-19.98
		c-4.12,0.2-5.47,1.43-5.4,5.55c0.22,12.17,0.2,24.35,0.01,36.53c-0.06,3.94,0.9,5.86,5.25,5.64c5.54-0.29,11.13-0.32,16.67,0.01
		c4.35,0.26,5.43-1.51,5.24-5.51C608.21,554.3,608.41,548.2,608.41,542.11z"/>
	<path class="st8" d="M729.36,542.87c-0.01,8.75,0.13,17.5-0.04,26.25c-0.24,11.57-7.63,19.87-18.96,20.35
		c-12.17,0.52-24.4,0.5-36.57,0c-10.81-0.45-18.84-8.68-19.07-19.64c-0.39-18.55-0.39-37.12,0.01-55.67
		c0.24-10.95,8.23-19.09,19.15-19.56c12.17-0.52,24.4-0.54,36.56,0.03c11.43,0.54,18.55,8.76,18.92,20.4
		c0.02,0.53,0.02,1.06,0.02,1.59C729.37,525.37,729.37,534.12,729.36,542.87z M705.48,541.14c-0.74-6.54,3.17-16.2-1.59-21.67
		c-3.04-3.49-12.95-1.02-19.78-1.21c-0.26-0.01-0.53,0.03-0.79,0c-3.88-0.45-4.98,1.41-4.93,5.11c0.17,12.44,0.04,24.88,0.09,37.32
		c0.01,2-0.63,4.9,2.44,4.93c7.89,0.1,16.38,1.44,23.4-1.12c3.43-1.24,0.73-10.24,1.13-15.71
		C705.61,546.69,705.48,544.56,705.48,541.14z"/>
	<path class="st8" d="M632.3,431.49c-0.01,8.75,0.13,17.5-0.04,26.25c-0.23,11.65-7.46,19.87-18.88,20.4
		c-12.17,0.57-24.4,0.55-36.56,0.03c-10.92-0.47-18.91-8.61-19.15-19.55c-0.4-18.55-0.41-37.12-0.01-55.67
		c0.24-11.24,8.52-19.32,19.86-19.73c11.65-0.43,23.34-0.44,34.99-0.02c11.9,0.43,19.4,8.57,19.79,20.45
		c0.02,0.53,0.02,1.06,0.02,1.59C632.3,413.99,632.3,422.74,632.3,431.49z M581.39,430.69c0,1.06,0,2.12,0,3.18
		c0,21.8-0.01,21.66,21.9,20.76c4.35-0.18,5.25-1.68,5.19-5.61c-0.2-12.17-0.19-24.35,0-36.52c0.06-3.86-0.63-5.91-5.14-5.62
		c-5.54,0.36-11.12,0.29-16.67,0.02c-4.22-0.21-5.54,1.45-5.36,5.53C581.59,418.51,581.39,424.6,581.39,430.69z"/>
	<path class="st8" d="M729.35,431.06c-0.01,9.01,0.15,18.03-0.05,27.04c-0.26,11.5-7.68,19.58-19.23,20.09
		c-11.91,0.52-23.87,0.51-35.78,0.02c-11.36-0.46-19.38-8.62-19.6-19.97c-0.36-18.29-0.35-36.59-0.01-54.88
		c0.21-11.38,8.24-19.66,19.46-20.11c11.91-0.48,23.87-0.48,35.78-0.01c11.74,0.46,19.2,8.77,19.41,20.77
		C729.49,413.03,729.36,422.04,729.35,431.06z M678.45,430.67c0,1.06,0,2.12,0,3.18c0,21.81-0.01,21.67,21.88,20.78
		c4.32-0.18,5.35-1.62,5.21-5.58c-0.25-7.14-0.07-14.29-0.07-21.44c0-21.91,0-21.91-21.72-20.64c-0.26,0.02-0.53,0.03-0.79,0
		c-3.42-0.31-4.66,1.25-4.56,4.64C678.59,417.96,678.46,424.31,678.45,430.67z"/>
	<path class="st9" d="M632.29,653.69c0,8.75,0.12,17.5-0.03,26.24c-0.21,12.51-7.76,20.54-20.07,20.89
		c-11.39,0.33-22.8,0.32-34.19,0.01c-12.09-0.33-20.23-8.54-20.42-20.79c-0.27-17.76-0.26-35.52-0.01-53.28
		c0.17-12.19,8.16-20.51,20.32-20.99c11.38-0.45,22.81-0.45,34.19-0.01c12.4,0.49,19.96,8.57,20.18,20.88
		C632.42,635.67,632.29,644.68,632.29,653.69z M608.42,653.46c0-1.32,0-2.65,0-3.97c0-21.23,0.01-21.12-21.67-20.1
		c-4.05,0.19-5.53,1.27-5.45,5.48c0.24,12.18,0.2,24.37,0.02,36.55c-0.06,3.85,0.66,5.95,5.15,5.71c5.81-0.31,11.66-0.23,17.47-0.02
		c3.47,0.13,4.64-1.15,4.53-4.57C608.27,666.18,608.41,659.82,608.42,653.46z"/>
	<path class="st9" d="M729.36,653.67c0,8.75,0.12,17.5-0.03,26.24c-0.21,12.51-7.76,20.56-20.04,20.92
		c-11.39,0.33-22.8,0.31-34.19,0.01c-11.79-0.31-20.15-8.29-20.39-19.97c-0.38-18.28-0.35-36.58-0.02-54.87
		c0.21-11.36,8.13-19.61,19.46-20.13c11.9-0.55,23.87-0.56,35.77-0.02c11.87,0.54,19.11,8.76,19.44,20.77
		c0.01,0.53,0.01,1.06,0.01,1.59C729.37,636.7,729.37,645.18,729.36,653.67z M678.45,652.45c0,1.32,0,2.65,0,3.97
		c0,21.68-0.01,21.54,21.88,20.74c4.31-0.16,5.31-1.54,5.24-5.54c-0.22-12.18-0.19-24.37-0.01-36.55c0.06-3.85-0.58-5.98-5.16-5.68
		c-5.54,0.36-11.13,0.29-16.68,0.02c-4.23-0.2-5.54,1.47-5.34,5.55C678.66,640.79,678.45,646.63,678.45,652.45z"/>
	<path class="st9" d="M729.36,764.09c-0.01,9.28,0.15,18.56-0.05,27.83c-0.26,11.92-8,19.89-19.92,20.22
		c-11.39,0.31-22.8,0.3-34.19,0.02c-12.11-0.29-20.33-8.46-20.53-20.68c-0.29-17.76-0.26-35.52-0.02-53.28
		c0.16-12.17,8.15-20.68,20.2-21.19c11.64-0.49,23.34-0.53,34.98,0.04c11.82,0.57,19.19,8.92,19.53,20.79
		c0.02,0.53,0.01,1.06,0.01,1.59C729.37,747.65,729.37,755.87,729.36,764.09z M705.48,762.72c-0.64-5.9,3.02-15.27-1.36-20.64
		c-3.59-4.39-13.01-0.92-19.82-1.36c-0.53-0.03-1.06,0.03-1.59,0c-2.93-0.17-4.32,0.97-4.29,4.12c0.1,13.26,0.08,26.52,0.02,39.77
		c-0.01,2.74,1.26,3.42,3.79,3.79c21.32,3.11,23.26,1.56,23.26-19.2C705.48,767.62,705.48,766.03,705.48,762.72z"/>
	<path class="st9" d="M632.28,764.95c-0.01,9.01,0.16,18.03-0.05,27.04c-0.27,11.89-8.04,19.84-19.98,20.16
		c-11.39,0.3-22.8,0.29-34.19,0.02c-11.78-0.29-20.17-8.25-20.42-19.94c-0.39-18.28-0.35-36.59-0.02-54.87
		c0.2-11.3,8.16-19.69,19.43-20.25c11.9-0.59,23.87-0.6,35.77-0.03c11.81,0.56,19.23,8.94,19.44,20.84
		C632.41,746.92,632.29,755.94,632.28,764.95z M608.42,763.18c-0.54-6.36,2.99-15.73-1.37-21.09c-3.57-4.39-13-0.92-19.82-1.36
		c-0.53-0.03-1.06,0.03-1.59,0c-2.93-0.18-4.31,0.98-4.29,4.13c0.1,13.26,0.08,26.52,0.02,39.77c-0.01,2.74,1.26,3.42,3.8,3.79
		c21.33,3.1,23.26,1.56,23.26-19.21C608.42,767.62,608.42,766.03,608.42,763.18z"/>
	<path class="st9" d="M375.12,430.74c-20.14,0-40.29,0.08-60.43-0.02c-16.52-0.08-24.18-7.81-24.21-24.41
		c-0.06-33.92-0.08-67.85,0.01-101.77c0.04-15.95,8.07-23.98,23.9-24c40.55-0.05,81.1-0.06,121.65,0.01
		c15.02,0.02,23.23,7.96,23.29,22.89c0.15,34.72,0.15,69.44,0.01,104.15c-0.06,15.24-7.79,22.97-22.99,23.1
		C415.94,430.87,395.53,430.74,375.12,430.74z M375.08,390.01c-18.01,0-36.03,0.25-54.03-0.14c-5.79-0.13-7.59,1.78-6.76,7.16
		c0.67,4.31-2.6,10.13,6.47,10.02c36.02-0.41,72.04-0.44,108.06,0.04c8.06,0.11,6.64-4.33,6.7-8.98c0.06-4.51,0.99-8.55-6.43-8.3
		C411.12,390.42,393.09,390.01,375.08,390.01z M410.02,335.26c0,3.97,0,7.94,0,11.91c0,20-0.01,19.85,20.25,19.13
		c4.23-0.15,5.4-1.47,5.34-5.5c-0.2-12.43-0.07-24.87-0.07-37.31c0-20.17,0.01-20.03-20.25-19.2c-4.27,0.17-5.43,1.59-5.33,5.58
		C410.17,318.32,410.02,326.79,410.02,335.26z M339.7,336.03c0-4.23,0-8.45,0-12.68c0-19.62,0-19.4-19.49-19.1
		c-5.28,0.08-6.04,2.14-5.96,6.59c0.22,12.15,0.08,24.3,0.08,36.46c0,19.49,0,19.35,19.55,18.99c4.33-0.08,6.12-1.02,5.92-5.69
		C339.45,352.42,339.7,344.22,339.7,336.03z M386.33,335.22c0-5.04,0-10.07,0-15.11c0-15.93-0.01-15.58-15.67-15.92
		c-6.34-0.14-7.44,2.13-7.27,7.76c0.39,12.44,0.12,24.91,0.12,37.37c0,17.84-0.01,17.65,17.67,17c4.41-0.16,5.3-1.78,5.21-5.66
		C386.18,352.19,386.33,343.71,386.33,335.22z"/>
	<path class="st9" d="M375.27,457.15c20.14,0,40.29-0.05,60.43,0.02c15.51,0.05,23.59,7.9,23.65,23.35
		c0.13,34.45,0.12,68.91,0,103.36c-0.06,15.69-7.76,23.41-23.45,23.45c-40.55,0.12-81.1,0.11-121.65,0.01
		c-15.97-0.04-23.72-7.96-23.76-24.05c-0.08-33.92-0.07-67.85,0-101.77c0.03-16.41,7.99-24.31,24.35-24.35
		C334.98,457.12,355.12,457.15,375.27,457.15z M375.12,566.63c-17.75,0-35.5,0.33-53.23-0.17c-6.49-0.18-8.16,1.89-7.7,7.96
		c0.38,5.09-0.82,9.4,7.34,9.29c35.75-0.48,71.51-0.48,107.26,0c8.03,0.11,6.71-4.25,6.74-8.94c0.03-4.48,1.07-8.58-6.39-8.33
		C411.15,567.04,393.13,566.63,375.12,566.63z M435.54,512.61c0-4.23,0-8.47,0-12.7c0-19.54,0-19.31-19.65-19.05
		c-5.33,0.07-6.02,2.2-5.95,6.6c0.2,12.17,0.07,24.34,0.07,36.51c0,19.1,0,18.92,18.85,18.94c5.03,0.01,7.07-1.1,6.78-6.5
		C435.22,528.51,435.54,520.55,435.54,512.61z M314.33,511.86c0,3.96,0,7.93,0,11.89c0,20.08-0.01,19.93,20.17,19.17
		c4.26-0.16,5.34-1.53,5.27-5.52c-0.2-12.41-0.07-24.83-0.07-37.25c0-20.25,0.01-20.1-20.11-19.24c-4.26,0.18-5.43,1.59-5.33,5.59
		C314.48,494.95,314.33,503.4,314.33,511.86z M386.33,512.19c0-5.04,0-10.07,0-15.11c0-16.37,0-16.15-16.12-16.22
		c-5.1-0.02-6.96,1.19-6.81,6.58c0.37,12.98,0.12,25.97,0.12,38.96c0,17.15,0,16.93,17.32,16.57c4.88-0.1,5.67-1.98,5.56-6.13
		C386.17,528.63,386.33,520.41,386.33,512.19z"/>
	<path class="st9" d="M380.83,771.96c-1.32,8.6-6.72,12.05-14.99,12.03c-17.75-0.04-35.51,0.19-53.26-0.08
		c-14.06-0.21-21.99-8.28-22.06-22.49c-0.17-34.97-0.16-69.95,0-104.92c0.07-14.44,8.41-22.67,22.75-22.7
		c41.07-0.1,82.14-0.09,123.21,0c14.52,0.03,22.77,8.03,22.85,22.52c0.17,34.97,0.17,69.95,0,104.92
		c-0.07,14.76-7.86,22.34-22.57,22.73c-2.91,0.08-5.83-0.02-8.74,0.01c-8.33,0.09-13.6-3.55-14.89-12.1
		c1.65-9.52,8.06-12.37,16.75-11.74c8.92,0.65,4.92-6.04,5.56-9.86c0.69-4.18,0.48-7.26-5.79-7.2
		c-36.31,0.34-72.64,0.39-108.95-0.02c-7.42-0.08-6.35,3.9-6.4,8.38c-0.06,4.87-0.98,9.24,6.89,8.88
		c14.81-0.68,29.68-0.11,44.53-0.23C374.03,760.02,379.36,763.45,380.83,771.96z M435.54,688.88c0-8.73,1.22-17.68-0.3-26.14
		c-2-11.12-11.56-2.87-17.39-4.86c-3.14-1.07-8.05-1.9-7.93,4.97c0.31,17.19-1.08,34.51,0.53,51.56
		c1.04,10.99,11.44,2.78,17.27,4.77c3.05,1.04,8.24,2.1,7.91-4.89C435.24,705.83,435.54,697.35,435.54,688.88z M339.69,688.59
		c0-8.72-0.17-17.44,0.05-26.15c0.18-7.13-5.31-5.27-8.27-4.55c-5.72,1.39-15.75-5.47-16.7,4.55c-1.62,17.28-1.22,34.88-0.15,52.25
		c0.61,9.88,9.53,3.63,14.44,4.35c3.26,0.48,10.33,4.29,10.57-4.29C339.88,706.03,339.69,697.31,339.69,688.59z M363.51,688.46
		c0,4.77,0,9.54,0,14.31c0,17.24,0,17.06,17.08,16.79c4.54-0.07,5.9-1.39,5.82-5.86c-0.24-13.25-0.09-26.5-0.09-39.75
		c0-17.25,0.01-17.09-17.47-16.45c-4.17,0.16-5.54,1.39-5.41,5.52C363.69,671.49,363.52,679.98,363.51,688.46z"/>
	<path class="st10" d="M380.83,771.96c-1.47-8.51-6.8-11.94-15.13-11.87c-14.84,0.12-29.71-0.45-44.53,0.23
		c-7.87,0.36-6.94-4.01-6.89-8.88c0.05-4.47-1.02-8.46,6.4-8.38c36.31,0.41,72.64,0.36,108.95,0.02c6.26-0.06,6.48,3.02,5.79,7.2
		c-0.64,3.82,3.37,10.51-5.56,9.86c-8.69-0.63-15.1,2.21-16.75,11.74C402.36,771.91,391.59,771.93,380.83,771.96z"/>
	<path class="st11" d="M608.41,542.11c0,6.09-0.2,12.18,0.07,18.26c0.18,4-0.89,5.77-5.24,5.51c-5.54-0.34-11.12-0.3-16.67-0.01
		c-4.35,0.22-5.31-1.69-5.25-5.64c0.19-12.17,0.21-24.35-0.01-36.53c-0.07-4.12,1.28-5.34,5.4-5.55c21.7-1.07,21.7-1.19,21.7,19.98
		C608.41,539.46,608.41,540.79,608.41,542.11z"/>
	<path class="st11" d="M705.48,541.14c0,3.42,0.13,5.55-0.03,7.66c-0.4,5.47,2.3,14.47-1.13,15.71c-7.02,2.55-15.52,1.21-23.4,1.12
		c-3.08-0.04-2.44-2.93-2.44-4.93c-0.04-12.44,0.09-24.88-0.09-37.32c-0.05-3.7,1.05-5.55,4.93-5.11c0.26,0.03,0.53-0.01,0.79,0
		c6.83,0.2,16.74-2.28,19.78,1.21C708.65,524.94,704.74,534.6,705.48,541.14z"/>
	<path class="st11" d="M581.39,430.69c0-6.09,0.2-12.18-0.07-18.26c-0.18-4.08,1.13-5.74,5.36-5.53c5.55,0.27,11.13,0.34,16.67-0.02
		c4.51-0.29,5.2,1.76,5.14,5.62c-0.19,12.17-0.2,24.35,0,36.52c0.06,3.92-0.84,5.43-5.19,5.61c-21.91,0.9-21.9,1.05-21.9-20.76
		C581.39,432.81,581.39,431.75,581.39,430.69z"/>
	<path class="st11" d="M678.46,430.67c0-6.35,0.13-12.71-0.05-19.06c-0.1-3.39,1.14-4.96,4.56-4.64c0.26,0.02,0.53,0.01,0.79,0
		c21.72-1.27,21.72-1.27,21.72,20.64c0,7.15-0.18,14.3,0.07,21.44c0.14,3.96-0.89,5.4-5.21,5.58c-21.89,0.89-21.88,1.03-21.88-20.78
		C678.45,432.78,678.45,431.72,678.46,430.67z"/>
	<path class="st11" d="M608.41,653.46c0,6.36-0.15,12.72,0.06,19.07c0.11,3.43-1.06,4.7-4.53,4.57c-5.82-0.21-11.66-0.29-17.47,0.02
		c-4.48,0.24-5.21-1.86-5.15-5.71c0.18-12.18,0.22-24.37-0.02-36.55c-0.08-4.2,1.4-5.29,5.45-5.48c21.67-1.02,21.67-1.13,21.67,20.1
		C608.42,650.81,608.42,652.14,608.41,653.46z"/>
	<path class="st11" d="M678.45,652.45c0-5.83,0.21-11.66-0.07-17.48c-0.2-4.08,1.11-5.76,5.34-5.55c5.55,0.27,11.14,0.34,16.68-0.02
		c4.57-0.3,5.21,1.83,5.16,5.68c-0.18,12.18-0.21,24.37,0.01,36.55c0.07,4-0.92,5.38-5.24,5.54c-21.88,0.8-21.88,0.94-21.88-20.74
		C678.45,655.1,678.45,653.78,678.45,652.45z"/>
	<path class="st11" d="M705.48,762.72c0,3.31,0,4.9,0,6.49c0,20.76-1.93,22.31-23.26,19.2c-2.53-0.37-3.81-1.05-3.79-3.79
		c0.06-13.26,0.08-26.52-0.02-39.77c-0.02-3.15,1.37-4.3,4.29-4.12c0.53,0.03,1.06-0.04,1.59,0c6.82,0.44,16.24-3.04,19.82,1.36
		C708.5,747.45,704.84,756.82,705.48,762.72z"/>
	<path class="st11" d="M608.42,763.18c0,2.85,0,4.45,0,6.04c0,20.77-1.92,22.31-23.26,19.21c-2.53-0.37-3.81-1.05-3.8-3.79
		c0.06-13.26,0.08-26.52-0.02-39.77c-0.02-3.15,1.36-4.3,4.29-4.13c0.53,0.03,1.06-0.04,1.59,0c6.82,0.44,16.25-3.04,19.82,1.36
		C611.41,747.45,607.88,756.82,608.42,763.18z"/>
	<path class="st10" d="M375.08,390.01c18.01,0,36.03,0.41,54.02-0.2c7.42-0.25,6.49,3.79,6.43,8.3c-0.06,4.64,1.36,9.08-6.7,8.98
		c-36.01-0.47-72.04-0.45-108.06-0.04c-9.07,0.1-5.81-5.71-6.47-10.02c-0.83-5.39,0.96-7.29,6.76-7.16
		C339.06,390.25,357.07,390.01,375.08,390.01z"/>
	<path class="st12" d="M410.02,335.26c0-8.47,0.15-16.94-0.06-25.4c-0.1-3.99,1.06-5.41,5.33-5.58c20.26-0.82,20.25-0.97,20.25,19.2
		c0,12.44-0.13,24.87,0.07,37.31c0.06,4.03-1.1,5.35-5.34,5.5c-20.26,0.73-20.25,0.87-20.25-19.13
		C410.02,343.2,410.02,339.23,410.02,335.26z"/>
	<path class="st12" d="M339.7,336.03c0,8.19-0.25,16.39,0.1,24.57c0.2,4.67-1.59,5.61-5.92,5.69c-19.55,0.37-19.55,0.5-19.55-18.99
		c0-12.15,0.15-24.31-0.08-36.46c-0.08-4.45,0.67-6.51,5.96-6.59c19.49-0.3,19.49-0.52,19.49,19.1
		C339.7,327.58,339.7,331.8,339.7,336.03z"/>
	<path class="st13" d="M386.33,335.22c0,8.48-0.14,16.97,0.06,25.44c0.09,3.88-0.8,5.5-5.21,5.66c-17.68,0.65-17.67,0.83-17.67-17
		c0-12.46,0.27-24.92-0.12-37.37c-0.18-5.63,0.93-7.9,7.27-7.76c15.66,0.34,15.67-0.01,15.67,15.92
		C386.33,325.15,386.33,330.19,386.33,335.22z"/>
	<path class="st10" d="M375.12,566.63c18.01,0,36.03,0.41,54.02-0.2c7.46-0.25,6.42,3.86,6.39,8.33c-0.03,4.69,1.29,9.05-6.74,8.94
		c-35.75-0.48-71.51-0.48-107.26,0c-8.16,0.11-6.96-4.21-7.34-9.29c-0.46-6.07,1.2-8.14,7.7-7.96
		C339.62,566.95,357.38,566.63,375.12,566.63z"/>
	<path class="st12" d="M435.54,512.61c0,7.94-0.32,15.89,0.11,23.81c0.29,5.4-1.75,6.51-6.78,6.5
		c-18.85-0.02-18.85,0.16-18.85-18.94c0-12.17,0.13-24.35-0.07-36.51c-0.07-4.41,0.61-6.53,5.95-6.6
		c19.65-0.26,19.65-0.5,19.65,19.05C435.54,504.15,435.54,508.38,435.54,512.61z"/>
	<path class="st12" d="M314.33,511.86c0-8.45,0.15-16.91-0.07-25.36c-0.1-4,1.07-5.41,5.33-5.59c20.12-0.86,20.11-1.01,20.11,19.24
		c0,12.42-0.13,24.84,0.07,37.25c0.06,3.99-1.02,5.36-5.27,5.52c-20.17,0.76-20.17,0.91-20.17-19.17
		C314.33,519.78,314.33,515.82,314.33,511.86z"/>
	<path class="st13" d="M386.33,512.19c0,8.22-0.16,16.44,0.07,24.65c0.11,4.14-0.68,6.03-5.56,6.13
		c-17.33,0.36-17.32,0.58-17.32-16.57c0-12.99,0.25-25.98-0.12-38.96c-0.15-5.38,1.71-6.6,6.81-6.58
		c16.12,0.06,16.12-0.15,16.12,16.22C386.33,502.12,386.33,507.15,386.33,512.19z"/>
	<path class="st12" d="M435.54,688.88c0,8.47-0.3,16.95,0.1,25.4c0.33,6.99-4.87,5.93-7.91,4.89c-5.83-1.98-16.24,6.23-17.27-4.77
		c-1.61-17.05-0.22-34.36-0.53-51.56c-0.12-6.87,4.78-6.05,7.93-4.97c5.83,1.99,15.39-6.26,17.39,4.86
		C436.75,671.2,435.54,680.15,435.54,688.88z"/>
	<path class="st12" d="M339.69,688.59c0,8.72,0.19,17.44-0.05,26.15c-0.24,8.58-7.31,4.77-10.57,4.29
		c-4.91-0.72-13.83,5.53-14.44-4.35c-1.07-17.37-1.47-34.96,0.15-52.25c0.94-10.02,10.98-3.16,16.7-4.55
		c2.96-0.72,8.45-2.58,8.27,4.55C339.52,671.15,339.69,679.87,339.69,688.59z"/>
	<path class="st13" d="M363.51,688.46c0-8.48,0.18-16.97-0.07-25.44c-0.12-4.13,1.24-5.36,5.41-5.52
		c17.48-0.65,17.47-0.8,17.47,16.45c0,13.25-0.16,26.51,0.09,39.75c0.08,4.47-1.28,5.79-5.82,5.86
		c-17.08,0.27-17.08,0.45-17.08-16.79C363.51,698,363.51,693.23,363.51,688.46z"/>
</g>
<g>
</g>
<g>
</g>
<g>
</g>
<g>
</g>
<g>
</g>
<g>
</g>
</svg>
