<?xml version="1.0" standalone="no"?>
<!DOCTYPE svg PUBLIC "-//W3C//DTD SVG 20010904//EN"
 "http://www.w3.org/TR/2001/REC-SVG-20010904/DTD/svg10.dtd">
<svg version="1.0" xmlns="http://www.w3.org/2000/svg"
 width="1251.000000pt" height="1251.000000pt" viewBox="0 0 1251.000000 1251.000000"
 preserveAspectRatio="xMidYMid meet">

<g transform="translate(0.000000,1251.000000) scale(0.100000,-0.100000)"
fill="#053219" stroke="none">
<path d="M2531 12061 c-17 -16 -39 -47 -48 -68 -16 -35 -17 -167 -14 -1960 3
-1393 0 -1923 -8 -1923 -6 0 -70 57 -143 128 -164 157 -210 177 -303 132 -87
-42 -549 -525 -736 -770 -247 -323 -441 -689 -535 -1008 -124 -424 -121 -833
10 -1228 48 -144 166 -381 261 -524 152 -229 271 -361 607 -677 131 -123 229
-224 246 -252 l27 -46 3 -980 c2 -539 1 -1003 -3 -1032 l-6 -52 -687 -3 c-661
-3 -688 -4 -719 -23 -70 -42 -68 -25 -68 -670 0 -565 1 -581 20 -615 12 -19
36 -43 55 -55 l35 -20 5710 -3 c5183 -2 5714 -1 5752 13 23 9 58 34 77 56 l36
39 0 3723 0 3723 -37 36 c-21 21 -56 45 -78 55 -38 17 -126 18 -1912 14
l-1873 -4 -2 1949 c-3 1887 -4 1950 -22 1984 -10 19 -27 47 -38 63 l-19 27
-2779 0 -2778 0 -31 -29z m5309 -5806 l0 -5485 -555 0 -555 0 -2 1867 c-3
1858 -3 1868 -23 1903 -12 19 -36 43 -55 55 -35 20 -46 20 -1320 20 -1458 0
-1331 8 -1373 -83 l-22 -47 -3 -1857 -2 -1858 -115 0 -114 0 -3 448 c-3 424
-4 449 -23 487 -13 27 -33 47 -60 60 -39 19 -63 20 -695 23 -496 2 -656 6
-662 15 -4 7 -8 464 -8 1017 0 962 1 1007 19 1046 14 31 49 66 141 139 346
278 627 579 834 897 l55 84 108 -13 c82 -10 276 -13 813 -11 800 3 764 0 800
80 19 41 20 71 20 740 0 470 -3 706 -11 725 -16 42 -48 72 -91 84 -25 6 -283
10 -726 10 -722 1 -724 1 -764 45 -9 11 -36 64 -58 118 -108 259 -249 499
-450 766 -48 64 -98 136 -111 160 l-24 45 -3 1990 c-1 1095 0 1996 3 2003 3 9
517 12 2520 12 l2515 0 0 -5485z m-5579 1528 c91 -93 201 -208 245 -258 423
-477 662 -954 714 -1424 46 -412 -116 -868 -458 -1291 -140 -172 -450 -470
-490 -470 -13 0 -14 48 -11 333 2 182 -1 386 -5 452 -13 180 14 346 84 515 44
107 100 198 202 329 48 62 118 163 155 225 60 98 68 118 71 171 3 50 0 66 -20
95 -53 79 -171 108 -240 59 -46 -33 -45 -32 -249 -331 -100 -147 -186 -265
-190 -262 -4 2 -94 122 -201 265 -106 144 -207 274 -225 290 -84 73 -218 56
-264 -33 -22 -42 -26 -136 -8 -171 21 -38 261 -365 353 -481 50 -61 105 -136
123 -166 67 -110 66 -97 69 -712 1 -307 -2 -558 -6 -558 -18 0 -361 351 -440
450 -222 278 -359 546 -427 830 -31 132 -42 378 -23 526 51 412 286 890 653
1333 92 110 407 451 417 451 4 0 80 -75 171 -167z m9477 -3537 c2 -2769 0
-3471 -10 -3478 -7 -4 -790 -8 -1740 -8 l-1727 0 -26 23 c-17 14 -29 37 -33
62 -4 22 -6 1578 -4 3458 l3 3417 1767 -2 1767 -3 3 -3469z m-7048 1529 l0
-475 -535 0 -535 0 0 475 0 475 535 0 535 0 0 -475z m1680 -3260 l0 -1745
-1040 0 -1040 0 0 1745 0 1745 1040 0 1040 0 0 -1745z m-3025 -1415 l0 -325
-1287 -3 -1288 -2 0 330 0 330 1288 -2 1287 -3 0 -325z"/>
<path d="M3391 11039 c-59 -11 -89 -33 -109 -77 -15 -33 -17 -105 -17 -732 0
-675 1 -696 20 -735 14 -28 33 -47 65 -63 l45 -22 777 2 c767 3 777 3 805 24
15 11 36 37 46 57 18 35 19 79 19 735 0 685 0 700 -20 739 -14 26 -34 47 -59
59 -36 18 -75 19 -783 21 -410 0 -765 -3 -789 -8z m1297 -816 l2 -473 -535 0
-535 0 0 468 c0 258 3 472 7 475 3 4 243 6 532 5 l526 -3 3 -472z"/>
<path d="M5731 11039 c-56 -11 -86 -31 -108 -72 -17 -30 -18 -84 -21 -722 -3
-771 -5 -749 66 -803 l35 -27 793 0 c785 0 793 0 821 21 15 11 37 38 48 60 19
38 20 59 20 734 l0 695 -22 41 c-14 26 -36 48 -60 60 -36 18 -75 19 -783 21
-410 0 -765 -3 -789 -8z m1299 -819 l0 -470 -535 0 -535 0 0 470 0 470 535 0
535 0 0 -470z"/>
<path d="M3363 8811 c-82 -38 -78 8 -78 -801 0 -695 1 -716 20 -754 13 -26 34
-47 60 -60 39 -21 52 -21 805 -21 745 0 766 1 804 20 22 11 49 33 60 48 21 28
21 39 24 750 2 672 1 724 -15 756 -10 19 -31 44 -46 55 -28 21 -37 21 -810 23
-752 3 -784 2 -824 -16z m1342 -806 l0 -470 -532 -3 -533 -2 0 475 0 475 533
-2 532 -3 0 -470z"/>
<path d="M5683 8811 c-82 -38 -78 5 -81 -785 l-3 -698 25 -53 c19 -43 32 -56
72 -76 l49 -24 718 -3 c468 -2 738 1 775 8 69 12 101 34 127 86 19 38 20 59
20 744 0 687 -1 706 -20 739 -11 19 -33 43 -48 55 -28 21 -33 21 -810 23 -751
3 -784 2 -824 -16z m1337 -806 l0 -475 -532 2 -533 3 -3 460 c-1 253 0 466 3
473 3 9 120 12 535 12 l530 0 0 -475z"/>
<path d="M5685 6581 c-23 -10 -49 -33 -60 -52 -19 -33 -20 -52 -20 -744 0
-692 1 -711 20 -744 11 -19 38 -43 60 -55 40 -21 47 -21 810 -21 740 0 771 1
809 19 28 14 45 32 60 65 21 45 21 55 21 736 0 670 -1 691 -20 729 -11 22 -33
49 -48 60 -28 21 -38 21 -810 23 -743 3 -784 2 -822 -16z m1345 -806 l0 -475
-535 0 -535 0 0 475 0 475 535 0 535 0 0 -475z"/>
<path d="M9054 7229 c-43 -12 -82 -54 -94 -100 -7 -25 -10 -300 -8 -796 3
-740 3 -759 23 -793 12 -21 39 -44 65 -58 l45 -22 907 2 c904 3 907 3 935 24
15 12 37 36 48 55 20 33 20 52 20 809 0 761 0 776 -20 810 -12 19 -36 43 -55
55 -34 20 -49 20 -935 22 -518 1 -913 -2 -931 -8z m1586 -874 l0 -535 -667 2
-668 3 -3 520 c-1 286 0 526 3 533 3 9 147 12 670 12 l665 0 0 -535z"/>
<path d="M9087 5020 c-65 -11 -95 -33 -118 -85 -19 -42 -19 -72 -17 -807 3
-725 4 -765 22 -801 12 -24 34 -46 60 -60 l41 -22 900 0 c890 0 900 0 939 21
25 12 48 35 60 60 21 38 21 50 21 809 0 740 -1 771 -19 809 -14 28 -32 45 -65
60 -46 21 -53 21 -911 23 -476 0 -887 -3 -913 -7z m1551 -882 l-3 -533 -665 0
-665 0 -3 533 -2 532 670 0 670 0 -2 -532z"/>
<path d="M9033 2791 c-83 -38 -78 16 -78 -866 0 -767 0 -781 20 -815 12 -19
36 -43 55 -55 35 -20 48 -20 945 -20 897 0 910 0 945 20 19 12 43 36 55 55 20
34 20 49 20 810 0 757 0 776 -20 809 -11 19 -33 43 -48 55 -28 21 -31 21 -940
23 -879 3 -914 2 -954 -16z m1607 -866 l0 -535 -670 0 -670 0 0 528 c0 291 3
532 7 535 3 4 305 7 670 7 l663 0 0 -535z"/>
</g>
</svg>
