<svg width="599" height="242" viewBox="0 0 599 242" fill="none" xmlns="http://www.w3.org/2000/svg">
<path d="M0.483276 139.94C0.483276 139.94 116.226 172.213 191.967 170.932C264.877 169.699 302.791 72.112 420.074 99.8223C537.356 127.533 580.695 0.440675 580.695 0.440675" stroke="black" stroke-width="1.5"/>
<path d="M110.546 93.585L110.546 93.585L110.544 93.5935L105.934 114.002L91.0364 89.9664L115.071 75.0693L110.546 93.585Z" fill="#279574" stroke="black"/>
<path d="M226.103 220.69L226.103 220.69L226.112 220.691L246.943 222.647L225.014 240.502L207.16 218.575L226.103 220.69Z" fill="#279574" stroke="black"/>
<rect x="436.799" y="8.44562" width="25" height="25" transform="rotate(24.4646 436.799 8.44562)" fill="#DF5B5B" stroke="black"/>
<rect x="474.5" y="140.5" width="25" height="25" rx="12.5" fill="#DF5B5B" stroke="black"/>
</svg>
