<svg width="143" height="190" viewBox="0 0 143 190" xmlns="http://www.w3.org/2000/svg" xmlns:xlink="http://www.w3.org/1999/xlink">
    <defs>
        <path d="M1.024 2.79c4.218 4.642 10.304 7.556 17.07 7.556 7.349 0 13.895-3.438 18.117-8.793V.406H1.024V2.79z" id="a"/>
        <path d="M.78 35.95c4.226 4.8 10.416 7.83 17.313 7.83 7.596 0 14.334-3.673 18.536-9.339V7.004c-1.92-2.59-4.371-4.763-7.191-6.36H6.75C4.497 1.92 2.48 3.564.78 5.494v30.457z" id="c"/>
        <path d="M.74 1.776C4.933 6.13 10.824 8.84 17.348 8.84c6.018 0 11.497-2.305 15.603-6.08V1.033H.739v.742z" id="e"/>
        <path d="M.993 35.374c4.23 4.93 10.504 8.053 17.509 8.053 6.276 0 11.966-2.508 16.124-6.575V3.886c-1.277-1.249-2.697-2.35-4.235-3.278H6.613C4.493 1.886 2.596 3.495.993 5.364v30.01z" id="g"/>
        <path d="M36.211 1.553c-4.222 5.355-10.768 8.793-18.118 8.793-6.765 0-12.85-2.914-17.069-7.556V.406h35.187v1.147z" id="i"/>
        <path d="M.78 5.494c1.7-1.93 3.717-3.574 5.97-4.85h22.688c2.82 1.597 5.27 3.77 7.19 6.36v27.437c-4.2 5.666-10.939 9.339-18.535 9.339-6.897 0-13.087-3.03-17.313-7.83V5.495z" id="k"/>
        <path d="M32.952 2.76c-4.106 3.775-9.585 6.08-15.603 6.08-6.524 0-12.415-2.71-16.61-7.064v-.742h32.213V2.76z" id="m"/>
        <path d="M.993 5.364c1.603-1.869 3.5-3.478 5.62-4.756H30.39c1.538.927 2.958 2.03 4.235 3.278v32.966c-4.158 4.067-9.848 6.575-16.124 6.575-7.005 0-13.28-3.123-17.509-8.053V5.364z" id="o"/>
    </defs>
    <g fill="none" fill-rule="evenodd">
        <path d="M137.427 152.301l-.002.001.002-.001zm-55.229 37.42c-1.22 0-2.442-.287-3.438-.862L2.265 144.693c-1.438-.829-2.264-2.16-2.265-3.647 0-1.488.824-2.817 2.263-3.65l54.676-31.566c1.99-1.15 4.883-1.151 6.877.002l76.493 44.163c1.44.831 2.265 2.16 2.265 3.65 0 1.487-.825 2.817-2.265 3.648l-54.673 31.566c-.996.575-2.218.862-3.438.862z" fill="#7FD1DE" opacity=".2"/>
        <path d="M138.868 131.744c1.1-.634 1.1-1.672 0-2.306L62.372 85.273c-1.097-.634-2.895-.634-3.992 0L3.706 116.838c-1.098.635-1.098 1.672 0 2.306l76.495 44.166c1.098.634 2.895.634 3.994 0l54.673-31.566z" stroke="#33475C" stroke-width="5" stroke-linecap="round" stroke-linejoin="round"/>
        <path d="M138.868 131.744c1.1-.634 1.1-1.672 0-2.306L62.372 85.273c-1.097-.634-2.895-.634-3.992 0L3.706 116.838c-1.098.635-1.098 1.672 0 2.306l76.495 44.166c1.098.634 2.895.634 3.994 0l54.673-31.566z" stroke="#33475C" stroke-width="5" stroke-linecap="round" stroke-linejoin="round"/>
        <path d="M35.243 114.368c-3.384-1.953-8.97-1.925-12.415.064-3.443 1.987-3.443 5.242 0 7.23 3.444 1.988 9.03 1.96 12.415-.064 3.383-2.022 3.383-5.277 0-7.23z" stroke="#33475C" stroke-width="5" stroke-linecap="round" stroke-linejoin="round"/>
        <path stroke="#33475C" stroke-width="5" stroke-linecap="round" stroke-linejoin="round" d="M26.013 119.844l4.814.971-1.197-6.032M36.58 108.798l17.24-9.953M41.53 111.655l17.886-10.325M45.265 113.811l13.198-7.618M54.929 125.734c-3.385-1.953-8.97-1.925-12.415.063-3.443 1.988-3.443 5.242 0 7.23 3.444 1.989 9.03 1.96 12.415-.063 3.384-2.023 3.384-5.277 0-7.23zM56.266 120.163l13.164-7.6M61.216 123.02l13.79-7.96M64.95 125.177l15.267-8.814M74.615 137.1c-3.384-1.954-8.97-1.926-12.415.063-3.443 1.987-3.443 5.242 0 7.23 3.444 1.988 9.031 1.96 12.415-.064 3.385-2.02 3.385-5.275 0-7.23zM75.952 131.529l13.87-8.006M80.902 134.386l25.89-14.945M84.637 136.543l17.526-10.117M76.623 152.72l39.81-22.983M81.573 155.578l43.905-25.347M49.638 2.73c8.385 0 15.975 3.397 21.471 8.893l4.196 4.196-.414.413c3.228 4.824 5.112 10.623 5.112 16.863 0 15.175-11.135 27.75-25.68 30.002l-4.685-4.835-4.685 4.835c-4.453-.688-8.572-2.363-12.163-4.766l-.43.428-4.195-4.195c-5.494-5.495-8.892-13.086-8.892-21.47 0-16.77 13.595-30.364 30.365-30.364z"/>
        <path d="M32.361 58.759c-5.495-5.495-8.892-13.086-8.892-21.47 0-16.77 13.595-30.364 30.365-30.364 8.383 0 15.975 3.398 21.47 8.893 5.495 5.496 8.894 13.085 8.894 21.471 0 15.177-11.134 27.752-25.68 30.004l-4.684 6.694-4.686-6.694c-6.509-1.008-12.336-4.083-16.787-8.534z" stroke="#33475C" stroke-width="5" stroke-linecap="round" stroke-linejoin="round"/>
        <path d="M49.638 2.73c8.385 0 15.975 3.397 21.471 8.893l4.196 4.196c5.494 5.494 8.893 13.085 8.893 21.47 0 15.178-11.135 27.752-25.68 30.005l-4.685 6.693-4.685-6.693c-6.51-1.009-12.336-4.084-16.787-8.535l-4.196-4.195c-5.494-5.495-8.892-13.086-8.892-21.47 0-16.77 13.595-30.364 30.365-30.364z" stroke="#33475C" stroke-width="5" stroke-linecap="round" stroke-linejoin="round"/>
        <g>
            <g transform="translate(35.74 50.222)">
                <mask id="b" fill="#fff">
                    <use xlink:href="#a"/>
                </mask>
                <path d="M1.024 16.012s16.633 7.99 35.187-1.373l-.169-3.232L35.008 5.5l-1.404-2.512-3.139-1.699L27.22.406s-1.85 2.877-3.771 4.28c-1.92 1.404-4.83 2.881-4.83 2.881l-2.039-3.51-.628-.073-2.327 2.363s-2.337-.828-3.36-2.29C9.24 2.597 7.863 1.4 7.863 1.4L4.12 4.094S1.99 5.941 1.88 8.712c-.111 2.769-.856 7.3-.856 7.3z" stroke="#33475C" stroke-width="5" stroke-linecap="round" stroke-linejoin="round" mask="url(#b)"/>
            </g>
            <path d="M56.565 29.46c-.445-.74-.863-1.36-1.372-1.911-1.405-1.521-2.978-2.866-4.458-4.31-.419-.407-.98-.513-1.561-.23-.418.204-.775.476-1.098.804-1.303 1.323-2.07 2.945-2.475 4.72-.663 2.9-.783 5.842-.408 8.8.2 1.57.64 3.048 1.653 4.3 1.167 1.442 2.625 2.524 4.252 3.389.702.373 1.432.34 2.19.154 1.587-.388 2.886-1.261 4.099-2.306.225-.193.512-.637.768-.394.351.333-.135.62-.349.83-1.165 1.143-2.508 1.98-4.088 2.477-1.305.409-2.47.275-3.607-.455-.344-.22-.68-.487-1.131-.574 0 .211-.01.372.002.53.087 1.264.112 2.519-.4 3.724-.165.391-.06.796.14 1.163.754 1.383 1.803 2.458 3.259 3.109.206.092.373.138.602.041 2.472-1.049 4.6-2.524 6.1-4.808.314-.48.585-.953.316-1.559-.07-.16-.032-.37-.035-.56-.029-1.423.068-2.841.183-4.261.113-1.398.45-2.68 1.516-3.705.594-.571.848-1.359.963-2.173.054-.38.031-.755-.193-1.086-.264-.393-.544-.424-.962-.208-.37.19-.415.585-.638.935-.303-.388-.46-.779-.598-1.179-.385-1.12-.894-2.184-1.454-3.225-.592-1.104-1.841-1.616-3.07-1.287-.276.073-.546.224-.857.149.35-.89.897-1.078 2.71-.894z" stroke="#33475C" stroke-width="5" stroke-linecap="round" stroke-linejoin="round"/>
            <g transform="translate(35.74 16.789)">
                <mask id="d" fill="#fff">
                    <use xlink:href="#c"/>
                </mask>
                <path d="M15.792 37.103c-.212-.116-.393-.224-.585-.314-1.024-.485-1.813-1.229-2.41-2.182-.227-.364-.476-.72-.64-1.113-.154-.37-.336-.402-.677-.269-.897.354-1.79.721-2.75.877-.21.034-.433.032-.598.2.002.052-.01.11.011.152.073.142.153.284.24.418 1.032 1.562 2.356 2.843 3.843 3.962.279.211.603.345.923.482.26.113.47.07.656-.123.645-.673 1.287-1.351 1.987-2.09zm11.427-3.99c-1.025-.448-1.988-.85-2.89-1.384-.511-.303-.535-.292-.835.269-.459.856-.967 1.675-1.684 2.342-1.286 1.195-2.66 2.259-4.342 2.846-.311.11-.444.221-.269.571.346.697.636 1.422.975 2.12.375.775.425.806 1.216.393 1.933-1.014 3.737-2.22 5.281-3.777.982-.99 1.898-2.039 2.548-3.38zm-6.394-20.441c-.445-.74-.861-1.36-1.372-1.913-1.404-1.52-2.978-2.865-4.458-4.308-.418-.407-.979-.513-1.561-.23-.417.203-.775.475-1.098.803-1.302 1.323-2.069 2.945-2.475 4.72-.663 2.902-.783 5.841-.408 8.8.2 1.571.641 3.048 1.654 4.3 1.166 1.441 2.624 2.525 4.251 3.39.702.373 1.433.34 2.19.153 1.587-.388 2.886-1.26 4.1-2.306.224-.194.511-.636.767-.393.352.333-.135.62-.348.829-1.165 1.143-2.508 1.98-4.088 2.477-1.304.408-2.471.276-3.607-.455-.343-.22-.68-.488-1.13-.574 0 .212-.01.371 0 .53.087 1.265.112 2.52-.4 3.725-.164.391-.06.796.14 1.161.754 1.385 1.803 2.458 3.26 3.11.206.093.373.139.602.042 2.47-1.049 4.6-2.526 6.099-4.809.316-.48.586-.952.317-1.56-.071-.159-.032-.37-.036-.557-.029-1.424.068-2.843.184-4.263.114-1.397.45-2.679 1.516-3.704.593-.572.847-1.36.962-2.174.054-.38.031-.754-.192-1.085-.264-.393-.543-.424-.963-.21-.369.191-.415.587-.637.936-.304-.387-.46-.778-.598-1.18-.385-1.12-.894-2.183-1.455-3.225-.592-1.103-1.84-1.614-3.07-1.287-.275.074-.545.224-.855.15.35-.89.896-1.079 2.71-.893zm12.21 2.389c.06-.181-.018-.268-.07-.358-.958-1.647-1.91-3.3-2.879-4.941-1.194-2.028-2.63-3.859-4.434-5.386-1.655-1.403-3.39-2.614-5.64-2.908-1.074-.14-2.075-.11-3.051.362-.945.457-1.921.828-2.911 1.174-1.874.655-3.732 1.353-5.6 2.028-.56.201-.937.58-1.232 1.093C6.202 7.88 5.518 9.772 4.93 11.7c-.364 1.2-.628 2.425-.811 3.697.311-.048.399-.505.715-.334.337.182.129.532.163.807.004.025 0 .053-.003.08-.18 1.611-.068 3.22.056 4.827.063.818.106 1.647.31 2.472.585-.464.725-.451.91.169.247.822.46 1.656.639 2.495.303 1.421.894 2.696 1.83 3.807.766.907 1.275 1.918 1.343 3.123.002.038.062.074.138.158.504-.203 1.011-.445 1.542-.612.449-.14.635-.403.712-.852.203-1.179.115-2.355.086-3.536-.012-.53-.196-.882-.6-1.225-1.772-1.506-2.772-3.434-3.109-5.742-.284-1.957-.243-3.912-.098-5.866.095-1.284.243-2.568.602-3.814.528-1.828 1.304-3.523 2.647-4.911.378-.39.8-.715 1.308-.922 1.248-.509 1.455-.47 2.39.453 1.146 1.13 2.288 2.266 3.446 3.387.756.734 1.407 1.55 1.957 2.447 1.099 1.785 2.141 3.6 2.856 5.583.17.472.187.465.65.256.771-.35 1.567.037 1.811.89.09.313.098.637.074.96-.083 1.11-.471 2.096-1.243 2.904-.559.586-.892 1.274-1.027 2.058-.326 1.912-.442 3.838-.36 5.778.015.331.114.523.438.674 1.07.499 2.107 1.067 3.205 1.508.285.113.598.245.526.607-.077.396.13.429.415.48.209.036.406.136.61.204.642.212.67.219.845-.41.71-2.55 1.218-5.123.822-7.79-.02-.133-.043-.266-.046-.4-.007-.199.053-.379.254-.46.176-.07.31.043.424.157.19.192.358.403.553.586.122.115.211.338.49.204.073-2.242.034-4.488-.393-6.718-.202-1.056-.484-2.09-.76-3.128-.161-.605.013-.781.643-.728.373.03.742.114 1.143.037zM15.801 38.24c-.62.46-1.015.89-1.427 1.305-.677.68-.904.724-1.781.365-.479-.195-.896-.482-1.284-.82-1.157-1.012-2.217-2.112-3.084-3.386-.09-.131-.192-.256-.275-.366-.08-.005-.147-.031-.178-.008-1.112.794-2.234 1.578-3.33 2.396-1.183.886-1.753 2.129-2.017 3.553-.297 1.612-.411 3.248-.635 4.87-.125.904-.247 1.81-.402 2.707-.04.228.028.654-.365.588-.334-.056-.227-.437-.23-.691-.007-.646.084-1.285.167-1.923.222-1.704.452-3.407.651-5.113.267-2.292 1.436-3.996 3.326-5.261.468-.312.9-.68 1.33-1.043.287-.242.543-.521.901-.664.197-.078.313-.192.216-.43-.175-.425.101-.599.437-.691.439-.121.885-.226 1.334-.304.363-.064.392-.224.316-.56-.199-.876-.474-1.708-1.067-2.402-1.199-1.404-1.92-3.028-2.242-4.838-.052-.29-.13-.575-.2-.862-.011-.04-.06-.071-.088-.104-.137.014-.169.124-.207.222-.063.156-.15.294-.341.285-.246-.012-.281-.21-.32-.397-.35-1.713-.58-3.443-.635-5.19-.029-.93-.005-1.861-.005-2.875-.34.14-.391.396-.525.576-.085.114-.194.2-.338.162-.188-.046-.24-.203-.222-.375.034-.347.073-.692.125-1.038.449-2.989 1.213-5.887 2.485-8.637.113-.244.256-.476.353-.724.501-1.31 1.503-2.02 2.787-2.466 2.74-.948 5.455-1.96 8.134-3.069C18.093.65 19.059.58 20.08.694c2.572.292 4.534 1.685 6.402 3.307 1.957 1.697 3.43 3.76 4.681 6.003.864 1.548 1.746 3.085 2.611 4.631.164.293.466.592.217.954-.21.303-.578.229-.895.223-1.086-.017-1.088-.02-.795.996.89 3.089 1.018 6.24.757 9.42-.02.242-.017.51-.291.614-.316.119-.488-.114-.67-.318-.173-.195-.284-.453-.558-.56-.196.146-.107.346-.092.514.208 2.423-.238 4.76-.908 7.068-.18.62-.182.604.361.892.854.452 1.698.923 2.545 1.388.812.445 1.361 1.119 1.676 1.984.12.328.245.659.32.998.595 2.7 1.157 5.408 1.184 8.192.003.268.021.54-.068.798-.056.16-.159.297-.345.274-.142-.017-.23-.138-.25-.28-.032-.21-.057-.425-.065-.639-.102-2.56-.609-5.06-1.102-7.564-.082-.418-.225-.827-.354-1.237-.29-.92-.875-1.57-1.745-2.002-1.414-.705-2.762-1.562-4.355-1.84-.29-.05-.527-.42-.792-.278-.233.123-.359.45-.528.688-.517.725-1.129 1.369-1.754 1.997-1.72 1.73-3.714 3.083-5.893 4.158-.955.472-1.228.356-1.723-.591-.223-.427-.386-.885-.59-1.323-.11-.236-.142-.516-.408-.735-.222.897-.258 1.776-.343 2.641-.294 3-.288 6.006-.159 9.015.03.724.013 1.449.007 2.174 0 .121.008.299-.161.32-.241.032-.223-.178-.239-.326-.176-1.577-.206-3.162-.25-4.744-.063-2.39-.001-4.78.12-7.167.032-.641.105-1.281.174-2.098z" stroke="#33475C" stroke-width="5" stroke-linecap="round" stroke-linejoin="round" mask="url(#d)"/>
            </g>
            <path d="M49.603 62.622c-.009.289-.253.558-.49.523-.291-.045-.396-.267-.39-.521.006-.248.091-.485.393-.52.253-.032.493.235.487.518zM49.12 67.084c-.285-.032-.424-.204-.413-.483.01-.278.293-.587.494-.535.268.07.392.274.358.543-.03.252-.125.468-.439.475zM45.851 30.799c.09-.557.458-.845.914-1.02.926-.352 1.795-.23 2.572.4.837.68 1.297 1.567 1.39 2.633.125 1.473.196 2.949-.053 4.418-.023.132-.05.266-.051.4-.007.43.156.6.563.598.053 0 .106-.02.16-.023.227-.017.576-.215.65.041.1.349-.322.354-.549.436-.871.311-1.458-.127-1.334-1.06.183-1.364.255-2.726.15-4.097-.071-.917-.236-1.798-.889-2.53-.793-.891-1.953-1.047-2.897-.416-.17.111-.338.252-.626.22z" stroke="#33475C" stroke-width="5" stroke-linecap="round" stroke-linejoin="round"/>
            <path d="M49.35 33.185c-.011.08-.015.244-.057.396-.123.431-.598.805-.999.804-.388-.001-.788-.32-.887-.8-.12-.58-.171-1.178.327-1.643.447-.419.931-.374 1.303.108.191.248.31.647.313 1.135zM56.414 32.796c.015.72-.444 1.321-1.005 1.318-.603-.005-.992-.539-.958-1.32.034-.827.544-1.3 1.194-1.108.416.123.759.617.769 1.11z" stroke="#33475C" stroke-width="5" stroke-linecap="round" stroke-linejoin="round"/>
            <path d="M59.965 41.25c-.327 1.91-.443 3.837-.36 5.777.014.331.113.523.437.674 1.071.498 2.108 1.066 3.205 1.506.285.115.597.247.527.61-.078.393.13.428.414.479.209.035.407.136.61.203.643.213.67.22.846-.41.71-2.549 1.218-5.122.821-7.79-.02-.132-.042-.265-.046-.4-.006-.198.054-.379.254-.459.176-.071.31.043.425.157.189.192.358.401.553.586.121.115.21.338.49.203.073-2.241.033-4.487-.393-6.717-.202-1.056-.484-2.09-.76-3.128-.162-.605.013-.781.643-.73.372.033.742.116 1.142.039.06-.183-.016-.268-.068-.358-.958-1.648-1.91-3.3-2.879-4.941-1.194-2.028-2.632-3.859-4.435-5.386-1.655-1.403-3.39-2.614-5.639-2.908-1.074-.14-2.076-.11-3.052.362-.944.457-1.92.828-2.91 1.174-1.875.655-3.732 1.353-5.6 2.026-.56.203-.937.582-1.233 1.095-1.016 1.755-1.7 3.647-2.286 5.576-.365 1.2-.629 2.425-.811 3.697.311-.048.399-.505.713-.334.338.182.13.532.164.807.004.025 0 .053-.003.08-.18 1.611-.068 3.22.056 4.827.064.818.106 1.646.31 2.472.586-.464.724-.451.911.169.246.822.459 1.656.638 2.495.303 1.421.894 2.696 1.832 3.806.764.908 1.272 1.92 1.34 3.123.003.039.064.075.14.159.504-.204 1.011-.446 1.541-.612.449-.14.634-.404.713-.852.202-1.179.114-2.355.086-3.536-.012-.532-.196-.882-.6-1.225-1.772-1.506-2.772-3.434-3.109-5.742-.284-1.957-.243-3.912-.099-5.867.095-1.283.244-2.567.603-3.813.528-1.828 1.303-3.523 2.647-4.911.378-.39.8-.715 1.307-.922 1.248-.509 1.456-.47 2.39.453 1.147 1.13 2.29 2.266 3.445 3.387.758.734 1.408 1.55 1.96 2.446 1.097 1.786 2.139 3.6 2.855 5.584.17.471.187.464.649.256.771-.35 1.567.037 1.812.89.089.313.097.637.073.96-.083 1.11-.472 2.096-1.243 2.904-.56.586-.892 1.273-1.026 2.058" stroke="#33475C" stroke-width="5" stroke-linecap="round" stroke-linejoin="round"/>
            <path d="M62.959 49.902c-1.025-.448-1.988-.85-2.89-1.384-.511-.303-.536-.292-.835.268-.46.857-.968 1.676-1.685 2.342-1.285 1.195-2.66 2.26-4.342 2.846-.31.11-.443.222-.268.572.346.697.635 1.422.974 2.12.375.775.424.806 1.216.392 1.934-1.013 3.738-2.219 5.282-3.777.982-.99 1.897-2.038 2.548-3.379zM51.531 53.891c-.212-.115-.393-.223-.584-.313-1.024-.486-1.814-1.23-2.41-2.183-.227-.363-.476-.72-.64-1.112-.154-.37-.336-.403-.678-.269-.897.354-1.79.72-2.75.876-.21.035-.433.033-.598.2.003.053-.01.112.012.153.072.142.152.284.24.418 1.031 1.562 2.355 2.843 3.842 3.962.28.211.603.345.924.482.26.113.47.07.656-.123.644-.674 1.286-1.352 1.986-2.09z" stroke="#33475C" stroke-width="5" stroke-linecap="round" stroke-linejoin="round"/>
        </g>
        <g stroke="#33475C" stroke-width="5" stroke-linecap="round" stroke-linejoin="round">
            <path d="M49.777 40.07s1.718.701 3.964.089c0 0 .184 2.238-2.06 2.089-2.242-.148-1.904-2.179-1.904-2.179z"/>
            <path d="M50.027 40.432c.01.266.075.651.327.966.276.348.73.544 1.345.585.581.033 1.026-.096 1.325-.398.32-.326.416-.782.444-1.084-1.574.35-2.851.099-3.44-.07zm1.864 2.089c-.074 0-.15-.003-.226-.007-.774-.05-1.356-.317-1.73-.789-.575-.725-.427-1.66-.42-1.7.013-.079.062-.148.132-.188.07-.04.156-.044.23-.014.017.008 1.668.66 3.794.08.075-.024.156-.007.222.038.065.045.106.117.112.196.005.044.084 1.122-.602 1.82-.369.375-.877.564-1.512.564zM25.854 17.622c-.12-.048-.24-.094-.348-.124-2.39-.666-3.737.939-3.737.939s-4.46 3.088-5.805 4.727c-1.165 1.415-1.517 6.082-1.59 7.315-.588 3.446-1.22 8.714-1.38 15.974-.204 9.353.638 15.213 1.259 18.191-.003-.007-.004-.013-.005-.02.338 1.626.61 2.411.61 2.411 1.817 1.745 4.305 2.607 4.308 2.608 1.478.132 3.346-.363 3.346-.363s4.226-1.056 5.564-1.61c.685-.285 1.226-.538 1.667-.77l.03-.017c.212-.114.401-.223.565-.33l.017-.01c.497-.323.793-.619.98-.927l.015-.024c.058-.097.105-.196.145-.296l.014-.037c.038-.1.07-.203.098-.31l.01-.04c.026-.109.05-.22.073-.338l.001-.003c.965-4.984-1.727-8.795-4.149-10.69-.066-.051-.13-.095-.195-.143-.755-.562-1.476-.94-2.036-1.097-.185-.052-.363-.085-.536-.112l-.146-.018c-.132-.015-.26-.024-.383-.027-.04 0-.079-.003-.117-.003-.153.002-.3.013-.44.032l-.091.014c-.11.018-.218.04-.32.066l-.115.03c-.107.03-.208.065-.305.102l-.047.018c-.11.045-.213.093-.308.143-.027.013-.051.026-.076.041-.073.04-.141.08-.204.121l-.06.037c-.078.052-.15.103-.213.152-.247.192-.375.344-.375.344s-.482.335-1.174.838c-.225-2.182-.22-5.196-.293-8.76-.135-6.47.79-9.985.79-9.985s.158-.859.383-1.048c.227-.193 1.426-.484 1.426-.484s4.225-1.056 5.562-1.61c1.47-.61 2.3-1.074 2.8-1.517l.004-.003c.329-.293.512-.578.629-.888.003-.009.008-.018.01-.027.036-.097.067-.198.093-.301l.01-.043c.025-.103.048-.208.069-.32v-.004c1.238-6.379-3.517-10.834-6.03-11.804z"/>
            <path d="M25.312 52.638c-2.39-.665-3.738.94-3.738.94s-4.458 3.087-5.804 4.726c-1.346 1.637-.912 8.732-.912 8.732 1.798 1.725 4.25 2.587 4.303 2.606 1.48.134 3.352-.362 3.352-.362s4.225-1.056 5.562-1.61c3.12-1.295 3.39-1.934 3.616-3.102 1.296-6.683-3.99-11.264-6.38-11.93z"/>
            <path d="M25.312 52.638c-1.654-.46-2.808.166-3.362.596 1.995.268 4.64 1.339 6.382 4.824 3.112 6.23.685 9.194.678 9.202 2.24-1.034 2.48-1.654 2.68-2.692 1.297-6.683-3.988-11.264-6.378-11.93z"/>
            <path d="M14.358 30.785s.26-5.984 1.606-7.621c1.346-1.639 5.805-4.727 5.805-4.727s1.346-1.605 3.736-.939c2.391.665 7.675 5.246 6.38 11.928-.227 1.17-.497 1.809-3.615 3.102-1.338.555-5.563 1.611-5.563 1.611s-1.199.29-1.426.484c-.225.19-.383 1.048-.383 1.048s-.923 3.514-.79 9.985c.134 6.474 0 11.152 1.48 12.272"/>
            <path d="M15.102 25.21l3.66 2.278s-1.807 10.239-1.79 19.438c.017 9.199 0 13.88 2.194 22.717 0 0-2.49-.862-4.308-2.607 0 0-2.18-6.164-1.863-20.583.316-14.42 2.107-21.243 2.107-21.243zM31.885 29.426c1.296-6.682-3.989-11.263-6.38-11.929-2.388-.665-3.736.94-3.736.94s3.183-1.36 7.14 4.73c2.482 3.816 1.607 6.976.607 8.805 1.949-.947 2.178-1.558 2.37-2.546z"/>
            <path d="M25.854 17.622c-.12-.048-.24-.094-.348-.124-2.39-.666-3.737.939-3.737.939s-4.46 3.088-5.805 4.727c-1.165 1.415-1.517 6.082-1.59 7.315-.588 3.446-1.22 8.714-1.38 15.974-.204 9.353.638 15.213 1.259 18.191-.003-.007-.004-.013-.005-.02.338 1.626.61 2.411.61 2.411 1.817 1.745 4.305 2.607 4.308 2.608 1.478.132 3.346-.363 3.346-.363s4.226-1.056 5.564-1.61c.685-.285 1.226-.538 1.667-.77l.03-.017c.212-.114.401-.223.565-.33l.017-.01c.497-.323.793-.619.98-.927l.015-.024c.058-.097.105-.196.145-.296l.014-.037c.038-.1.07-.203.098-.31l.01-.04c.026-.109.05-.22.073-.338l.001-.003c.965-4.984-1.727-8.795-4.149-10.69-.066-.051-.13-.095-.195-.143-.755-.562-1.476-.94-2.036-1.097-.185-.052-.363-.085-.536-.112l-.146-.018c-.132-.015-.26-.024-.383-.027-.04 0-.079-.003-.117-.003-.153.002-.3.013-.44.032l-.091.014c-.11.018-.218.04-.32.066l-.115.03c-.107.03-.208.065-.305.102l-.047.018c-.11.045-.213.093-.308.143-.027.013-.051.026-.076.041-.073.04-.141.08-.204.121l-.06.037c-.078.052-.15.103-.213.152-.247.192-.375.344-.375.344s-.482.335-1.174.838c-.225-2.182-.22-5.196-.293-8.76-.135-6.47.79-9.985.79-9.985s.158-.859.383-1.048c.227-.193 1.426-.484 1.426-.484s4.225-1.056 5.562-1.61c1.47-.61 2.3-1.074 2.8-1.517l.004-.003c.329-.293.512-.578.629-.888.003-.009.008-.018.01-.027.036-.097.067-.198.093-.301l.01-.043c.025-.103.048-.208.069-.32v-.004c1.238-6.379-3.517-10.834-6.03-11.804zM20.108 45.657c.134 6.472 0 11.152 1.48 12.271M97.635 49.152c-8.385 0-15.976 3.398-21.472 8.893l-4.195 4.196.414.413c-3.228 4.824-5.112 10.623-5.112 16.862 0 15.176 11.135 27.75 25.68 30.003l4.685-4.835 4.685 4.835c4.453-.688 8.572-2.364 12.163-4.766l.428.428 4.196-4.197C124.602 95.49 128 87.9 128 79.515c0-16.769-13.594-30.363-30.364-30.363z"/>
            <path d="M114.911 105.18c5.495-5.495 8.893-13.085 8.893-21.469 0-16.77-13.594-30.365-30.365-30.365-8.384 0-15.976 3.4-21.47 8.895-5.496 5.495-8.894 13.084-8.894 21.47 0 15.177 11.133 27.75 25.68 30.003l4.684 6.693 4.685-6.693c6.51-1.008 12.337-4.084 16.787-8.534z"/>
            <path d="M97.635 49.152c-8.385 0-15.976 3.398-21.472 8.893l-4.195 4.196c-5.495 5.494-8.893 13.084-8.893 21.47 0 15.177 11.134 27.75 25.68 30.003l4.684 6.694 4.686-6.694c6.509-1.007 12.336-4.083 16.786-8.533l4.196-4.197C124.602 95.49 128 87.9 128 79.515c0-16.769-13.594-30.363-30.364-30.363z"/>
            <path d="M116.497 83.273c0 12.735-10.323 23.058-23.058 23.058-12.733 0-23.058-10.323-23.058-23.058 0-12.734 10.325-23.058 23.058-23.058 12.735 0 23.058 10.324 23.058 23.058z"/>
        </g>
        <g>
            <g transform="translate(76.09 97.49)">
                <mask id="f" fill="#fff">
                    <use xlink:href="#e"/>
                </mask>
                <path d="M32.838 12.935c-.059-.313-.113-.627-.137-.943-.155-1.988-.352-3.97-.668-5.939-.177-1.107-.5-2.173-.94-3.202-.298-.693-.704-1.312-1.378-1.708-.165-.096-.308-.175-.503-.026-1.733 1.318-3.817 1.672-5.867 2.112-1.432.307-2.885.456-4.342.578-.934.086-4.825.026-4.825.026-1.857-.107-3.712-.226-5.55-.534-1.473-.249-2.896-.665-4.258-1.284-.664-.302-1.055-.259-1.45.312C1.806 3.932.84 5.611.797 7.647c0 0-.028 1.056-.041 2.074H.755v.009c-.007.608-.01 1.203 0 1.547h.002v.515c0 .08.005.16.002.24-.004.091-.005.191-.02.283 1.07.837 4.978 3.177 15.263 3.207 10.28.031 15.43-1.764 16.95-2.41-.058-.041-.1-.101-.114-.177z" stroke="#33475C" stroke-width="5" stroke-linecap="round" stroke-linejoin="round" mask="url(#f)"/>
            </g>
            <path d="M102.886 98.88c-2.26.697-4.562 1.195-6.912 1.444l-.007.01c-1.903.326-6.576.081-6.702.074h-.005c-.145-.006-.289-.015-.432-.025-2.353-.195-4.705-.402-6.937-1.263-.198-.075-.398-.15-.594-.229-.072-.03-.137-.08-.238-.138.084-.264.346-.293.531-.396 1.068-.589 2.148-1.154 3.212-1.748.974-.545 1.92-1.138 2.685-1.966.858-.909.882-1.379.882-1.379.036-.843.031-1.684-.145-2.577l-.084-.414c.278.166.558.331.844.49.66.365 1.35.641 2.126.53 2.078-.298 3.804-1.282 5.27-2.754.186-.186.295-.451.439-.68l-.215-.2c-.265.196-.544.376-.794.588-1.206 1.028-2.506 1.862-4.08 2.235-.861.205-1.622.075-2.374-.342-1.097-.61-2.084-1.371-3.004-2.22-1.293-1.196-2.072-2.673-2.387-4.402-.49-2.698-.377-5.396-.017-8.095.232-1.735.784-3.36 1.727-4.837.518-.812 1.117-1.56 2-2.008.65-.328 1.219-.24 1.746.256 1.063 1.003 2.135 1.995 3.177 3.02.585.576 1.14 1.188 1.662 1.824.273.332.445.746.7 1.185-1.728-.143-2.394.128-2.474.979.316-.085.622-.165.927-.244 1.088-.28 2.188.201 2.644 1.217.628 1.403 1.209 2.828 1.821 4.238.074.168.22.304.457.619.093-.398.132-.59.184-.778.103-.361.557-.723.882-.676.398.055.609.354.653.708.046.36.025.743-.043 1.103-.157.833-.595 1.53-1.184 2.128-.564.571-.854 1.239-1.004 1.95h-.001l-.003.017c-.047.227-.08.458-.102.693-.036.257-.074.56-.107.868l-.052.718c-.078.857-.149 1.564-.205 2.27-.06.74-.12 1.489-.014 2.224 0 0 .372 1.123.815 1.377 2.01 1.132 4.044 2.223 6.017 3.423.15.092.352.138.408.395-.503.38-1.094.604-1.693.789zM105.4 73.347c-.272-1.1-.576-2.068-.929-2.958-.2-.506-.552-.95-.892-1.379l-.087-.108c-.237-.302-.59-.633-1.211-.532-.05.007-.091.04-.111.087-.02.046-.015.098.014.14 1.283 1.858 2.027 3.888 2.27 6.205.006.048.033.09.075.111.022.013.046.02.071.02.022 0 .044-.006.064-.016.665-.328.913-.856.736-1.57z" stroke="#33475C" stroke-width="5" stroke-linecap="round" stroke-linejoin="round"/>
            <path d="M104.894 67.437c-.383-.448-.88-.872-1.519-1.297-.675-.451-1.466-.301-1.923.363-.143.208-.254.54-.189.77.103.358.434.572.82.53.912-.095 1.525.433 2.004.962.208.231.382.49.512.693.672 1.055.974 2.219 1.222 3.643.21 1.21-.17 1.995-1.165 2.398-.023.009-.039.03-.044.054-.145.772-.085 1.364.194 1.916.221.437.447.66.71.704.03.004.061.007.093.007.232 0 .49-.141.786-.429.679-.662 1.049-1.49 1.103-2.46.166-2.995-.709-5.637-2.604-7.854z" stroke="#33475C" stroke-width="5" stroke-linecap="round" stroke-linejoin="round"/>
            <path d="M94.025 64.391c-.662-.082-1.221-.025-1.759.175-.543.204-1.11.349-1.594.462-.988.231-1.994.454-2.968.67l-1.07.238c-1.001.223-1.789.766-2.408 1.658-1.205 1.737-2.036 3.754-2.694 6.54-.299 1.263-.401 2.616-.314 4.14.097 1.694.98 3.04 1.798 4.167.016.023.043.035.071.03.027-.005.05-.025.058-.051.05-.161.039-.3.029-.435l-.073.004.073-.006c-.212-2.923-.021-5.582.585-8.13.502-2.109 1.387-3.78 2.707-5.112.536-.54 1.159-.873 1.96-1.047.534-.114.89-.013 1.268.362l1.387 1.369c.865.853 1.76 1.736 2.631 2.612.358.359.699.766 1.017 1.208 1.27 1.767 2.354 3.859 3.317 6.398.041.112.09.221.143.34l.08.183c.007.019.024.034.044.04.02.007.042.005.06-.006l.31-.186c.407-.243.815-.304 1.15-.174.32.127.557.415.681.837.114.384.137.856.064 1.297-.07.422-.202.84-.34 1.278-.064.199-.127.403-.188.615-.009.029.002.06.027.078.012.01.028.015.043.015.014 0 .028-.003.04-.011 1.653-1.077 2.836-2.726 3.33-4.645.357-1.387.48-2.842.374-4.45-.347-5.308-4.576-9.807-9.84-10.463z" stroke="#33475C" stroke-width="5" stroke-linecap="round" stroke-linejoin="round"/>
            <path d="M90.677 83.637c-.366.378-.796.524-1.275.477-.476-.047-.754-.438-.718-.981.028-.45.148-.897.148-1.345.001-1.191 0-2.386-.08-3.573-.057-.815-.418-1.527-1.073-2.067-.751-.622-1.578-.706-2.437-.223-.222.125-.447.246-.798.44.156-.726.56-1.028 1.071-1.194.835-.27 1.63-.17 2.336.38.74.577 1.238 1.315 1.388 2.251.234 1.45.233 2.909.073 4.367-.031.29-.087.58-.085.87 0 .43.16.552.597.541.266-.006.545-.258.853.057zM100.917 107.428c.364.238.518.533.538.894.063 1.166.14 2.33.057 3.497-.018.234-.058.478-.15.691-.076.18-.28.181-.37.01-.097-.181-.16-.402-.168-.606-.036-1.061-.224-2.107-.35-3.159-.059-.49-.012-.953.443-1.327zM80.416 111.853c-.244-.031-.255-.24-.3-.408-.288-1.087-.364-2.197-.372-3.315 0-.08-.004-.163.019-.237.093-.294.132-.731.487-.724.322.005.353.435.359.706.02 1.192.166 2.385-.015 3.576-.022.145.015.325-.178.402z" stroke="#33475C" stroke-width="5" stroke-linecap="round" stroke-linejoin="round"/>
            <g transform="translate(74.938 62.904)">
                <mask id="h" fill="#fff">
                    <use xlink:href="#g"/>
                </mask>
                <path d="M27.949 35.977c-2.261.696-4.562 1.194-6.913 1.443l-.007.01c-1.902.326-6.576.081-6.702.074h-.005c-.144-.007-.289-.015-.431-.025-2.354-.195-4.705-.402-6.937-1.264-.199-.075-.398-.148-.594-.228-.073-.031-.137-.08-.239-.138.084-.264.346-.293.532-.396C7.72 34.864 8.8 34.3 9.865 33.704c.974-.544 1.92-1.138 2.685-1.965.857-.909.882-1.38.882-1.38.035-.842.03-1.684-.146-2.576l-.084-.414c.278.166.558.331.844.49.66.365 1.351.641 2.126.53 2.079-.298 3.805-1.283 5.27-2.754.187-.186.295-.452.44-.681l-.215-.198c-.265.195-.544.374-.795.586-1.206 1.029-2.506 1.862-4.08 2.236-.86.205-1.622.075-2.373-.342-1.098-.61-2.085-1.371-3.005-2.22-1.292-1.196-2.072-2.673-2.386-4.403-.49-2.697-.377-5.395-.018-8.094.232-1.735.784-3.36 1.727-4.838.518-.811 1.118-1.558 2-2.007.65-.328 1.22-.24 1.746.256 1.063 1.003 2.135 1.995 3.177 3.02.585.576 1.14 1.188 1.663 1.823.272.333.445.746.699 1.186-1.727-.143-2.394.128-2.473.978.316-.084.621-.164.927-.243 1.088-.28 2.188.2 2.643 1.216.628 1.404 1.21 2.829 1.822 4.238.073.169.22.305.456.62.094-.398.133-.59.185-.779.102-.36.557-.722.882-.675.397.055.608.354.652.708.046.36.026.743-.042 1.103-.157.832-.595 1.53-1.184 2.128-.564.57-.855 1.238-1.005 1.95l-.003.017c-.047.227-.08.458-.103.693-.035.257-.074.56-.107.868l-.052.718c-.077.857-.149 1.564-.205 2.27-.059.74-.12 1.489-.014 2.224 0 0 .373 1.123.815 1.377 2.01 1.132 4.045 2.223 6.017 3.423.15.092.353.138.408.395-.502.38-1.094.604-1.692.789zM8.164 19.085c.01.13.019.26-.026.409-.904-1.244-1.693-2.532-1.784-4.13-.08-1.387-.008-2.766.311-4.117.547-2.311 1.311-4.537 2.684-6.516.59-.85 1.355-1.403 2.363-1.629 1.346-.3 2.695-.592 4.038-.908.542-.126 1.085-.268 1.605-.463.568-.214 1.136-.244 1.724-.171 5.244.653 9.43 5.106 9.776 10.394.097 1.495.001 2.973-.372 4.427-.488 1.894-1.658 3.533-3.3 4.601.198-.688.425-1.284.53-1.9.07-.43.057-.914-.066-1.331-.28-.942-1.092-1.208-1.938-.705l-.31.186c-.085-.195-.16-.354-.223-.52-.859-2.267-1.906-4.439-3.325-6.414-.309-.43-.651-.842-1.025-1.217-1.328-1.337-2.678-2.654-4.018-3.98-.378-.376-.753-.508-1.335-.381-.794.17-1.44.506-1.995 1.066-1.428 1.439-2.266 3.209-2.727 5.145-.638 2.68-.786 5.407-.587 8.154zM26.576 3.64c.427-.623 1.16-.786 1.821-.345.546.364 1.08.788 1.504 1.285 1.916 2.242 2.75 4.862 2.587 7.802-.052.94-.41 1.757-1.082 2.412-.642.627-1.073.527-1.472-.263-.29-.575-.32-1.163-.188-1.87 1.145-.464 1.399-1.386 1.208-2.478-.222-1.282-.517-2.55-1.23-3.67-.158-.245-.326-.488-.52-.703-.55-.607-1.174-1.079-2.066-.984-.369.04-.653-.17-.742-.479-.058-.205.046-.515.18-.707zm.79 1.969c.536-.088.841.18 1.075.478.359.456.746.922.956 1.45.38.953.678 1.944.924 2.94.125.505.052 1.054-.659 1.405-.246-2.333-.987-4.378-2.295-6.273zm7.255 41.225c-.123-2.202-.301-4.402-.693-6.573-.275-1.518-.662-3.026-1.606-4.291-.418-.642-1.062-1.048-1.062-1.048-.995-.56-1.935-1.053-2.838-1.604-1.387-.841-2.829-1.581-4.285-2.288-.83-.404-1.165-.982-1.14-1.89.04-1.41.147-2.81.317-4.209l.136-.81c.021-.145.042-.289.06-.433.052-.402.245-.674.578-.899.617-.415 1.229-.84 1.809-1.304 1.732-1.386 2.945-3.117 3.446-5.309.04-.174.107-.342.165-.519 1.11.586 1.876.427 2.668-.542.497-.608.789-1.314.95-2.08.22-1.059.151-2.116-.006-3.171-.34-2.267-1.235-4.284-2.825-5.95-.452-.474-.99-.897-1.559-1.22-1.021-.58-1.953-.34-2.674.577-.095.12-.183.246-.292.395-.123-.086-.213-.135-.287-.202C23.73 1.885 21.66 1 19.345.655c-.311-.047-.642-.07-.948-.017-.861.15-1.722.316-2.57.526-1.289.32-2.552.747-3.85 1.008-1.9.381-3.217 1.432-4.039 3.153-.127.264-.283.515-.378.79-.608 1.783-1.292 3.546-1.779 5.36-.506 1.894-.54 3.832.031 5.745.384 1.287 1.21 2.289 2.042 3.294.265.322.582.66.692 1.044.534 1.852 1.556 3.361 3.033 4.575l.609.509.191.739c.166.778.36 1.55.37 2.355.008.487-.125.888-.487 1.21-.337.298-.659.624-1.03.876-1.91 1.305-3.988 2.314-5.958 3.453 0 0-1.72.96-2.136 1.574-.176.288-.35.575-.52.865-.535.92-1.032 1.86-1.247 2.918-.333 1.649-.442 3.316-.342 4.994.02.344.076.689.149 1.025.053.246.08.592.441.544.294-.038.284-.337.293-.577.004-.08-.002-.16-.002-.24v-.515h-.001c-.01-.344-.008-.938 0-1.547v-.009c.013-1.018.042-2.072.042-2.072.042-2.038 1.009-3.716 2.122-5.322.395-.57.786-.615 1.45-.311 1.361.619 2.784 1.034 4.259 1.283 1.836.309 3.692.426 5.55.535 0 0 3.89.06 4.824-.026 1.457-.123 2.91-.272 4.341-.578 2.051-.44 4.135-.795 5.868-2.113.195-.148.338-.069.503.027.674.395 1.079 1.015 1.378 1.707.441 1.029.763 2.096.94 3.203.315 1.968.513 3.951.668 5.937.024.318.078.632.137.945.025.14.14.23.284.236.189.008.298-.121.321-.287.03-.21.036-.424.025-.636z" stroke="#33475C" stroke-width="5" stroke-linecap="round" stroke-linejoin="round" mask="url(#h)"/>
            </g>
            <path d="M87.65 77.556c-.036-.065-.076-.128-.12-.187-.307-.415-.687-.402-1.102-.074-.455.362-.617 1.182-.36 1.822.296.739 1.108.928 1.571.276.13-.181.194-.327.206-.864.014-.533-.192-.966-.194-.973zM94.686 77.41c-.037-.065-.075-.127-.12-.187-.308-.415-.687-.403-1.1-.074-.457.363-.62 1.183-.363 1.823.298.739 1.108.927 1.572.275.129-.18.194-.326.207-.863.013-.534-.192-.966-.196-.973z" stroke="#33475C" stroke-width="5" stroke-linecap="round" stroke-linejoin="round"/>
        </g>
        <g>
            <path d="M88.568 85.422s1.718.702 3.964.09c0 0 .184 2.238-2.06 2.09-2.242-.148-1.904-2.18-1.904-2.18z" stroke="#33475C" stroke-width="5" stroke-linecap="round" stroke-linejoin="round"/>
            <path d="M88.818 85.785c.01.266.075.651.327.966.277.347.73.544 1.345.586.585.033 1.027-.097 1.324-.4.32-.324.418-.78.445-1.083-1.576.35-2.852.1-3.441-.07zm1.864 2.089c-.074 0-.15-.001-.227-.007-.773-.05-1.356-.317-1.73-.789-.574-.725-.426-1.66-.419-1.7.013-.078.061-.148.132-.188.07-.04.155-.044.231-.014.015.007 1.667.66 3.793.08.074-.024.157-.008.223.038.064.045.105.117.112.196.003.045.084 1.124-.603 1.82-.368.375-.877.564-1.512.564zM120.671 66.444c.121-.043.242-.087.352-.114 2.407-.603 3.71 1.037 3.71 1.037s4.378 3.203 5.681 4.875c1.128 1.448 1.356 6.121 1.397 7.355.498 3.46.993 8.743.963 16.004-.042 9.356-1.036 15.193-1.733 18.152v0l.005-.018c-.38 1.616-.672 2.395-.672 2.395-1.863 1.694-4.373 2.493-4.376 2.493-1.481.094-3.335-.45-3.335-.45s-4.197-1.167-5.52-1.755c-.677-.303-1.212-.569-1.646-.814l-.03-.017c-.209-.12-.394-.233-.556-.344-.006-.003-.011-.008-.017-.012-.488-.335-.776-.638-.956-.952l-.014-.023c-.055-.1-.1-.198-.138-.302l-.012-.036c-.035-.101-.065-.205-.09-.313-.003-.013-.005-.027-.009-.04-.023-.11-.045-.22-.064-.34l-.001-.003c-.835-5.007 1.955-8.747 4.427-10.577.067-.05.132-.092.198-.14.77-.541 1.5-.9 2.064-1.041.186-.048.365-.076.54-.098.049-.007.097-.01.146-.015.132-.01.26-.016.382-.015h.118c.152.005.3.018.44.041l.09.018c.11.02.217.044.318.073.04.012.077.021.115.034.105.032.206.07.3.11l.048.019c.11.047.21.097.304.15l.075.042c.072.043.138.086.202.127l.056.038c.078.054.148.107.21.158l.001.001c.241.197.366.353.366.353s.474.347 1.151.868c.283-2.174.356-5.188.523-8.748.302-6.465-.53-10.002-.53-10.002s-.135-.863-.355-1.059c-.222-.198-1.413-.52-1.413-.52s-4.196-1.166-5.519-1.755c-1.451-.647-2.271-1.133-2.759-1.59 0 0-.003-.001-.004-.004-.32-.3-.496-.589-.606-.904-.002-.008-.005-.018-.009-.025-.033-.1-.06-.2-.085-.304l-.008-.044c-.022-.104-.043-.209-.061-.32l-.001-.004c-1.07-6.411 3.798-10.74 6.337-11.645z" stroke="#33475C" stroke-width="5" stroke-linecap="round" stroke-linejoin="round"/>
            <path d="M120.298 101.464c2.408-.603 3.712 1.036 3.712 1.036s4.377 3.204 5.68 4.876c1.303 1.671.683 8.754.683 8.754-1.842 1.677-4.315 2.474-4.37 2.492-1.482.096-3.341-.45-3.341-.45s-4.197-1.166-5.52-1.754c-3.083-1.377-3.336-2.021-3.533-3.196-1.12-6.714 4.282-11.157 6.69-11.758z" stroke="#33475C" stroke-width="5" stroke-linecap="round" stroke-linejoin="round"/>
            <path d="M120.298 101.464c1.666-.418 2.803.238 3.346.683-2.001.215-4.674 1.217-6.506 4.656-3.274 6.145-.925 9.172-.92 9.181-2.21-1.093-2.433-1.719-2.609-2.762-1.12-6.714 4.282-11.157 6.69-11.758z" stroke="#33475C" stroke-width="5" stroke-linecap="round" stroke-linejoin="round"/>
            <path d="M131.82 79.904s-.103-5.989-1.407-7.662c-1.303-1.672-5.68-4.875-5.68-4.875s-1.304-1.64-3.71-1.037c-2.408.602-7.81 5.044-6.69 11.759.197 1.173.45 1.819 3.534 3.194 1.323.59 5.519 1.756 5.519 1.756s1.19.322 1.413.52c.22.196.354 1.058.354 1.058s.833 3.538.53 10.004c-.302 6.465-.292 11.147-1.8 12.226" stroke="#33475C" stroke-width="5" stroke-linecap="round" stroke-linejoin="round"/>
            <path d="M131.222 74.31l-3.72 2.184s1.54 10.282 1.282 19.476c-.257 9.197-.362 13.877-2.786 22.653 0 0 2.512-.797 4.375-2.494 0 0 2.338-6.105 2.4-20.528.06-14.422-1.551-21.291-1.551-21.291zM114.334 78.088c-1.121-6.714 4.281-11.156 6.689-11.758 2.406-.604 3.71 1.037 3.71 1.037s-3.145-1.443-7.261 4.54c-2.58 3.751-1.788 6.933-.837 8.787-1.922-.996-2.135-1.613-2.301-2.606z" stroke="#33475C" stroke-width="5" stroke-linecap="round" stroke-linejoin="round"/>
            <path d="M120.671 66.444c.121-.043.242-.087.352-.114 2.407-.603 3.71 1.037 3.71 1.037s4.378 3.203 5.681 4.875c1.128 1.448 1.356 6.121 1.397 7.355.498 3.46.993 8.743.963 16.004-.042 9.356-1.036 15.193-1.733 18.152v0l.005-.018c-.38 1.616-.672 2.395-.672 2.395-1.863 1.694-4.373 2.493-4.376 2.493-1.481.094-3.335-.45-3.335-.45s-4.197-1.167-5.52-1.755c-.677-.303-1.212-.569-1.646-.814l-.03-.017c-.209-.12-.394-.233-.556-.344-.006-.003-.011-.008-.017-.012-.488-.335-.776-.638-.956-.952l-.014-.023c-.055-.1-.1-.198-.138-.302l-.012-.036c-.035-.101-.065-.205-.09-.313-.003-.013-.005-.027-.009-.04-.023-.11-.045-.22-.064-.34l-.001-.003c-.835-5.007 1.955-8.747 4.427-10.577.067-.05.132-.092.198-.14.77-.541 1.5-.9 2.064-1.041.186-.048.365-.076.54-.098.049-.007.097-.01.146-.015.132-.01.26-.016.382-.015h.118c.152.005.3.018.44.041l.09.018c.11.02.217.044.318.073.04.012.077.021.115.034.105.032.206.07.3.11l.048.019c.11.047.21.097.304.15l.075.042c.072.043.138.086.202.127l.056.038c.078.054.148.107.21.158l.001.001c.241.197.366.353.366.353s.474.347 1.151.868c.283-2.174.356-5.188.523-8.748.302-6.465-.53-10.002-.53-10.002s-.135-.863-.355-1.059c-.222-.198-1.413-.52-1.413-.52s-4.196-1.166-5.519-1.755c-1.451-.647-2.271-1.133-2.759-1.59 0 0-.003-.001-.004-.004-.32-.3-.496-.589-.606-.904-.002-.008-.005-.018-.009-.025-.033-.1-.06-.2-.085-.304l-.008-.044c-.022-.104-.043-.209-.061-.32l-.001-.004c-1.07-6.411 3.798-10.74 6.337-11.645zM125.683 94.62c-.302 6.466-.292 11.148-1.8 12.227" stroke="#33475C" stroke-width="5" stroke-linecap="round" stroke-linejoin="round"/>
            <path d="M138.868 131.744c1.1-.634 1.1-1.672 0-2.306L62.372 85.273c-1.097-.634-2.895-.634-3.992 0L3.706 116.838c-1.098.635-1.098 1.672 0 2.306l76.495 44.166c1.098.634 2.895.634 3.994 0l54.673-31.566z" fill="#FFF"/>
            <path d="M138.868 131.744c1.1-.634 1.1-1.672 0-2.306L62.372 85.273c-1.097-.634-2.895-.634-3.992 0L3.706 116.838c-1.098.635-1.098 1.672 0 2.306l76.495 44.166c1.098.634 2.895.634 3.994 0l54.673-31.566z" stroke="#33475C" stroke-linecap="round" stroke-linejoin="round"/>
            <path d="M35.243 114.368c-3.384-1.953-8.97-1.925-12.415.064-3.443 1.987-3.443 5.242 0 7.23 3.444 1.988 9.03 1.96 12.415-.064 3.383-2.022 3.383-5.277 0-7.23" fill="#40CEBB"/>
            <path stroke="#FFF" stroke-linecap="round" stroke-linejoin="round" d="M26.013 119.844l4.814.971-1.197-6.032"/>
            <path d="M36.58 108.798l17.24-9.953" fill="#FFF"/>
            <path d="M36.58 108.798l17.24-9.953" stroke="#7BDED2" stroke-width="2" opacity=".75" stroke-linecap="round" stroke-linejoin="round"/>
            <path d="M41.53 111.655l17.886-10.325" fill="#FFF"/>
            <path d="M41.53 111.655l17.886-10.325" stroke="#7BDED2" opacity=".75" stroke-linecap="round" stroke-linejoin="round"/>
            <path d="M45.265 113.811l13.198-7.618" fill="#FFF"/>
            <path d="M45.265 113.811l13.198-7.618" stroke="#7BDED2" opacity=".75" stroke-linecap="round" stroke-linejoin="round"/>
            <path d="M54.929 125.734c-3.385-1.953-8.97-1.925-12.415.063-3.443 1.988-3.443 5.242 0 7.23 3.444 1.989 9.03 1.96 12.415-.063 3.384-2.023 3.384-5.277 0-7.23" fill="#FFF"/>
            <path d="M54.929 125.734c-3.385-1.953-8.97-1.925-12.415.063-3.443 1.988-3.443 5.242 0 7.23 3.444 1.989 9.03 1.96 12.415-.063 3.384-2.023 3.384-5.277 0-7.23z" stroke="#7CD1DF" opacity=".75" stroke-linecap="round" stroke-linejoin="round"/>
            <path d="M56.266 120.163l13.164-7.6" fill="#FFF"/>
            <path d="M56.266 120.163l13.164-7.6" stroke="#7CD1DF" stroke-width="2" opacity=".75" stroke-linecap="round" stroke-linejoin="round"/>
            <path d="M61.216 123.02l13.79-7.96" fill="#FFF"/>
            <path d="M61.216 123.02l13.79-7.96" stroke="#7CD1DF" opacity=".75" stroke-linecap="round" stroke-linejoin="round"/>
            <path d="M64.95 125.177l15.267-8.814" fill="#FFF"/>
            <path d="M64.95 125.177l15.267-8.814" stroke="#7CD1DF" opacity=".75" stroke-linecap="round" stroke-linejoin="round"/>
            <path d="M74.615 137.1c-3.384-1.954-8.97-1.926-12.415.063-3.443 1.987-3.443 5.242 0 7.23 3.444 1.988 9.031 1.96 12.415-.064 3.385-2.02 3.385-5.275 0-7.23" fill="#FFF"/>
            <path d="M74.615 137.1c-3.384-1.954-8.97-1.926-12.415.063-3.443 1.987-3.443 5.242 0 7.23 3.444 1.988 9.031 1.96 12.415-.064 3.385-2.02 3.385-5.275 0-7.23z" stroke="#FFC3A3" opacity=".75" stroke-linecap="round" stroke-linejoin="round"/>
            <path d="M75.952 131.529l13.87-8.006" fill="#FFF"/>
            <path d="M75.952 131.529l13.87-8.006" stroke="#FFC3A3" stroke-width="2" opacity=".75" stroke-linecap="round" stroke-linejoin="round"/>
            <g>
                <path d="M80.902 134.386l25.89-14.945" fill="#FFF"/>
                <path d="M80.902 134.386l25.89-14.945" stroke="#FFC3A3" opacity=".75" stroke-linecap="round" stroke-linejoin="round"/>
            </g>
            <g>
                <path d="M84.637 136.543l17.526-10.117" fill="#FFF"/>
                <path d="M84.637 136.543l17.526-10.117" stroke="#FFC3A3" opacity=".75" stroke-linecap="round" stroke-linejoin="round"/>
            </g>
            <g>
                <path d="M76.623 152.72l39.81-22.983" fill="#FFF"/>
                <path d="M76.623 152.72l39.81-22.983" stroke="#CBD6E3" stroke-width="2" opacity=".75" stroke-linecap="round" stroke-linejoin="round"/>
            </g>
            <g>
                <path d="M81.573 155.578l43.905-25.347" fill="#FFF"/>
                <path d="M81.573 155.578l43.905-25.347" stroke="#CBD6E3" opacity=".75" stroke-linecap="round" stroke-linejoin="round"/>
            </g>
            <path d="M49.638 2.73c8.385 0 15.975 3.397 21.471 8.893l4.196 4.196-.414.413c3.228 4.824 5.112 10.623 5.112 16.863 0 15.175-11.135 27.75-25.68 30.002l-4.685-4.835-4.685 4.835c-4.453-.688-8.572-2.363-12.163-4.766l-.43.428-4.195-4.195c-5.494-5.495-8.892-13.086-8.892-21.47 0-16.77 13.595-30.364 30.365-30.364" fill="#7CD1DF"/>
            <path d="M32.361 58.759c-5.495-5.495-8.892-13.086-8.892-21.47 0-16.77 13.595-30.364 30.365-30.364 8.383 0 15.975 3.398 21.47 8.893 5.495 5.496 8.894 13.085 8.894 21.471 0 15.177-11.134 27.752-25.68 30.004l-4.684 6.694-4.686-6.694c-6.509-1.008-12.336-4.083-16.787-8.534" fill="#DDF3F7"/>
            <path d="M49.638 2.73c8.385 0 15.975 3.397 21.471 8.893l4.196 4.196c5.494 5.494 8.893 13.085 8.893 21.47 0 15.178-11.135 27.752-25.68 30.005l-4.685 6.693-4.685-6.693c-6.51-1.009-12.336-4.084-16.787-8.535l-4.196-4.195c-5.494-5.495-8.892-13.086-8.892-21.47 0-16.77 13.595-30.364 30.365-30.364z" stroke="#33475C" stroke-linecap="round" stroke-linejoin="round"/>
            <path d="M76.89 37.511c0 12.735-10.322 23.058-23.057 23.058-12.734 0-23.058-10.323-23.058-23.058S41.1 14.453 53.833 14.453c12.735 0 23.058 10.323 23.058 23.058" fill="#7CD1DF" opacity=".5"/>
        </g>
        <g>
            <g transform="translate(35.74 50.222)">
                <mask id="j" fill="#fff">
                    <use xlink:href="#i"/>
                </mask>
                <path d="M1.024 16.012s16.633 7.99 35.187-1.373l-.169-3.232L35.008 5.5l-1.404-2.512-3.139-1.699L27.22.406s-1.85 2.877-3.771 4.28c-1.92 1.404-4.83 2.881-4.83 2.881l-2.039-3.51-.628-.073-2.327 2.363s-2.337-.828-3.36-2.29C9.24 2.597 7.863 1.4 7.863 1.4L4.12 4.094S1.99 5.941 1.88 8.712c-.111 2.769-.856 7.3-.856 7.3" fill="#0794D1" mask="url(#j)"/>
            </g>
            <path d="M56.565 29.46c-.445-.74-.863-1.36-1.372-1.911-1.405-1.521-2.978-2.866-4.458-4.31-.419-.407-.98-.513-1.561-.23-.418.204-.775.476-1.098.804-1.303 1.323-2.07 2.945-2.475 4.72-.663 2.9-.783 5.842-.408 8.8.2 1.57.64 3.048 1.653 4.3 1.167 1.442 2.625 2.524 4.252 3.389.702.373 1.432.34 2.19.154 1.587-.388 2.886-1.261 4.099-2.306.225-.193.512-.637.768-.394.351.333-.135.62-.349.83-1.165 1.143-2.508 1.98-4.088 2.477-1.305.409-2.47.275-3.607-.455-.344-.22-.68-.487-1.131-.574 0 .211-.01.372.002.53.087 1.264.112 2.519-.4 3.724-.165.391-.06.796.14 1.163.754 1.383 1.803 2.458 3.259 3.109.206.092.373.138.602.041 2.472-1.049 4.6-2.524 6.1-4.808.314-.48.585-.953.316-1.559-.07-.16-.032-.37-.035-.56-.029-1.423.068-2.841.183-4.261.113-1.398.45-2.68 1.516-3.705.594-.571.848-1.359.963-2.173.054-.38.031-.755-.193-1.086-.264-.393-.544-.424-.962-.208-.37.19-.415.585-.638.935-.303-.388-.46-.779-.598-1.179-.385-1.12-.894-2.184-1.454-3.225-.592-1.104-1.841-1.616-3.07-1.287-.276.073-.546.224-.857.149.35-.89.897-1.078 2.71-.894" fill="#B07557"/>
            <g transform="translate(35.74 16.789)">
                <mask id="l" fill="#fff">
                    <use xlink:href="#k"/>
                </mask>
                <path d="M15.792 37.103c-.212-.116-.393-.224-.585-.314-1.024-.485-1.813-1.229-2.41-2.182-.227-.364-.476-.72-.64-1.113-.154-.37-.336-.402-.677-.269-.897.354-1.79.721-2.75.877-.21.034-.433.032-.598.2.002.052-.01.11.011.152.073.142.153.284.24.418 1.032 1.562 2.356 2.843 3.843 3.962.279.211.603.345.923.482.26.113.47.07.656-.123.645-.673 1.287-1.351 1.987-2.09m11.427-3.99c-1.025-.448-1.988-.85-2.89-1.384-.511-.303-.535-.292-.835.269-.459.856-.967 1.675-1.684 2.342-1.286 1.195-2.66 2.259-4.342 2.846-.311.11-.444.221-.269.571.346.697.636 1.422.975 2.12.375.775.425.806 1.216.393 1.933-1.014 3.737-2.22 5.281-3.777.982-.99 1.898-2.039 2.548-3.38m-6.394-20.441c-.445-.74-.861-1.36-1.372-1.913-1.404-1.52-2.978-2.865-4.458-4.308-.418-.407-.979-.513-1.561-.23-.417.203-.775.475-1.098.803-1.302 1.323-2.069 2.945-2.475 4.72-.663 2.902-.783 5.841-.408 8.8.2 1.571.641 3.048 1.654 4.3 1.166 1.441 2.624 2.525 4.251 3.39.702.373 1.433.34 2.19.153 1.587-.388 2.886-1.26 4.1-2.306.224-.194.511-.636.767-.393.352.333-.135.62-.348.829-1.165 1.143-2.508 1.98-4.088 2.477-1.304.408-2.471.276-3.607-.455-.343-.22-.68-.488-1.13-.574 0 .212-.01.371 0 .53.087 1.265.112 2.52-.4 3.725-.164.391-.06.796.14 1.161.754 1.385 1.803 2.458 3.26 3.11.206.093.373.139.602.042 2.47-1.049 4.6-2.526 6.099-4.809.316-.48.586-.952.317-1.56-.071-.159-.032-.37-.036-.557-.029-1.424.068-2.843.184-4.263.114-1.397.45-2.679 1.516-3.704.593-.572.847-1.36.962-2.174.054-.38.031-.754-.192-1.085-.264-.393-.543-.424-.963-.21-.369.191-.415.587-.637.936-.304-.387-.46-.778-.598-1.18-.385-1.12-.894-2.183-1.455-3.225-.592-1.103-1.84-1.614-3.07-1.287-.275.074-.545.224-.855.15.35-.89.896-1.079 2.71-.893m12.208 2.389c.06-.181-.017-.268-.069-.358-.958-1.647-1.91-3.3-2.879-4.941-1.194-2.028-2.63-3.859-4.434-5.386-1.655-1.403-3.39-2.614-5.64-2.908-1.074-.14-2.075-.11-3.051.362-.945.457-1.921.828-2.911 1.174-1.874.655-3.732 1.353-5.6 2.028-.56.201-.937.58-1.232 1.093C6.202 7.88 5.518 9.772 4.93 11.7c-.364 1.2-.628 2.425-.811 3.697.311-.048.399-.505.715-.334.337.182.129.532.163.807.004.025 0 .053-.003.08-.18 1.611-.068 3.22.056 4.827.063.818.106 1.647.31 2.472.585-.464.725-.451.91.169.247.822.46 1.656.639 2.495.303 1.421.894 2.696 1.83 3.807.766.907 1.275 1.918 1.343 3.123.002.038.062.074.138.158.504-.203 1.011-.445 1.542-.612.449-.14.635-.403.712-.852.203-1.179.115-2.355.086-3.536-.012-.53-.196-.882-.6-1.225-1.772-1.506-2.772-3.434-3.109-5.742-.284-1.957-.243-3.912-.098-5.866.095-1.284.243-2.568.602-3.814.528-1.828 1.304-3.523 2.647-4.911.378-.39.8-.715 1.308-.922 1.248-.509 1.455-.47 2.39.453 1.146 1.13 2.288 2.266 3.446 3.387.756.734 1.407 1.55 1.957 2.447 1.099 1.785 2.141 3.6 2.856 5.583.17.472.187.465.65.256.771-.35 1.567.037 1.811.89.09.313.098.637.074.96-.083 1.11-.471 2.096-1.243 2.904-.559.586-.892 1.274-1.027 2.058-.326 1.912-.442 3.838-.36 5.778.015.331.114.523.438.674 1.07.499 2.107 1.067 3.205 1.508.285.113.598.245.526.607-.077.396.13.429.415.48.209.036.406.136.61.204.642.212.67.219.845-.41.71-2.55 1.218-5.123.822-7.79-.02-.133-.043-.266-.046-.4-.007-.199.053-.379.254-.46.176-.07.31.043.424.157.19.192.358.403.553.586.122.115.211.338.49.204.073-2.242.034-4.488-.393-6.718-.202-1.056-.484-2.09-.76-3.128-.161-.605.013-.781.643-.728.373.03.742.114 1.143.037M15.802 38.24c-.62.46-1.015.89-1.427 1.305-.677.68-.904.724-1.781.365-.479-.195-.896-.482-1.284-.82-1.157-1.012-2.217-2.112-3.084-3.386-.09-.131-.192-.256-.275-.366-.08-.005-.147-.031-.178-.008-1.112.794-2.234 1.578-3.33 2.396-1.183.886-1.753 2.129-2.017 3.553-.297 1.612-.411 3.248-.635 4.87-.125.904-.247 1.81-.402 2.707-.04.228.028.654-.365.588-.334-.056-.227-.437-.23-.691-.007-.646.084-1.285.167-1.923.222-1.704.452-3.407.651-5.113.267-2.292 1.436-3.996 3.326-5.261.468-.312.9-.68 1.33-1.043.287-.242.543-.521.901-.664.197-.078.313-.192.216-.43-.175-.425.101-.599.437-.691.439-.121.885-.226 1.334-.304.363-.064.392-.224.316-.56-.199-.876-.474-1.708-1.067-2.402-1.199-1.404-1.92-3.028-2.242-4.838-.052-.29-.13-.575-.2-.862-.011-.04-.06-.071-.088-.104-.137.014-.169.124-.207.222-.063.156-.15.294-.341.285-.246-.012-.281-.21-.32-.397-.35-1.713-.58-3.443-.635-5.19-.029-.93-.005-1.861-.005-2.875-.34.14-.391.396-.525.576-.085.114-.194.2-.338.162-.188-.046-.24-.203-.222-.375.034-.347.073-.692.125-1.038.449-2.989 1.213-5.887 2.485-8.637.113-.244.256-.476.353-.724.501-1.31 1.503-2.02 2.787-2.466 2.74-.948 5.455-1.96 8.134-3.069C18.093.65 19.059.58 20.08.694c2.572.292 4.534 1.685 6.402 3.307 1.957 1.697 3.43 3.76 4.681 6.003.864 1.548 1.746 3.085 2.611 4.631.164.293.466.592.217.954-.21.303-.578.229-.895.223-1.086-.017-1.088-.02-.795.996.89 3.089 1.018 6.24.757 9.42-.02.242-.017.51-.291.614-.316.119-.488-.114-.67-.318-.173-.195-.284-.453-.558-.56-.196.146-.107.346-.092.514.208 2.423-.238 4.76-.908 7.068-.18.62-.182.604.361.892.854.452 1.698.923 2.545 1.388.812.445 1.361 1.119 1.676 1.984.12.328.245.659.32.998.595 2.7 1.157 5.408 1.184 8.192.003.268.021.54-.068.798-.056.16-.159.297-.345.274-.142-.017-.23-.138-.25-.28-.032-.21-.057-.425-.065-.639-.102-2.56-.609-5.06-1.102-7.564-.082-.418-.225-.827-.354-1.237-.29-.92-.875-1.57-1.745-2.002-1.414-.705-2.762-1.562-4.355-1.84-.29-.05-.527-.42-.792-.278-.233.123-.359.45-.528.688-.517.725-1.129 1.369-1.754 1.997-1.72 1.73-3.714 3.083-5.893 4.158-.955.472-1.228.356-1.723-.591-.223-.427-.386-.885-.59-1.323-.11-.236-.142-.516-.408-.735-.222.897-.258 1.776-.343 2.641-.294 3-.288 6.006-.159 9.015.03.724.013 1.449.007 2.174 0 .121.008.299-.161.32-.241.032-.223-.178-.239-.326-.176-1.577-.206-3.162-.25-4.744-.063-2.39-.001-4.78.12-7.167.032-.641.105-1.281.174-2.098" fill="#33475C" mask="url(#l)"/>
            </g>
            <path d="M45.851 30.799c.09-.557.458-.845.914-1.02.926-.352 1.795-.23 2.572.4.837.68 1.297 1.567 1.39 2.633.125 1.473.196 2.949-.053 4.418-.023.132-.05.266-.051.4-.007.43.156.6.563.598.053 0 .106-.02.16-.023.227-.017.576-.215.65.041.1.349-.322.354-.549.436-.871.311-1.458-.127-1.334-1.06.183-1.364.255-2.726.15-4.097-.071-.917-.236-1.798-.889-2.53-.793-.891-1.953-1.047-2.897-.416-.17.111-.338.252-.626.22" fill="#33475C"/>
            <path d="M49.35 33.185c-.011.08-.015.244-.057.396-.123.431-.598.805-.999.804-.388-.001-.788-.32-.887-.8-.12-.58-.171-1.178.327-1.643.447-.419.931-.374 1.303.108.191.248.31.647.313 1.135M56.414 32.796c.015.72-.444 1.321-1.005 1.318-.603-.005-.992-.539-.958-1.32.034-.827.544-1.3 1.194-1.108.416.123.759.617.769 1.11" fill="#33475C"/>
            <path d="M59.965 41.25c-.327 1.91-.443 3.837-.36 5.777.014.331.113.523.437.674 1.071.498 2.108 1.066 3.205 1.506.285.115.597.247.527.61-.078.393.13.428.414.479.209.035.407.136.61.203.643.213.67.22.846-.41.71-2.549 1.218-5.122.821-7.79-.02-.132-.042-.265-.046-.4-.006-.198.054-.379.254-.459.176-.071.31.043.425.157.189.192.358.401.553.586.121.115.21.338.49.203.073-2.241.033-4.487-.393-6.717-.202-1.056-.484-2.09-.76-3.128-.162-.605.013-.781.643-.73.372.033.742.116 1.142.039.06-.183-.016-.268-.068-.358-.958-1.648-1.91-3.3-2.879-4.941-1.194-2.028-2.632-3.859-4.435-5.386-1.655-1.403-3.39-2.614-5.639-2.908-1.074-.14-2.076-.11-3.052.362-.944.457-1.92.828-2.91 1.174-1.875.655-3.732 1.353-5.6 2.026-.56.203-.937.582-1.233 1.095-1.016 1.755-1.7 3.647-2.286 5.576-.365 1.2-.629 2.425-.811 3.697.311-.048.399-.505.713-.334.338.182.13.532.164.807.004.025 0 .053-.003.08-.18 1.611-.068 3.22.056 4.827.064.818.106 1.646.31 2.472.586-.464.724-.451.911.169.246.822.459 1.656.638 2.495.303 1.421.894 2.696 1.832 3.806.764.908 1.272 1.92 1.34 3.123.003.039.064.075.14.159.504-.204 1.011-.446 1.541-.612.449-.14.634-.404.713-.852.202-1.179.114-2.355.086-3.536-.012-.532-.196-.882-.6-1.225-1.772-1.506-2.772-3.434-3.109-5.742-.284-1.957-.243-3.912-.099-5.867.095-1.283.244-2.567.603-3.813.528-1.828 1.303-3.523 2.647-4.911.378-.39.8-.715 1.307-.922 1.248-.509 1.456-.47 2.39.453 1.147 1.13 2.29 2.266 3.445 3.387.758.734 1.408 1.55 1.96 2.446 1.097 1.786 2.139 3.6 2.855 5.584.17.471.187.464.649.256.771-.35 1.567.037 1.812.89.089.313.097.637.073.96-.083 1.11-.472 2.096-1.243 2.904-.56.586-.892 1.273-1.026 2.058" fill="#542B19"/>
            <path d="M62.959 49.902c-1.025-.448-1.988-.85-2.89-1.384-.511-.303-.536-.292-.835.268-.46.857-.968 1.676-1.685 2.342-1.285 1.195-2.66 2.26-4.342 2.846-.31.11-.443.222-.268.572.346.697.635 1.422.974 2.12.375.775.424.806 1.216.392 1.934-1.013 3.738-2.219 5.282-3.777.982-.99 1.897-2.038 2.548-3.379M51.531 53.891c-.212-.115-.393-.223-.584-.313-1.024-.486-1.814-1.23-2.41-2.183-.227-.363-.476-.72-.64-1.112-.154-.37-.336-.403-.678-.269-.897.354-1.79.72-2.75.876-.21.035-.433.033-.598.2.003.053-.01.112.012.153.072.142.152.284.24.418 1.031 1.562 2.355 2.843 3.842 3.962.28.211.603.345.924.482.26.113.47.07.656-.123.644-.674 1.286-1.352 1.986-2.09" fill="#0794D1"/>
        </g>
        <g>
            <path d="M49.777 40.07s1.718.701 3.964.089c0 0 .184 2.238-2.06 2.089-2.242-.148-1.904-2.179-1.904-2.179" fill="#F77D81"/>
            <path d="M50.027 40.432c.01.266.075.651.327.966.276.348.73.544 1.345.585.581.033 1.026-.096 1.325-.398.32-.326.416-.782.444-1.084-1.574.35-2.851.099-3.44-.07m1.863 2.09c-.074 0-.15-.003-.226-.007-.774-.05-1.356-.317-1.73-.789-.575-.725-.427-1.66-.42-1.7.013-.079.062-.148.132-.188.07-.04.156-.044.23-.014.017.008 1.668.66 3.794.08.075-.024.156-.007.222.038.065.045.106.117.112.196.005.044.084 1.122-.602 1.82-.369.375-.877.564-1.512.564" fill="#33475C"/>
            <path d="M25.854 17.622c-.12-.048-.24-.094-.348-.124-2.39-.666-3.737.939-3.737.939s-4.46 3.088-5.805 4.727c-1.165 1.415-1.517 6.082-1.59 7.315-.588 3.446-1.22 8.714-1.38 15.974-.204 9.353.638 15.213 1.259 18.191-.003-.007-.004-.013-.005-.02.338 1.626.61 2.411.61 2.411 1.817 1.745 4.305 2.607 4.308 2.608 1.478.132 3.346-.363 3.346-.363s4.226-1.056 5.564-1.61c.685-.285 1.226-.538 1.667-.77l.03-.017c.212-.114.401-.223.565-.33l.017-.01c.497-.323.793-.619.98-.927l.015-.024c.058-.097.105-.196.145-.296l.014-.037c.038-.1.07-.203.098-.31l.01-.04c.026-.109.05-.22.073-.338l.001-.003c.965-4.984-1.727-8.795-4.149-10.69-.066-.051-.13-.095-.195-.143-.755-.562-1.476-.94-2.036-1.097-.185-.052-.363-.085-.536-.112l-.146-.018c-.132-.015-.26-.024-.383-.027-.04 0-.079-.003-.117-.003-.153.002-.3.013-.44.032l-.091.014c-.11.018-.218.04-.32.066l-.115.03c-.107.03-.208.065-.305.102l-.047.018c-.11.045-.213.093-.308.143-.027.013-.051.026-.076.041-.073.04-.141.08-.204.121l-.06.037c-.078.052-.15.103-.213.152-.247.192-.375.344-.375.344s-.482.335-1.174.838c-.225-2.182-.22-5.196-.293-8.76-.135-6.47.79-9.985.79-9.985s.158-.859.383-1.048c.227-.193 1.426-.484 1.426-.484s4.225-1.056 5.562-1.61c1.47-.61 2.3-1.074 2.8-1.517l.004-.003c.329-.293.512-.578.629-.888.003-.009.008-.018.01-.027.036-.097.067-.198.093-.301l.01-.043c.025-.103.048-.208.069-.32v-.004c1.238-6.379-3.517-10.834-6.03-11.804" fill="#FFAB7D"/>
            <path d="M25.312 52.638c-2.39-.665-3.738.94-3.738.94s-4.458 3.087-5.804 4.726c-1.346 1.637-.912 8.732-.912 8.732 1.798 1.725 4.25 2.587 4.303 2.606 1.48.134 3.352-.362 3.352-.362s4.225-1.056 5.562-1.61c3.12-1.295 3.39-1.934 3.616-3.102 1.296-6.683-3.99-11.264-6.38-11.93" fill="#FFAB7D"/>
            <path d="M25.312 52.638c-1.654-.46-2.808.166-3.362.596 1.995.268 4.64 1.339 6.382 4.824 3.112 6.23.685 9.194.678 9.202 2.24-1.034 2.48-1.654 2.68-2.692 1.297-6.683-3.988-11.264-6.378-11.93" fill="#FF8F52"/>
            <path d="M14.358 30.785s.26-5.984 1.606-7.621c1.346-1.639 5.805-4.727 5.805-4.727s1.346-1.605 3.736-.939c2.391.665 7.675 5.246 6.38 11.928-.227 1.17-.497 1.809-3.615 3.102-1.338.555-5.563 1.611-5.563 1.611s-1.199.29-1.426.484c-.225.19-.383 1.048-.383 1.048s-.923 3.514-.79 9.985c.134 6.474 0 11.152 1.48 12.272" fill="#FFAB7D"/>
            <path d="M15.102 25.21l3.66 2.278s-1.807 10.239-1.79 19.438c.017 9.199 0 13.88 2.194 22.717 0 0-2.49-.862-4.308-2.607 0 0-2.18-6.164-1.863-20.583.316-14.42 2.107-21.243 2.107-21.243" fill="#FFC7AA"/>
            <path d="M31.885 29.426c1.296-6.682-3.989-11.263-6.38-11.929-2.388-.665-3.736.94-3.736.94s3.183-1.36 7.14 4.73c2.482 3.816 1.607 6.976.607 8.805 1.949-.947 2.178-1.558 2.37-2.546" fill="#FF8F52"/>
            <path d="M25.854 17.622c-.12-.048-.24-.094-.348-.124-2.39-.666-3.737.939-3.737.939s-4.46 3.088-5.805 4.727c-1.165 1.415-1.517 6.082-1.59 7.315-.588 3.446-1.22 8.714-1.38 15.974-.204 9.353.638 15.213 1.259 18.191-.003-.007-.004-.013-.005-.02.338 1.626.61 2.411.61 2.411 1.817 1.745 4.305 2.607 4.308 2.608 1.478.132 3.346-.363 3.346-.363s4.226-1.056 5.564-1.61c.685-.285 1.226-.538 1.667-.77l.03-.017c.212-.114.401-.223.565-.33l.017-.01c.497-.323.793-.619.98-.927l.015-.024c.058-.097.105-.196.145-.296l.014-.037c.038-.1.07-.203.098-.31l.01-.04c.026-.109.05-.22.073-.338l.001-.003c.965-4.984-1.727-8.795-4.149-10.69-.066-.051-.13-.095-.195-.143-.755-.562-1.476-.94-2.036-1.097-.185-.052-.363-.085-.536-.112l-.146-.018c-.132-.015-.26-.024-.383-.027-.04 0-.079-.003-.117-.003-.153.002-.3.013-.44.032l-.091.014c-.11.018-.218.04-.32.066l-.115.03c-.107.03-.208.065-.305.102l-.047.018c-.11.045-.213.093-.308.143-.027.013-.051.026-.076.041-.073.04-.141.08-.204.121l-.06.037c-.078.052-.15.103-.213.152-.247.192-.375.344-.375.344s-.482.335-1.174.838c-.225-2.182-.22-5.196-.293-8.76-.135-6.47.79-9.985.79-9.985s.158-.859.383-1.048c.227-.193 1.426-.484 1.426-.484s4.225-1.056 5.562-1.61c1.47-.61 2.3-1.074 2.8-1.517l.004-.003c.329-.293.512-.578.629-.888.003-.009.008-.018.01-.027.036-.097.067-.198.093-.301l.01-.043c.025-.103.048-.208.069-.32v-.004c1.238-6.379-3.517-10.834-6.03-11.804zM20.108 45.657c.134 6.472 0 11.152 1.48 12.271" stroke="#33475C" stroke-linecap="round" stroke-linejoin="round"/>
            <path d="M97.635 49.152c-8.385 0-15.976 3.398-21.472 8.893l-4.195 4.196.414.413c-3.228 4.824-5.112 10.623-5.112 16.862 0 15.176 11.135 27.75 25.68 30.003l4.685-4.835 4.685 4.835c4.453-.688 8.572-2.364 12.163-4.766l.428.428 4.196-4.197C124.602 95.49 128 87.9 128 79.515c0-16.769-13.594-30.363-30.364-30.363" fill="#FFA472"/>
            <path d="M114.911 105.18c5.495-5.495 8.893-13.085 8.893-21.469 0-16.77-13.594-30.365-30.365-30.365-8.384 0-15.976 3.4-21.47 8.895-5.496 5.495-8.894 13.084-8.894 21.47 0 15.177 11.133 27.75 25.68 30.003l4.684 6.693 4.685-6.693c6.51-1.008 12.337-4.084 16.787-8.534" fill="#FFE2D4"/>
            <path d="M97.635 49.152c-8.385 0-15.976 3.398-21.472 8.893l-4.195 4.196c-5.495 5.494-8.893 13.084-8.893 21.47 0 15.177 11.134 27.75 25.68 30.003l4.684 6.694 4.686-6.694c6.509-1.007 12.336-4.083 16.786-8.533l4.196-4.197C124.602 95.49 128 87.9 128 79.515c0-16.769-13.594-30.363-30.364-30.363z" stroke="#33475C" stroke-linecap="round" stroke-linejoin="round"/>
            <path d="M116.497 83.273c0 12.735-10.323 23.058-23.058 23.058-12.733 0-23.058-10.323-23.058-23.058 0-12.734 10.325-23.058 23.058-23.058 12.735 0 23.058 10.324 23.058 23.058" fill="#FFA472" opacity=".5"/>
        </g>
        <g>
            <g transform="translate(76.09 97.49)">
                <mask id="n" fill="#fff">
                    <use xlink:href="#m"/>
                </mask>
                <path d="M32.838 12.935c-.059-.313-.113-.627-.137-.943-.155-1.988-.352-3.97-.668-5.939-.177-1.107-.5-2.173-.94-3.202-.298-.693-.704-1.312-1.378-1.708-.165-.096-.308-.175-.503-.026-1.733 1.318-3.817 1.672-5.867 2.112-1.432.307-2.885.456-4.342.578-.934.086-4.825.026-4.825.026-1.857-.107-3.712-.226-5.55-.534-1.473-.249-2.896-.665-4.258-1.284-.664-.302-1.055-.259-1.45.312C1.806 3.932.84 5.611.797 7.647c0 0-.028 1.056-.041 2.074H.755v.009c-.007.608-.01 1.203 0 1.547h.002v.515c0 .08.005.16.002.24-.004.091-.005.191-.02.283 1.07.837 4.978 3.177 15.263 3.207 10.28.031 15.43-1.764 16.95-2.41-.058-.041-.1-.101-.114-.177" fill="#00A4BF" mask="url(#n)"/>
            </g>
            <path d="M102.886 98.88c-2.26.697-4.562 1.195-6.912 1.444l-.007.01c-1.903.326-6.576.081-6.702.074h-.005c-.145-.006-.289-.015-.432-.025-2.353-.195-4.705-.402-6.937-1.263-.198-.075-.398-.15-.594-.229-.072-.03-.137-.08-.238-.138.084-.264.346-.293.531-.396 1.068-.589 2.148-1.154 3.212-1.748.974-.545 1.92-1.138 2.685-1.966.858-.909.882-1.379.882-1.379.036-.843.031-1.684-.145-2.577l-.084-.414c.278.166.558.331.844.49.66.365 1.35.641 2.126.53 2.078-.298 3.804-1.282 5.27-2.754.186-.186.295-.451.439-.68l-.215-.2c-.265.196-.544.376-.794.588-1.206 1.028-2.506 1.862-4.08 2.235-.861.205-1.622.075-2.374-.342-1.097-.61-2.084-1.371-3.004-2.22-1.293-1.196-2.072-2.673-2.387-4.402-.49-2.698-.377-5.396-.017-8.095.232-1.735.784-3.36 1.727-4.837.518-.812 1.117-1.56 2-2.008.65-.328 1.219-.24 1.746.256 1.063 1.003 2.135 1.995 3.177 3.02.585.576 1.14 1.188 1.662 1.824.273.332.445.746.7 1.185-1.728-.143-2.394.128-2.474.979.316-.085.622-.165.927-.244 1.088-.28 2.188.201 2.644 1.217.628 1.403 1.209 2.828 1.821 4.238.074.168.22.304.457.619.093-.398.132-.59.184-.778.103-.361.557-.723.882-.676.398.055.609.354.653.708.046.36.025.743-.043 1.103-.157.833-.595 1.53-1.184 2.128-.564.571-.854 1.239-1.004 1.95h-.001l-.003.017c-.047.227-.08.458-.102.693-.036.257-.074.56-.107.868l-.052.718c-.078.857-.149 1.564-.205 2.27-.06.74-.12 1.489-.014 2.224 0 0 .372 1.123.815 1.377 2.01 1.132 4.044 2.223 6.017 3.423.15.092.352.138.408.395-.503.38-1.094.604-1.693.789" fill="#FFE3DC"/>
            <path d="M105.4 73.347c-.272-1.1-.576-2.068-.929-2.958-.2-.506-.552-.95-.892-1.379l-.087-.108c-.237-.302-.59-.633-1.211-.532-.05.007-.091.04-.111.087-.02.046-.015.098.014.14 1.283 1.858 2.027 3.888 2.27 6.205.006.048.033.09.075.111.022.013.046.02.071.02.022 0 .044-.006.064-.016.665-.328.913-.856.736-1.57" fill="#F6C364"/>
            <path d="M104.894 67.437c-.383-.448-.88-.872-1.519-1.297-.675-.451-1.466-.301-1.923.363-.143.208-.254.54-.189.77.103.358.434.572.82.53.912-.095 1.525.433 2.004.962.208.231.382.49.512.693.672 1.055.974 2.219 1.222 3.643.21 1.21-.17 1.995-1.165 2.398-.023.009-.039.03-.044.054-.145.772-.085 1.364.194 1.916.221.437.447.66.71.704.03.004.061.007.093.007.232 0 .49-.141.786-.429.679-.662 1.049-1.49 1.103-2.46.166-2.995-.709-5.637-2.604-7.854" fill="#E8824A"/>
            <path d="M94.025 64.391c-.662-.082-1.221-.025-1.759.175-.543.204-1.11.349-1.594.462-.988.231-1.994.454-2.968.67l-1.07.238c-1.001.223-1.789.766-2.408 1.658-1.205 1.737-2.036 3.754-2.694 6.54-.299 1.263-.401 2.616-.314 4.14.097 1.694.98 3.04 1.798 4.167.016.023.043.035.071.03.027-.005.05-.025.058-.051.05-.161.039-.3.029-.435l-.073.004.073-.006c-.212-2.923-.021-5.582.585-8.13.502-2.109 1.387-3.78 2.707-5.112.536-.54 1.159-.873 1.96-1.047.534-.114.89-.013 1.268.362l1.387 1.369c.865.853 1.76 1.736 2.631 2.612.358.359.699.766 1.017 1.208 1.27 1.767 2.354 3.859 3.317 6.398.041.112.09.221.143.34l.08.183c.007.019.024.034.044.04.02.007.042.005.06-.006l.31-.186c.407-.243.815-.304 1.15-.174.32.127.557.415.681.837.114.384.137.856.064 1.297-.07.422-.202.84-.34 1.278-.064.199-.127.403-.188.615-.009.029.002.06.027.078.012.01.028.015.043.015.014 0 .028-.003.04-.011 1.653-1.077 2.836-2.726 3.33-4.645.357-1.387.48-2.842.374-4.45-.347-5.308-4.576-9.807-9.84-10.463" fill="#E8824A"/>
            <path d="M90.677 83.637c-.366.378-.796.524-1.275.477-.476-.047-.754-.438-.718-.981.028-.45.148-.897.148-1.345.001-1.191 0-2.386-.08-3.573-.057-.815-.418-1.527-1.073-2.067-.751-.622-1.578-.706-2.437-.223-.222.125-.447.246-.798.44.156-.726.56-1.028 1.071-1.194.835-.27 1.63-.17 2.336.38.74.577 1.238 1.315 1.388 2.251.234 1.45.233 2.909.073 4.367-.031.29-.087.58-.085.87 0 .43.16.552.597.541.266-.006.545-.258.853.057" fill="#33475C"/>
            <g transform="translate(74.938 62.904)">
                <mask id="p" fill="#fff">
                    <use xlink:href="#o"/>
                </mask>
                <path d="M27.949 35.977c-2.261.696-4.562 1.194-6.913 1.443l-.007.01c-1.902.326-6.576.081-6.702.074h-.005c-.144-.007-.289-.015-.431-.025-2.354-.195-4.705-.402-6.937-1.264-.199-.075-.398-.148-.594-.228-.073-.031-.137-.08-.239-.138.084-.264.346-.293.532-.396C7.72 34.864 8.8 34.3 9.865 33.704c.974-.544 1.92-1.138 2.685-1.965.857-.909.882-1.38.882-1.38.035-.842.03-1.684-.146-2.576l-.084-.414c.278.166.558.331.844.49.66.365 1.351.641 2.126.53 2.079-.298 3.805-1.283 5.27-2.754.187-.186.295-.452.44-.681l-.215-.198c-.265.195-.544.374-.795.586-1.206 1.029-2.506 1.862-4.08 2.236-.86.205-1.622.075-2.373-.342-1.098-.61-2.085-1.371-3.005-2.22-1.292-1.196-2.072-2.673-2.386-4.403-.49-2.697-.377-5.395-.018-8.094.232-1.735.784-3.36 1.727-4.838.518-.811 1.118-1.558 2-2.007.65-.328 1.22-.24 1.746.256 1.063 1.003 2.135 1.995 3.177 3.02.585.576 1.14 1.188 1.663 1.823.272.333.445.746.699 1.186-1.727-.143-2.394.128-2.473.978.316-.084.621-.164.927-.243 1.088-.28 2.188.2 2.643 1.216.628 1.404 1.21 2.829 1.822 4.238.073.169.22.305.456.62.094-.398.133-.59.185-.779.102-.36.557-.722.882-.675.397.055.608.354.652.708.046.36.026.743-.042 1.103-.157.832-.595 1.53-1.184 2.128-.564.57-.855 1.238-1.005 1.95l-.003.017c-.047.227-.08.458-.103.693-.035.257-.074.56-.107.868l-.052.718c-.077.857-.149 1.564-.205 2.27-.059.74-.12 1.489-.014 2.224 0 0 .373 1.123.815 1.377 2.01 1.132 4.045 2.223 6.017 3.423.15.092.353.138.408.395-.502.38-1.094.604-1.692.789M8.164 19.085c.01.13.019.26-.026.409-.904-1.244-1.693-2.532-1.784-4.13-.08-1.387-.008-2.766.311-4.117.547-2.311 1.311-4.537 2.684-6.516.59-.85 1.355-1.403 2.363-1.629 1.346-.3 2.695-.592 4.038-.908.542-.126 1.085-.268 1.605-.463.568-.214 1.136-.244 1.724-.171 5.244.653 9.43 5.106 9.776 10.394.097 1.495.001 2.973-.372 4.427-.488 1.894-1.658 3.533-3.3 4.601.198-.688.425-1.284.53-1.9.07-.43.057-.914-.066-1.331-.28-.942-1.092-1.208-1.938-.705l-.31.186c-.085-.195-.16-.354-.223-.52-.859-2.267-1.906-4.439-3.325-6.414-.309-.43-.651-.842-1.025-1.217-1.328-1.337-2.678-2.654-4.018-3.98-.378-.376-.753-.508-1.335-.381-.794.17-1.44.506-1.995 1.066-1.428 1.439-2.266 3.209-2.727 5.145-.638 2.68-.786 5.407-.587 8.154M26.576 3.64c.427-.623 1.16-.786 1.821-.345.546.364 1.08.788 1.504 1.285 1.916 2.242 2.75 4.862 2.587 7.802-.052.94-.41 1.757-1.082 2.412-.642.627-1.073.527-1.472-.263-.29-.575-.32-1.163-.188-1.87 1.145-.464 1.399-1.386 1.208-2.478-.222-1.282-.517-2.55-1.23-3.67-.158-.245-.326-.488-.52-.703-.55-.607-1.174-1.079-2.066-.984-.369.04-.653-.17-.742-.479-.058-.205.046-.515.18-.707m.79 1.969c.536-.088.841.18 1.075.478.359.456.746.922.956 1.45.38.953.678 1.944.924 2.94.125.505.052 1.054-.659 1.405-.246-2.333-.987-4.378-2.295-6.273m7.254 41.225c-.123-2.202-.301-4.402-.693-6.573-.275-1.518-.662-3.026-1.606-4.291-.418-.642-1.062-1.048-1.062-1.048-.995-.56-1.935-1.053-2.838-1.604-1.387-.841-2.829-1.581-4.285-2.288-.83-.404-1.165-.982-1.14-1.89.04-1.41.147-2.81.317-4.209l.136-.81c.021-.145.042-.289.06-.433.052-.402.245-.674.578-.899.617-.415 1.229-.84 1.809-1.304 1.732-1.386 2.945-3.117 3.446-5.309.04-.174.107-.342.165-.519 1.11.586 1.876.427 2.668-.542.497-.608.789-1.314.95-2.08.22-1.059.151-2.116-.006-3.171-.34-2.267-1.235-4.284-2.825-5.95-.452-.474-.99-.897-1.559-1.22-1.021-.58-1.953-.34-2.674.577-.095.12-.183.246-.292.395-.123-.086-.213-.135-.287-.202C23.73 1.885 21.66 1 19.345.655c-.311-.047-.642-.07-.948-.017-.861.15-1.722.316-2.57.526-1.289.32-2.552.747-3.85 1.008-1.9.381-3.217 1.432-4.039 3.153-.127.264-.283.515-.378.79-.608 1.783-1.292 3.546-1.779 5.36-.506 1.894-.54 3.832.031 5.745.384 1.287 1.21 2.289 2.042 3.294.265.322.582.66.692 1.044.534 1.852 1.556 3.361 3.033 4.575l.609.509.191.739c.166.778.36 1.55.37 2.355.008.487-.125.888-.487 1.21-.337.298-.659.624-1.03.876-1.91 1.305-3.988 2.314-5.958 3.453 0 0-1.72.96-2.136 1.574-.176.288-.35.575-.52.865-.535.92-1.032 1.86-1.247 2.918-.333 1.649-.442 3.316-.342 4.994.02.344.076.689.149 1.025.053.246.08.592.441.544.294-.038.284-.337.293-.577.004-.08-.002-.16-.002-.24v-.515h-.001c-.01-.344-.008-.938 0-1.547v-.009c.013-1.018.042-2.072.042-2.072.042-2.038 1.009-3.716 2.122-5.322.395-.57.786-.615 1.45-.311 1.361.619 2.784 1.034 4.259 1.283 1.836.309 3.692.426 5.55.535 0 0 3.89.06 4.824-.026 1.457-.123 2.91-.272 4.341-.578 2.051-.44 4.135-.795 5.868-2.113.195-.148.338-.069.503.027.674.395 1.079 1.015 1.378 1.707.441 1.029.763 2.096.94 3.203.315 1.968.513 3.951.668 5.937.024.318.078.632.137.945.025.14.14.23.284.236.189.008.298-.121.321-.287.03-.21.036-.424.025-.636" fill="#33475C" mask="url(#p)"/>
            </g>
            <path d="M87.65 77.556c-.036-.065-.076-.128-.12-.187-.307-.415-.687-.402-1.102-.074-.455.362-.617 1.182-.36 1.822.296.739 1.108.928 1.571.276.13-.181.194-.327.206-.864.014-.533-.192-.966-.194-.973M94.686 77.41c-.037-.065-.075-.127-.12-.187-.308-.415-.687-.403-1.1-.074-.457.363-.62 1.183-.363 1.823.298.739 1.108.927 1.572.275.129-.18.194-.326.207-.863.013-.534-.192-.966-.196-.973" fill="#33475C"/>
        </g>
        <g>
            <path d="M88.568 85.422s1.718.702 3.964.09c0 0 .184 2.238-2.06 2.09-2.242-.148-1.904-2.18-1.904-2.18" fill="#FFF"/>
            <path d="M88.818 85.785c.01.266.075.651.327.966.277.347.73.544 1.345.586.585.033 1.027-.097 1.324-.4.32-.324.418-.78.445-1.083-1.576.35-2.852.1-3.441-.07m1.864 2.09c-.074 0-.15-.001-.227-.007-.773-.05-1.356-.317-1.73-.789-.574-.725-.426-1.66-.419-1.7.013-.078.061-.148.132-.188.07-.04.155-.044.231-.014.015.007 1.667.66 3.793.08.074-.024.157-.008.223.038.064.045.105.117.112.196.003.045.084 1.124-.603 1.82-.368.375-.877.564-1.512.564" fill="#33475C"/>
            <path d="M120.671 66.444c.121-.043.242-.087.352-.114 2.407-.603 3.71 1.037 3.71 1.037s4.378 3.203 5.681 4.875c1.128 1.448 1.356 6.121 1.397 7.355.498 3.46.993 8.743.963 16.004-.042 9.356-1.036 15.193-1.733 18.152v0l.005-.018c-.38 1.616-.672 2.395-.672 2.395-1.863 1.694-4.373 2.493-4.376 2.493-1.481.094-3.335-.45-3.335-.45s-4.197-1.167-5.52-1.755c-.677-.303-1.212-.569-1.646-.814l-.03-.017c-.209-.12-.394-.233-.556-.344-.006-.003-.011-.008-.017-.012-.488-.335-.776-.638-.956-.952l-.014-.023c-.055-.1-.1-.198-.138-.302l-.012-.036c-.035-.101-.065-.205-.09-.313-.003-.013-.005-.027-.009-.04-.023-.11-.045-.22-.064-.34l-.001-.003c-.835-5.007 1.955-8.747 4.427-10.577.067-.05.132-.092.198-.14.77-.541 1.5-.9 2.064-1.041.186-.048.365-.076.54-.098.049-.007.097-.01.146-.015.132-.01.26-.016.382-.015h.118c.152.005.3.018.44.041l.09.018c.11.02.217.044.318.073.04.012.077.021.115.034.105.032.206.07.3.11l.048.019c.11.047.21.097.304.15l.075.042c.072.043.138.086.202.127l.056.038c.078.054.148.107.21.158l.001.001c.241.197.366.353.366.353s.474.347 1.151.868c.283-2.174.356-5.188.523-8.748.302-6.465-.53-10.002-.53-10.002s-.135-.863-.355-1.059c-.222-.198-1.413-.52-1.413-.52s-4.196-1.166-5.519-1.755c-1.451-.647-2.271-1.133-2.759-1.59 0 0-.003-.001-.004-.004-.32-.3-.496-.589-.606-.904-.002-.008-.005-.018-.009-.025-.033-.1-.06-.2-.085-.304l-.008-.044c-.022-.104-.043-.209-.061-.32l-.001-.004c-1.07-6.411 3.798-10.74 6.337-11.645" fill="#40BBCE"/>
            <path d="M120.298 101.464c2.408-.603 3.712 1.036 3.712 1.036s4.377 3.204 5.68 4.876c1.303 1.671.683 8.754.683 8.754-1.842 1.677-4.315 2.474-4.37 2.492-1.482.096-3.341-.45-3.341-.45s-4.197-1.166-5.52-1.754c-3.083-1.377-3.336-2.021-3.533-3.196-1.12-6.714 4.282-11.157 6.69-11.758" fill="#40BBCE"/>
            <path d="M120.298 101.464c1.666-.418 2.803.238 3.346.683-2.001.215-4.674 1.217-6.506 4.656-3.274 6.145-.925 9.172-.92 9.181-2.21-1.093-2.433-1.719-2.609-2.762-1.12-6.714 4.282-11.157 6.69-11.758" fill="#0091B2"/>
            <path d="M131.82 79.905s-.103-5.99-1.407-7.663c-1.303-1.672-5.68-4.875-5.68-4.875s-1.304-1.64-3.71-1.037c-2.408.602-7.81 5.044-6.69 11.759.197 1.173.45 1.819 3.534 3.194 1.323.59 5.519 1.756 5.519 1.756s1.19.322 1.413.52c.22.196.354 1.058.354 1.058s.833 3.538.53 10.004c-.302 6.465-.292 11.147-1.8 12.226" fill="#40BBCE"/>
            <path d="M131.222 74.31l-3.72 2.184s1.54 10.282 1.282 19.476c-.257 9.197-.362 13.877-2.786 22.653 0 0 2.512-.797 4.375-2.494 0 0 2.338-6.105 2.4-20.528.06-14.422-1.551-21.291-1.551-21.291" fill="#7CD1DF"/>
            <path d="M114.334 78.088c-1.121-6.714 4.281-11.156 6.689-11.758 2.406-.604 3.71 1.037 3.71 1.037s-3.145-1.443-7.261 4.54c-2.58 3.751-1.788 6.933-.837 8.787-1.922-.996-2.135-1.613-2.301-2.606" fill="#0091B2"/>
            <path d="M120.671 66.444c.121-.043.242-.087.352-.114 2.407-.603 3.71 1.037 3.71 1.037s4.378 3.203 5.681 4.875c1.128 1.448 1.356 6.121 1.397 7.355.498 3.46.993 8.743.963 16.004-.042 9.356-1.036 15.193-1.733 18.152v0l.005-.018c-.38 1.616-.672 2.395-.672 2.395-1.863 1.694-4.373 2.493-4.376 2.493-1.481.094-3.335-.45-3.335-.45s-4.197-1.167-5.52-1.755c-.677-.303-1.212-.569-1.646-.814l-.03-.017c-.209-.12-.394-.233-.556-.344-.006-.003-.011-.008-.017-.012-.488-.335-.776-.638-.956-.952l-.014-.023c-.055-.1-.1-.198-.138-.302l-.012-.036c-.035-.101-.065-.205-.09-.313-.003-.013-.005-.027-.009-.04-.023-.11-.045-.22-.064-.34l-.001-.003c-.835-5.007 1.955-8.747 4.427-10.577.067-.05.132-.092.198-.14.77-.541 1.5-.9 2.064-1.041.186-.048.365-.076.54-.098.049-.007.097-.01.146-.015.132-.01.26-.016.382-.015h.118c.152.005.3.018.44.041l.09.018c.11.02.217.044.318.073.04.012.077.021.115.034.105.032.206.07.3.11l.048.019c.11.047.21.097.304.15l.075.042c.072.043.138.086.202.127l.056.038c.078.054.148.107.21.158l.001.001c.241.197.366.353.366.353s.474.347 1.151.868c.283-2.174.356-5.188.523-8.748.302-6.465-.53-10.002-.53-10.002s-.135-.863-.355-1.059c-.222-.198-1.413-.52-1.413-.52s-4.196-1.166-5.519-1.755c-1.451-.647-2.271-1.133-2.759-1.59 0 0-.003-.001-.004-.004-.32-.3-.496-.589-.606-.904-.002-.008-.005-.018-.009-.025-.033-.1-.06-.2-.085-.304l-.008-.044c-.022-.104-.043-.209-.061-.32l-.001-.004c-1.07-6.411 3.798-10.74 6.337-11.645zM125.683 94.62c-.302 6.466-.292 11.148-1.8 12.227" stroke="#33475C" stroke-linecap="round" stroke-linejoin="round"/>
        </g>
    </g>
</svg>
