<?xml version="1.0" standalone="no"?>
<!DOCTYPE svg PUBLIC "-//W3C//DTD SVG 20010904//EN"
 "http://www.w3.org/TR/2001/REC-SVG-20010904/DTD/svg10.dtd">
<svg version="1.0" xmlns="http://www.w3.org/2000/svg"
 width="100.000000pt" height="100.000000pt" viewBox="0 0 100.000000 100.000000"
 preserveAspectRatio="xMidYMid meet">

<g transform="translate(0.000000,100.000000) scale(0.100000,-0.100000)"
fill="#fcad33" stroke="none">
<path d="M560 951 c-52 -17 -111 -52 -146 -88 -36 -35 -84 -123 -84 -153 0
-20 -20 -40 -39 -40 -31 0 -119 -48 -155 -84 -20 -20 -48 -60 -63 -89 -24 -45
-28 -63 -28 -137 1 -77 4 -91 34 -148 38 -70 70 -100 145 -140 43 -22 64 -26
136 -26 73 0 92 4 137 27 29 15 69 43 89 63 36 36 84 124 84 155 0 19 20 39
40 39 30 0 118 48 154 84 20 20 48 60 63 89 24 45 28 63 27 137 0 72 -4 93
-26 136 -39 75 -70 107 -138 143 -48 26 -76 33 -133 37 -40 2 -83 0 -97 -5z
m170 -47 c76 -23 153 -100 176 -179 47 -165 -43 -315 -215 -360 -42 -10 -46
-14 -56 -56 -34 -131 -125 -213 -250 -226 -159 -17 -305 115 -305 277 0 131
90 239 229 275 42 10 46 14 56 56 46 176 195 264 365 213z"/>
<path d="M412 654 c4 -21 22 -23 26 -1 2 10 -3 17 -13 17 -10 0 -15 -6 -13
-16z"/>
<path d="M492 624 c4 -21 22 -23 26 -1 2 10 -3 17 -13 17 -10 0 -15 -6 -13
-16z"/>
<path d="M330 575 c0 -10 7 -15 18 -13 21 4 19 22 -2 26 -10 2 -16 -3 -16 -13z"/>
<path d="M554 579 c-3 -6 -2 -15 4 -21 13 -13 32 -2 32 18 0 16 -26 19 -36 3z"/>
<path d="M607 514 c-9 -10 2 -24 19 -24 8 0 14 7 14 15 0 15 -21 21 -33 9z"/>
<path d="M360 495 c0 -10 7 -15 18 -13 21 4 19 22 -2 26 -10 2 -16 -3 -16 -13z"/>
<path d="M417 444 c-14 -14 -7 -35 11 -32 9 2 17 10 17 17 0 16 -18 25 -28 15z"/>
<path d="M641 436 c-12 -14 -5 -26 16 -26 15 0 18 26 4 34 -5 3 -14 0 -20 -8z"/>
<path d="M486 393 c-12 -12 -6 -33 9 -33 8 0 15 6 15 14 0 17 -14 28 -24 19z"/>
<path d="M566 363 c-12 -12 -6 -33 9 -33 8 0 15 6 15 14 0 17 -14 28 -24 19z"/>
</g>
</svg>
