<?xml version="1.0" standalone="yes"?>
<svg xmlns="http://www.w3.org/2000/svg" width="344" height="344">
<path style="fill:#010101; stroke:none;" d="M0 0L0 344L344 344L344 0L0 0z"/>
<path style="fill:#e68730; stroke:none;" d="M186 28.4645C151.935 34.5515 162.005 84.959 196 78.5324C227.021 72.6682 217.123 22.9033 186 28.4645z"/>
<path style="fill:#c4bfbd; stroke:none;" d="M181 29L182 30L181 29M168 39L169 40L168 39M212 41L213 42L212 41M213 43L214 44L213 43M214 46L215 47L214 46M208 71L209 72L208 71M207 72L208 73L207 72M196 78L197 79L196 78z"/>
<path style="fill:#e68730; stroke:none;" d="M159 93L160 94L159 93z"/>
<path style="fill:#7f8dcf; stroke:none;" d="M120 119L135 140L136 140L145 134L137.116 169L134.694 182.567L147 187.127L184 196C185.56 176.903 192.356 156.716 196.651 138C198.208 131.216 201.889 122.982 201.28 116C199.243 92.653 168.762 86.9809 151 96.3279C139.709 102.27 131.061 112.637 120 119z"/>
<path style="fill:#c4bfbd; stroke:none;" d="M152 95L153 96L152 95z"/>
<path style="fill:#e68730; stroke:none;" d="M150 96L151 97L150 96z"/>
<path style="fill:#c4bfbd; stroke:none;" d="M142 102L143 103L142 102z"/>
<path style="fill:#e68730; stroke:none;" d="M141 103L142 104L141 103z"/>
<path style="fill:#c4bfbd; stroke:none;" d="M133 109L134 110L133 109M129 112L130 113L129 112M125 115L126 116L125 115M124 116L125 117L124 116z"/>
<path style="fill:#6470c2; stroke:none;" d="M201 119C197.719 131.675 190.653 148.978 192 162L210.879 151.61L209.667 143L201 119z"/>
<path style="fill:#e68730; stroke:none;" d="M119 120C112.563 125.109 103.246 130.037 98.7384 137.015C91.5791 148.098 90.9838 169.082 88.3997 182C86.5477 191.258 83.2865 214.111 100.996 207.258C110.279 203.666 110.709 187.385 112.4 179C114.032 170.904 114.507 156.838 119.589 150.21C123.13 145.592 130.208 143.161 135 140L119 120z"/>
<path style="fill:#7f8dcf; stroke:none;" d="M202.333 120.667L202.667 121.333L202.333 120.667M203.333 123.667L203.667 124.333L203.333 123.667M204.333 126.667L204.667 127.333L204.333 126.667z"/>
<path style="fill:#c4bfbd; stroke:none;" d="M108 128L109 129L108 128z"/>
<path style="fill:#7f8dcf; stroke:none;" d="M205.333 129.667L205.667 130.333L205.333 129.667M206.333 132.667L206.667 133.333L206.333 132.667z"/>
<path style="fill:#e68730; stroke:none;" d="M142 135L143 136L142 135z"/>
<path style="fill:#7f8dcf; stroke:none;" d="M207.333 135.667L207.667 136.333L207.333 135.667z"/>
<path style="fill:#c4bfbd; stroke:none;" d="M140 136L141 137L140 136M137 138L138 139L137 138z"/>
<path style="fill:#7f8dcf; stroke:none;" d="M208.333 138.667L208.667 139.333L208.333 138.667M209.333 141.667L209.667 142.333L209.333 141.667M210.333 144.667L210.667 145.333L210.333 144.667M211.333 147.667L211.667 148.333L211.333 147.667z"/>
<path style="fill:#c4bfbd; stroke:none;" d="M95 148L96 149L95 148z"/>
<path style="fill:#7f8dcf; stroke:none;" d="M212.333 150.667L212.667 151.333L212.333 150.667z"/>
<path style="fill:#e68730; stroke:none;" d="M213 152C207.94 153.458 195.66 157.463 193.133 162.39C191.117 166.32 196.836 176.737 199.557 179.61C203.424 183.692 209.977 185.623 215 187.861C224.339 192.023 234.799 199.297 245 200.786C254.473 202.169 262.176 192.946 256.86 184.105C253.973 179.302 246.79 177.142 242 174.753C228.924 168.232 219.159 165.892 213 152z"/>
<path style="fill:#c4bfbd; stroke:none;" d="M194 169L195 170L194 169M232 170L233 171L232 170M133 184C131.744 199.91 126.283 214.79 121.72 230C119.416 237.678 118.027 246.482 113.153 253C105.14 263.716 95.9713 273.713 87.4136 284C83.1068 289.177 77.841 294.724 78.3912 302C79.5716 317.61 97.6456 318.74 106.41 308.957C126.121 286.955 150.62 261.276 156 231C167.237 243.201 180.268 256.606 188.572 271C195.733 283.414 201.294 301.353 211.529 311.468C221.619 321.439 238.384 312.824 236.811 299C235.899 290.983 229.553 282.958 225.769 276C216.374 258.722 206.52 241.859 196.4 225C191.255 216.43 182.228 206.372 183 196L133 184M258 188L259 189L258 188M86 191L87 192L86 191z"/>
<path style="fill:#7f8dcf; stroke:none;" d="M182 199L183 200L182 199z"/>
<path style="fill:#c4bfbd; stroke:none;" d="M87 203L88 204L87 203z"/>
<path style="fill:#7f8dcf; stroke:none;" d="M129 204L130 205L129 204z"/>
<path style="fill:#c4bfbd; stroke:none;" d="M104 205L105 206L104 205M90 206L91 207L90 206z"/>
<path style="fill:#7f8dcf; stroke:none;" d="M126 214L127 215L126 214M123 224L124 225L123 224M120 234L121 235L120 234M117 244L118 245L117 244M99 314L100 315L99 314z"/>
</svg>
