<svg width="173" height="195" viewBox="0 0 173 195" xmlns="http://www.w3.org/2000/svg" xmlns:xlink="http://www.w3.org/1999/xlink">
    <defs>
        <path id="a" d="M169.995 98.77H.475V.9h169.52z"/>
    </defs>
    <g fill="none" fill-rule="evenodd">
        <g transform="translate(3 95.378)">
            <mask id="b" fill="#fff">
                <use xlink:href="#a"/>
            </mask>
            <path d="M90.818 98.062L1.696 46.61c-1.81-1.043-1.58-2.886.508-4.092l70.36-40.62c2.089-1.206 5.279-1.339 7.088-.293l89.122 51.452c1.81 1.044 1.58 2.886-.508 4.093l-70.36 40.619c-2.089 1.207-5.28 1.34-7.088.294" fill="#7FD1DE" opacity=".25" mask="url(#b)"/>
        </g>
        <path d="M3.565 114.584c-.268.547.083 1.326.78 1.728l60.423 34.885 1.267.731-1.504 3.081c-.267.548.085 1.326.782 1.729l22.603 13.05c.698.402 2.045.606 2.993.45l1.806-.294 1.805-.294c.95-.154 2.296-.609 2.993-1.011l3.258-1.882 4.527-2.613 64.378-37.169-95.702-55.254-60.153 34.73-7.484 4.32c-.697.403-1.486 1.18-1.754 1.729l-1.018 2.084z" stroke="#33475C" stroke-width="5" stroke-linecap="round" stroke-linejoin="round"/>
        <path stroke="#33475C" stroke-width="5" stroke-linecap="round" stroke-linejoin="round" d="M169.676 126.975L73.973 71.72l-2.112 1.22 95.703 55.255zM165.45 129.414L69.749 74.161l-2.112 1.22 95.702 55.253zM167.563 128.195L71.861 72.94l-2.112 1.22 95.701 55.254zM75.241 2.646l62.384 36.018c.698.403 1.547 1.468 1.888 2.366l1.915 5.055 1.268.734 25.713 14.845c.696.401 1.267 1.39 1.267 2.195v63.116L73.974 71.72V3.378c0-.805.57-1.134 1.267-.732z"/>
        <path d="M156.348 128.412s-8.976-12.033-21.85-19.465c-17.816-10.286-23.115-6.497-37.946-15.06-14.831-8.561-21.272-19.13-21.272-19.13l-61.948 35.765s6.44 10.57 21.272 19.132c14.831 8.562 20.13 4.772 37.947 15.059 12.874 7.431 21.85 19.464 21.85 19.464l61.947-35.765z" stroke="#33475C" stroke-width="5" stroke-linecap="round" stroke-linejoin="round"/>
        <path d="M160.99 114.986s-9.59-12.855-23.343-20.795c-19.034-10.99-24.697-6.94-40.54-16.088-15.846-9.148-22.728-20.44-22.728-20.44L8.197 95.874s6.882 11.293 22.726 20.44c15.845 9.148 21.507 5.099 40.542 16.089 13.753 7.94 23.343 20.794 23.343 20.794l66.182-38.21zM90.004 80.538l-51.07 29.485M99.508 83.243L48.44 112.728M93.83 82.266L42.762 111.75M105.412 83.693l-51.068 29.485M114.963 87.08l-51.068 29.485M110.128 85.215L59.06 114.7M119.365 89.094l-51.07 29.485M123.99 90.972L72.92 120.457M125.31 95.79l-19.641 11.339M133.59 100.285l-20.798 12.008M129.942 97.617l-20.88 12.055M137.327 103.167l-20.783 12M143.738 108.753l-20.596 11.892M140.907 105.715l-21.405 12.359M147.424 111.732l-21.414 12.364" stroke="#33475C" stroke-width="5" stroke-linecap="round" stroke-linejoin="round"/>
        <path d="M97.332 139.78c.57.57 1.605.706 2.303.304l22.489-12.985c.697-.402.8-1.195.228-1.762 0 0-9.547-9.468-17.342-13.968-1.15-.664-2.02-1.135-2.02-1.135-.708-.384-1.858-.368-2.554.035l-22.38 12.921c-.697.403-.689 1.047.019 1.43 0 0 .653.355 1.685.95 7.94 4.585 17.572 14.21 17.572 14.21zM30.753 98.185c-.176 2.13.559 4.32 1.984 5.913.255-4.369 1.286-8.691 3.033-12.703l4.913 8.76c.358-4.202 1.157-8.366 2.379-12.402-.385 2.193 2.666 6.687 4.438 8.037.27-3.956 6.368-9.242 9.184-12.034 3.34-3.314 1.47-6.57 5.014-9.665M30.753 98.185c.004-.47.103-3.263.108-3.733-.444 1.096-1.584 2.833-2.275 3.792-.575.8-1.276 1.573-2.208 1.893-1.031.354-2.257.05-3.006-.742" stroke="#33475C" stroke-width="5" stroke-linecap="round" stroke-linejoin="round"/>
        <path d="M69.824 18.658S31.59 47.69 10.32 58.87c0 0 26.87 26.057 50.287 29.514 23.42 3.457 49.766-5.65 49.766-5.65s33.565 16.264 48.495 10.734c0 0-23.584-5.135-57.09-35.805-18.666-17.085-31.954-39.005-31.954-39.005z" stroke="#33475C" stroke-width="5" stroke-linecap="round" stroke-linejoin="round"/>
        <path d="M110.372 82.734s-38.183 5.726-61.601 2.27c0 0 52.434 21.206 106.013 9.41-16.2 1.988-44.412-11.68-44.412-11.68zM33.172 69.771c.712.376 1.88.38 2.594.009 0 0 8.887-4.612 23.372-15.045C74.178 43.904 77.218 40.2 77.218 40.2c.512-.622.491-1.622-.045-2.223 0 0-1.387-1.55-4.393-5.646-3.448-4.698-3.704-5.075-3.704-5.075-.452-.666-1.33-.792-1.95-.278 0 0-5.127 4.24-20.71 14.865C27.74 54.575 21.017 58.396 21.017 58.396c-.7.398-.844 1.225-.32 1.835 0 0 .981 1.147 6.012 5.026 4.536 3.499 6.463 4.514 6.463 4.514zM72.92 50.868c3.573-2.85 6.495-5.5 8.113-7.605M64.106 57.443c1.824-1.292 3.619-2.594 5.327-3.88M56.792 62.476c1.458-.978 2.942-1.987 4.425-3.012M39.51 73.546s6.205-3.763 13.896-8.821M43.673 75.898s31.329-18.998 40.443-29M47.5 78.242s9.866-5.984 20.136-13.002M51.552 80.756s9.356-5.674 19.33-12.452M56.792 82.266s8.054-4.884 17.181-11.003M63.666 82.734s6.258-3.795 13.993-8.884M70.54 83.202s4.455-2.701 10.493-6.603M78.94 82.734s2.283-1.383 5.777-3.595M100.072 74.133c2.348-1.556 4.833-3.237 7.311-4.967M86.571 82.734s3.718-2.251 8.907-5.6M94.198 82.734s7.914-4.791 16.704-10.766M103.638 81.594s4.736-2.86 10.847-6.892M112.155 81.021c1.75-1.113 3.729-2.385 5.837-3.765M116.371 83.168c1.504-.944 3.3-2.08 5.292-3.365M120.87 85.118c1.156-.716 2.71-1.686 4.543-2.85M126.01 87.08c1.105-.708 2.283-1.467 3.514-2.268M131.1 88.826c.809-.515 1.659-1.059 2.553-1.635M135.947 90.34c.532-.343 1.074-.695 1.629-1.056M87.947 51.335c-.497-.632-1.299-.622-1.78.023 0 0-.082.11-6.619 5.278-6.514 5.15-7.742 5.863-7.742 5.863-.696.404-.837 1.235-.313 1.845 0 0 1.397 1.63 7.447 6.68 6.025 5.03 7.182 5.592 7.182 5.592.724.351 1.896.326 2.603-.057 0 0 2.468-1.338 7.34-4.59 5.054-3.376 6.71-4.761 6.71-4.761.617-.517.599-1.34-.04-1.83 0 0-2.381-1.819-7.483-6.55-5.217-4.838-7.305-7.493-7.305-7.493z" stroke="#33475C" stroke-width="5" stroke-linecap="round" stroke-linejoin="round"/>
        <path d="M35.32 49.304c2.641 1.69 7.255 3.277 13.665.416 6.385-2.85 7.13-9.197 5.86-13.708-2.39 1.68-5.18 3.614-8.43 5.831-4.318 2.944-7.99 5.407-11.095 7.461z" stroke="#33475C" stroke-width="5" stroke-linecap="round" stroke-linejoin="round"/>
        <path d="M58.87 48.359c0 3.017-2.447 5.464-5.465 5.464-3.017 0-5.463-2.447-5.463-5.464 0-3.018 2.446-5.464 5.463-5.464 3.018 0 5.464 2.446 5.464 5.464zM90.081 53.735c-.132.337-.273.67-.426.996-.973 2.043-2.316 3.886-3.467 5.834-1.47 2.487-2.626 5.157-3.438 7.929-.466 1.597-.816 3.259-.907 4.917l.996.796c.49-2.449 1.097-4.87 2.087-7.157 1.77-4.09 4.675-7.58 7.096-11.322-.76-.758-1.406-1.425-1.941-1.993z" stroke="#33475C" stroke-width="5" stroke-linecap="round" stroke-linejoin="round"/>
        <path d="M89.448 76.147c1.886-4.492 1.81-9.8-.297-14.204-.713-1.493-1.64-2.88-2.338-4.382-.81-1.744-1.295-3.636-1.44-5.554-.703.566-2.025 1.622-4.523 3.599-.275 1.777.047 3.649 1.031 5.157.68 1.042 1.616 1.9 2.27 2.96.875 1.415 1.192 3.107 1.324 4.767.16 2.02.059 4.11-.736 5.975-.127.298-.281.586-.447.868 1.45 1.097 1.83 1.283 1.83 1.283.724.352 1.895.325 2.603-.057 0 0 .245-.134.723-.412z" stroke="#33475C" stroke-width="5" stroke-linecap="round" stroke-linejoin="round"/>
        <path d="M93.912 66.545c-.168-2.115-.571-4.27-1.686-6.075-.833-1.348-2.027-2.444-2.893-3.77-1.041-1.597-1.505-3.512-1.433-5.413-.5-.578-1.266-.554-1.734.072 0 0-.01.01-.25.208.497 1.017.762 2.16 1.081 3.255.552 1.899 1.307 3.738 2.248 5.476.718 1.326 1.547 2.604 2.058 4.022.457 1.27.648 2.62.737 3.966.146 2.168.032 4.352-.328 6.495.408-.255.856-.536 1.348-.85.927-2.318 1.05-4.892.852-7.386zM117.015 124.364c-.482-2.589-1.739-4.972-3.49-6.923-1.462-1.194-3.007-2.393-4.558-3.498-.07-.036-.14-.076-.21-.111-1.725-.84-4.405-1.928-6.257-1.164-.682.28-.702.92-1.547 1.059-1.342.22-3.227-.753-4.715-.659-.272.018-.543.05-.813.094l-4.373 2.524c-.08.111-.167.214-.237.332-1.11 1.83-.815 4.531.947 5.747 1.063.732 2.433.843 3.592 1.412 1.16.57 2.121 2.044 1.394 3.11-.272.136-.545.273-.815.414.453 1.065.794 2.216 1.86 2.387 1.402.223 2.153-1.558 2.49-2.938.505-2.052 1.255-4.115 2.687-5.67 1.433-1.557 3.673-2.508 5.707-1.935 2.86.808 4.185 4.08 4.704 7.006.234 1.319.383 2.662.414 4.003.995-.103 1.899-.397 2.555-1.15.928-1.066.922-2.65.665-4.04z" stroke="#33475C" stroke-width="5" stroke-linecap="round" stroke-linejoin="round"/>
        <path d="M110.274 129.527c-1.753-.014-3.507.385-5.08 1.155-1.568.767-2.935 1.88-4.416 2.805-1.48.925-3.16 1.676-4.903 1.583-1.743-.094-3.52-1.247-3.853-2.96-.257-1.324.385-2.693 1.336-3.648.738-.74 1.643-1.277 2.575-1.762-.162-.38-.338-.75-.567-1.06-.952-1.287-2.994-1.42-4.314-.514-1.32.904-1.952 2.585-1.939 4.185.01 1.301.39 2.563.889 3.771 4.18 3.552 7.33 6.699 7.33 6.699.57.569 1.606.705 2.303.303l14.083-8.13c.073-.797.096-1.598.077-2.4-1.133.116-2.384-.019-3.521-.027z" stroke="#33475C" stroke-width="5" stroke-linecap="round" stroke-linejoin="round"/>
        <path d="M113.381 125.55c-.518-2.925-1.844-6.197-4.704-7.005-2.034-.573-4.274.378-5.707 1.934-1.432 1.556-2.182 3.619-2.686 5.67-.339 1.38-1.089 3.162-2.49 2.94-1.067-.172-1.408-1.323-1.861-2.388-.932.484-1.837 1.02-2.575 1.76-.951.956-1.593 2.325-1.336 3.65.332 1.713 2.11 2.866 3.853 2.959 1.743.093 3.423-.659 4.903-1.584 1.481-.923 2.849-2.037 4.416-2.804 1.573-.77 3.327-1.168 5.08-1.155 1.137.008 2.388.143 3.521.027-.031-1.341-.18-2.684-.414-4.003zM130.187 66.438l-23.842-13.433s2.948.61 4.33-4.269c1.072-3.783.448-15.32.448-15.32l19.064 11.007v22.015z" stroke="#33475C" stroke-width="5" stroke-linecap="round" stroke-linejoin="round"/>
        <path d="M114.718 45.142c-.41 2.028.035 4.214 1.206 5.918l.27-4.444c.456 1.794.792 3.619 1.003 5.458.682-1.42 1.234-2.9 1.646-4.42.451.47.482 1.187.573 1.83.152 1.08.548 2.123 1.15 3.031" stroke="#33475C" stroke-width="5" stroke-linecap="round" stroke-linejoin="round"/>
        <path d="M131.006 71.448l-14.061-7.555s2.004-.52 2.167-3.366c.216-3.794.142-17.314.142-17.314l19.065 11.006s-.098 9.52-.098 14.359l-7.215 2.87z" stroke="#33475C" stroke-width="5" stroke-linecap="round" stroke-linejoin="round"/>
        <path d="M125.47 53.62c-1.548.863-2.695 2.414-3.066 4.146l4.09-2.255c-.46 1.153-1.015 2.268-1.66 3.329.478-.698 1.258-1.182 2.097-1.298l-.03 1.153c.33-.225.698-.459 1.097-.421.156.015.305.072.45.135.63.275 1.203.686 1.667 1.194.258.28.485.593.792.816.945.686 2.415.376 3.244 1.199.204.203.351.462.574.647.223.183.573.27.793.082M121.832 42.395l-6.83-3.943v-4.874l6.83 3.943zM134.327 54.335l-6.83-3.943v-4.874l6.83 3.943zM132.735 67.531l-1.729 3.917 7.215-2.87z" stroke="#33475C" stroke-width="5" stroke-linecap="round" stroke-linejoin="round"/>
        <path stroke="#33475C" stroke-width="5" stroke-linecap="round" stroke-linejoin="round" d="M121.832 42.395l-6.83-3.943v-4.874l6.83 3.943zM134.327 54.335l-6.83-3.943v-4.874l6.83 3.943z"/>
        <path d="M3.565 114.584c-.268.547.083 1.326.78 1.728l60.423 34.885 1.267.731-1.504 3.081c-.267.548.085 1.326.782 1.729l22.603 13.05c.698.402 2.045.606 2.993.45l1.806-.294 1.805-.294c.95-.154 2.296-.609 2.993-1.011l3.258-1.882 4.527-2.613 64.378-37.169-95.702-55.254-60.153 34.73-7.484 4.32c-.697.403-1.486 1.18-1.754 1.729l-1.018 2.084z" fill="#FBE1B2"/>
        <path d="M3.565 114.584c-.268.547.083 1.326.78 1.728l60.423 34.885 1.267.731-1.504 3.081c-.267.548.085 1.326.782 1.729l22.603 13.05c.698.402 2.045.606 2.993.45l1.806-.294 1.805-.294c.95-.154 2.296-.609 2.993-1.011l3.258-1.882 4.527-2.613 64.378-37.169-95.702-55.254-60.153 34.73-7.484 4.32c-.697.403-1.486 1.18-1.754 1.729l-1.018 2.084z" stroke="#33475C" stroke-linecap="round" stroke-linejoin="round"/>
        <path d="M75.241 2.646l62.384 36.018c.698.403 1.547 1.468 1.888 2.366l1.915 5.055 1.268.734 25.713 14.845c.696.401 1.267 1.39 1.267 2.195v63.116L73.974 71.72V3.378c0-.805.57-1.134 1.267-.732" fill="#FBE1B2"/>
        <path d="M75.241 2.646l62.384 36.018c.698.403 1.547 1.468 1.888 2.366l1.915 5.055 1.268.734 25.713 14.845c.696.401 1.267 1.39 1.267 2.195v63.116L73.974 71.72V3.378c0-.805.57-1.134 1.267-.732z" stroke="#33475C" stroke-linecap="round" stroke-linejoin="round"/>
        <path d="M156.348 128.412s-8.976-12.033-21.85-19.465c-17.816-10.286-23.115-6.497-37.946-15.06-14.831-8.561-21.272-19.13-21.272-19.13l-61.948 35.765s6.44 10.57 21.272 19.132c14.831 8.562 20.13 4.772 37.947 15.059 12.874 7.431 21.85 19.464 21.85 19.464l61.947-35.765z" fill="#F6C364" opacity=".5"/>
        <path d="M160.99 114.986s-9.59-12.855-23.343-20.795c-19.034-10.99-24.697-6.94-40.54-16.088-15.846-9.148-22.728-20.44-22.728-20.44L8.197 95.874s6.882 11.293 22.726 20.44c15.845 9.148 21.507 5.099 40.542 16.089 13.753 7.94 23.343 20.794 23.343 20.794l66.182-38.21z" fill="#FFF"/>
        <path d="M160.99 114.986s-9.59-12.855-23.343-20.795c-19.034-10.99-24.697-6.94-40.54-16.088-15.846-9.148-22.728-20.44-22.728-20.44L8.197 95.874s6.882 11.293 22.726 20.44c15.845 9.148 21.507 5.099 40.542 16.089 13.753 7.94 23.343 20.794 23.343 20.794l66.182-38.21z" stroke="#33475C" stroke-linecap="round" stroke-linejoin="round"/>
        <path d="M90.004 80.538l-51.07 29.485" fill="#FFF"/>
        <path d="M90.004 80.538l-51.07 29.485" stroke="#FFAB7D" stroke-width="2" stroke-linecap="round" stroke-linejoin="round"/>
        <path d="M99.508 83.243L48.44 112.728" fill="#33475C"/>
        <path d="M99.508 83.243L48.44 112.728" stroke="#FFC7AA" stroke-linecap="round" stroke-linejoin="round"/>
        <path d="M93.83 82.266L42.762 111.75" fill="#33475C"/>
        <path d="M93.83 82.266L42.762 111.75" stroke="#FFC7AA" stroke-linecap="round" stroke-linejoin="round"/>
        <path d="M105.412 83.693l-51.068 29.485" fill="#33475C"/>
        <path d="M105.412 83.693l-51.068 29.485" stroke="#FFC7AA" stroke-linecap="round" stroke-linejoin="round"/>
        <path d="M114.963 87.08l-51.068 29.485" fill="#33475C"/>
        <path d="M114.963 87.08l-51.068 29.485" stroke="#FFF3EE" stroke-linecap="round" stroke-linejoin="round"/>
        <path d="M110.128 85.215L59.06 114.7" fill="#33475C"/>
        <path d="M110.128 85.215L59.06 114.7" stroke="#FFC7AA" stroke-linecap="round" stroke-linejoin="round"/>
        <path d="M119.365 89.094l-51.07 29.485" fill="#33475C"/>
        <path d="M119.365 89.094l-51.07 29.485" stroke="#FFF3EE" stroke-linecap="round" stroke-linejoin="round"/>
        <path d="M123.99 90.972L72.92 120.457" fill="#33475C"/>
        <path d="M123.99 90.972L72.92 120.457" stroke="#FFF3EE" stroke-linecap="round" stroke-linejoin="round"/>
        <path d="M125.31 95.79l-19.641 11.339" fill="#FFF"/>
        <path d="M125.31 95.79l-19.641 11.339" stroke="#FFAB7D" stroke-width="2" stroke-linecap="round" stroke-linejoin="round"/>
        <path d="M133.59 100.285l-20.798 12.008" fill="#33475C"/>
        <path d="M133.59 100.285l-20.798 12.008" stroke="#FFC7AA" stroke-linecap="round" stroke-linejoin="round"/>
        <path d="M129.942 97.617l-20.88 12.055" fill="#33475C"/>
        <path d="M129.942 97.617l-20.88 12.055" stroke="#FFC7AA" stroke-linecap="round" stroke-linejoin="round"/>
        <path d="M137.327 103.167l-20.783 12" fill="#33475C"/>
        <path d="M137.327 103.167l-20.783 12" stroke="#FFC7AA" stroke-linecap="round" stroke-linejoin="round"/>
        <path d="M143.738 108.753l-20.596 11.892" fill="#33475C"/>
        <path d="M143.738 108.753l-20.596 11.892" stroke="#FFF3EE" stroke-linecap="round" stroke-linejoin="round"/>
        <path d="M140.907 105.715l-21.405 12.359" fill="#33475C"/>
        <path d="M140.907 105.715l-21.405 12.359" stroke="#FFF3EE" stroke-linecap="round" stroke-linejoin="round"/>
        <path d="M147.424 111.732l-21.414 12.364" fill="#33475C"/>
        <path d="M147.424 111.732l-21.414 12.364" stroke="#FFF3EE" stroke-linecap="round" stroke-linejoin="round"/>
        <path d="M97.332 139.78c.57.57 1.605.706 2.303.304l22.489-12.985c.697-.402.8-1.195.228-1.762 0 0-9.547-9.468-17.342-13.968-1.15-.664-2.02-1.135-2.02-1.135-.708-.384-1.858-.368-2.554.035l-22.38 12.921c-.697.403-.689 1.047.019 1.43 0 0 .653.355 1.685.95 7.94 4.585 17.572 14.21 17.572 14.21" fill="#FFF3EE"/>
        <path d="M30.753 98.185c-.176 2.13.559 4.32 1.984 5.913.255-4.369 1.286-8.691 3.033-12.703l4.913 8.76c.358-4.202 1.157-8.366 2.379-12.402-.385 2.193 2.666 6.687 4.438 8.037.27-3.956 6.368-9.242 9.184-12.034 3.34-3.314 1.47-6.57 5.014-9.665M30.753 98.185c.004-.47.103-3.263.108-3.733-.444 1.096-1.584 2.833-2.275 3.792-.575.8-1.276 1.573-2.208 1.893-1.031.354-2.257.05-3.006-.742" stroke="#FF8F52" stroke-width="2" stroke-linecap="round" stroke-linejoin="round"/>
        <path d="M69.824 18.658S31.59 47.69 10.32 58.87c0 0 26.87 26.057 50.287 29.514 23.42 3.457 49.766-5.65 49.766-5.65s33.565 16.264 48.495 10.734c0 0-23.584-5.135-57.09-35.805-18.666-17.085-31.954-39.005-31.954-39.005" fill="#FFF"/>
        <path d="M69.824 18.658S31.59 47.69 10.32 58.87c0 0 26.87 26.057 50.287 29.514 23.42 3.457 49.766-5.65 49.766-5.65s33.565 16.264 48.495 10.734c0 0-23.584-5.135-57.09-35.805-18.666-17.085-31.954-39.005-31.954-39.005z" stroke="#33475C" stroke-linecap="round" stroke-linejoin="round"/>
        <path d="M110.372 82.734s-38.183 5.726-61.601 2.27c0 0 52.434 21.206 106.013 9.41-16.2 1.988-44.412-11.68-44.412-11.68" fill="#EAF0F6"/>
        <path d="M110.372 82.734s-38.183 5.726-61.601 2.27c0 0 52.434 21.206 106.013 9.41-16.2 1.988-44.412-11.68-44.412-11.68z" stroke="#33475C" stroke-linecap="round" stroke-linejoin="round"/>
        <path d="M33.172 69.771c.712.376 1.88.38 2.594.009 0 0 8.887-4.612 23.372-15.045C74.178 43.904 77.218 40.2 77.218 40.2c.512-.622.491-1.622-.045-2.223 0 0-1.387-1.55-4.393-5.646-3.448-4.698-3.704-5.075-3.704-5.075-.452-.666-1.33-.792-1.95-.278 0 0-5.127 4.24-20.71 14.865C27.74 54.575 21.017 58.396 21.017 58.396c-.7.398-.844 1.225-.32 1.835 0 0 .981 1.147 6.012 5.026 4.536 3.499 6.463 4.514 6.463 4.514" fill="#E5F5F8"/>
        <path d="M72.92 50.868c3.573-2.85 6.495-5.5 8.113-7.605" fill="#33475C"/>
        <path d="M72.92 50.868c3.573-2.85 6.495-5.5 8.113-7.605" stroke="#40BBCE" stroke-width="2" stroke-linecap="round" stroke-linejoin="round"/>
        <path d="M64.106 57.443c1.824-1.292 3.619-2.594 5.327-3.88" fill="#33475C"/>
        <path d="M64.106 57.443c1.824-1.292 3.619-2.594 5.327-3.88" stroke="#40BBCE" stroke-width="2" stroke-linecap="round" stroke-linejoin="round"/>
        <path d="M56.792 62.476c1.458-.978 2.942-1.987 4.425-3.012" fill="#33475C"/>
        <path d="M56.792 62.476c1.458-.978 2.942-1.987 4.425-3.012" stroke="#40BBCE" stroke-width="2" stroke-linecap="round" stroke-linejoin="round"/>
        <path d="M39.51 73.546s6.205-3.763 13.896-8.821" fill="#33475C"/>
        <path d="M39.51 73.546s6.205-3.763 13.896-8.821" stroke="#40BBCE" stroke-width="2" stroke-linecap="round" stroke-linejoin="round"/>
        <path d="M43.673 75.898s31.329-18.998 40.443-29M47.5 78.242s9.866-5.984 20.136-13.002" stroke="#40BBCE" stroke-linecap="round" stroke-linejoin="round"/>
        <path d="M51.552 80.756s9.356-5.674 19.33-12.452" fill="#33475C"/>
        <path d="M51.552 80.756s9.356-5.674 19.33-12.452" stroke="#7CD1DF" stroke-linecap="round" stroke-linejoin="round"/>
        <path d="M56.792 82.266s8.054-4.884 17.181-11.003" fill="#33475C"/>
        <path d="M56.792 82.266s8.054-4.884 17.181-11.003" stroke="#7CD1DF" stroke-linecap="round" stroke-linejoin="round"/>
        <path d="M63.666 82.734s6.258-3.795 13.993-8.884" fill="#33475C"/>
        <path d="M63.666 82.734s6.258-3.795 13.993-8.884" stroke="#7CD1DF" stroke-linecap="round" stroke-linejoin="round"/>
        <path d="M70.54 83.202s4.455-2.701 10.493-6.603M78.94 82.734s2.283-1.383 5.777-3.595" stroke="#E5F5F8" stroke-linecap="round" stroke-linejoin="round"/>
        <path d="M100.072 74.133c2.348-1.556 4.833-3.237 7.311-4.967" fill="#33475C"/>
        <path d="M100.072 74.133c2.348-1.556 4.833-3.237 7.311-4.967" stroke="#40BBCE" stroke-width="2" stroke-linecap="round" stroke-linejoin="round"/>
        <path d="M86.571 82.734s3.718-2.251 8.907-5.6" fill="#33475C"/>
        <path d="M86.571 82.734s3.718-2.251 8.907-5.6" stroke="#40BBCE" stroke-width="2" stroke-linecap="round" stroke-linejoin="round"/>
        <path d="M94.198 82.734s7.914-4.791 16.704-10.766" fill="#33475C"/>
        <path d="M94.198 82.734s7.914-4.791 16.704-10.766" stroke="#7CD1DF" stroke-linecap="round" stroke-linejoin="round"/>
        <path d="M103.638 81.594s4.736-2.86 10.847-6.892" fill="#33475C"/>
        <path d="M103.638 81.594s4.736-2.86 10.847-6.892" stroke="#7CD1DF" stroke-linecap="round" stroke-linejoin="round"/>
        <g>
            <path d="M112.155 81.021c1.75-1.113 3.729-2.385 5.837-3.765" fill="#33475C"/>
            <path d="M112.155 81.021c1.75-1.113 3.729-2.385 5.837-3.765" stroke="#7CD1DF" stroke-linecap="round" stroke-linejoin="round"/>
        </g>
        <path d="M116.371 83.168c1.504-.944 3.3-2.08 5.292-3.365M120.87 85.118c1.156-.716 2.71-1.686 4.543-2.85M126.01 87.08c1.105-.708 2.283-1.467 3.514-2.268M131.1 88.826c.809-.515 1.659-1.059 2.553-1.635M135.947 90.34c.532-.343 1.074-.695 1.629-1.056" stroke="#E5F5F8" stroke-linecap="round" stroke-linejoin="round"/>
        <path d="M87.947 51.335c-.497-.632-1.299-.622-1.78.023 0 0-.082.11-6.619 5.278-6.514 5.15-7.742 5.863-7.742 5.863-.696.404-.837 1.235-.313 1.845 0 0 1.397 1.63 7.447 6.68 6.025 5.03 7.182 5.592 7.182 5.592.724.351 1.896.326 2.603-.057 0 0 2.468-1.338 7.34-4.59 5.054-3.376 6.71-4.761 6.71-4.761.617-.517.599-1.34-.04-1.83 0 0-2.381-1.819-7.483-6.55-5.217-4.838-7.305-7.493-7.305-7.493" fill="#E5F5F8"/>
        <path d="M35.32 49.304c2.641 1.69 7.255 3.277 13.665.416 6.385-2.85 7.13-9.197 5.86-13.708-2.39 1.68-5.18 3.614-8.43 5.831-4.318 2.944-7.99 5.407-11.095 7.461" fill="#7CD1DF" opacity=".5"/>
        <path d="M58.87 48.359c0 3.017-2.447 5.464-5.465 5.464-3.017 0-5.463-2.447-5.463-5.464 0-3.018 2.446-5.464 5.463-5.464 3.018 0 5.464 2.446 5.464 5.464M90.081 53.735c-.132.337-.273.67-.426.996-.973 2.043-2.316 3.886-3.467 5.834-1.47 2.487-2.626 5.157-3.438 7.929-.466 1.597-.816 3.259-.907 4.917l.996.796c.49-2.449 1.097-4.87 2.087-7.157 1.77-4.09 4.675-7.58 7.096-11.322-.76-.758-1.406-1.425-1.941-1.993" fill="#FFAB7D" opacity=".5"/>
        <path d="M89.448 76.147c1.886-4.492 1.81-9.8-.297-14.204-.713-1.493-1.64-2.88-2.338-4.382-.81-1.744-1.295-3.636-1.44-5.554-.703.566-2.025 1.622-4.523 3.599-.275 1.777.047 3.649 1.031 5.157.68 1.042 1.616 1.9 2.27 2.96.875 1.415 1.192 3.107 1.324 4.767.16 2.02.059 4.11-.736 5.975-.127.298-.281.586-.447.868 1.45 1.097 1.83 1.283 1.83 1.283.724.352 1.895.325 2.603-.057 0 0 .245-.134.723-.412" fill="#7CD1DF" opacity=".25"/>
        <path d="M93.912 66.545c-.168-2.115-.571-4.27-1.686-6.075-.833-1.348-2.027-2.444-2.893-3.77-1.041-1.597-1.505-3.512-1.433-5.413-.5-.578-1.266-.554-1.734.072 0 0-.01.01-.25.208.497 1.017.762 2.16 1.081 3.255.552 1.899 1.307 3.738 2.248 5.476.718 1.326 1.547 2.604 2.058 4.022.457 1.27.648 2.62.737 3.966.146 2.168.032 4.352-.328 6.495.408-.255.856-.536 1.348-.85.927-2.318 1.05-4.892.852-7.386" fill="#7CD1DF" opacity=".5"/>
        <g fill="#FFAB7D" opacity=".25">
            <path d="M117.015 124.364c-.482-2.589-1.739-4.972-3.49-6.923-1.462-1.194-3.007-2.393-4.558-3.498-.07-.036-.14-.076-.21-.111-1.725-.84-4.405-1.928-6.257-1.164-.682.28-.702.92-1.547 1.059-1.342.22-3.227-.753-4.715-.659-.272.018-.543.05-.813.094l-4.373 2.524c-.08.111-.167.214-.237.332-1.11 1.83-.815 4.531.947 5.747 1.063.732 2.433.843 3.592 1.412 1.16.57 2.121 2.044 1.394 3.11-.272.136-.545.273-.815.414.453 1.065.794 2.216 1.86 2.387 1.402.223 2.153-1.558 2.49-2.938.505-2.052 1.255-4.115 2.687-5.67 1.433-1.557 3.673-2.508 5.707-1.935 2.86.808 4.185 4.08 4.704 7.006.234 1.319.383 2.662.414 4.003.995-.103 1.899-.397 2.555-1.15.928-1.066.922-2.65.665-4.04"/>
            <path d="M110.274 129.527c-1.753-.014-3.507.385-5.08 1.155-1.568.767-2.935 1.88-4.416 2.805-1.48.925-3.16 1.676-4.903 1.583-1.743-.094-3.52-1.247-3.853-2.96-.257-1.324.385-2.693 1.336-3.648.738-.74 1.643-1.277 2.575-1.762-.162-.38-.338-.75-.567-1.06-.952-1.287-2.994-1.42-4.314-.514-1.32.904-1.952 2.585-1.939 4.185.01 1.301.39 2.563.889 3.771 4.18 3.552 7.33 6.699 7.33 6.699.57.569 1.606.705 2.303.303l14.083-8.13c.073-.797.096-1.598.077-2.4-1.133.116-2.384-.019-3.521-.027"/>
        </g>
        <path d="M113.381 125.55c-.518-2.925-1.844-6.197-4.704-7.005-2.034-.573-4.274.378-5.707 1.934-1.432 1.556-2.182 3.619-2.686 5.67-.339 1.38-1.089 3.162-2.49 2.94-1.067-.172-1.408-1.323-1.861-2.388-.932.484-1.837 1.02-2.575 1.76-.951.956-1.593 2.325-1.336 3.65.332 1.713 2.11 2.866 3.853 2.959 1.743.093 3.423-.659 4.903-1.584 1.481-.923 2.849-2.037 4.416-2.804 1.573-.77 3.327-1.168 5.08-1.155 1.137.008 2.388.143 3.521.027-.031-1.341-.18-2.684-.414-4.003" fill="#FFAB7D" opacity=".5"/>
        <path d="M130.187 66.438l-23.842-13.433s2.948.61 4.33-4.269c1.072-3.783.448-15.32.448-15.32l19.064 11.007v22.015z" fill="#B4BAEA"/>
        <path d="M130.187 66.438l-23.842-13.433s2.948.61 4.33-4.269c1.072-3.783.448-15.32.448-15.32l19.064 11.007v22.015z" stroke="#33475C" stroke-linecap="round" stroke-linejoin="round"/>
        <path d="M114.718 45.142c-.41 2.028.035 4.214 1.206 5.918l.27-4.444c.456 1.794.792 3.619 1.003 5.458.682-1.42 1.234-2.9 1.646-4.42.451.47.482 1.187.573 1.83.152 1.08.548 2.123 1.15 3.031" stroke="#33475C" stroke-linecap="round" stroke-linejoin="round"/>
        <path d="M131.006 71.448l-14.061-7.555s2.004-.52 2.167-3.366c.216-3.794.142-17.314.142-17.314l19.065 11.006s-.098 9.52-.098 14.359l-7.215 2.87z" fill="#7BDED2"/>
        <path d="M131.006 71.448l-14.061-7.555s2.004-.52 2.167-3.366c.216-3.794.142-17.314.142-17.314l19.065 11.006s-.098 9.52-.098 14.359l-7.215 2.87z" stroke="#33475C" stroke-linecap="round" stroke-linejoin="round"/>
        <path d="M125.47 53.62c-1.548.863-2.695 2.414-3.066 4.146l4.09-2.255c-.46 1.153-1.015 2.268-1.66 3.329.478-.698 1.258-1.182 2.097-1.298l-.03 1.153c.33-.225.698-.459 1.097-.421.156.015.305.072.45.135.63.275 1.203.686 1.667 1.194.258.28.485.593.792.816.945.686 2.415.376 3.244 1.199.204.203.351.462.574.647.223.183.573.27.793.082" stroke="#33475C" stroke-linecap="round" stroke-linejoin="round"/>
        <path fill-opacity=".5" fill="#FFF" d="M121.832 42.395l-6.83-3.943v-4.874l6.83 3.943zM134.327 54.335l-6.83-3.943v-4.874l6.83 3.943z"/>
        <path fill="#7BDED2" d="M132.735 67.531l-1.729 3.917 7.215-2.87z"/>
        <path stroke="#33475C" stroke-linecap="round" stroke-linejoin="round" d="M132.735 67.531l-1.729 3.917 7.215-2.87zM121.832 42.395l-6.83-3.943v-4.874l6.83 3.943zM134.327 54.335l-6.83-3.943v-4.874l6.83 3.943z"/>
    </g>
</svg>
