<svg width="170" height="144" viewBox="0 0 170 144" xmlns="http://www.w3.org/2000/svg">
    <g fill="none" fill-rule="evenodd">
        <path d="M88.24 142.631L3.659 93.798c-1.717-.99-1.5-2.739.483-3.884l66.773-38.552c1.983-1.145 5.01-1.27 6.728-.279l84.58 48.833c1.718.991 1.5 2.74-.482 3.884l-66.773 38.552c-1.983 1.145-5.011 1.27-6.728.28" fill="#F9D28C" opacity=".5"/>
        <path d="M163.382 78.03s-10.097-13.535-24.579-21.895c-20.042-11.572-26.004-7.308-42.688-16.941-16.683-9.632-23.929-21.521-23.929-21.521L2.5 57.906s7.246 11.89 23.93 21.52c16.683 9.634 22.644 5.37 42.687 16.942 14.481 8.36 24.578 21.896 24.578 21.896l69.687-40.233zM85.233 43.723L34.864 72.804M93.07 47.825L42.737 76.887M88.861 45.775L38.894 74.624M118.613 56.099l-50.67 29.254M124.252 58.72L73.49 88.025M147.122 75.745l-50.357 29.073" stroke="#33475C" stroke-width="5" stroke-linecap="round" stroke-linejoin="round"/>
        <path d="M77.184 39.722c-1.496 1.292-3.02 2.671-4.811 3.543-1.769.862-3.447.515-5.272.915-2.553.561-4.752 3.238-6.657 5.314-.029-.68-.012-1.348.053-2.09.054-.62-.795-1.092-1.255-.614l-4.968 5.187c-.633.66-1.258 1.55-2.1 1.99l-.005.011-1.036.526-.014.007-.03.016.003-.007c-.374.182-.55.066-.514-.363l-.003.003.188-2.458.009-.396c.019-.754-.883-.997-1.328-.448-1.055 1.301-2.111 2.6-3.168 3.898.183-1.907.521-3.775 1.043-5.656.213-.767-.882-1.426-1.32-.654-2.343 4.128-12.759 23.576-18.592 16.296-3.357-4.19.352-9.619 3.4-12.725 1.26-1.284 3.485-3.538 5.404-3.529 3.19.014 2.377 3.955 1.883 5.42-.407 1.21-1.05 2.185-1.857 3.15-.556.667.563 1.391 1.115.746 2.27-2.643 4.963-12.044-1.454-10.799-5.407 1.05-11.035 8.05-11.348 13.422-.29 4.982 4.448 9.453 9.236 6.681 2.746-1.59 4.72-4.653 6.558-7.144 1.654-2.24 3.196-4.557 4.656-6.926-.183 1.29-.3 2.591-.336 3.915-.021.763.892 1.007 1.34.454l3.16-3.904c-.052 1.552.229 2.984 2.193 2.622 1.467-.269 2.545-1.639 3.518-2.638 1.356-1.392 2.702-2.796 4.049-4.198.017.693.074 1.382.172 2.087.078.565.853.793 1.25.414 1.629-1.553 3.182-3.33 4.948-4.72 1.814-1.426 3.552-1.17 5.589-1.599 2.9-.61 5.218-2.633 7.31-4.609.713-.672-.264-1.784-1.008-1.14zM49.085 77.284c-1.429.825-1.293 1.847.301 2.27 0 0 3.452.918 5.307 1.403 1.854.485 5.373 1.598 5.373 1.598 1.574.499 4.03.23 5.46-.594l45.46-26.247c1.43-.825 1.305-1.887-.276-2.36 0 0-2.124-.634-5.652-1.448-3.528-.813-5.01-1.37-5.01-1.37-1.546-.58-3.979-.38-5.408.446L49.085 77.284zM103.424 55.283L61.882 79.266M97.859 53.593l-41.776 24.12M109.315 99.334c-2.537-.783-5.153-1.538-7.775-2.243-2.8-.752-5.71-1.476-8.694-2.01-.24-2.86-.448-5.72-.598-8.57-.029-.55-.498-.986-1.05-.947-.552.03-.976.5-.947 1.052.143 2.705.338 5.42.562 8.134-2.339-.343-4.718-.556-7.122-.556-.559-.032-1.027.44-1.026 1.001 0 .552.447 1 1 1h.026c2.452 0 4.888.237 7.29.61.32 3.57.707 7.133 1.163 10.663.065.505.495.872.99.872.043 0 .086-.003.13-.008.548-.07.934-.572.863-1.12-.43-3.33-.798-6.692-1.107-10.06 2.735.512 5.415 1.176 8.001 1.87 2.6.7 5.19 1.447 7.704 2.222.098.031.198.045.296.045.426 0 .822-.275.955-.705.162-.527-.133-1.088-.66-1.25zM122.13 79.09c.01-.003.022-.005.032-.006l-.031.005zm-4.44-5.843l.007.003-.007-.003zm-.107-.026c.009 0 .019.001.028.003l-.028-.003zm-5.421 7.207c.005 1.13-.062 2.26-.186 3.383-.214 1.84-.61 3.654-1.177 5.417-.091.284-.18.571-.287.85l-.186.472c-.121.31-.242.621-.365.932-.054.125-.12.247-.178.371l-.28.59c-.067.142-.15.28-.225.417l-.074.138c-.005-.072-.01-.144-.012-.217-.011-.213-.021-.426-.022-.64-.001-.45.04-.903.09-1.35.096-.798.224-1.587.389-2.373.178-.849.386-1.692.615-2.528.228-.835.486-1.662.76-2.484.266-.795.55-1.584.86-2.362.09-.224.183-.446.277-.668v.052zm28.603-9.533c-.098-.16-.276-.249-.455-.246-.088.002-.177.025-.256.073-.381.232-.756.471-1.13.715-.357.235-.718.47-1.06.73-.207.158-.421.314-.624.482l-.622.516c-.398.331-.786.673-1.186 1-.196.154-.398.3-.603.443-.231.161-.47.31-.723.43-.21.09-.423.166-.647.215-.12.012-.238.014-.358.006-.116-.02-.228-.047-.34-.083-.113-.053-.217-.117-.32-.19-.112-.085-.22-.174-.321-.274-.127-.126-.248-.258-.376-.384-.117-.116-.228-.236-.351-.347-.15-.136-.326-.25-.497-.358-.305-.189-.655-.262-1.01-.246-.175.01-.354.048-.518.108-.198.074-.373.19-.54.32-.144.112-.284.232-.417.36-.127.124-.24.264-.35.403-.26.324-.502.66-.732 1.003-.213.32-.413.646-.61.975-.283.473-.57.942-.841 1.421-.426.747-.844 1.498-1.283 2.237-.116.196-.24.388-.363.578-.113.174-.224.348-.344.516-.03.037-.058.074-.09.11-.097-.39-.185-.784-.275-1.175-.062-.27-.121-.54-.208-.802-.057-.17-.112-.343-.19-.506-.088-.184-.211-.343-.358-.484-.124-.12-.291-.21-.462-.232-.113-.014-.195-.014-.308.01-.078.015-.148.037-.223.065-.084.034-.166.075-.245.118-.082.046-.152.116-.225.175-.066.054-.125.118-.186.178-.085.085-.171.17-.253.257-.28.296-.525.62-.776.937-.16.201-.317.4-.465.608l-.644.9c-.124.174-.241.355-.36.533l-.542.813c-.141.211-.266.435-.4.652l-.225.372c.165-.655.33-1.31.498-1.966.085-.337.155-.679.229-1.02l.403-1.849c.089-.406.153-.818.22-1.227.119-.729.197-1.462.25-2.197.026-.338.036-.677.023-1.015-.014-.36-.066-.724-.14-1.075-.03-.145-.076-.285-.135-.42-.066-.154-.136-.29-.24-.419-.06-.075-.115-.144-.183-.21-.065-.065-.144-.113-.218-.166-.073-.05-.162-.073-.244-.106-.068-.013-.137-.023-.205-.028h-.038c-.031 0-.062.004-.092.01-.191.026-.371.075-.543.166-.112.058-.215.131-.322.2l-.381.245c-.491.317-.95.682-1.386 1.068-.517.46-.982.977-1.405 1.522-.414.534-.793 1.095-1.14 1.675-.04-.225-.085-.448-.135-.67-.072-.323-.151-.644-.255-.957-.091-.278-.213-.544-.36-.796-.151-.26-.334-.509-.56-.709-.196-.175-.438-.277-.701-.295-.137-.01-.272-.005-.407.02-.16.03-.3.094-.438.174-.125.073-.24.162-.36.242-.138.091-.274.184-.408.282-.284.205-.555.428-.823.654-.518.44-1.007.912-1.472 1.41-.77.821-1.458 1.705-2.078 2.644-.645.977-1.205 2.011-1.694 3.074-.475 1.033-.883 2.102-1.204 3.191-.167.567-.301 1.141-.394 1.724-.043.273-.075.548-.106.822-.016.142-.03.283-.043.423-.017.172-.016.345-.022.517-.005.131.118.237.243.235.136-.003.23-.113.235-.244.006-.173.008-.345.022-.517.013-.155.03-.309.048-.463.042-.36.093-.717.16-1.073.07-.385.169-.765.275-1.143.207-.738.466-1.46.749-2.172.726-1.792 1.656-3.5 2.804-5.057.932-1.246 2.023-2.38 3.232-3.36.214-.17.433-.334.659-.488.189-.129.37-.275.575-.377.054-.02.105-.035.16-.046.108-.013.213-.015.322-.006.053.01.104.022.156.038.055.025.106.056.156.09.098.08.184.167.266.262.166.215.306.447.422.693.134.312.228.638.309.968.085.35.158.702.214 1.056.026.177.048.355.068.532-.578 1.067-1.061 2.187-1.507 3.312-.526 1.33-.982 2.687-1.383 4.058-.203.692-.384 1.391-.552 2.093-.168.705-.32 1.414-.44 2.128-.055.34-.1.68-.143 1.021-.05.394-.092.79-.12 1.186-.025.335-.031.672-.018 1.008.013.353.039.71.1 1.057.016.093.036.183.06.274.04.138.105.272.172.4.077.148.212.274.353.362.089.056.184.1.275.152.099.056.206.083.32.081.157-.003.34-.069.444-.193.129-.156.264-.308.362-.486.062-.113.103-.239.149-.358l.065-.173.26-.637c.106-.263.2-.532.299-.798.06-.164.125-.327.178-.494l.293-.915c.083-.258.165-.514.24-.774.197-.676.37-1.355.522-2.042.31-1.403.528-2.822.647-4.254.119-1.433.14-2.88.054-4.316l-.005-.083c.518-1.09 1.11-2.146 1.824-3.12.577-.763 1.233-1.458 1.972-2.065.197-.155.398-.303.603-.448l.243-.173c.11-.078.216-.16.333-.225.01-.004.02-.008.03-.01.017.015.032.03.047.047.032.047.06.094.087.144.065.17.106.343.138.522.023.171.043.343.054.514.015.225.012.451.005.676-.016.441-.057.883-.106 1.322-.104.865-.257 1.723-.45 2.572l-.441 1.965c-.073.322-.155.64-.24.958l-.484 1.828-.344 1.294-.18.677c-.055.205-.098.412-.147.616-.114.482-.228.964-.333 1.45l-.33 1.512c-.078.36-.157.718-.231 1.08-.037.176-.02.35.076.506.089.147.235.254.4.297.17.044.357.016.507-.076.136-.082.27-.238.297-.4.087-.534.184-1.068.286-1.6.029-.094.059-.187.093-.279l.468-1.27.31-.72.216-.5c.03-.07.056-.14.09-.208l.429-.843.237-.467c.029-.059.057-.119.09-.175l.497-.852c.11-.19.216-.383.334-.568.299-.47.59-.947.903-1.409l.425-.626c.079-.116.153-.236.237-.349l.6-.808c.134-.169.268-.337.41-.499.123-.14.25-.279.388-.405.037-.026.074-.049.114-.07l.07-.025c.034.031.066.063.097.098.03.045.055.09.08.137.19.49.28 1.01.379 1.524.048.25.09.501.134.752.024.136.048.273.074.41l.015.078c.004.022.008.044.01.065.009.067.03.128.067.185.089.191.288.328.494.366.413.078.71-.243.965-.515.13-.14.242-.3.353-.456.12-.169.23-.348.345-.522.326-.5.618-1.02.91-1.54l.543-.965c.268-.475.543-.946.82-1.416l.384-.654c.275-.466.579-.914.899-1.349.1-.132.203-.26.312-.384.116-.13.246-.249.38-.36.084-.062.17-.119.263-.169.06-.02.12-.038.184-.05.087-.009.174-.01.262-.006.047.01.092.022.136.036.133.063.254.141.375.225.344.28.61.644.924.954.167.165.362.31.555.442.09.062.19.107.293.148.156.063.31.112.475.146.133.027.273.038.409.046.137.007.274-.015.409-.036.245-.039.477-.11.709-.198.492-.184.936-.466 1.364-.765.315-.22.617-.464.912-.71l.578-.484c.26-.216.52-.43.78-.647.217-.17.435-.342.65-.516l-.114.093c.66-.49 1.322-.979 1.996-1.448.114-.08.198-.177.233-.314.034-.135.013-.279-.06-.398zM150.125 33.102c-.68.561-1.63.752-2.516.423-1.317-.492-1.986-1.959-1.494-3.277l8.48-22.705c.49-1.319 1.96-1.986 3.279-1.495 1.316.492 1.987 1.959 1.494 3.277l-8.48 22.705c-.162.433-.43.798-.763 1.072z" stroke="#33475C" stroke-width="5" stroke-linecap="round" stroke-linejoin="round"/>
        <path d="M166.805 4.73c-1.252-1.518-3.864-2.493-5.804-2.168-.854.144-1.424.523-1.707 1.025l-.024-.01-.057.153c-.019.043-.035.086-.049.13l-21.71 58.125.064.027c-.206.282-.309.615-.29.977l-.013-.005.721 10.237 7.062-7.39-.01-.004c.123-.14.205-.297.27-.461l.011.005.026-.07.004-.008 22.07-58.4-.013-.005c.25-.613.088-1.383-.55-2.157z" stroke="#33475C" stroke-width="5" stroke-linecap="round" stroke-linejoin="round"/>
        <path d="M144.732 63.286c-1.219-1.479-3.764-2.428-5.653-2.111-1.25.21-1.912.922-1.865 1.809 0 0-.468 1.988-.376 4.827.093 2.861 1.098 5.41 1.098 5.41s2.69-2.142 4.342-3.823c1.553-1.578 2.71-3.571 2.71-3.571.572-.64.532-1.585-.256-2.54zM166.805 4.73c-1.252-1.518-3.864-2.493-5.804-2.168-.854.144-1.424.523-1.707 1.025l-.024-.01-.057.153c-.019.043-.035.086-.049.13l-6.946 18.598c.322-.395.853-.69 1.587-.812 1.97-.33 4.62.66 5.89 2.2.47.57.657 1.128.643 1.633l7.03-18.586-.012-.005c.25-.613.088-1.383-.55-2.157z" stroke="#33475C" stroke-width="5" stroke-linecap="round" stroke-linejoin="round"/>
        <path d="M137.856 69.704c-.36.053-.586.225-.665.45.137 1.654.678 3.041.678 3.041s1.229-.978 2.255-1.935l-.004-.005c.07-.212.013-.471-.197-.736-.44-.553-1.37-.92-2.067-.816z" stroke="#33475C" stroke-width="5" stroke-linecap="round" stroke-linejoin="round"/>
        <path d="M163.382 78.03s-10.097-13.535-24.579-21.895c-20.042-11.572-26.004-7.308-42.688-16.941-16.683-9.632-23.929-21.521-23.929-21.521L2.5 57.906s7.246 11.89 23.93 21.52c16.683 9.634 22.644 5.37 42.687 16.942 14.481 8.36 24.578 21.896 24.578 21.896l69.687-40.233z" fill="#FFF"/>
        <path d="M163.382 78.03s-10.097-13.535-24.579-21.895c-20.042-11.572-26.004-7.308-42.688-16.941-16.683-9.632-23.929-21.521-23.929-21.521L2.5 57.906s7.246 11.89 23.93 21.52c16.683 9.634 22.644 5.37 42.687 16.942 14.481 8.36 24.578 21.896 24.578 21.896l69.687-40.233z" stroke="#33475C" stroke-linecap="round" stroke-linejoin="round"/>
        <path d="M85.233 43.723L34.864 72.804" fill="#FFF"/>
        <path d="M85.233 43.723L34.864 72.804" stroke="#D9DCF4" stroke-width="2" stroke-linecap="round" stroke-linejoin="round"/>
        <path d="M93.07 47.825L42.737 76.887M88.861 45.775L38.894 74.624M118.613 56.099l-50.67 29.254" stroke="#ECEDF9" stroke-linecap="round" stroke-linejoin="round"/>
        <path d="M124.252 58.72L73.49 88.025" fill="#FFF"/>
        <path d="M124.252 58.72L73.49 88.025" stroke="#D9DCF4" stroke-width="2" stroke-linecap="round" stroke-linejoin="round"/>
        <path d="M147.122 75.745l-50.357 29.073" stroke="#ECEDF9" stroke-linecap="round" stroke-linejoin="round"/>
        <path d="M77.184 39.722c-1.496 1.292-3.02 2.671-4.811 3.543-1.769.862-3.447.515-5.272.915-2.553.561-4.752 3.238-6.657 5.314-.029-.68-.012-1.348.053-2.09.054-.62-.795-1.092-1.255-.614l-4.968 5.187c-.633.66-1.258 1.55-2.1 1.99l-.005.011-1.036.526-.014.007-.03.016.003-.007c-.374.182-.55.066-.514-.363l-.003.003.188-2.458.009-.396c.019-.754-.883-.997-1.328-.448-1.055 1.301-2.111 2.6-3.168 3.898.183-1.907.521-3.775 1.043-5.656.213-.767-.882-1.426-1.32-.654-2.343 4.128-12.759 23.576-18.592 16.296-3.357-4.19.352-9.619 3.4-12.725 1.26-1.284 3.485-3.538 5.404-3.529 3.19.014 2.377 3.955 1.883 5.42-.407 1.21-1.05 2.185-1.857 3.15-.556.667.563 1.391 1.115.746 2.27-2.643 4.963-12.044-1.454-10.799-5.407 1.05-11.035 8.05-11.348 13.422-.29 4.982 4.448 9.453 9.236 6.681 2.746-1.59 4.72-4.653 6.558-7.144 1.654-2.24 3.196-4.557 4.656-6.926-.183 1.29-.3 2.591-.336 3.915-.021.763.892 1.007 1.34.454l3.16-3.904c-.052 1.552.229 2.984 2.193 2.622 1.467-.269 2.545-1.639 3.518-2.638 1.356-1.392 2.702-2.796 4.049-4.198.017.693.074 1.382.172 2.087.078.565.853.793 1.25.414 1.629-1.553 3.182-3.33 4.948-4.72 1.814-1.426 3.552-1.17 5.589-1.599 2.9-.61 5.218-2.633 7.31-4.609.713-.672-.264-1.784-1.008-1.14" fill="#33475C"/>
        <path d="M49.085 77.284c-1.429.825-1.293 1.847.301 2.27 0 0 3.452.918 5.307 1.403 1.854.485 5.373 1.598 5.373 1.598 1.574.499 4.03.23 5.46-.594l45.46-26.247c1.43-.825 1.305-1.887-.276-2.36 0 0-2.124-.634-5.652-1.448-3.528-.813-5.01-1.37-5.01-1.37-1.546-.58-3.979-.38-5.408.446L49.085 77.284z" fill="#B4BAEA"/>
        <path d="M103.424 55.283L61.882 79.266" fill="#FFF"/>
        <path d="M103.424 55.283L61.882 79.266" stroke="#33475C" stroke-linecap="round" stroke-linejoin="round"/>
        <path d="M97.859 53.593l-41.776 24.12" fill="#FFF"/>
        <path d="M97.859 53.593l-41.776 24.12" stroke="#33475C" stroke-linecap="round" stroke-linejoin="round"/>
        <path d="M109.315 99.334c-2.537-.783-5.153-1.538-7.775-2.243-2.8-.752-5.71-1.476-8.694-2.01-.24-2.86-.448-5.72-.598-8.57-.029-.55-.498-.986-1.05-.947-.552.03-.976.5-.947 1.052.143 2.705.338 5.42.562 8.134-2.339-.343-4.718-.556-7.122-.556-.559-.032-1.027.44-1.026 1.001 0 .552.447 1 1 1h.026c2.452 0 4.888.237 7.29.61.32 3.57.707 7.133 1.163 10.663.065.505.495.872.99.872.043 0 .086-.003.13-.008.548-.07.934-.572.863-1.12-.43-3.33-.798-6.692-1.107-10.06 2.735.512 5.415 1.176 8.001 1.87 2.6.7 5.19 1.447 7.704 2.222.098.031.198.045.296.045.426 0 .822-.275.955-.705.162-.527-.133-1.088-.66-1.25M122.13 79.09c.01-.003.022-.005.032-.006l-.031.005zm-4.44-5.843l.007.003-.007-.003zm-.107-.026c.009 0 .019.001.028.003l-.028-.003zm-5.421 7.207c.005 1.13-.062 2.26-.186 3.383-.214 1.84-.61 3.654-1.177 5.417-.091.284-.18.571-.287.85l-.186.472c-.121.31-.242.621-.365.932-.054.125-.12.247-.178.371l-.28.59c-.067.142-.15.28-.225.417l-.074.138c-.005-.072-.01-.144-.012-.217-.011-.213-.021-.426-.022-.64-.001-.45.04-.903.09-1.35.096-.798.224-1.587.389-2.373.178-.849.386-1.692.615-2.528.228-.835.486-1.662.76-2.484.266-.795.55-1.584.86-2.362.09-.224.183-.446.277-.668v.052zm28.603-9.533c-.098-.16-.276-.249-.455-.246-.088.002-.177.025-.256.073-.381.232-.756.471-1.13.715-.357.235-.718.47-1.06.73-.207.158-.421.314-.624.482l-.622.516c-.398.331-.786.673-1.186 1-.196.154-.398.3-.603.443-.231.161-.47.31-.723.43-.21.09-.423.166-.647.215-.12.012-.238.014-.358.006-.116-.02-.228-.047-.34-.083-.113-.053-.217-.117-.32-.19-.112-.085-.22-.174-.321-.274-.127-.126-.248-.258-.376-.384-.117-.116-.228-.236-.351-.347-.15-.136-.326-.25-.497-.358-.305-.189-.655-.262-1.01-.246-.175.01-.354.048-.518.108-.198.074-.373.19-.54.32-.144.112-.284.232-.417.36-.127.124-.24.264-.35.403-.26.324-.502.66-.732 1.003-.213.32-.413.646-.61.975-.283.473-.57.942-.841 1.421-.426.747-.844 1.498-1.283 2.237-.116.196-.24.388-.363.578-.113.174-.224.348-.344.516-.03.037-.058.074-.09.11-.097-.39-.185-.784-.275-1.175-.062-.27-.121-.54-.208-.802-.057-.17-.112-.343-.19-.506-.088-.184-.211-.343-.358-.484-.124-.12-.291-.21-.462-.232-.113-.014-.195-.014-.308.01-.078.015-.148.037-.223.065-.084.034-.166.075-.245.118-.082.046-.152.116-.225.175-.066.054-.125.118-.186.178-.085.085-.171.17-.253.257-.28.296-.525.62-.776.937-.16.201-.317.4-.465.608l-.644.9c-.124.174-.241.355-.36.533l-.542.813c-.141.211-.266.435-.4.652l-.225.372c.165-.655.33-1.31.498-1.966.085-.337.155-.679.229-1.02l.403-1.849c.089-.406.153-.818.22-1.227.119-.729.197-1.462.25-2.197.026-.338.036-.677.023-1.015-.014-.36-.066-.724-.14-1.075-.03-.145-.076-.285-.135-.42-.066-.154-.136-.29-.24-.419-.06-.075-.115-.144-.183-.21-.065-.065-.144-.113-.218-.166-.073-.05-.162-.073-.244-.106-.068-.013-.137-.023-.205-.028h-.038c-.031 0-.062.004-.092.01-.191.026-.371.075-.543.166-.112.058-.215.131-.322.2l-.381.245c-.491.317-.95.682-1.386 1.068-.517.46-.982.977-1.405 1.522-.414.534-.793 1.095-1.14 1.675-.04-.225-.085-.448-.135-.67-.072-.323-.151-.644-.255-.957-.091-.278-.213-.544-.36-.796-.151-.26-.334-.509-.56-.709-.196-.175-.438-.277-.701-.295-.137-.01-.272-.005-.407.02-.16.03-.3.094-.438.174-.125.073-.24.162-.36.242-.138.091-.274.184-.408.282-.284.205-.555.428-.823.654-.518.44-1.007.912-1.472 1.41-.77.821-1.458 1.705-2.078 2.644-.645.977-1.205 2.011-1.694 3.074-.475 1.033-.883 2.102-1.204 3.191-.167.567-.301 1.141-.394 1.724-.043.273-.075.548-.106.822-.016.142-.03.283-.043.423-.017.172-.016.345-.022.517-.005.131.118.237.243.235.136-.003.23-.113.235-.244.006-.173.008-.345.022-.517.013-.155.03-.309.048-.463.042-.36.093-.717.16-1.073.07-.385.169-.765.275-1.143.207-.738.466-1.46.749-2.172.726-1.792 1.656-3.5 2.804-5.057.932-1.246 2.023-2.38 3.232-3.36.214-.17.433-.334.659-.488.189-.129.37-.275.575-.377.054-.02.105-.035.16-.046.108-.013.213-.015.322-.006.053.01.104.022.156.038.055.025.106.056.156.09.098.08.184.167.266.262.166.215.306.447.422.693.134.312.228.638.309.968.085.35.158.702.214 1.056.026.177.048.355.068.532-.578 1.067-1.061 2.187-1.507 3.312-.526 1.33-.982 2.687-1.383 4.058-.203.692-.384 1.391-.552 2.093-.168.705-.32 1.414-.44 2.128-.055.34-.1.68-.143 1.021-.05.394-.092.79-.12 1.186-.025.335-.031.672-.018 1.008.013.353.039.71.1 1.057.016.093.036.183.06.274.04.138.105.272.172.4.077.148.212.274.353.362.089.056.184.1.275.152.099.056.206.083.32.081.157-.003.34-.069.444-.193.129-.156.264-.308.362-.486.062-.113.103-.239.149-.358l.065-.173.26-.637c.106-.263.2-.532.299-.798.06-.164.125-.327.178-.494l.293-.915c.083-.258.165-.514.24-.774.197-.676.37-1.355.522-2.042.31-1.403.528-2.822.647-4.254.119-1.433.14-2.88.054-4.316l-.005-.083c.518-1.09 1.11-2.146 1.824-3.12.577-.763 1.233-1.458 1.972-2.065.197-.155.398-.303.603-.448l.243-.173c.11-.078.216-.16.333-.225.01-.004.02-.008.03-.01.017.015.032.03.047.047.032.047.06.094.087.144.065.17.106.343.138.522.023.171.043.343.054.514.015.225.012.451.005.676-.016.441-.057.883-.106 1.322-.104.865-.257 1.723-.45 2.572l-.441 1.965c-.073.322-.155.64-.24.958l-.484 1.828-.344 1.294-.18.677c-.055.205-.098.412-.147.616-.114.482-.228.964-.333 1.45l-.33 1.512c-.078.36-.157.718-.231 1.08-.037.176-.02.35.076.506.089.147.235.254.4.297.17.044.357.016.507-.076.136-.082.27-.238.297-.4.087-.534.184-1.068.286-1.6.029-.094.059-.187.093-.279l.468-1.27.31-.72.216-.5c.03-.07.056-.14.09-.208l.429-.843.237-.467c.029-.059.057-.119.09-.175l.497-.852c.11-.19.216-.383.334-.568.299-.47.59-.947.903-1.409l.425-.626c.079-.116.153-.236.237-.349l.6-.808c.134-.169.268-.337.41-.499.123-.14.25-.279.388-.405.037-.026.074-.049.114-.07l.07-.025c.034.031.066.063.097.098.03.045.055.09.08.137.19.49.28 1.01.379 1.524.048.25.09.501.134.752.024.136.048.273.074.41l.015.078c.004.022.008.044.01.065.009.067.03.128.067.185.089.191.288.328.494.366.413.078.71-.243.965-.515.13-.14.242-.3.353-.456.12-.169.23-.348.345-.522.326-.5.618-1.02.91-1.54l.543-.965c.268-.475.543-.946.82-1.416l.384-.654c.275-.466.579-.914.899-1.349.1-.132.203-.26.312-.384.116-.13.246-.249.38-.36.084-.062.17-.119.263-.169.06-.02.12-.038.184-.05.087-.009.174-.01.262-.006.047.01.092.022.136.036.133.063.254.141.375.225.344.28.61.644.924.954.167.165.362.31.555.442.09.062.19.107.293.148.156.063.31.112.475.146.133.027.273.038.409.046.137.007.274-.015.409-.036.245-.039.477-.11.709-.198.492-.184.936-.466 1.364-.765.315-.22.617-.464.912-.71l.578-.484c.26-.216.52-.43.78-.647.217-.17.435-.342.65-.516l-.114.093c.66-.49 1.322-.979 1.996-1.448.114-.08.198-.177.233-.314.034-.135.013-.279-.06-.398z" fill="#33475C"/>
        <path d="M150.125 33.102c-.68.561-1.63.752-2.516.423-1.317-.492-1.986-1.959-1.494-3.277l8.48-22.705c.49-1.319 1.96-1.986 3.279-1.495 1.316.492 1.987 1.959 1.494 3.277l-8.48 22.705c-.162.433-.43.798-.763 1.072" fill="#FEF8F0"/>
        <path d="M150.125 33.102c-.68.561-1.63.752-2.516.423-1.317-.492-1.986-1.959-1.494-3.277l8.48-22.705c.49-1.319 1.96-1.986 3.279-1.495 1.316.492 1.987 1.959 1.494 3.277l-8.48 22.705c-.162.433-.43.798-.763 1.072z" stroke="#33475C" stroke-linecap="round" stroke-linejoin="round"/>
        <path d="M166.805 4.73c-1.252-1.518-3.864-2.493-5.804-2.168-.854.144-1.424.523-1.707 1.025l-.024-.01-.057.153c-.019.043-.035.086-.049.13l-21.71 58.125.064.027c-.206.282-.309.615-.29.977l-.013-.005.721 10.237 7.062-7.39-.01-.004c.123-.14.205-.297.27-.461l.011.005.026-.07.004-.008 22.07-58.4-.013-.005c.25-.613.088-1.383-.55-2.157" fill="#98ACC3"/>
        <path d="M166.805 4.73c-1.252-1.518-3.864-2.493-5.804-2.168-.854.144-1.424.523-1.707 1.025l-.024-.01-.057.153c-.019.043-.035.086-.049.13l-21.71 58.125.064.027c-.206.282-.309.615-.29.977l-.013-.005.721 10.237 7.062-7.39-.01-.004c.123-.14.205-.297.27-.461l.011.005.026-.07.004-.008 22.07-58.4-.013-.005c.25-.613.088-1.383-.55-2.157z" stroke="#33475C" stroke-linecap="round" stroke-linejoin="round"/>
        <path d="M144.732 63.286c-1.219-1.479-3.764-2.428-5.653-2.111-1.25.21-1.912.922-1.865 1.809 0 0-.468 1.988-.376 4.827.093 2.861 1.098 5.41 1.098 5.41s2.69-2.142 4.342-3.823c1.553-1.578 2.71-3.571 2.71-3.571.572-.64.532-1.585-.256-2.54" fill="#FEF8F0"/>
        <path d="M144.732 63.286c-1.219-1.479-3.764-2.428-5.653-2.111-1.25.21-1.912.922-1.865 1.809 0 0-.468 1.988-.376 4.827.093 2.861 1.098 5.41 1.098 5.41s2.69-2.142 4.342-3.823c1.553-1.578 2.71-3.571 2.71-3.571.572-.64.532-1.585-.256-2.54z" stroke="#33475C" stroke-linecap="round" stroke-linejoin="round"/>
        <path d="M166.805 4.73c-1.252-1.518-3.864-2.493-5.804-2.168-.854.144-1.424.523-1.707 1.025l-.024-.01-.057.153c-.019.043-.035.086-.049.13l-6.946 18.598c.322-.395.853-.69 1.587-.812 1.97-.33 4.62.66 5.89 2.2.47.57.657 1.128.643 1.633l7.03-18.586-.012-.005c.25-.613.088-1.383-.55-2.157" fill="#506E91"/>
        <path d="M166.805 4.73c-1.252-1.518-3.864-2.493-5.804-2.168-.854.144-1.424.523-1.707 1.025l-.024-.01-.057.153c-.019.043-.035.086-.049.13l-6.946 18.598c.322-.395.853-.69 1.587-.812 1.97-.33 4.62.66 5.89 2.2.47.57.657 1.128.643 1.633l7.03-18.586-.012-.005c.25-.613.088-1.383-.55-2.157z" stroke="#33475C" stroke-linecap="round" stroke-linejoin="round"/>
        <path d="M137.856 69.704c-.36.053-.586.225-.665.45.137 1.654.678 3.041.678 3.041s1.229-.978 2.255-1.935l-.004-.005c.07-.212.013-.471-.197-.736-.44-.553-1.37-.92-2.067-.816" fill="#FEF8F0"/>
        <path d="M137.856 69.704c-.36.053-.586.225-.665.45.137 1.654.678 3.041.678 3.041s1.229-.978 2.255-1.935l-.004-.005c.07-.212.013-.471-.197-.736-.44-.553-1.37-.92-2.067-.816z" stroke="#33475C" stroke-linecap="round" stroke-linejoin="round"/>
    </g>
</svg>
