<svg id="Layer_1" data-name="Layer 1" xmlns="http://www.w3.org/2000/svg" xmlns:xlink="http://www.w3.org/1999/xlink" viewBox="0 0 181.75 145.24"><defs><style>.cls-1,.cls-17,.cls-2,.cls-21,.cls-28,.cls-29,.cls-3,.cls-30,.cls-31{fill:none;}.cls-2,.cls-4,.cls-5,.cls-6,.cls-7{clip-rule:evenodd;}.cls-3,.cls-33,.cls-36,.cls-40,.cls-43{fill-rule:evenodd;}.cls-33,.cls-35,.cls-4{fill:#f68e55;}.cls-36,.cls-38,.cls-5{fill:#febb12;}.cls-40,.cls-42,.cls-6{fill:#00a4bf;}.cls-43,.cls-45,.cls-7{fill:#f05559;}.cls-8{isolation:isolate;}.cls-9{clip-path:url(#clip-path);}.cls-10{clip-path:url(#clip-path-2);}.cls-11{fill:#040505;}.cls-12{clip-path:url(#clip-path-4);}.cls-13,.cls-48{fill:#fff;}.cls-14{clip-path:url(#clip-path-6);}.cls-15{clip-path:url(#clip-path-8);}.cls-16{fill:#34485c;}.cls-17{stroke:#34495b;stroke-width:0.8px;}.cls-17,.cls-48{stroke-miterlimit:10;}.cls-18{clip-path:url(#clip-path-11);}.cls-19{clip-path:url(#clip-path-13);}.cls-20{fill:#f68f56;}.cls-21{stroke:#fcc9ac;stroke-width:2.4px;}.cls-21,.cls-28,.cls-29,.cls-30,.cls-31,.cls-48{stroke-linecap:round;}.cls-21,.cls-28,.cls-29,.cls-30,.cls-31{stroke-linejoin:round;}.cls-22{clip-path:url(#clip-path-16);}.cls-23{clip-path:url(#clip-path-19);}.cls-24{fill:#d5e7f6;}.cls-25{clip-path:url(#clip-path-21);}.cls-26{clip-path:url(#clip-path-22);}.cls-27{clip-path:url(#clip-path-24);}.cls-28{stroke:#23baa3;}.cls-28,.cls-29,.cls-30,.cls-31,.cls-48{stroke-width:2px;}.cls-28,.cls-29,.cls-30,.cls-31,.cls-39{opacity:0.5;}.cls-29{stroke:#f0527d;}.cls-30{stroke:#f47a57;}.cls-31{stroke:#6b75b8;}.cls-32{fill:#23baa3;}.cls-34{clip-path:url(#clip-path-25);}.cls-37{clip-path:url(#clip-path-26);}.cls-41{clip-path:url(#clip-path-27);}.cls-44{clip-path:url(#clip-path-28);}.cls-46{clip-path:url(#clip-path-29);}.cls-47{clip-path:url(#clip-path-30);}.cls-48{stroke:#fff;}</style><clipPath id="clip-path" transform="translate(0 1.64)"><rect class="cls-1" x="55.37" y="25.06" width="81" height="82"/></clipPath><clipPath id="clip-path-2" transform="translate(0 1.64)"><path class="cls-2" d="M69,52.36h0s0,0,0,0"/></clipPath><clipPath id="clip-path-4" transform="translate(0 1.64)"><path class="cls-2" d="M69,53.39l0-.66,0.11-.37,0.71,0.14,0,0.67Zm0.32-.95,0.1,0.4Z"/></clipPath><clipPath id="clip-path-6" transform="translate(0 1.64)"><path class="cls-2" d="M57.48,40.63a3,3,0,0,1,3-3h47.65a3,3,0,0,1,3,3V102a3,3,0,0,1-3,3H60.48a3,3,0,0,1-3-3V40.63Z"/></clipPath><clipPath id="clip-path-8" transform="translate(0 1.64)"><path class="cls-2" d="M106.73,106.57l-44.63,0a6.25,6.25,0,0,1-6.26-6.24L55.79,41.07A6.25,6.25,0,0,1,62,34.82l33.64,0h0a1.54,1.54,0,0,1,1.21.62l15.38,15.33a1.53,1.53,0,0,1,.62,1.21v0h0l0,48.34A6.25,6.25,0,0,1,106.73,106.57ZM97.29,40.06V50.39h10.35ZM109.81,53.5H95.74A1.56,1.56,0,0,1,94.18,52v-14L62,37.94a3.13,3.13,0,0,0-3.12,3.12L59,100.37a3.13,3.13,0,0,0,3.13,3.12l44.63,0a3.13,3.13,0,0,0,3.12-3.12Z"/></clipPath><clipPath id="clip-path-11" transform="translate(0 1.64)"><polygon class="cls-2" points="121.74 44.56 115.04 43.92 106.42 43.65 105.37 28.3 72.45 28.16 69.54 28.8 68.22 31.36 68 92.98 70.4 95.99 77.13 96.52 116.8 96.38 120.42 95.48 121.79 91.35 121.74 44.56"/></clipPath><clipPath id="clip-path-13" transform="translate(0 1.64)"><path class="cls-2" d="M95,43.1a76,76,0,0,0-7.79-.24c0.16-.85.28-1.7,0.39-2.55a1,1,0,0,0-1.21-.93A17.27,17.27,0,0,0,81.34,43c0.68-1.88,2-4.09,2.37-5a0.91,0.91,0,0,0-1-1.32,11,11,0,0,0-4.06,2.61c-1.23,1.2-2.35,2.95-3.79,4,0.08-1.49,2.24-4.45,2.7-5.11a0.55,0.55,0,0,0-.86-0.67c-1.47,1.51-4.8,5.59-2.85,7.67a0.83,0.83,0,0,0,.83.22c2.58-1,4-3.65,6.06-5.49-1,2-2.07,4.15-1.67,6a1,1,0,0,0,1.62.43c1.48-1.24,3-3,4.67-4.16-0.12.5-.24,1-0.39,1.49A1.06,1.06,0,0,0,86,45C89,45,92,45.19,95,45a0.94,0.94,0,0,0,0-1.88"/></clipPath><clipPath id="clip-path-16" transform="translate(0 1.64)"><path class="cls-2" d="M115.78,97.85l-44.63,0a6.25,6.25,0,0,1-6.26-6.24L64.84,32.34a6.25,6.25,0,0,1,6.25-6.25l33.64,0h0a1.54,1.54,0,0,1,1.21.62L121.37,42a1.53,1.53,0,0,1,.62,1.21v0h0l0,48.34A6.25,6.25,0,0,1,115.78,97.85Zm-9.44-66.51V41.67H116.7Zm12.52,13.44H104.79a1.56,1.56,0,0,1-1.57-1.56v-14l-32.12,0A3.13,3.13,0,0,0,68,32.34L68,91.65a3.13,3.13,0,0,0,3.13,3.12l44.63,0a3.13,3.13,0,0,0,3.12-3.12Z"/></clipPath><clipPath id="clip-path-19" transform="translate(0 1.64)"><polygon class="cls-2" points="105.87 31.32 105.88 41.65 116.23 41.64 105.87 31.32"/></clipPath><clipPath id="clip-path-21" transform="translate(0 1.64)"><path class="cls-2" d="M101.47,68.44a10,10,0,1,1,10,10,10,10,0,0,1-10-10"/></clipPath><clipPath id="clip-path-22" transform="translate(0 1.64)"><path class="cls-2" d="M111.46,78.41a10,10,0,1,0-10-10,10,10,0,0,0,10,10m0-28.15a18.18,18.18,0,1,0,7.71,34.66L125.25,91A6.21,6.21,0,0,0,134,82.21L128,76.14a18,18,0,0,0,1.71-7.7,18.22,18.22,0,0,0-18.22-18.18"/></clipPath><clipPath id="clip-path-24" transform="translate(0 1.64)"><path class="cls-2" d="M110.24,78.33"/></clipPath><clipPath id="clip-path-25" transform="translate(0 1.64)"><path class="cls-4" d="M157,47.67c-2.38.58-2.85,1.06-3.43,3.44-0.58-2.38-1.06-2.86-3.43-3.44,2.38-.58,2.85-1.06,3.43-3.44,0.58,2.38,1.06,2.86,3.43,3.44"/></clipPath><clipPath id="clip-path-26" transform="translate(0 1.64)"><path class="cls-5" d="M170.78,27.21c-4.47,1.1-5.36,2-6.45,6.46-1.1-4.48-2-5.37-6.45-6.46,4.47-1.1,5.36-2,6.45-6.46,1.1,4.48,2,5.37,6.45,6.46"/></clipPath><clipPath id="clip-path-27" transform="translate(0 1.64)"><path class="cls-6" d="M147.32,15c-5.7,1.4-6.83,2.53-8.22,8.23-1.4-5.7-2.53-6.84-8.22-8.23,5.7-1.4,6.83-2.53,8.22-8.23,1.4,5.7,2.53,6.84,8.22,8.23"/></clipPath><clipPath id="clip-path-28" transform="translate(0 1.64)"><path class="cls-7" d="M31.58,95.24c-2.38.58-2.85,1.06-3.43,3.44-0.58-2.38-1.06-2.86-3.43-3.44,2.38-.58,2.85-1.06,3.43-3.44,0.58,2.38,1.06,2.86,3.43,3.44"/></clipPath><clipPath id="clip-path-29" transform="translate(0 1.64)"><path class="cls-5" d="M24.78,115.21c-4.47,1.1-5.36,2-6.45,6.46-1.1-4.48-2-5.37-6.45-6.46,4.47-1.1,5.36-2,6.45-6.46,1.1,4.48,2,5.37,6.45,6.46"/></clipPath><clipPath id="clip-path-30" transform="translate(0 1.64)"><path class="cls-6" d="M51.32,127c-5.7,1.4-6.83,2.53-8.22,8.23-1.4-5.7-2.53-6.84-8.22-8.23,5.7-1.4,6.83-2.53,8.22-8.23,1.4,5.7,2.53,6.84,8.22,8.23"/></clipPath></defs><title>add_files</title><g class="cls-8"><g class="cls-9"><g class="cls-10"><g class="cls-9"><rect class="cls-11" x="64.05" y="49" width="10.01" height="10"/></g></g><g class="cls-12"><g class="cls-9"><rect class="cls-13" x="64.05" y="49" width="10.86" height="11.03"/></g></g><g class="cls-14"><g class="cls-9"><rect class="cls-13" x="52.48" y="34.27" width="63.65" height="77.32"/></g></g><g class="cls-15"><g class="cls-9"><rect class="cls-16" x="50.79" y="31.42" width="67.19" height="81.83"/></g></g><g class="cls-9"><path class="cls-17" d="M106.73,106.57l-44.63,0a6.25,6.25,0,0,1-6.26-6.24L55.79,41.07A6.25,6.25,0,0,1,62,34.82l33.64,0h0a1.54,1.54,0,0,1,1.21.62l15.38,15.33a1.53,1.53,0,0,1,.62,1.21v0h0l0,48.34A6.25,6.25,0,0,1,106.73,106.57ZM97.29,40.06V50.39h10.35ZM109.81,53.5H95.74A1.56,1.56,0,0,1,94.18,52v-14L62,37.94a3.13,3.13,0,0,0-3.12,3.12L59,100.37a3.13,3.13,0,0,0,3.13,3.12l44.63,0a3.13,3.13,0,0,0,3.12-3.12Z" transform="translate(0 1.64)"/></g><g class="cls-18"><g class="cls-9"><rect class="cls-13" x="63" y="24.8" width="63.8" height="78.35"/></g></g><g class="cls-19"><g class="cls-9"><rect class="cls-20" x="68.26" y="33.22" width="32.68" height="19.97"/></g></g><g class="cls-9"><line class="cls-21" x1="74.31" y1="57.15" x2="111.55" y2="57.15"/><line class="cls-21" x1="74.31" y1="64.51" x2="106.29" y2="64.51"/><line class="cls-21" x1="74.31" y1="71.88" x2="111.55" y2="71.88"/><line class="cls-21" x1="74.31" y1="86.61" x2="111.55" y2="86.61"/><line class="cls-21" x1="74.31" y1="79.24" x2="106.29" y2="79.24"/></g><g class="cls-22"><g class="cls-9"><rect class="cls-16" x="59.84" y="22.7" width="67.19" height="81.83"/></g></g><g class="cls-9"><path class="cls-17" d="M115.78,97.85l-44.63,0a6.25,6.25,0,0,1-6.26-6.24L64.84,32.34a6.25,6.25,0,0,1,6.25-6.25l33.64,0h0a1.54,1.54,0,0,1,1.21.62L121.37,42a1.53,1.53,0,0,1,.62,1.21v0h0l0,48.34A6.25,6.25,0,0,1,115.78,97.85Zm-9.44-66.51V41.67H116.7Zm12.52,13.44H104.79a1.56,1.56,0,0,1-1.57-1.56v-14l-32.12,0A3.13,3.13,0,0,0,68,32.34L68,91.65a3.13,3.13,0,0,0,3.13,3.12l44.63,0a3.13,3.13,0,0,0,3.12-3.12Z" transform="translate(0 1.64)"/></g><g class="cls-23"><g class="cls-9"><rect class="cls-24" x="100.87" y="27.96" width="20.36" height="20.33"/></g></g></g></g><polygon class="cls-28" points="1 66.47 1 66.45 27 66.45 1 66.47"/><polygon class="cls-29" points="46.47 25.82 38.3 15.6 30.14 5.6 37.26 14.31 30.23 5.52 37.31 14.36 46.6 25.72 46.47 25.82"/><line class="cls-30" x1="67.29" y1="15.74" x2="64.26" y2="2.64"/><line class="cls-31" x1="32.18" y1="43.7" x2="20.44" y2="38.32"/><polygon class="cls-28" points="180.75 79.01 180.75 79.03 154.75 79.03 180.75 79.01"/><polygon class="cls-29" points="135.28 119.66 143.45 129.88 151.61 139.88 144.49 131.17 151.52 139.96 144.44 131.12 135.15 119.76 135.28 119.66"/><line class="cls-30" x1="114.46" y1="129.74" x2="117.49" y2="142.84"/><line class="cls-31" x1="149.57" y1="101.78" x2="161.31" y2="107.16"/><path class="cls-32" d="M110.58,48.65a3.11,3.11,0,0,1-1.55-.41l-2.26-1.3h-2.6a3.11,3.11,0,0,1-2.69-1.55l-1.3-2.25-2.25-1.3a3.11,3.11,0,0,1-1.55-2.69v-2.6l-1.3-2.25a3.12,3.12,0,0,1,0-3.1l1.3-2.26v-2.6a3.11,3.11,0,0,1,1.55-2.69l2.25-1.3,1.3-2.25a3.11,3.11,0,0,1,2.69-1.55h2.6l2.25-1.3a3.1,3.1,0,0,1,3.1,0l2.26,1.3H117a3.11,3.11,0,0,1,2.69,1.55l1.3,2.26,2.25,1.3a3.11,3.11,0,0,1,1.55,2.69v2.6l1.3,2.25a3.12,3.12,0,0,1,0,3.1l-1.3,2.26v2.6a3.11,3.11,0,0,1-1.55,2.69L121,43.13l-1.3,2.25A3.11,3.11,0,0,1,117,46.94h-2.6l-2.25,1.3A3.12,3.12,0,0,1,110.58,48.65Z" transform="translate(0 1.64)"/><path class="cls-13" d="M110.58,18.82a1.1,1.1,0,0,1,.55.15l2.72,1.57H117a1.1,1.1,0,0,1,1,.55l1.57,2.72,2.72,1.57a1.1,1.1,0,0,1,.55,1v3.14l1.57,2.72a1.1,1.1,0,0,1,0,1.1L122.77,36v3.14a1.1,1.1,0,0,1-.55,1l-2.72,1.57-1.57,2.72a1.1,1.1,0,0,1-1,.55h-3.14l-2.72,1.57a1.1,1.1,0,0,1-1.1,0l-2.72-1.57h-3.14a1.1,1.1,0,0,1-1-.55l-1.57-2.72L98.93,40.1a1.1,1.1,0,0,1-.55-1V36l-1.57-2.72a1.1,1.1,0,0,1,0-1.1l1.57-2.72V26.33a1.1,1.1,0,0,1,.55-1l2.72-1.57,1.57-2.72a1.1,1.1,0,0,1,1-.55h3.14L110,19a1.1,1.1,0,0,1,.55-0.15m0-4a5.11,5.11,0,0,0-2.55.68l-1.79,1h-2.07a5.12,5.12,0,0,0-4.42,2.55l-1,1.79-1.79,1a5.11,5.11,0,0,0-2.55,4.42V28.4l-1,1.79a5.12,5.12,0,0,0,0,5.1l1,1.79v2.07a5.12,5.12,0,0,0,2.55,4.42l1.79,1,1,1.79a5.11,5.11,0,0,0,4.42,2.55h2.07L108,50a5.1,5.1,0,0,0,5.1,0l1.79-1H117a5.12,5.12,0,0,0,4.42-2.55l1-1.79,1.79-1a5.11,5.11,0,0,0,2.55-4.42V37.08l1-1.79a5.12,5.12,0,0,0,0-5.1l-1-1.79V26.33a5.12,5.12,0,0,0-2.55-4.42l-1.79-1-1-1.79A5.11,5.11,0,0,0,117,16.54h-2.07l-1.79-1a5.11,5.11,0,0,0-2.55-.68h0Z" transform="translate(0 1.64)"/><path class="cls-33" d="M157,47.67c-2.38.58-2.85,1.06-3.43,3.44-0.58-2.38-1.06-2.86-3.43-3.44,2.38-.58,2.85-1.06,3.43-3.44,0.58,2.38,1.06,2.86,3.43,3.44" transform="translate(0 1.64)"/><g class="cls-34"><rect class="cls-35" x="146.67" y="42.37" width="13.87" height="13.88"/></g><path class="cls-36" d="M170.78,27.21c-4.47,1.1-5.36,2-6.45,6.46-1.1-4.48-2-5.37-6.45-6.46,4.47-1.1,5.36-2,6.45-6.46,1.1,4.48,2,5.37,6.45,6.46" transform="translate(0 1.64)"/><g class="cls-37"><rect class="cls-38" x="151.3" y="15.81" width="26.06" height="26.08"/></g><g class="cls-39"><path class="cls-40" d="M147.32,15c-5.7,1.4-6.83,2.53-8.22,8.23-1.4-5.7-2.53-6.84-8.22-8.23,5.7-1.4,6.83-2.53,8.22-8.23,1.4,5.7,2.53,6.84,8.22,8.23" transform="translate(0 1.64)"/><g class="cls-41"><rect class="cls-42" x="122.49" width="33.22" height="33.24"/></g></g><path class="cls-43" d="M31.58,95.24c-2.38.58-2.85,1.06-3.43,3.44-0.58-2.38-1.06-2.86-3.43-3.44,2.38-.58,2.85-1.06,3.43-3.44,0.58,2.38,1.06,2.86,3.43,3.44" transform="translate(0 1.64)"/><g class="cls-44"><rect class="cls-45" x="21.21" y="89.93" width="13.87" height="13.88"/></g><path class="cls-36" d="M24.78,115.21c-4.47,1.1-5.36,2-6.45,6.46-1.1-4.48-2-5.37-6.45-6.46,4.47-1.1,5.36-2,6.45-6.46,1.1,4.48,2,5.37,6.45,6.46" transform="translate(0 1.64)"/><g class="cls-46"><rect class="cls-38" x="5.3" y="103.81" width="26.06" height="26.08"/></g><g class="cls-39"><path class="cls-40" d="M51.32,127c-5.7,1.4-6.83,2.53-8.22,8.23-1.4-5.7-2.53-6.84-8.22-8.23,5.7-1.4,6.83-2.53,8.22-8.23,1.4,5.7,2.53,6.84,8.22,8.23" transform="translate(0 1.64)"/><g class="cls-47"><rect class="cls-42" x="26.49" y="112" width="33.22" height="33.24"/></g></g><line class="cls-48" x1="110.58" y1="28.84" x2="110.58" y2="40.54"/><line class="cls-48" x1="116.42" y1="34.69" x2="104.73" y2="34.69"/></svg>