<svg id="Layer_1" data-name="Layer 1" xmlns="http://www.w3.org/2000/svg" viewBox="0 0 86.5 71.53"><defs><style>.cls-1{fill:#d6e8f7;}.cls-1,.cls-2{stroke:#33485c;stroke-linecap:round;stroke-linejoin:round;stroke-width:4px;}.cls-2{fill:#e7f0f7;}</style></defs><title>empty_folder</title><path class="cls-1" d="M79.5,69.53H78.45a5,5,0,0,1-5-5V26.05a5,5,0,0,0-5-5H34.5L28,11.53H13.05V7a5,5,0,0,1,5-5h21l6.5,9.53H79.5a5,5,0,0,1,5,5v48a5,5,0,0,1-5,5"/><path class="cls-2" d="M79.5,69.53H78.45a5,5,0,0,1-5-5V26.05a5,5,0,0,0-5-5H34.5L28,11.53H7a5,5,0,0,0-5,5v48a5,5,0,0,0,5,5H79.5"/></svg>