<svg width="161" height="173" viewBox="0 0 161 173" xmlns="http://www.w3.org/2000/svg" xmlns:xlink="http://www.w3.org/1999/xlink">
    <defs>
        <path id="a" d="M160.349 92V.966H0V92h160.349z"/>
    </defs>
    <g fill="none" fill-rule="evenodd">
        <g transform="translate(0 80.5)">
            <mask id="b" fill="#fff">
                <use xlink:href="#a"/>
            </mask>
            <path d="M99.582 2.568c3.698-2.135 9.75-2.135 13.447 0l44.56 25.727c3.697 2.134 3.678 5.595-.043 7.689L60.81 90.429c-3.722 2.095-9.81 2.095-13.532 0L2.803 66.158c-3.72-2.095-3.74-5.555-.042-7.69l96.821-55.9z" fill-opacity=".5" fill="#FBE1B2" mask="url(#b)"/>
        </g>
        <path d="M20.208 72.534l14.718 8.497M37.18 66.778l-16.605 9.588" stroke="#EAF0F6" stroke-linecap="round" stroke-linejoin="round"/>
        <path d="M109.026 5.275L104.565 2.7c-.54-.312-1.283-.27-2.101.203L24.786 47.75c-1.636.944-2.974 3.262-2.974 5.15v87.428c0 .944.334 1.61.873 1.92l4.462 2.577 3.675-6.265 71.642-41.363c1.636-.944 2.974-3.262 2.974-5.152V11.39l3.588-6.115z" stroke="#33475C" stroke-width="5" stroke-linecap="round" stroke-linejoin="round"/>
        <path d="M29.247 50.326l77.678-44.848c.818-.472 1.561-.514 2.1-.204.54.312.874.977.874 1.921v87.427c0 1.89-1.339 4.207-2.974 5.151l-77.678 44.848c-1.636.944-2.975.172-2.975-1.717V55.477c0-1.888 1.34-4.207 2.975-5.15z" stroke="#33475C" stroke-width="5" stroke-linecap="round" stroke-linejoin="round"/>
        <path stroke="#33475C" stroke-width="5" stroke-linecap="round" stroke-linejoin="round" d="M109.9 17.98L26.273 66.262v15.92L109.9 33.9zM109.9 94.622c0 1.89-1.34 4.207-2.975 5.151l-77.677 44.848c-.82.473-1.562.516-2.101.204-.54-.31-.874-.976-.874-1.92v-4.222L109.9 90.4v4.222z"/>
        <path d="M109.026 5.275L104.565 2.7c-.54-.312-1.283-.27-2.101.203L24.786 47.75c-1.636.944-2.974 3.262-2.974 5.15v87.428c0 .944.334 1.61.873 1.92l4.46 2.576c.54.31 1.284.269 2.103-.203l77.677-44.848c1.636-.944 2.975-3.263 2.975-5.151V7.196c0-.944-.335-1.61-.874-1.921z" stroke="#33475C" stroke-width="5" stroke-linecap="round" stroke-linejoin="round"/>
        <path d="M26.273 55.478c0-1.89 1.339-4.207 2.975-5.151l77.677-44.848c.818-.472 1.562-.515 2.1-.204.54.31.875.976.875 1.92V17.98L26.273 66.26V55.479z" stroke="#33475C" stroke-width="5" stroke-linecap="round" stroke-linejoin="round"/>
        <path d="M33.02 57.98c-1.297.749-2.358.137-2.358-1.361s1.06-3.336 2.358-4.085c1.298-.75 2.358-.136 2.358 1.36 0 1.499-1.06 3.337-2.358 4.086M40.523 53.649c-1.297.748-2.358.136-2.358-1.362 0-1.497 1.06-3.336 2.358-4.084 1.297-.75 2.358-.137 2.358 1.36 0 1.498-1.061 3.337-2.358 4.086M48.703 43.545l17.713-10.227 20.016-11.555 17.712-10.227c1.266-.73 2.301-.134 2.301 1.328 0 1.462-1.034 3.255-2.3 3.986L86.431 27.077 66.416 38.633 48.704 48.86c-1.267.731-2.302.133-2.303-1.328.001-1.463 1.036-3.256 2.302-3.986zM101.968 36.224l-3.717-2.146c-1.078-.624-2.565-.538-4.2.407L39.608 65.917c-3.273 1.889-5.95 6.526-5.95 10.303v39.396c0 1.888.67 3.219 1.748 3.84l3.718 2.148 2.912-3.957 52.013-30.03c3.272-1.888 5.948-6.525 5.948-10.302V38.9l1.97-2.677z" stroke="#33475C" stroke-width="5" stroke-linecap="round" stroke-linejoin="round"/>
        <path d="M97.768 89.764l-54.441 31.432c-1.637.944-3.123 1.03-4.202.408-1.078-.622-1.748-1.953-1.748-3.842V78.367c0-3.78 2.677-8.415 5.95-10.303l54.44-31.433c1.637-.944 3.123-1.03 4.2-.407 1.08.622 1.749 1.953 1.749 3.842V79.46c0 3.778-2.677 8.414-5.948 10.303z" stroke="#33475C" stroke-width="5" stroke-linecap="round" stroke-linejoin="round"/>
        <path d="M37.377 78.366c0-3.778 2.677-8.414 5.95-10.303l54.441-31.432c1.635-.945 3.122-1.03 4.2-.408l-3.717-2.146c-1.078-.623-2.565-.537-4.2.407L39.607 65.917c-3.272 1.888-5.949 6.525-5.949 10.303v39.395c0 1.89.67 3.22 1.748 3.842l3.718 2.146c-1.078-.622-1.748-1.953-1.748-3.84V78.365z" stroke="#33475C" stroke-width="5" stroke-linecap="round" stroke-linejoin="round"/>
        <path d="M101.968 36.224l-3.717-2.146c-1.078-.624-2.565-.538-4.2.407L39.608 65.917c-3.273 1.889-5.95 6.526-5.95 10.303v39.396c0 1.888.67 3.218 1.747 3.84h.001l3.718 2.148c1.078.622 2.565.536 4.201-.408l54.442-31.432c3.271-1.89 5.948-6.525 5.948-10.303V40.066c0-1.89-.669-3.22-1.748-3.842z" stroke="#33475C" stroke-width="5" stroke-linecap="round" stroke-linejoin="round"/>
        <path d="M80.925 69.013c-.1-.058-.213-.093-.338-.104l-16.962-1.515c-.505-.045-1.127.314-1.632.942-.505.628-.816 1.43-.816 2.104v22.615c0 .507.176.883.478 1.057l3.718 2.146 19.27-25.1-3.718-2.145z" stroke="#33475C" stroke-width="5" stroke-linecap="round" stroke-linejoin="round"/>
        <path d="M67.343 95.42l16.962-21.1c.505-.629.816-1.43.816-2.104 0-.506-.176-.882-.478-1.057-.1-.057-.213-.093-.338-.104L67.343 69.54c-.505-.045-1.127.315-1.632.943-.505.627-.816 1.43-.816 2.103v22.615c0 .507.176.883.478 1.057.1.058.213.094.338.104.505.045 1.127-.314 1.632-.942z" stroke="#33475C" stroke-width="5" stroke-linecap="round" stroke-linejoin="round"/>
        <path d="M84.643 71.16l-3.718-2.147c-.1-.058-.213-.093-.338-.105l-16.962-1.515c-.504-.045-1.127.315-1.631.943-.505.628-.817 1.43-.817 2.103v22.616c0 .506.176.882.479 1.056l3.717 2.147c.1.057.213.093.338.104.505.045 1.127-.314 1.632-.942l16.962-21.1c.505-.629.817-1.43.817-2.104 0-.506-.177-.882-.48-1.057zM134.946 111.228L80.504 142.66c-1.636.944-3.122 1.03-4.201.407h-.001c-1.078-.622-1.747-1.953-1.747-3.842V99.83c0-3.778 2.677-8.415 5.949-10.303l54.442-31.432c1.636-.944 3.122-1.03 4.2-.408 1.079.623 1.748 1.953 1.748 3.842v39.395c0 3.779-2.677 8.414-5.948 10.303z" stroke="#33475C" stroke-width="5" stroke-linecap="round" stroke-linejoin="round"/>
        <path d="M134.946 111.228L80.504 142.66c-1.636.944-3.122 1.03-4.201.408h-.001c-1.078-.623-1.747-1.953-1.747-3.842V99.83c0-3.778 2.677-8.415 5.949-10.303l54.442-31.432c1.636-.944 3.122-1.03 4.2-.408 1.079.623 1.748 1.953 1.748 3.842v39.395c0 3.778-2.677 8.414-5.948 10.303z" stroke="#33475C" stroke-width="5" stroke-linecap="round" stroke-linejoin="round"/>
        <path d="M134.946 111.228L80.504 142.66c-1.636.944-3.122 1.03-4.201.408h-.001c-1.078-.623-1.747-1.953-1.747-3.842V99.83c0-3.778 2.677-8.415 5.949-10.303l54.442-31.432c1.636-.944 3.122-1.03 4.2-.408 1.079.623 1.748 1.953 1.748 3.842v39.395c0 3.778-2.677 8.414-5.948 10.303z" stroke="#33475C" stroke-width="5" stroke-linecap="round" stroke-linejoin="round"/>
        <path stroke="#33475C" stroke-width="5" stroke-linecap="round" stroke-linejoin="round" d="M81.19 118.881l13.897 11.82 3.118-15.543 5.25 8.16 6.59-31.692 3.966 11.108 6.65-28.718 11.088 31.371"/>
        <path d="M121.468 74.146c0 .508-.355 1.125-.795 1.378-.439.254-.796.049-.796-.46 0-.506.357-1.123.796-1.377.44-.254.795-.048.795.459zM132.606 104.907c0 .507-.356 1.124-.795 1.378-.44.253-.796.048-.796-.46 0-.507.357-1.124.796-1.378.439-.253.795-.048.795.46zM114.574 101.725c0 .508-.356 1.124-.796 1.378-.438.254-.795.048-.795-.46 0-.507.357-1.124.795-1.377.44-.254.796-.048.796.459zM110.862 91.648c0 .508-.356 1.125-.796 1.378-.44.254-.796.049-.796-.46 0-.506.357-1.123.796-1.377.44-.254.796-.048.796.459zM104.496 122.41c0 .506-.355 1.123-.795 1.377-.439.253-.796.048-.796-.46 0-.507.357-1.124.796-1.378.44-.254.795-.048.795.46zM99.194 114.984c0 .508-.356 1.125-.796 1.378-.44.254-.796.048-.796-.46 0-.507.357-1.123.796-1.377.44-.254.796-.048.796.459zM96.011 129.834c0 .507-.356 1.124-.796 1.378-.439.254-.795.048-.795-.46 0-.507.356-1.124.795-1.378.44-.253.796-.048.796.46zM82.222 118.697c0 .507-.356 1.123-.796 1.377-.439.255-.796.049-.796-.459 0-.507.357-1.124.796-1.377.44-.254.796-.05.796.459z" stroke="#33475C" stroke-width="5" stroke-linecap="round" stroke-linejoin="round"/>
        <path d="M84.35 132.875c.688-4.426 1.886-9.029 3.542-13.619 1.218-3.376 2.73-6.827 4.853-9.818 2.122-2.99 4.947-5.465 7.417-5.894 3.015-.524 4.784 1.947 6.533 4.025 1.748 2.078 4.187 3.874 7.382 2.042 2.967-1.7 5.359-5.865 7.025-9.662 5.04-11.489 6.76-23.026 8.158-34.074" stroke="#33475C" stroke-width="5" stroke-linecap="round" stroke-linejoin="round"/>
        <path d="M130.688 65.051c0 .91-.64 2.017-1.428 2.472-.788.455-1.427.087-1.427-.825 0-.91.639-2.016 1.427-2.471.788-.455 1.428-.086 1.428.824zM126.094 88.917c0 .91-.639 2.017-1.427 2.472-.789.455-1.427.087-1.427-.825 0-.91.638-2.016 1.427-2.47.788-.456 1.427-.088 1.427.823zM115.53 108.805c0 .91-.64 2.018-1.427 2.473-.788.455-1.427.086-1.427-.825 0-.91.639-2.016 1.427-2.472.788-.455 1.428-.086 1.428.824zM98.996 104.032c0 .91-.64 2.017-1.428 2.472-.788.455-1.427.087-1.427-.825 0-.91.638-2.016 1.426-2.47.79-.456 1.429-.087 1.429.823zM85.778 132.051c0 .911-.64 2.018-1.427 2.473-.788.455-1.427.086-1.427-.825 0-.91.639-2.016 1.427-2.471.788-.455 1.427-.087 1.427.823zM99.82 86.44l-8.87-8.047c-.202-.184-.497-.23-.746-.12-.251.11-.413.36-.413.634l-.003 11.976c0 .235.118.454.315.58.196.13.445.15.659.054l2.724-1.205 1.523 3.442c.076.168.214.3.386.367.079.03.165.047.249.047.096 0 .192-.021.28-.06l2.159-.956c.168-.074.3-.213.366-.384.066-.172.06-.362-.014-.531l-1.523-3.442 2.722-1.207c.215-.094.368-.292.405-.523.037-.232-.045-.467-.22-.624" stroke="#33475C" stroke-width="5" stroke-linecap="round" stroke-linejoin="round"/>
        <path d="M109.026 5.275L104.565 2.7c-.54-.312-1.283-.27-2.101.203L24.786 47.75c-1.636.944-2.974 3.262-2.974 5.15v87.428c0 .944.334 1.61.873 1.92l4.462 2.577 3.675-6.265 71.642-41.363c1.636-.944 2.974-3.262 2.974-5.152V11.39l3.588-6.115z" fill="#CBD6E3"/>
        <path d="M109.026 5.275L104.565 2.7c-.54-.312-1.283-.27-2.101.203L24.786 47.75c-1.636.944-2.974 3.262-2.974 5.15v87.428c0 .944.334 1.61.873 1.92l4.462 2.577 3.675-6.265 71.642-41.363c1.636-.944 2.974-3.262 2.974-5.152V11.39l3.588-6.115z" stroke="#33475C" stroke-linecap="round" stroke-linejoin="round"/>
        <path d="M29.247 50.326l77.678-44.848c.818-.472 1.561-.514 2.1-.204.54.312.874.977.874 1.921v87.427c0 1.89-1.339 4.207-2.974 5.151l-77.678 44.848c-1.636.944-2.975.172-2.975-1.717V55.477c0-1.888 1.34-4.207 2.975-5.15" fill="#FFF"/>
        <path d="M29.247 50.326l77.678-44.848c.818-.472 1.561-.514 2.1-.204.54.312.874.977.874 1.921v87.427c0 1.89-1.339 4.207-2.974 5.151l-77.678 44.848c-1.636.944-2.975.172-2.975-1.717V55.477c0-1.888 1.34-4.207 2.975-5.15z" stroke="#33475C" stroke-linecap="round" stroke-linejoin="round"/>
        <path fill="#CBD6E3" d="M109.9 17.98L26.273 66.262v15.92L109.9 33.9z"/>
        <path stroke="#33475C" d="M109.9 17.98L26.273 66.262v15.92L109.9 33.9z"/>
        <path d="M109.9 94.622c0 1.89-1.34 4.207-2.975 5.151l-77.677 44.848c-.82.473-1.562.516-2.101.204-.54-.31-.874-.976-.874-1.92v-4.222L109.9 90.4v4.222z" fill="#E4EAEF"/>
        <path d="M109.9 94.622c0 1.89-1.34 4.207-2.975 5.151l-77.677 44.848c-.82.473-1.562.516-2.101.204-.54-.31-.874-.976-.874-1.92v-4.222L109.9 90.4v4.222z" stroke="#33475C"/>
        <path d="M109.026 5.275L104.565 2.7c-.54-.312-1.283-.27-2.101.203L24.786 47.75c-1.636.944-2.974 3.262-2.974 5.15v87.428c0 .944.334 1.61.873 1.92l4.46 2.576c.54.31 1.284.269 2.103-.203l77.677-44.848c1.636-.944 2.975-3.263 2.975-5.151V7.196c0-.944-.335-1.61-.874-1.921z" stroke="#33475C" stroke-linecap="round" stroke-linejoin="round"/>
        <path d="M26.273 55.478c0-1.89 1.339-4.207 2.975-5.151l77.677-44.848c.818-.472 1.562-.515 2.1-.204.54.31.875.976.875 1.92V17.98L26.273 66.26V55.479z" fill="#E4EAEF"/>
        <path d="M26.273 55.478c0-1.89 1.339-4.207 2.975-5.151l77.677-44.848c.818-.472 1.562-.515 2.1-.204.54.31.875.976.875 1.92V17.98L26.273 66.26V55.479z" stroke="#33475C"/>
        <path d="M33.02 57.98c-1.297.749-2.358.137-2.358-1.361s1.06-3.336 2.358-4.085c1.298-.75 2.358-.136 2.358 1.36 0 1.499-1.06 3.337-2.358 4.086" fill="#40CEBB"/>
        <path d="M33.02 57.98c-1.297.749-2.358.137-2.358-1.361s1.06-3.336 2.358-4.085c1.298-.75 2.358-.136 2.358 1.36 0 1.499-1.06 3.337-2.358 4.086" stroke="#33475C"/>
        <path d="M40.523 53.649c-1.297.748-2.358.136-2.358-1.362 0-1.497 1.06-3.336 2.358-4.084 1.297-.75 2.358-.137 2.358 1.36 0 1.498-1.061 3.337-2.358 4.086" fill="#FFAB7D"/>
        <path d="M40.523 53.649c-1.297.748-2.358.136-2.358-1.362 0-1.497 1.06-3.336 2.358-4.084 1.297-.75 2.358-.137 2.358 1.36 0 1.498-1.061 3.337-2.358 4.086" stroke="#33475C"/>
        <path d="M48.703 43.545l17.713-10.227 20.016-11.555 17.712-10.227c1.266-.73 2.301-.134 2.301 1.328 0 1.462-1.034 3.255-2.3 3.986L86.431 27.077 66.416 38.633 48.704 48.86c-1.267.731-2.302.133-2.303-1.328.001-1.463 1.036-3.256 2.302-3.986" fill="#FFF"/>
        <path d="M48.703 43.545l17.713-10.227 20.016-11.555 17.712-10.227c1.266-.73 2.301-.134 2.301 1.328 0 1.462-1.034 3.255-2.3 3.986L86.431 27.077 66.416 38.633 48.704 48.86c-1.267.731-2.302.133-2.303-1.328.001-1.463 1.036-3.256 2.302-3.986z" stroke="#33475C"/>
        <path d="M101.968 36.224l-3.717-2.146c-1.078-.624-2.565-.538-4.2.407L39.608 65.917c-3.273 1.889-5.95 6.526-5.95 10.303v39.396c0 1.888.67 3.219 1.748 3.84l3.718 2.148 2.912-3.957 52.013-30.03c3.272-1.888 5.948-6.525 5.948-10.302V38.9l1.97-2.677z" fill="#7CD1DF"/>
        <path d="M101.968 36.224l-3.717-2.146c-1.078-.624-2.565-.538-4.2.407L39.608 65.917c-3.273 1.889-5.95 6.526-5.95 10.303v39.396c0 1.888.67 3.219 1.748 3.84l3.718 2.148 2.912-3.957 52.013-30.03c3.272-1.888 5.948-6.525 5.948-10.302V38.9l1.97-2.677z" stroke="#33475C" stroke-linecap="round" stroke-linejoin="round"/>
        <path d="M97.768 89.764l-54.441 31.432c-1.637.944-3.123 1.03-4.202.408-1.078-.622-1.748-1.953-1.748-3.842V78.367c0-3.78 2.677-8.415 5.95-10.303l54.44-31.433c1.637-.944 3.123-1.03 4.2-.407 1.08.622 1.749 1.953 1.749 3.842V79.46c0 3.778-2.677 8.414-5.948 10.303" fill="#7CD1DF"/>
        <path d="M37.377 78.366c0-3.778 2.677-8.414 5.95-10.303l54.441-31.432c1.635-.945 3.122-1.03 4.2-.408l-3.717-2.146c-1.078-.623-2.565-.537-4.2.407L39.607 65.917c-3.272 1.888-5.949 6.525-5.949 10.303v39.395c0 1.89.67 3.22 1.748 3.842l3.718 2.146c-1.078-.622-1.748-1.953-1.748-3.84V78.365z" fill="#40BBCE"/>
        <path d="M101.968 36.224l-3.717-2.146c-1.078-.624-2.565-.538-4.2.407L39.608 65.917c-3.273 1.889-5.95 6.526-5.95 10.303v39.396c0 1.888.67 3.218 1.747 3.84h.001l3.718 2.148c1.078.622 2.565.536 4.201-.408l54.442-31.432c3.271-1.89 5.948-6.525 5.948-10.303V40.066c0-1.89-.669-3.22-1.748-3.842z" stroke="#33475C" stroke-linecap="round" stroke-linejoin="round"/>
        <path d="M80.925 69.013c-.1-.058-.213-.093-.338-.104l-16.962-1.515c-.505-.045-1.127.314-1.632.942-.505.628-.816 1.43-.816 2.104v22.615c0 .507.176.883.478 1.057l3.718 2.146 19.27-25.1-3.718-2.145z" fill="#E5F5F8"/>
        <path d="M67.343 95.42l16.962-21.1c.505-.629.816-1.43.816-2.104 0-.506-.176-.882-.478-1.057-.1-.057-.213-.093-.338-.104L67.343 69.54c-.505-.045-1.127.315-1.632.943-.505.627-.816 1.43-.816 2.103v22.615c0 .507.176.883.478 1.057.1.058.213.094.338.104.505.045 1.127-.314 1.632-.942" fill="#FFF"/>
        <path d="M84.643 71.16l-3.718-2.147c-.1-.058-.213-.093-.338-.105l-16.962-1.515c-.504-.045-1.127.315-1.631.943-.505.628-.817 1.43-.817 2.103v22.616c0 .506.176.882.479 1.056l3.717 2.147c.1.057.213.093.338.104.505.045 1.127-.314 1.632-.942l16.962-21.1c.505-.629.817-1.43.817-2.104 0-.506-.177-.882-.48-1.057z" stroke="#40BBCE"/>
        <path d="M134.946 111.228L80.504 142.66c-1.636.944-3.122 1.03-4.201.407h-.001c-1.078-.622-1.747-1.953-1.747-3.842V99.83c0-3.778 2.677-8.415 5.949-10.303l54.442-31.432c1.636-.944 3.122-1.03 4.2-.408 1.079.623 1.748 1.953 1.748 3.842v39.395c0 3.779-2.677 8.414-5.948 10.303z" stroke="#33475C" stroke-linecap="round" stroke-linejoin="round"/>
        <path d="M134.946 111.228L80.504 142.66c-1.636.944-3.122 1.03-4.201.408h-.001c-1.078-.623-1.747-1.953-1.747-3.842V99.83c0-3.778 2.677-8.415 5.949-10.303l54.442-31.432c1.636-.944 3.122-1.03 4.2-.408 1.079.623 1.748 1.953 1.748 3.842v39.395c0 3.778-2.677 8.414-5.948 10.303" fill="#FFF"/>
        <path d="M134.946 111.228L80.504 142.66c-1.636.944-3.122 1.03-4.201.408h-.001c-1.078-.623-1.747-1.953-1.747-3.842V99.83c0-3.778 2.677-8.415 5.949-10.303l54.442-31.432c1.636-.944 3.122-1.03 4.2-.408 1.079.623 1.748 1.953 1.748 3.842v39.395c0 3.778-2.677 8.414-5.948 10.303z" stroke="#33475C" stroke-linecap="round" stroke-linejoin="round"/>
        <path stroke="#51D3D9" stroke-linecap="round" stroke-linejoin="round" d="M81.19 118.881l13.897 11.82 3.118-15.543 5.25 8.16 6.59-31.692 3.966 11.108 6.65-28.718 11.088 31.371"/>
        <path d="M121.468 74.146c0 .508-.355 1.125-.795 1.378-.439.254-.796.049-.796-.46 0-.506.357-1.123.796-1.377.44-.254.795-.048.795.459" fill="#51D3D9"/>
        <path d="M121.468 74.146c0 .508-.355 1.125-.795 1.378-.439.254-.796.049-.796-.46 0-.506.357-1.123.796-1.377.44-.254.795-.048.795.459z" stroke="#51D3D9" stroke-linecap="round" stroke-linejoin="round"/>
        <path d="M132.606 104.907c0 .507-.356 1.124-.795 1.378-.44.253-.796.048-.796-.46 0-.507.357-1.124.796-1.378.439-.253.795-.048.795.46" fill="#51D3D9"/>
        <path d="M132.606 104.907c0 .507-.356 1.124-.795 1.378-.44.253-.796.048-.796-.46 0-.507.357-1.124.796-1.378.439-.253.795-.048.795.46z" stroke="#51D3D9" stroke-linecap="round" stroke-linejoin="round"/>
        <path d="M114.574 101.725c0 .508-.356 1.124-.796 1.378-.438.254-.795.048-.795-.46 0-.507.357-1.124.795-1.377.44-.254.796-.048.796.459" fill="#51D3D9"/>
        <path d="M114.574 101.725c0 .508-.356 1.124-.796 1.378-.438.254-.795.048-.795-.46 0-.507.357-1.124.795-1.377.44-.254.796-.048.796.459z" stroke="#51D3D9" stroke-linecap="round" stroke-linejoin="round"/>
        <path d="M110.862 91.648c0 .508-.356 1.125-.796 1.378-.44.254-.796.049-.796-.46 0-.506.357-1.123.796-1.377.44-.254.796-.048.796.459" fill="#51D3D9"/>
        <path d="M110.862 91.648c0 .508-.356 1.125-.796 1.378-.44.254-.796.049-.796-.46 0-.506.357-1.123.796-1.377.44-.254.796-.048.796.459z" stroke="#51D3D9" stroke-linecap="round" stroke-linejoin="round"/>
        <path d="M104.496 122.41c0 .506-.355 1.123-.795 1.377-.439.253-.796.048-.796-.46 0-.507.357-1.124.796-1.378.44-.254.795-.048.795.46" fill="#51D3D9"/>
        <path d="M104.496 122.41c0 .506-.355 1.123-.795 1.377-.439.253-.796.048-.796-.46 0-.507.357-1.124.796-1.378.44-.254.795-.048.795.46z" stroke="#51D3D9" stroke-linecap="round" stroke-linejoin="round"/>
        <path d="M99.194 114.984c0 .508-.356 1.125-.796 1.378-.44.254-.796.048-.796-.46 0-.507.357-1.123.796-1.377.44-.254.796-.048.796.459" fill="#51D3D9"/>
        <path d="M99.194 114.984c0 .508-.356 1.125-.796 1.378-.44.254-.796.048-.796-.46 0-.507.357-1.123.796-1.377.44-.254.796-.048.796.459z" stroke="#51D3D9" stroke-linecap="round" stroke-linejoin="round"/>
        <path d="M96.011 129.834c0 .507-.356 1.124-.796 1.378-.439.254-.795.048-.795-.46 0-.507.356-1.124.795-1.378.44-.253.796-.048.796.46" fill="#51D3D9"/>
        <path d="M96.011 129.834c0 .507-.356 1.124-.796 1.378-.439.254-.795.048-.795-.46 0-.507.356-1.124.795-1.378.44-.253.796-.048.796.46z" stroke="#51D3D9" stroke-linecap="round" stroke-linejoin="round"/>
        <path d="M82.222 118.697c0 .507-.356 1.123-.796 1.377-.439.255-.796.049-.796-.459 0-.507.357-1.124.796-1.377.44-.254.796-.05.796.459" fill="#51D3D9"/>
        <path d="M82.222 118.697c0 .507-.356 1.123-.796 1.377-.439.255-.796.049-.796-.459 0-.507.357-1.124.796-1.377.44-.254.796-.05.796.459z" stroke="#51D3D9" stroke-linecap="round" stroke-linejoin="round"/>
        <path d="M84.35 132.875c.688-4.426 1.886-9.029 3.542-13.619 1.218-3.376 2.73-6.827 4.853-9.818 2.122-2.99 4.947-5.465 7.417-5.894 3.015-.524 4.784 1.947 6.533 4.025 1.748 2.078 4.187 3.874 7.382 2.042 2.967-1.7 5.359-5.865 7.025-9.662 5.04-11.489 6.76-23.026 8.158-34.074" stroke="#F5C78E" stroke-width="2.5" stroke-linecap="round" stroke-linejoin="round"/>
        <path d="M130.688 65.051c0 .91-.64 2.017-1.428 2.472-.788.455-1.427.087-1.427-.825 0-.91.639-2.016 1.427-2.471.788-.455 1.428-.086 1.428.824" fill="#FFF"/>
        <path d="M130.688 65.051c0 .91-.64 2.017-1.428 2.472-.788.455-1.427.087-1.427-.825 0-.91.639-2.016 1.427-2.471.788-.455 1.428-.086 1.428.824z" stroke="#F5C78E" stroke-linecap="round" stroke-linejoin="round"/>
        <path d="M126.094 88.917c0 .91-.639 2.017-1.427 2.472-.789.455-1.427.087-1.427-.825 0-.91.638-2.016 1.427-2.47.788-.456 1.427-.088 1.427.823" fill="#FFF"/>
        <path d="M126.094 88.917c0 .91-.639 2.017-1.427 2.472-.789.455-1.427.087-1.427-.825 0-.91.638-2.016 1.427-2.47.788-.456 1.427-.088 1.427.823z" stroke="#F5C78E" stroke-linecap="round" stroke-linejoin="round"/>
        <path d="M115.53 108.805c0 .91-.64 2.018-1.427 2.473-.788.455-1.427.086-1.427-.825 0-.91.639-2.016 1.427-2.472.788-.455 1.428-.086 1.428.824" fill="#FFF"/>
        <path d="M115.53 108.805c0 .91-.64 2.018-1.427 2.473-.788.455-1.427.086-1.427-.825 0-.91.639-2.016 1.427-2.472.788-.455 1.428-.086 1.428.824z" stroke="#F5C78E" stroke-linecap="round" stroke-linejoin="round"/>
        <path d="M98.996 104.032c0 .91-.64 2.017-1.428 2.472-.788.455-1.427.087-1.427-.825 0-.91.638-2.016 1.426-2.47.79-.456 1.429-.087 1.429.823" fill="#FFF"/>
        <path d="M98.996 104.032c0 .91-.64 2.017-1.428 2.472-.788.455-1.427.087-1.427-.825 0-.91.638-2.016 1.426-2.47.79-.456 1.429-.087 1.429.823z" stroke="#F5C78E" stroke-linecap="round" stroke-linejoin="round"/>
        <path d="M85.778 132.051c0 .911-.64 2.018-1.427 2.473-.788.455-1.427.086-1.427-.825 0-.91.639-2.016 1.427-2.471.788-.455 1.427-.087 1.427.823" fill="#FFF"/>
        <path d="M85.778 132.051c0 .911-.64 2.018-1.427 2.473-.788.455-1.427.086-1.427-.825 0-.91.639-2.016 1.427-2.471.788-.455 1.427-.087 1.427.823z" stroke="#F5C78E" stroke-linecap="round" stroke-linejoin="round"/>
        <path d="M99.82 86.44l-8.87-8.047c-.202-.184-.497-.23-.746-.12-.251.11-.413.36-.413.634l-.003 11.976c0 .235.118.454.315.58.196.13.445.15.659.054l2.724-1.205 1.523 3.442c.076.168.214.3.386.367.079.03.165.047.249.047.096 0 .192-.021.28-.06l2.159-.956c.168-.074.3-.213.366-.384.066-.172.06-.362-.014-.531l-1.523-3.442 2.722-1.207c.215-.094.368-.292.405-.523.037-.232-.045-.467-.22-.624" fill="#FFF"/>
        <path d="M99.82 86.44l-8.87-8.047c-.202-.184-.497-.23-.746-.12-.251.11-.413.36-.413.634l-.003 11.976c0 .235.118.454.315.58.196.13.445.15.659.054l2.724-1.205 1.523 3.442c.076.168.214.3.386.367.079.03.165.047.249.047.096 0 .192-.021.28-.06l2.159-.956c.168-.074.3-.213.366-.384.066-.172.06-.362-.014-.531l-1.523-3.442 2.722-1.207c.215-.094.368-.292.405-.523.037-.232-.045-.467-.22-.624" stroke="#33475C" stroke-linecap="round" stroke-linejoin="round"/>
        <path d="M101.968 36.224l37.18 21.464M35.407 119.457l40.896 23.61" stroke="#34475B" stroke-linecap="round" stroke-linejoin="round" stroke-dasharray="2,2,0,0"/>
    </g>
</svg>
