<?xml version="1.0" standalone="no"?>
<!DOCTYPE svg PUBLIC "-//W3C//DTD SVG 1.0//EN" "http://www.w3.org/TR/2001/REC-SVG-20010904/DTD/svg10.dtd">
<svg xmlns="http://www.w3.org/2000/svg" xmlns:xlink="http://www.w3.org/1999/xlink" id="body_1" width="1115" height="600">

<g transform="matrix(5 0 0 5 0 0)">
	<g transform="matrix(1 0 0 1 -2930 144)">
		<g transform="matrix(1 0 0 1 2930.01 -143.995)">
            <path transform="matrix(1 0 0 1 -237.731 -99.944)"  d="M387 169.479L387 165.37201L396.384 165.37201L396.384 160.12901L387 160.12901L387 156.28401L398.058 156.28401L398.058 150.54701L379.9 150.54701L379.9 167.24C 379.74597 166.3067 379.35095 165.42978 378.754 164.696C 377.83533 163.63008 376.6098 162.87395 375.245 162.531C 376.4062 162.06398 377.3833 161.23082 378.02798 160.158C 378.63232 159.16058 378.9532 158.01721 378.956 156.851C 378.95468 156.06343 378.81244 155.28244 378.53598 154.545C 378.26657 153.80678 377.86578 153.12343 377.35297 152.528C 376.83533 151.93222 376.2062 151.44339 375.50098 151.089C 374.74408 150.714 373.90857 150.52512 373.06396 150.53801L373.06396 150.53801L358.08 150.53801L358.08 175.128L370.78 175.128C 371.98465 175.13855 373.18692 175.0192 374.366 174.772C 375.41013 174.5627 376.4128 174.1833 377.33398 173.649C 378.1511 173.16931 378.8379 172.49626 379.33398 171.689C 379.61282 171.22403 379.80966 170.71463 379.916 170.183L379.916 170.183L379.916 175.137L398.06598 175.137L398.06598 169.47699L387 169.479zM365.175 156.3L370.21698 156.3C 370.70758 156.27232 371.18454 156.46703 371.51562 156.8301C 371.84668 157.19318 371.99667 157.68604 371.92398 158.172C 372.00314 158.74956 371.7758 159.32664 371.32397 159.69499C 370.92725 159.94713 370.46603 160.0791 369.99597 160.075L369.99597 160.075L365.17297 160.075zM372.25 168.94101C 371.8391 169.2905 371.31317 169.47508 370.774 169.45901L370.774 169.45901L365.17398 169.45901L365.17398 165.33801L371.029 165.33801C 371.5356 165.32593 372.0189 165.55075 372.336 165.94601C 372.683 166.36961 372.86456 166.90471 372.847 167.45201C 372.88107 168.0133 372.6607 168.56013 372.24698 168.94101z" stroke="none" fill="#0A72B9" fill-rule="nonzero" />
            <path transform="matrix(1 0 0 1 -36.372 -63.432)"  d="M155.981 114.034L155.981 126.618C 155.99174 128.23322 155.75948 129.84088 155.292 131.387C 154.86722 132.80344 154.14015 134.11084 153.16101 135.219C 152.1558 136.33186 150.91266 137.2038 149.52402 137.76999C 147.88776 138.42343 146.13649 138.74007 144.37502 138.70099C 142.57141 138.7442 140.77899 138.40616 139.11502 137.70898C 137.7328 137.11276 136.50243 136.21321 135.51501 135.07698C 134.56566 133.95705 133.86366 132.64915 133.45502 131.23898C 133.01659 129.73767 132.797 128.18098 132.80302 126.61698L132.80302 126.61698L132.80302 119.93498L128.23203 122.97998C 128.04497 122.43818 127.753845 121.93814 127.37502 121.50798C 127.04116 121.13583 126.648224 120.82128 126.21202 120.57698C 125.80386 120.34688 125.36113 120.18444 124.901024 120.09598C 124.47725 120.010605 124.0463 119.96574 123.61402 119.961975C 122.8017 119.93937 121.997955 120.13297 121.28502 120.52297C 120.64644 120.89382 120.09499 121.39753 119.668 122C 119.23458 122.62373 118.91998 123.3221 118.74 124.06C 118.54521 124.80654 118.444435 125.57448 118.439995 126.346C 118.43327 127.16803 118.54646 127.98665 118.77599 128.776C 118.98527 129.51897 119.32673 130.21814 119.784 130.84C 120.22376 131.42908 120.78864 131.91336 121.437996 132.258C 122.1183 132.62305 122.88108 132.80695 123.65299 132.79199C 124.085175 132.78806 124.51568 132.73743 124.93699 132.64099C 125.38063 132.53262 125.80541 132.358 126.19699 132.12299C 127.08464 131.60431 127.75617 130.7837 128.08899 129.81099L128.08899 129.81099L133.92099 133.07098C 133.53468 133.97975 132.96202 134.79735 132.23999 135.47098C 131.48064 136.18407 130.62413 136.78604 129.69598 137.25897C 128.72452 137.7365 127.703354 138.1054 126.650986 138.35898C 125.61792 138.60507 124.55995 138.73123 123.497986 138.73499C 121.7883 138.74458 120.09763 138.37613 118.54698 137.65599C 117.25295 137.03943 116.07235 136.20876 115.054985 135.19899L115.054985 135.19899L116.53098 143.20898C 117.05853 146.04433 115.18817 148.77063 112.35298 149.29898L112.35298 149.29898L68.96799 157.34198C 67.608604 157.59468 66.20453 157.29697 65.06467 156.51437C 63.924805 155.73177 63.14254 154.52838 62.889988 153.16898L62.889988 153.16898L62.889988 153.15398L54.863987 109.76898C 54.338474 106.93471 56.20981 104.210976 59.043987 103.68498L59.043987 103.68498L59.057987 103.68498L74.85799 100.74398L74.88499 100.74398L95.51899 96.92198L102.43999 95.63498C 105.2751 95.11402 107.99624 96.98839 108.51999 99.82298L108.51999 99.82298L111.15799 114.040985L101.85799 114.040985L95.07899 125.540985L88.35699 114.040985L78.971 114.040985L78.971 138.48999L87.552 138.48999L87.552 125.61L92.785 134.66501L97.37601 134.66501L102.60601 125.61001L102.60601 138.483L111.18701 138.483L111.18701 114.249L112.24901 119.99L112.41701 120.883995C 112.950165 119.77417 113.652176 118.753716 114.49801 117.85899C 116.9141 115.34387 120.27108 113.9525 123.75801 114.020996C 125.87978 113.9702 127.97835 114.47158 129.848 115.476C 130.98903 116.10089 131.99342 116.94787 132.802 117.966995L132.802 117.966995L132.802 114.034L139.86 114.034L139.86 126.618C 139.8549 127.39981 139.94183 128.1795 140.119 128.941C 140.26437 129.6373 140.53075 130.30272 140.906 130.907C 141.25839 131.45885 141.73643 131.9194 142.30101 132.25099C 142.93791 132.59964 143.65623 132.77223 144.382 132.75099C 145.1161 132.77275 145.84222 132.59364 146.48201 132.23299C 147.05159 131.90193 147.53528 131.44153 147.89401 130.88899C 148.26715 130.29016 148.53532 129.63205 148.68701 128.943C 148.85847 128.18646 148.94203 127.41268 148.936 126.63699L148.936 126.63699L148.936 114.067L155.981 114.034z" stroke="none" fill="#0A72B9" fill-rule="nonzero" />
            <path transform="matrix(1 0 0 1 0 0)"  d="M55.519 14.023L40.018 16.9C 39.70788 16.95728 39.40314 17.040573 39.107002 17.149C 39.098648 17.153824 39.088356 17.153824 39.08 17.149C 38.382164 17.426048 37.750214 17.84644 37.225002 18.383C 37.01862 18.588448 36.83274 18.813509 36.670002 19.055C 35.874886 20.191656 35.57202 21.601048 35.83 22.964L35.83 22.964L36.001003 23.875L38.508003 37.309L38.481003 37.309L22.681004 40.239998C 19.846704 40.76692 17.976173 43.49168 18.503004 46.325996L18.503004 46.325996L21.103004 60.499996L14.2 61.774C 12.837973 62.026955 11.431245 61.72845 10.289318 60.94416C 9.14739 60.159874 8.363819 58.954052 8.111 57.592L8.111 57.592L8.111 57.586L0.081 14.228C -0.1754551 12.866055 0.11988926 11.458022 0.9020028 10.313923C 1.6841166 9.169825 2.8888695 8.383471 4.251 8.128L4.251 8.128L4.269 8.128L47.654 0.084C 49.015095 -0.16930866 50.421066 0.12846375 51.562607 0.911808C 52.704147 1.695152 53.48774 2.899897 53.740997 4.261L53.740997 4.261L55.519 14.023z" stroke="none" fill="#76B947" fill-rule="nonzero" />
            <path transform="matrix(1 0 0 1 -84.161 -99.958)"  d="M158.976 150.775L158.976 175.00899L150.4 175.00899L150.4 162.132L145.15999 171.18701L140.579 171.18701L135.346 162.13202L135.346 175.00803L126.76 175.00803L126.76 150.56L136.127 150.56L142.869 162.06L149.645 150.56L158.938 150.56L158.976 150.775z" stroke="none" fill="#FFFFFF" fill-rule="nonzero" />
            <path transform="matrix(1 0 0 1 -109.681 -17.318)"  d="M206.122 67.92L206.122 71.855995C 205.3124 70.837845 204.30821 69.99106 203.168 69.365C 201.29741 68.36303 199.19951 67.86181 197.078 67.909996C 193.58505 67.84311 190.22351 69.241035 187.808 71.765C 186.96303 72.66041 186.26112 73.680725 185.727 74.79L185.727 74.79L185.559 73.899L184.494 68.158005L184.46 67.94301L181.82501 53.729008C 181.29926 50.895714 178.5796 49.02238 175.74501 49.541008L175.74501 49.541008L168.824 50.82501L165.2 31.337L193.09999 26.168C 195.93282 25.646744 198.65291 27.51725 199.18 30.348999L199.18 30.348999L206.122 67.92z" stroke="none" fill="#F39222" fill-rule="nonzero" />
            <path transform="matrix(1 0 0 1 -70.613 -27.734)"  d="M129.755 61.221L109.121 65.039L106.614 51.618004L106.443 50.707005C 106.18502 49.34405 106.487885 47.934658 107.283 46.798004C 107.44574 46.556515 107.631615 46.33145 107.838 46.126003C 108.36323 45.589466 108.99518 45.16908 109.693 44.892002C 109.70135 44.896824 109.71165 44.896824 109.72 44.892002C 110.01615 44.783577 110.32089 44.70028 110.631004 44.643L110.631004 44.643L126.131004 41.769L129.755 61.221z" stroke="none" fill="#7D953F" fill-rule="nonzero" />
		</g>
        <path transform="matrix(1 0 0 1 2930 -144)"  d="M0 0L223 0L223 120L0 120z" stroke="none" fill="none" />
	</g>
</g>
</svg>