<?xml version="1.0" standalone="no"?>
<!DOCTYPE svg PUBLIC "-//W3C//DTD SVG 1.0//EN" "http://www.w3.org/TR/2001/REC-SVG-20010904/DTD/svg10.dtd">
<svg xmlns="http://www.w3.org/2000/svg" xmlns:xlink="http://www.w3.org/1999/xlink" id="body_1" width="3415" height="3415">

<g transform="matrix(6.669922 0 0 6.669922 0 0)">
	<g transform="matrix(0.1 0 -0 -0.1 0 512)">
        <path d="M515 5105C 279 5052 105 4894 28 4665L28 4665L5 4595L2 3102L0 1609L49 1634C 120 1671 230 1699 331 1706L331 1706L420 1713L422 2884L425 4055L2563 4058L4700 4060L4700 2885L4700 1710L4759 1710C 4865 1710 4970 1684 5108 1623C 5118 1619 5120 1899 5118 3096C 5115 4467 5113 4579 5097 4635C 5031 4862 4862 5031 4635 5097C 4579 5114 4450 5115 2575 5117C 926 5118 564 5116 515 5105z" stroke="none" fill="#000000" fill-rule="nonzero" />
        <path d="M1177 2976C 1156 2968 1130 2954 1118 2943C 1070 2899 1070 2904 1070 2350C 1070 1774 1069 1783 1133 1738C 1180 1704 1265 1701 1309 1732C 1378 1778 1385 1803 1388 2013L1388 2013L1392 2201L1507 1993C 1570 1879 1631 1774 1643 1762C 1715 1684 1828 1694 1894 1783C 1915 1811 1915 1822 1918 2332C 1920 2843 1920 2853 1900 2896C 1859 2980 1756 3010 1677 2961C 1612 2921 1606 2899 1600 2683L1600 2683L1595 2491L1477 2704C 1413 2821 1347 2928 1332 2942C 1317 2957 1287 2973 1265 2979C 1217 2992 1224 2992 1177 2976z" stroke="none" fill="#000000" fill-rule="nonzero" />
        <path d="M2430 2977C 2278 2943 2169 2830 2141 2675C 2127 2602 2127 2107 2140 2026C 2160 1904 2240 1796 2350 1742C 2402 1716 2412 1715 2555 1715C 2697 1715 2708 1717 2762 1742C 2841 1779 2904 1840 2943 1919L2943 1919L2975 1985L2975 2350C 2975 2704 2974 2716 2953 2762C 2911 2854 2804 2946 2715 2968C 2647 2985 2489 2990 2430 2977zM2652 2653C 2669 2638 2670 2615 2670 2348C 2670 2069 2669 2059 2649 2039C 2630 2020 2621 2019 2557 2025C 2445 2035 2450 2020 2450 2351C 2450 2684 2445 2670 2562 2670C 2614 2670 2638 2666 2652 2653z" stroke="none" fill="#000000" fill-rule="nonzero" />
        <path d="M3284 2961C 3210 2916 3185 2842 3218 2767C 3248 2699 3289 2676 3387 2671L3387 2671L3469 2668L3472 2240C 3475 1825 3476 1811 3496 1784C 3528 1740 3564 1718 3613 1713C 3650 1708 3667 1712 3703 1733C 3781 1779 3780 1771 3780 2248L3780 2248L3780 2668L3864 2671C 3930 2674 3955 2680 3976 2696C 4020 2728 4042 2764 4047 2813C 4052 2850 4048 2867 4027 2903C 3982 2979 3976 2980 3623 2980C 3339 2980 3313 2978 3284 2961z" stroke="none" fill="#000000" fill-rule="nonzero" />
        <path d="M287 1269C 181 1243 86 1164 36 1060L36 1060L5 995L2 563C -1 79 -2 85 68 32C 119 -7 201 -7 252 32C 312 77 320 108 320 279L320 279L320 430L526 430C 754 430 781 436 822 493C 856 540 859 625 828 669C 781 739 760 745 528 748L528 748L320 751L320 839C 320 963 311 958 552 962C 733 965 751 967 777 986C 875 1059 875 1181 777 1254C 750 1274 735 1275 537 1277C 420 1278 308 1274 287 1269z" stroke="none" fill="#000000" fill-rule="nonzero" />
        <path d="M1325 1260C 1213 1223 1118 1126 1085 1017C 1063 943 1063 337 1085 263C 1116 158 1211 59 1315 23C 1353 9 1397 5 1500 5C 1631 5 1637 6 1700 36C 1783 76 1845 138 1884 220L1884 220L1915 285L1915 640L1915 995L1884 1060C 1845 1143 1782 1205 1700 1244C 1640 1272 1626 1275 1510 1277C 1407 1280 1375 1277 1325 1260zM1582 943C 1599 928 1600 905 1600 642C 1600 304 1605 320 1498 320C 1381 320 1390 294 1390 640C 1390 985 1382 959 1494 960C 1545 960 1568 956 1582 943z" stroke="none" fill="#000000" fill-rule="nonzero" />
        <path d="M2224 1262C 2199 1250 2174 1227 2159 1204L2159 1204L2135 1165L2132 775C 2130 548 2133 359 2139 321C 2159 194 2241 86 2357 33C 2463 -16 2674 -9 2782 46C 2849 80 2916 149 2948 218L2948 218L2975 275L2978 714C 2980 1032 2978 1162 2969 1182C 2952 1224 2897 1267 2851 1275C 2801 1283 2728 1251 2696 1207C 2676 1180 2675 1164 2672 767C 2670 404 2667 354 2653 338C 2640 324 2621 320 2559 320C 2490 320 2479 322 2466 342C 2452 361 2450 419 2450 766C 2450 1165 2450 1167 2428 1200C 2377 1274 2300 1297 2224 1262z" stroke="none" fill="#000000" fill-rule="nonzero" />
        <path d="M3313 1269C 3269 1256 3223 1207 3210 1160C 3203 1134 3200 949 3202 618C 3205 121 3205 115 3227 80C 3288 -19 3432 -19 3493 80C 3513 112 3515 132 3520 308L3520 308L3525 501L3640 293C 3703 179 3768 70 3783 53C 3841 -13 3944 -11 4007 56C 4025 75 4042 105 4045 123C 4048 141 4050 385 4048 665L4048 665L4045 1175L4021 1209C 3969 1281 3864 1297 3799 1243C 3744 1196 3740 1179 3740 970C 3740 862 3736 781 3731 784C 3726 787 3678 870 3624 967C 3492 1206 3476 1232 3443 1252C 3406 1274 3352 1281 3313 1269z" stroke="none" fill="#000000" fill-rule="nonzero" />
        <path d="M4360 1258C 4336 1245 4307 1222 4296 1207C 4275 1179 4275 1168 4275 640C 4275 108 4275 101 4296 73C 4342 12 4367 5 4566 2C 4668 0 4772 3 4805 9C 4962 38 5081 155 5110 309C 5123 379 5123 901 5110 971C 5081 1124 4964 1241 4811 1270C 4782 1275 4678 1280 4581 1280C 4417 1280 4401 1278 4360 1258zM4788 948C 4805 931 4805 349 4788 332C 4780 324 4741 320 4678 320L4678 320L4580 320L4580 640L4580 960L4678 960C 4741 960 4780 956 4788 948z" stroke="none" fill="#000000" fill-rule="nonzero" />
	</g>
</g>
</svg>