<svg width="125" height="133" viewBox="0 0 125 133" xmlns="http://www.w3.org/2000/svg">
    <g fill="none" fill-rule="evenodd">
        <path d="M66.167 62.529c-2.152-1.243-5.675-1.243-7.826 0L1.992 95.06c-2.152 1.243-2.141 3.257.024 4.476l56.3 31.686c2.166 1.22 5.71 1.22 7.875 0l56.3-31.686c2.165-1.22 2.177-3.233.024-4.476L66.167 62.53z" fill-opacity=".5" fill="#F9D28C"/>
        <path d="M121.351 78.577s-14.268.227-22.018-5.761c-7.75-5.989-10.216-14.444-18.495-20.432-8.279-5.99-22.126-6.462-22.126-6.462L3.157 77.697s13.39 1.232 21.667 7.22c8.28 5.99 10.745 14.445 18.495 20.434 7.75 5.989 22.018 5.636 22.018 5.636l56.014-32.41z" stroke="#33475C" stroke-width="5" stroke-linecap="round" stroke-linejoin="round"/>
        <path d="M36.952 68.89c.591-1.207-1.149-2.477-2.41-2.015-1.262.462-1.926 1.817-2.416 3.068-.901 2.306-1.632 4.678-2.183 7.091-.155.68-.28 1.452.118 2.026.693 1 2.272.561 3.264-.146 4.726-3.37 6.233-10.128 11.18-13.166-1.012 2.771-2.053 5.531-3.122 8.281 4.416-1.983 5.333-8.28 9.535-10.683l-.458 6.142c1.464-2.219 3.411-4.118 5.665-5.527 4.056-2.533 9.077-3.502 12.604-6.732" stroke="#33475C" stroke-width="5" stroke-linecap="round" stroke-linejoin="round"/>
        <path d="M75.973 71.01c-5.952.314-13.48-3.52-16.727-8.52-.937-1.443-1.414-2.829-1.482-4.082l-.006.004 1.807 24.836L79.7 70.076c-.992.528-2.243.856-3.727.935z" stroke="#33475C" stroke-width="5" stroke-linecap="round" stroke-linejoin="round"/>
        <path d="M106.566 17.81c-.907 1.719-2.932 2.863-5.875 3.017-5.953.312-13.48-3.522-16.727-8.52-1.575-2.425-1.855-4.69-1.058-6.42l-.012-.006-24.717 50.183.012.006c-.797 1.732-.517 3.997 1.058 6.42 3.247 5 10.774 8.834 16.726 8.521 3.067-.162 5.13-1.398 5.978-3.237l.012.006 24.603-49.97z" stroke="#33475C" stroke-width="5" stroke-linecap="round" stroke-linejoin="round"/>
        <path d="M105.61 11.17c3.247 4.998 1.032 9.344-4.92 9.656-5.953.313-13.48-3.521-16.727-8.52-3.246-4.999-1.033-9.345 4.92-9.657 5.953-.313 13.48 3.522 16.727 8.52zM69.45 76.768h-.002c-.49.263-1.108.43-1.846.468-2.925.154-6.625-1.73-8.22-4.187-.376-.579-.59-1.134-.68-1.654l.864 11.853 9.891-6.47-.007-.01z" stroke="#33475C" stroke-width="5" stroke-linecap="round" stroke-linejoin="round"/>
        <path d="M100.69 20.827c-4.346.228-9.522-1.76-13.269-4.79L62.704 66.221c3.747 3.031 8.923 5.019 13.27 4.79 3.066-.162 5.13-1.398 5.977-3.237l.01.006 24.604-49.97c-.906 1.719-2.931 2.863-5.875 3.017z" stroke="#33475C" stroke-width="5" stroke-linecap="round" stroke-linejoin="round"/>
        <path d="M75.973 71.01c3.067-.16 5.131-1.396 5.977-3.235l.012.005 24.605-49.97c-.908 1.718-2.932 2.862-5.877 3.016-1.507.08-3.115-.11-4.73-.514l-5.358 10.263-19.626 39.847c1.704.452 3.406.672 4.997.589z" stroke="#33475C" stroke-width="5" stroke-linecap="round" stroke-linejoin="round"/>
        <path d="M106.566 17.81c-.736 1.394-2.218 2.4-4.32 2.816-.49.096-1 .172-1.555.2-5.953.313-13.48-3.52-16.727-8.52-.273-.419-.493-.83-.688-1.238-.937-1.95-1.03-3.75-.37-5.182l-.012-.005-1.785 3.625-2.168 4.4c.009-.017.025-.031.034-.048-.948 1.757-.715 4.124.937 6.666 3.246 4.998 10.774 8.833 16.726 8.52 3.062-.16 5.129-1.389 5.975-3.224-.022.046-.037.095-.06.14l4.013-8.15z" stroke="#33475C" stroke-width="5" stroke-linecap="round" stroke-linejoin="round"/>
        <path d="M100.729 27.883v-.002.002l-.003.001c-1.043.654-2.41 1.072-4.088 1.16-5.952.313-13.48-3.521-16.726-8.52-.888-1.366-1.354-2.678-1.458-3.876-.09-1.03.083-1.977.521-2.79-.009.017-.024.031-.033.047l.17-.343-.17.343-2.23 4.53c.037-.07.086-.134.13-.203-1.116 1.78-.95 4.25.78 6.915 3.248 4.998 10.775 8.833 16.728 8.52 3.237-.17 5.36-1.537 6.105-3.55-.072.195-.153.387-.251.57l.002.003.015.006 2.332-4.736c.023-.046.038-.094.06-.14-.382.828-1.026 1.524-1.884 2.063z" stroke="#33475C" stroke-width="5" stroke-linecap="round" stroke-linejoin="round"/>
        <path d="M106.566 17.81c-.907 1.719-2.932 2.863-5.875 3.017-5.953.312-13.48-3.522-16.727-8.52-1.575-2.425-1.855-4.69-1.058-6.42l-.012-.006-24.717 50.183.012.006c-.797 1.732-.517 3.997 1.058 6.42 3.247 5 10.774 8.834 16.726 8.521 3.067-.162 5.13-1.398 5.978-3.237l.012.006 24.603-49.97z" stroke="#33475C" stroke-width="5" stroke-linecap="round" stroke-linejoin="round"/>
        <path d="M75.973 71.01c-1.59.084-3.294-.136-4.997-.588l-11.41 12.826L79.7 70.076c-.992.528-2.243.856-3.727.935z" stroke="#33475C" stroke-width="5" stroke-linecap="round" stroke-linejoin="round"/>
        <path d="M69.45 76.768h-.002c-.49.263-1.108.43-1.846.468-.775.041-1.603-.07-2.433-.287l-5.603 6.3 9.891-6.472-.007-.009z" stroke="#33475C" stroke-width="5" stroke-linecap="round" stroke-linejoin="round"/>
        <path d="M75.973 71.01c-5.952.314-13.48-3.52-16.727-8.52-.937-1.443-1.414-2.829-1.482-4.082l-.006.004 1.807 24.836L79.7 70.076c-.992.528-2.243.856-3.727.935z" stroke="#33475C" stroke-width="5" stroke-linecap="round" stroke-linejoin="round"/>
        <path d="M69.45 76.768h-.002c-.49.263-1.108.43-1.846.468-2.925.154-6.625-1.73-8.22-4.187-.376-.579-.59-1.134-.68-1.654l.864 11.853 9.891-6.47-.007-.01zM39.116 83.615l-.545 2.454c-.062.277-.06.666.217.733.186.046.356-.105.489-.242l6.439-6.688c-.106 1.105-.117 2.217-.035 3.324 2.137-2.34 4.323-4.639 6.553-6.891.21.642.418 1.285.627 1.928l5.35-5.792c.151-.164-.05-.557-.096-.337M43.187 92.882l.428-.61-.185 2.389c2.744-1.424 4.358-4.674 7.315-5.572-.055.499.103 1.019.426 1.403 2.677-2.92 5.125-5.004 8.394-7.244M53.013 98.06c-.745.426.042 1.711.892 1.598.85-.114 1.4-.924 1.878-1.637 1.795-2.67 4.14-4.97 6.843-6.717-.279 1.077-.05 2.276.607 3.173 3.624-4.136 7.854-7.74 12.512-10.665-.244.483.347 1.048.886.997.54-.05.965-.464 1.342-.856 2.109-2.187 4.218-4.372 6.326-6.56-.269.62.515 1.274 1.18 1.161.666-.112 1.152-.67 1.58-1.192l2.79-3.406M63.85 101.107c-.366.779-.557 1.64-.554 2.501 4.017-2.124 7.559-5.14 10.296-8.767.479-.637 1.075-1.362 1.87-1.317-.85 1.005-1.31 2.33-1.269 3.645l7.633-7.28c.621-.593 1.36-1.229 2.213-1.14-.583.787-.543 1.977.095 2.722 1.333-2.133 2.968-4.077 4.842-5.755" stroke="#33475C" stroke-width="5" stroke-linecap="round" stroke-linejoin="round"/>
        <path d="M121.351 78.577s-14.268.227-22.018-5.761c-7.75-5.989-10.216-14.444-18.495-20.432-8.279-5.99-22.126-6.462-22.126-6.462L3.157 77.697s13.39 1.232 21.667 7.22c8.28 5.99 10.745 14.445 18.495 20.434 7.75 5.989 22.018 5.636 22.018 5.636l56.014-32.41z" fill="#FFF"/>
        <path d="M121.351 78.577s-14.268.227-22.018-5.761c-7.75-5.989-10.216-14.444-18.495-20.432-8.279-5.99-22.126-6.462-22.126-6.462L3.157 77.697s13.39 1.232 21.667 7.22c8.28 5.99 10.745 14.445 18.495 20.434 7.75 5.989 22.018 5.636 22.018 5.636l56.014-32.41z" stroke="#33475C" stroke-linecap="round" stroke-linejoin="round"/>
        <path d="M36.952 68.89c.591-1.207-1.149-2.477-2.41-2.015-1.262.462-1.926 1.817-2.416 3.068-.901 2.306-1.632 4.678-2.183 7.091-.155.68-.28 1.452.118 2.026.693 1 2.272.561 3.264-.146 4.726-3.37 6.233-10.128 11.18-13.166-1.012 2.771-2.053 5.531-3.122 8.281 4.416-1.983 5.333-8.28 9.535-10.683l-.458 6.142c1.464-2.219 3.411-4.118 5.665-5.527 4.056-2.533 9.077-3.502 12.604-6.732" stroke="#33475C" stroke-width="1.5" stroke-linecap="round" stroke-linejoin="round"/>
        <path d="M75.973 71.01c-5.952.314-13.48-3.52-16.727-8.52-.937-1.443-1.414-2.829-1.482-4.082l-.006.004 1.807 24.836L79.7 70.076c-.992.528-2.243.856-3.727.935" fill="#FEF8F0"/>
        <path d="M75.973 71.01c-5.952.314-13.48-3.52-16.727-8.52-.937-1.443-1.414-2.829-1.482-4.082l-.006.004 1.807 24.836L79.7 70.076c-.992.528-2.243.856-3.727.935z" stroke="#33475C" stroke-linecap="round" stroke-linejoin="round"/>
        <path d="M106.566 17.81c-.907 1.719-2.932 2.863-5.875 3.017-5.953.312-13.48-3.522-16.727-8.52-1.575-2.425-1.855-4.69-1.058-6.42l-.012-.006-24.717 50.183.012.006c-.797 1.732-.517 3.997 1.058 6.42 3.247 5 10.774 8.834 16.726 8.521 3.067-.162 5.13-1.398 5.978-3.237l.012.006 24.603-49.97z" fill="#F9D28C"/>
        <path d="M105.61 11.17c3.247 4.998 1.032 9.344-4.92 9.656-5.953.313-13.48-3.521-16.727-8.52-3.246-4.999-1.033-9.345 4.92-9.657 5.953-.313 13.48 3.522 16.727 8.52" fill="#FBA9BE"/>
        <path d="M105.61 11.17c3.247 4.998 1.032 9.344-4.92 9.656-5.953.313-13.48-3.521-16.727-8.52-3.246-4.999-1.033-9.345 4.92-9.657 5.953-.313 13.48 3.522 16.727 8.52z" stroke="#33475C" stroke-linecap="round" stroke-linejoin="round"/>
        <path d="M69.45 76.768h-.002c-.49.263-1.108.43-1.846.468-2.925.154-6.625-1.73-8.22-4.187-.376-.579-.59-1.134-.68-1.654l.864 11.853 9.891-6.47-.007-.01z" fill="#415A77"/>
        <path d="M69.45 76.768h-.002c-.49.263-1.108.43-1.846.468-2.925.154-6.625-1.73-8.22-4.187-.376-.579-.59-1.134-.68-1.654l.864 11.853 9.891-6.47-.007-.01z" stroke="#33475C" stroke-linecap="round" stroke-linejoin="round"/>
        <path d="M100.69 20.827c-4.346.228-9.522-1.76-13.269-4.79L62.704 66.221c3.747 3.031 8.923 5.019 13.27 4.79 3.066-.162 5.13-1.398 5.977-3.237l.01.006 24.604-49.97c-.906 1.719-2.931 2.863-5.875 3.017" fill="#F6C364"/>
        <path d="M75.973 71.01c3.067-.16 5.131-1.396 5.977-3.235l.012.005 24.605-49.97c-.908 1.718-2.932 2.862-5.877 3.016-1.507.08-3.115-.11-4.73-.514l-5.358 10.263-19.626 39.847c1.704.452 3.406.672 4.997.589" fill="#DCAF59"/>
        <path d="M106.566 17.81c-.736 1.394-2.218 2.4-4.32 2.816-.49.096-1 .172-1.555.2-5.953.313-13.48-3.52-16.727-8.52-.273-.419-.493-.83-.688-1.238-.937-1.95-1.03-3.75-.37-5.182l-.012-.005-1.785 3.625-2.168 4.4c.009-.017.025-.031.034-.048-.948 1.757-.715 4.124.937 6.666 3.246 4.998 10.774 8.833 16.726 8.52 3.062-.16 5.129-1.389 5.975-3.224-.022.046-.037.095-.06.14l4.013-8.15z" fill="#F77B9D"/>
        <path d="M106.566 17.81c-.736 1.394-2.218 2.4-4.32 2.816-.49.096-1 .172-1.555.2-5.953.313-13.48-3.52-16.727-8.52-.273-.419-.493-.83-.688-1.238-.937-1.95-1.03-3.75-.37-5.182l-.012-.005-1.785 3.625-2.168 4.4c.009-.017.025-.031.034-.048-.948 1.757-.715 4.124.937 6.666 3.246 4.998 10.774 8.833 16.726 8.52 3.062-.16 5.129-1.389 5.975-3.224-.022.046-.037.095-.06.14l4.013-8.15z" stroke="#33475C" stroke-linecap="round" stroke-linejoin="round"/>
        <path d="M100.729 27.883v-.002.002l-.003.001c-1.043.654-2.41 1.072-4.088 1.16-5.952.313-13.48-3.521-16.726-8.52-.888-1.366-1.354-2.678-1.458-3.876-.09-1.03.083-1.977.521-2.79-.009.017-.024.031-.033.047l.17-.343-.17.343-2.23 4.53c.037-.07.086-.134.13-.203-1.116 1.78-.95 4.25.78 6.915 3.248 4.998 10.775 8.833 16.728 8.52 3.237-.17 5.36-1.537 6.105-3.55-.072.195-.153.387-.251.57l.002.003.015.006 2.332-4.736c.023-.046.038-.094.06-.14-.382.828-1.026 1.524-1.884 2.063" fill="#CBD6E3"/>
        <path d="M100.729 27.883v-.002.002l-.003.001c-1.043.654-2.41 1.072-4.088 1.16-5.952.313-13.48-3.521-16.726-8.52-.888-1.366-1.354-2.678-1.458-3.876-.09-1.03.083-1.977.521-2.79-.009.017-.024.031-.033.047l.17-.343-.17.343-2.23 4.53c.037-.07.086-.134.13-.203-1.116 1.78-.95 4.25.78 6.915 3.248 4.998 10.775 8.833 16.728 8.52 3.237-.17 5.36-1.537 6.105-3.55-.072.195-.153.387-.251.57l.002.003.015.006 2.332-4.736c.023-.046.038-.094.06-.14-.382.828-1.026 1.524-1.884 2.063z" stroke="#33475C" stroke-linecap="round" stroke-linejoin="round"/>
        <path d="M106.566 17.81c-.907 1.719-2.932 2.863-5.875 3.017-5.953.312-13.48-3.522-16.727-8.52-1.575-2.425-1.855-4.69-1.058-6.42l-.012-.006-24.717 50.183.012.006c-.797 1.732-.517 3.997 1.058 6.42 3.247 5 10.774 8.834 16.726 8.521 3.067-.162 5.13-1.398 5.978-3.237l.012.006 24.603-49.97z" stroke="#33475C" stroke-linecap="round" stroke-linejoin="round"/>
        <path d="M75.973 71.01c-1.59.084-3.294-.136-4.997-.588l-11.41 12.826L79.7 70.076c-.992.528-2.243.856-3.727.935" fill="#FBE1B2"/>
        <path d="M69.45 76.768h-.002c-.49.263-1.108.43-1.846.468-.775.041-1.603-.07-2.433-.287l-5.603 6.3 9.891-6.472-.007-.009z" fill="#32475C"/>
        <path d="M69.45 76.768h-.002c-.49.263-1.108.43-1.846.468-.775.041-1.603-.07-2.433-.287l-5.603 6.3 9.891-6.472-.007-.009z" stroke="#33475C" stroke-linecap="round" stroke-linejoin="round"/>
        <path d="M75.973 71.01c-5.952.314-13.48-3.52-16.727-8.52-.937-1.443-1.414-2.829-1.482-4.082l-.006.004 1.807 24.836L79.7 70.076c-.992.528-2.243.856-3.727.935z" stroke="#33475C" stroke-linecap="round" stroke-linejoin="round"/>
        <path d="M69.45 76.768h-.002c-.49.263-1.108.43-1.846.468-2.925.154-6.625-1.73-8.22-4.187-.376-.579-.59-1.134-.68-1.654l.864 11.853 9.891-6.47-.007-.01zM39.116 83.615l-.545 2.454c-.062.277-.06.666.217.733.186.046.356-.105.489-.242l6.439-6.688c-.106 1.105-.117 2.217-.035 3.324 2.137-2.34 4.323-4.639 6.553-6.891.21.642.418 1.285.627 1.928l5.35-5.792c.151-.164-.05-.557-.096-.337M43.187 92.882l.428-.61-.185 2.389c2.744-1.424 4.358-4.674 7.315-5.572-.055.499.103 1.019.426 1.403 2.677-2.92 5.125-5.004 8.394-7.244M53.013 98.06c-.745.426.042 1.711.892 1.598.85-.114 1.4-.924 1.878-1.637 1.795-2.67 4.14-4.97 6.843-6.717-.279 1.077-.05 2.276.607 3.173 3.624-4.136 7.854-7.74 12.512-10.665-.244.483.347 1.048.886.997.54-.05.965-.464 1.342-.856 2.109-2.187 4.218-4.372 6.326-6.56-.269.62.515 1.274 1.18 1.161.666-.112 1.152-.67 1.58-1.192l2.79-3.406M63.85 101.107c-.366.779-.557 1.64-.554 2.501 4.017-2.124 7.559-5.14 10.296-8.767.479-.637 1.075-1.362 1.87-1.317-.85 1.005-1.31 2.33-1.269 3.645l7.633-7.28c.621-.593 1.36-1.229 2.213-1.14-.583.787-.543 1.977.095 2.722 1.333-2.133 2.968-4.077 4.842-5.755" stroke="#33475C" stroke-linecap="round" stroke-linejoin="round"/>
    </g>
</svg>
