<?xml version="1.0" standalone="no"?>
<!DOCTYPE svg PUBLIC "-//W3C//DTD SVG 20010904//EN"
 "http://www.w3.org/TR/2001/REC-SVG-20010904/DTD/svg10.dtd">
<svg version="1.0" xmlns="http://www.w3.org/2000/svg"
 width="1251.000000pt" height="1251.000000pt" viewBox="0 0 1251.000000 1251.000000"
 preserveAspectRatio="xMidYMid meet">

<g transform="translate(0.000000,1251.000000) scale(0.100000,-0.100000)"
fill="#053219" stroke="none">
<path d="M3670 10645 c-346 -55 -664 -246 -875 -526 -66 -88 -205 -341 -205
-374 0 -6 -59 -20 -135 -32 -305 -49 -550 -174 -691 -351 -58 -73 -139 -238
-159 -324 -41 -181 -39 -379 6 -607 12 -58 19 -120 16 -138 -3 -18 -26 -78
-52 -133 -302 -660 -179 -1400 315 -1901 212 -215 466 -363 753 -438 168 -44
255 -55 442 -55 239 0 421 33 622 114 51 20 95 35 98 32 3 -3 5 -529 5 -1169
l0 -1163 -22 -9 c-13 -4 -88 -13 -168 -20 -80 -6 -221 -21 -314 -32 l-168 -20
-25 23 c-13 12 -47 63 -75 113 -124 221 -180 272 -377 345 l-78 28 -39 -51
c-21 -28 -85 -99 -141 -158 -123 -129 -165 -192 -200 -301 -16 -51 -37 -93
-53 -110 -29 -29 -29 -29 -420 -138 -306 -86 -792 -245 -881 -290 -79 -40
-167 -100 -273 -189 -44 -37 -111 -89 -149 -116 -45 -33 -66 -54 -62 -64 2 -9
23 -83 45 -166 23 -82 42 -151 43 -152 4 -3 282 -102 366 -129 80 -27 257 -59
531 -98 239 -34 420 -52 785 -76 2341 -153 4703 -169 7365 -50 811 37 982 55
1824 191 329 53 764 119 787 119 5 0 9 89 9 198 l0 198 -44 34 c-24 19 -92 79
-151 133 -125 114 -176 145 -301 187 -109 37 -165 71 -220 133 -59 66 -75 126
-83 297 -7 156 -15 183 -68 231 -39 35 -169 129 -178 129 -5 0 -52 -36 -106
-80 -54 -44 -103 -80 -108 -80 -6 0 -11 13 -11 29 0 45 -130 1974 -133 1977
-2 2 -158 -415 -347 -926 -190 -512 -347 -930 -350 -930 -3 1 -70 106 -149
235 -80 129 -146 235 -147 235 -2 0 -249 -87 -301 -106 l-43 -16 0 -294 c0
-242 -2 -296 -14 -300 -19 -7 -1170 69 -1686 112 -211 17 -214 18 -257 114
-14 30 -81 221 -149 423 -68 202 -127 374 -131 382 -6 10 -59 -50 -188 -211
l-180 -226 -7 39 c-4 21 -32 290 -63 598 -31 308 -59 568 -63 578 -5 12 -70
-151 -194 -485 -102 -276 -190 -503 -195 -505 -4 -1 -141 162 -303 361 -162
199 -296 359 -298 355 -2 -4 9 -89 23 -189 14 -100 25 -183 23 -184 -2 -2 -32
-11 -68 -20 -36 -10 -95 -26 -132 -37 l-68 -20 -2 -472 -3 -472 -295 0 -295 0
-3 1129 c-2 1072 -1 1128 15 1123 10 -3 70 -24 133 -46 192 -66 313 -86 535
-86 206 0 315 17 469 72 481 173 857 610 968 1126 31 147 31 406 0 564 -53
268 -186 546 -375 787 -52 66 -57 94 -32 166 8 23 25 92 37 153 31 156 31 426
0 569 -56 257 -172 483 -346 676 -109 120 -308 256 -478 326 -232 96 -543 130
-783 85 -33 -6 -83 -9 -112 -7 -45 4 -62 13 -138 70 -160 121 -328 206 -490
251 -164 45 -396 58 -565 32z m435 -425 c111 -28 262 -106 375 -191 190 -144
318 -173 581 -133 388 59 767 -107 977 -429 107 -164 156 -332 156 -537 0
-137 -9 -200 -47 -325 -16 -54 -21 -96 -22 -185 0 -144 24 -222 96 -313 132
-168 231 -339 283 -488 48 -140 59 -214 59 -369 0 -124 -4 -159 -26 -243 -79
-298 -310 -587 -577 -722 -308 -156 -678 -136 -1058 57 -64 33 -175 81 -247
108 -71 26 -154 57 -182 69 l-53 21 0 -1650 0 -1650 710 0 710 0 1 163 c0 121
3 155 11 135 12 -34 8 -34 228 -3 96 14 181 25 189 25 10 0 12 10 7 40 -3 22
-4 40 -2 40 2 0 28 -29 57 -65 53 -66 69 -77 69 -50 0 8 4 15 8 15 5 0 19
-108 33 -241 l24 -241 260 326 c143 179 263 322 266 318 3 -4 14 -29 24 -57
61 -171 180 -322 297 -378 66 -31 79 -33 598 -72 276 -20 1839 -125 1870 -125
5 0 11 60 12 132 l3 133 160 -258 c96 -156 162 -252 166 -245 4 7 73 193 154
413 81 220 152 404 156 410 6 5 9 1 9 -10 1 -63 59 -857 63 -861 4 -4 306 236
418 333 15 13 19 8 38 -49 44 -133 139 -260 257 -344 70 -50 206 -117 277
-136 26 -6 47 -15 47 -19 0 -7 -471 -85 -815 -134 -440 -63 -576 -75 -1245
-105 -2335 -106 -4520 -104 -6570 6 -395 21 -1035 62 -1155 74 -256 27 -731
98 -787 119 -22 8 -21 10 24 38 78 49 468 179 898 299 321 89 355 100 434 142
129 67 210 170 261 329 25 76 72 144 82 118 2 -6 23 -45 48 -86 129 -222 306
-308 550 -269 68 11 340 38 708 71 l247 23 0 1693 c0 931 -4 1693 -8 1693 -5
0 -149 -69 -320 -154 -337 -168 -397 -192 -547 -227 -142 -32 -376 -32 -520 1
-265 60 -470 173 -651 361 -138 144 -224 285 -284 463 -100 303 -88 609 37
906 19 47 50 120 68 164 19 44 38 114 45 160 10 76 9 91 -20 236 -82 405 -11
623 243 739 45 21 110 46 144 55 89 24 262 46 369 46 l90 0 54 133 c124 306
178 396 320 530 132 126 293 207 479 242 103 20 281 13 386 -15z"/>
</g>
</svg>
