<svg width="150" height="144" viewBox="0 0 150 144" xmlns="http://www.w3.org/2000/svg">
    <g fill="none" fill-rule="evenodd">
        <path d="M79.63 58.897c-2.605-1.504-6.867-1.504-9.473 0L1.946 98.28c-2.606 1.505-2.593 3.942.03 5.418l68.151 38.358c2.622 1.476 6.912 1.476 9.533 0l68.153-38.358c2.622-1.476 2.635-3.913.03-5.418L79.63 58.897z" fill-opacity=".2" fill="#FF8F52"/>
        <path d="M123.305 87.886V73.778h-6.687c-1.977-1.92-4.385-3.73-7.236-5.379-18.574-10.734-48.974-10.748-67.556-.03-2.871 1.657-5.296 3.477-7.281 5.41h-6.66v14.107c.006 7.062 4.647 14.125 13.923 19.487 18.574 10.734 48.974 10.748 67.556.03 9.3-5.365 13.946-12.44 13.94-19.517z" stroke="#33475C" stroke-width="5" stroke-linecap="round" stroke-linejoin="round"/>
        <path d="M41.809 93.264c-18.573-10.735-18.565-28.285.017-39.002 18.583-10.717 48.983-10.704 67.554.029 18.573 10.735 18.566 28.287-.017 39.004-18.58 10.717-48.98 10.704-67.554-.031z" stroke="#33475C" stroke-width="5" stroke-linecap="round" stroke-linejoin="round"/>
        <path d="M54.396 86.004c-11.654-6.734-11.648-17.748.012-24.473 11.66-6.723 30.732-6.715 42.386.02 11.654 6.736 11.648 17.748-.011 24.473-11.66 6.725-30.733 6.715-42.387-.02z" stroke="#33475C" stroke-width="5" stroke-linecap="round" stroke-linejoin="round"/>
        <path d="M66.652 78.936c-4.916-2.842-4.914-7.487.004-10.325 4.919-2.837 12.967-2.833 17.882.01 4.918 2.84 4.916 7.486-.004 10.323-4.919 2.836-12.967 2.834-17.882-.008z" stroke="#33475C" stroke-width="5" stroke-linecap="round" stroke-linejoin="round"/>
        <path d="M51.643 33.29l-.814-1.41-.56-.97-1.624-2.815-.008.004c-.008-.025-.015-.052-.025-.077-.06-.148.004-.394.16-.665.576-1.002 2.098-1.88 3.251-1.88.393 0 .625.108.683.216.027.048.058.092.09.135l1.564 2.734.554.971.804 1.406.554.968 17.936 31.37.012.024c.017.044.036.088.061.132.004.031.012.062.017.093l.649 5.436-4.468-3.184c-.03-.031-.063-.058-.098-.083-.036-.029-.058-.056-.07-.104-.043-.173-.143-.323-.274-.442L52.2 34.257l-.557-.968" stroke="#33475C" stroke-width="5" stroke-linecap="round" stroke-linejoin="round"/>
        <path stroke="#33475C" stroke-width="5" stroke-linecap="round" stroke-linejoin="round" d="M73.892 47.592l-4.777 11.256-12.127-1.496 19.218 13.777-.033-.056.042.05zM52.768 30.52c-.92.532-2.096.216-2.627-.703l-10.49-18.17c-.531-.919-.216-2.095.703-2.626.92-.531 2.096-.216 2.627.704l10.49 18.169c.531.92.216 2.096-.703 2.627zM50.642 31.748l-7.794-2.239-12.977-14.436h8.21l5.965 5.235zM54.905 29.287l1.958-7.87-6.014-18.455-4.105 7.11 1.552 7.782z"/>
        <path stroke="#33475C" stroke-width="5" stroke-linecap="round" stroke-linejoin="round" d="M69.116 58.848l7.057 12.225L56.99 57.352z"/>
        <path d="M123.305 87.886V73.778h-6.687c-1.977-1.92-4.385-3.73-7.236-5.379-18.574-10.734-48.974-10.748-67.556-.03-2.871 1.657-5.296 3.477-7.281 5.41h-6.66v14.107c.006 7.062 4.647 14.125 13.923 19.487 18.574 10.734 48.974 10.748 67.556.03 9.3-5.365 13.946-12.44 13.94-19.517" fill="#E86E4B"/>
        <path d="M123.305 87.886V73.778h-6.687c-1.977-1.92-4.385-3.73-7.236-5.379-18.574-10.734-48.974-10.748-67.556-.03-2.871 1.657-5.296 3.477-7.281 5.41h-6.66v14.107c.006 7.062 4.647 14.125 13.923 19.487 18.574 10.734 48.974 10.748 67.556.03 9.3-5.365 13.946-12.44 13.94-19.517z" stroke="#33475C" stroke-linecap="round" stroke-linejoin="round"/>
        <path d="M41.809 93.264c-18.573-10.735-18.565-28.285.017-39.002 18.583-10.717 48.983-10.704 67.554.029 18.573 10.735 18.566 28.287-.017 39.004-18.58 10.717-48.98 10.704-67.554-.031" fill="#FF7A53"/>
        <path d="M41.809 93.264c-18.573-10.735-18.565-28.285.017-39.002 18.583-10.717 48.983-10.704 67.554.029 18.573 10.735 18.566 28.287-.017 39.004-18.58 10.717-48.98 10.704-67.554-.031z" stroke="#33475C" stroke-linecap="round" stroke-linejoin="round"/>
        <path d="M54.396 86.004c-11.654-6.734-11.648-17.748.012-24.473 11.66-6.723 30.732-6.715 42.386.02 11.654 6.736 11.648 17.748-.011 24.473-11.66 6.725-30.733 6.715-42.387-.02" fill="#FFF"/>
        <path d="M54.396 86.004c-11.654-6.734-11.648-17.748.012-24.473 11.66-6.723 30.732-6.715 42.386.02 11.654 6.736 11.648 17.748-.011 24.473-11.66 6.725-30.733 6.715-42.387-.02z" stroke="#33475C" stroke-linecap="round" stroke-linejoin="round"/>
        <path d="M66.652 78.936c-4.916-2.842-4.914-7.487.004-10.325 4.919-2.837 12.967-2.833 17.882.01 4.918 2.84 4.916 7.486-.004 10.323-4.919 2.836-12.967 2.834-17.882-.008" fill="#FF7A53"/>
        <path d="M66.652 78.936c-4.916-2.842-4.914-7.487.004-10.325 4.919-2.837 12.967-2.833 17.882.01 4.918 2.84 4.916 7.486-.004 10.323-4.919 2.836-12.967 2.834-17.882-.008z" stroke="#33475C" stroke-linecap="round" stroke-linejoin="round"/>
        <path d="M51.643 33.29l-.814-1.41-.56-.97-1.624-2.815-.008.004c-.008-.025-.015-.052-.025-.077-.06-.148.004-.394.16-.665.576-1.002 2.098-1.88 3.251-1.88.393 0 .625.108.683.216.027.048.058.092.09.135l1.564 2.734.554.971.804 1.406.554.968 17.936 31.37.012.024c.017.044.036.088.061.132.004.031.012.062.017.093l.649 5.436-4.468-3.184c-.03-.031-.063-.058-.098-.083-.036-.029-.058-.056-.07-.104-.043-.173-.143-.323-.274-.442L52.2 34.257l-.557-.968" fill="#CBD6E3"/>
        <path d="M51.643 33.29l-.814-1.41-.56-.97-1.624-2.815-.008.004c-.008-.025-.015-.052-.025-.077-.06-.148.004-.394.16-.665.576-1.002 2.098-1.88 3.251-1.88.393 0 .625.108.683.216.027.048.058.092.09.135l1.564 2.734.554.971.804 1.406.554.968 17.936 31.37.012.024c.017.044.036.088.061.132.004.031.012.062.017.093l.649 5.436-4.468-3.184c-.03-.031-.063-.058-.098-.083-.036-.029-.058-.056-.07-.104-.043-.173-.143-.323-.274-.442L52.2 34.257l-.557-.968" stroke="#33475C" stroke-linecap="round" stroke-linejoin="round"/>
        <path fill="#EBF0F7" d="M73.892 47.592l-4.777 11.256-12.127-1.496 19.218 13.777-.033-.056.042.05z"/>
        <path stroke="#33475C" stroke-linecap="round" stroke-linejoin="round" d="M73.892 47.592l-4.777 11.256-12.127-1.496 19.218 13.777-.033-.056.042.05z"/>
        <path d="M52.768 30.52c-.92.532-2.096.216-2.627-.703l-10.49-18.17c-.531-.919-.216-2.095.703-2.626.92-.531 2.096-.216 2.627.704l10.49 18.169c.531.92.216 2.096-.703 2.627" fill="#F7C364"/>
        <path d="M52.768 30.52c-.92.532-2.096.216-2.627-.703l-10.49-18.17c-.531-.919-.216-2.095.703-2.626.92-.531 2.096-.216 2.627.704l10.49 18.169c.531.92.216 2.096-.703 2.627z" stroke="#33475C" stroke-linecap="round" stroke-linejoin="round"/>
        <path fill="#F87D81" d="M50.642 31.748l-7.794-2.239-12.977-14.436h8.21l5.965 5.235z"/>
        <path stroke="#33475C" stroke-linecap="round" stroke-linejoin="round" d="M50.642 31.748l-7.794-2.239-12.977-14.436h8.21l5.965 5.235z"/>
        <path fill="#F87D81" d="M54.905 29.287l1.958-7.87-6.014-18.455-4.105 7.11 1.552 7.782z"/>
        <path stroke="#33475C" stroke-linecap="round" stroke-linejoin="round" d="M54.905 29.287l1.958-7.87-6.014-18.455-4.105 7.11 1.552 7.782z"/>
        <path fill="#CBD6E3" d="M69.116 58.848l7.057 12.225L56.99 57.352z"/>
        <path stroke="#33475C" stroke-linecap="round" stroke-linejoin="round" d="M69.116 58.848l7.057 12.225L56.99 57.352z"/>
    </g>
</svg>
