<svg width="166" height="192" viewBox="0 0 166 192" xmlns="http://www.w3.org/2000/svg" xmlns:xlink="http://www.w3.org/1999/xlink">
    <defs>
        <path id="a" d="M0 96.377V.987h165.217v95.39z"/>
    </defs>
    <g fill="none" fill-rule="evenodd">
        <g transform="translate(0 95.62)">
            <mask id="b" fill="#fff">
                <use xlink:href="#a"/>
            </mask>
            <path d="M61.68 95.017L2.355 60.765c-3.49-2.015-3.048-5.567.983-7.894L89.864 2.914c4.03-2.327 10.183-2.582 13.672-.567l59.327 34.252c3.49 2.016 3.048 5.568-.982 7.896L75.354 94.451c-4.03 2.326-10.183 2.582-13.673.566" fill-opacity=".25" fill="#40CEBB" mask="url(#b)"/>
        </g>
        <path d="M95.306 79.826l-80.572 1.057c-3.255.043-5.978 1.614-6.051 3.493l-1.831 46.518 42.436 25.654 87.162-54.123-41.144-22.6z" stroke="#33475C" stroke-width="5" stroke-linecap="round" stroke-linejoin="round"/>
        <path d="M95.304 79.824c-.046-.001-.093.005-.141.003l.141-.001v-.002zM6.856 130.813c.001.028-.007.054-.004.08l.004-.08zM6.854 130.893l80.57-1.056c3.254-.043 5.978-1.614 6.052-3.495l1.828-46.516-88.45 51.067z" stroke="#33475C" stroke-width="5" stroke-linecap="round" stroke-linejoin="round"/>
        <path d="M129.767 113.322l-29.371-16.957c-7.237-4.18-13.159-14.435-13.159-22.791V13.678c0-1.514-1.072-2.134-2.384-1.377L19.562 50c-1.313.757-2.385 2.615-2.385 4.13v59.894c0 8.356 5.92 18.612 13.158 22.79l29.37 16.959c1.312.757 3.459.757 4.77 0l65.292-37.696c1.312-.759 1.312-1.997 0-2.754zM25.359 75.875l10.167-5.872M25.359 81.615l7.783-4.495M38.474 48.475l33.264-19.204M27.488 54.819l5.608-3.239M38.474 54.215L72.93 34.32M26.593 61.075l6.503-3.755" stroke="#33475C" stroke-width="5" stroke-linecap="round" stroke-linejoin="round"/>
        <path d="M87.238 34.703V13.679c0-1.515-1.074-2.134-2.385-1.377L19.561 49.998c-1.311.757-2.385 2.617-2.385 4.13v21.026M82.016 36.617l-59.618 34.42M28.112 123.65l35.208-20.328M35.527 132.011l22.654-13.08M31.829 128.407l34.7-20.034M52.95 84.408l20.731-11.969M25.359 100.338l17.07-9.857M25.359 111.818l26.506-15.305M44.782 86.597l-16.474 9.51c-1.623.937-2.949.17-2.949-1.702 0-1.873 1.326-4.173 2.95-5.11l16.473-9.51c1.622-.938 2.95-.171 2.95 1.702s-1.328 4.172-2.95 5.11zM78.584 78.754l-16.473 9.51c-1.622.937-2.95.17-2.95-1.702 0-1.874 1.328-4.173 2.95-5.11l16.473-9.51c1.624-.938 2.95-.171 2.95 1.703 0 1.872-1.326 4.171-2.95 5.11zM50.362 80.162l19.742-11.397M28.935 92.533l14.791-8.54M62.215 84.798l16.236-9.373M25.359 106.078L47.732 93.16M53.16 140.544l32.822-18.95M58.13 143.415l47.13-27.213M71.942 164.688l81.896-47.283c1.291-.746 1.874-1.737 1.788-2.694l-.369-.077-80.57 1.056c-3.254.041-5.977 1.615-6.05 3.493l-1.83 46.517c1.8.139 3.721-.196 5.135-1.012z" stroke="#33475C" stroke-width="5" stroke-linecap="round" stroke-linejoin="round"/>
        <path d="M66.807 165.7c.01.002.022 0 .032 0-.011-.001-.021-.004-.032-.004v.004zM6.864 130.893c.085.765.592 1.503 1.578 2.073l55.133 31.83c.899.52 2.037.813 3.232.9l1.4-35.607-61.343.804zM66.84 165.7c.41.03.827.033 1.242.014-.415.018-.831.015-1.243-.014zM95.304 79.831l-1.4 35.606 61.352-.804.37.078c-.07-.786-.584-1.552-1.598-2.138l-55.134-31.83c-.986-.57-2.266-.862-3.59-.912z" stroke="#33475C" stroke-width="5" stroke-linecap="round" stroke-linejoin="round"/>
        <path stroke="#33475C" stroke-width="5" stroke-linecap="round" stroke-linejoin="round" d="M131.327 120.744l-10.043-5.799-10.044 5.8 10.044 5.798zM115.133 100.733l-10.042-5.799-10.044 5.8 10.044 5.798zM115.133 8.487l-10.042-5.8-10.044 5.8 10.044 5.8zM95.046 8.487l10.044 5.8v77.55L95.046 86.04z"/>
        <path stroke="#33475C" stroke-width="5" stroke-linecap="round" stroke-linejoin="round" d="M115.133 8.487l-10.042 5.8v77.55l10.042-5.797z"/>
        <path stroke="#33475C" stroke-width="5" stroke-linecap="round" stroke-linejoin="round" d="M131.327 54.657l-10.043-5.799-10.044 5.8 10.044 5.798z"/>
        <path stroke="#33475C" stroke-width="5" stroke-linecap="round" stroke-linejoin="round" d="M111.24 54.657l10.044 5.8v49.14l-10.044-5.799zM131.327 54.657l-10.043 5.8v49.14l10.043-5.799z"/>
        <path stroke="#33475C" stroke-width="5" stroke-linecap="round" stroke-linejoin="round" d="M147.365 96.381l-10.042-5.799-10.044 5.8 10.042 5.798zM147.365 131.172l-10.042-5.799-10.044 5.8 10.042 5.799z"/>
        <path stroke="#33475C" stroke-width="5" stroke-linecap="round" stroke-linejoin="round" d="M127.278 96.381l10.043 5.8v34.79l-10.043-5.798zM147.365 96.381l-10.044 5.8v34.79l10.044-5.798zM120.215 40.468c-.216 0-.426-.04-.625-.118-.417-.16-.765-.49-.95-.905l-1.992-4.502-3.43 1.517c-.217.098-.452.15-.696.15-.335 0-.658-.097-.94-.28-.49-.318-.783-.86-.783-1.445l.006-17.845c0-.681.402-1.298 1.024-1.573.222-.098.456-.149.698-.149.431 0 .842.161 1.158.45l13.215 11.99c.432.39.636.97.544 1.55-.094.577-.468 1.063-1.004 1.298l-3.427 1.519 1.992 4.5c.184.415.195.894.03 1.318-.165.428-.487.767-.907.953l-3.214 1.425c-.218.096-.46.147-.699.147z"/>
        <path d="M112.527 14.63c-.339 0-.667.07-.976.207-.872.385-1.435 1.251-1.435 2.204l-.004 17.845c0 .819.409 1.574 1.096 2.021.39.255.845.39 1.313.39.342 0 .67-.07.982-.21l2.793-1.236 1.715 3.872c.26.583.749 1.047 1.342 1.273.271.106.564.161.862.161.34 0 .669-.07.979-.21l3.213-1.421c.588-.26 1.041-.736 1.272-1.337.232-.596.217-1.253-.044-1.842l-1.715-3.872 2.8-1.24c.748-.33 1.272-1.011 1.403-1.82.13-.81-.154-1.62-.763-2.17l-13.214-11.99c-.442-.402-1.018-.625-1.62-.625zm0 1.377c.252 0 .5.09.694.268l13.217 11.991c.259.234.381.585.326.93-.056.345-.282.64-.603.78l-4.056 1.798 2.27 5.13c.112.25.118.534.02.79-.1.255-.296.462-.545.573l-3.215 1.424c-.134.06-.277.09-.42.09-.126 0-.252-.024-.372-.07-.256-.099-.461-.295-.574-.546l-2.27-5.13-4.06 1.795c-.133.06-.275.09-.418.09-.195 0-.392-.057-.563-.167-.293-.191-.47-.517-.47-.866l.005-17.846c0-.41.24-.78.615-.946.134-.06.277-.088.419-.088z" stroke="#33475C" stroke-width="5" stroke-linecap="round" stroke-linejoin="round"/>
        <path d="M95.306 79.826l-80.572 1.057c-3.255.043-5.978 1.614-6.051 3.493l-1.831 46.518 42.436 25.654 87.162-54.123-41.144-22.6z" fill="#FFF"/>
        <path d="M95.306 79.826l-80.572 1.057c-3.255.043-5.978 1.614-6.051 3.493l-1.831 46.518 42.436 25.654 87.162-54.123-41.144-22.6z" stroke="#33475C" stroke-linecap="round" stroke-linejoin="round"/>
        <path d="M95.304 79.824c-.046-.001-.093.005-.141.003l.141-.001v-.002z" fill="#FFF"/>
        <path d="M95.304 79.824c-.046-.001-.093.005-.141.003l.141-.001v-.002z" stroke="#33475C" stroke-linecap="round" stroke-linejoin="round"/>
        <path d="M6.856 130.813c.001.028-.007.054-.004.08l.004-.08z" fill="#FFF"/>
        <path d="M6.856 130.813c.001.028-.007.054-.004.08l.004-.08z" stroke="#33475C" stroke-linecap="round" stroke-linejoin="round"/>
        <path d="M6.854 130.893l80.57-1.056c3.254-.043 5.978-1.614 6.052-3.495l1.828-46.516-88.45 51.067z" fill="#EAF0F6"/>
        <path d="M129.767 113.322l-29.371-16.957c-7.237-4.18-13.159-14.435-13.159-22.791V13.678c0-1.514-1.072-2.134-2.384-1.377L19.562 50c-1.313.757-2.385 2.615-2.385 4.13v59.894c0 8.356 5.92 18.612 13.158 22.79l29.37 16.959c1.312.757 3.459.757 4.77 0l65.292-37.696c1.312-.759 1.312-1.997 0-2.754" fill="#FFF"/>
        <path d="M129.767 113.322l-29.371-16.957c-7.237-4.18-13.159-14.435-13.159-22.791V13.678c0-1.514-1.072-2.134-2.384-1.377L19.562 50c-1.313.757-2.385 2.615-2.385 4.13v59.894c0 8.356 5.92 18.612 13.158 22.79l29.37 16.959c1.312.757 3.459.757 4.77 0l65.292-37.696c1.312-.759 1.312-1.997 0-2.754z" stroke="#33475C" stroke-linecap="round" stroke-linejoin="round"/>
        <path d="M25.359 75.875l10.167-5.872" fill="#FFF"/>
        <path d="M25.359 75.875l10.167-5.872" stroke="#33475C" stroke-width="1.5" stroke-linecap="round" stroke-linejoin="round"/>
        <path d="M25.359 81.615l7.783-4.495" fill="#FFF"/>
        <path d="M25.359 81.615l7.783-4.495" stroke="#33475C" stroke-linecap="round" stroke-linejoin="round"/>
        <path d="M38.474 48.475l33.264-19.204" fill="#FFF"/>
        <path d="M38.474 48.475l33.264-19.204" stroke="#98ACC3" stroke-width="2" stroke-linecap="round" stroke-linejoin="round"/>
        <path d="M27.488 54.819l5.608-3.239" fill="#FFF"/>
        <path d="M27.488 54.819l5.608-3.239" stroke="#98ACC3" stroke-width="2" stroke-linecap="round" stroke-linejoin="round"/>
        <path d="M38.474 54.215L72.93 34.32" fill="#FFF"/>
        <path d="M38.474 54.215L72.93 34.32" stroke="#CBD6E3" stroke-linecap="round" stroke-linejoin="round"/>
        <path d="M26.593 61.075l6.503-3.755" fill="#FFF"/>
        <path d="M26.593 61.075l6.503-3.755" stroke="#CBD6E3" stroke-linecap="round" stroke-linejoin="round"/>
        <path d="M87.238 34.703V13.679c0-1.515-1.074-2.134-2.385-1.377L19.561 49.998c-1.311.757-2.385 2.617-2.385 4.13v21.026" stroke="#33475C" stroke-linecap="round" stroke-linejoin="round"/>
        <path d="M82.016 36.617l-59.618 34.42" stroke="#CBD6E3" stroke-width=".5" stroke-linecap="round" stroke-linejoin="round"/>
        <path d="M28.112 123.65l35.208-20.328" fill="#FFF"/>
        <path d="M28.112 123.65l35.208-20.328" stroke="#33475C" stroke-linecap="round" stroke-linejoin="round"/>
        <path d="M35.527 132.011l22.654-13.08" fill="#FFF"/>
        <path d="M35.527 132.011l22.654-13.08" stroke="#33475C" stroke-linecap="round" stroke-linejoin="round"/>
        <path d="M31.829 128.407l34.7-20.034" fill="#FFF"/>
        <path d="M31.829 128.407l34.7-20.034" stroke="#33475C" stroke-linecap="round" stroke-linejoin="round"/>
        <path d="M52.95 84.408l20.731-11.969" fill="#FFF"/>
        <path d="M52.95 84.408l20.731-11.969" stroke="#33475C" stroke-linecap="round" stroke-linejoin="round"/>
        <path d="M25.359 100.338l17.07-9.857" fill="#FFF"/>
        <path d="M25.359 100.338l17.07-9.857" stroke="#33475C" stroke-linecap="round" stroke-linejoin="round"/>
        <path d="M25.359 111.818l26.506-15.305" fill="#FFF"/>
        <path d="M25.359 111.818l26.506-15.305" stroke="#33475C" stroke-linecap="round" stroke-linejoin="round"/>
        <path d="M44.782 86.597l-16.474 9.51c-1.623.937-2.949.17-2.949-1.702 0-1.873 1.326-4.173 2.95-5.11l16.473-9.51c1.622-.938 2.95-.171 2.95 1.702s-1.328 4.172-2.95 5.11" fill="#FFF0ED"/>
        <path d="M78.584 78.754l-16.473 9.51c-1.622.937-2.95.17-2.95-1.702 0-1.874 1.328-4.173 2.95-5.11l16.473-9.51c1.624-.938 2.95-.171 2.95 1.703 0 1.872-1.326 4.171-2.95 5.11" fill="#E1F9F6"/>
        <path d="M50.362 80.162l19.742-11.397" fill="#FFF"/>
        <path d="M50.362 80.162l19.742-11.397" stroke="#33475C" stroke-linecap="round" stroke-linejoin="round"/>
        <path d="M28.935 92.533l14.791-8.54" fill="#FFF"/>
        <path d="M28.935 92.533l14.791-8.54" stroke="#FF884A" stroke-linecap="round" stroke-linejoin="round"/>
        <path d="M62.215 84.798l16.236-9.373" fill="#FFF"/>
        <path d="M62.215 84.798l16.236-9.373" stroke="#00C1A4" stroke-linecap="round" stroke-linejoin="round"/>
        <path d="M25.359 106.078L47.732 93.16" fill="#FFF"/>
        <path d="M25.359 106.078L47.732 93.16" stroke="#33475C" stroke-linecap="round" stroke-linejoin="round"/>
        <path d="M53.16 140.544l32.822-18.95" fill="#FFF"/>
        <path d="M53.16 140.544l32.822-18.95" stroke="#33475C" stroke-linecap="round" stroke-linejoin="round"/>
        <path d="M58.13 143.415l47.13-27.213" fill="#FFF"/>
        <path d="M58.13 143.415l47.13-27.213" stroke="#33475C" stroke-linecap="round" stroke-linejoin="round"/>
        <path d="M71.942 164.688l81.896-47.283c1.291-.746 1.874-1.737 1.788-2.694l-.369-.077-80.57 1.056c-3.254.041-5.977 1.615-6.05 3.493l-1.83 46.517c1.8.139 3.721-.196 5.135-1.012" fill="#D4E7F7"/>
        <path d="M71.942 164.688l81.896-47.283c1.291-.746 1.874-1.737 1.788-2.694l-.369-.077-80.57 1.056c-3.254.041-5.977 1.615-6.05 3.493l-1.83 46.517c1.8.139 3.721-.196 5.135-1.012z" stroke="#33475C" stroke-linecap="round" stroke-linejoin="round"/>
        <path d="M66.807 165.7c.01.002.022 0 .032 0-.011-.001-.021-.004-.032-.004v.004z" fill="#E6EFF6"/>
        <path d="M66.807 165.7c.01.002.022 0 .032 0-.011-.001-.021-.004-.032-.004v.004z" stroke="#33475C" stroke-linecap="round" stroke-linejoin="round"/>
        <path d="M6.864 130.893c.085.765.592 1.503 1.578 2.073l55.133 31.83c.899.52 2.037.813 3.232.9l1.4-35.607-61.343.804z" fill="#E6EFF6"/>
        <path d="M6.864 130.893c.085.765.592 1.503 1.578 2.073l55.133 31.83c.899.52 2.037.813 3.232.9l1.4-35.607-61.343.804z" stroke="#33475C" stroke-linecap="round" stroke-linejoin="round"/>
        <path d="M66.84 165.7c.41.03.827.033 1.242.014-.415.018-.831.015-1.243-.014" fill="#E6EFF6"/>
        <path d="M66.84 165.7c.41.03.827.033 1.242.014-.415.018-.831.015-1.243-.014z" stroke="#33475C" stroke-linecap="round" stroke-linejoin="round"/>
        <path d="M95.304 79.831l-1.4 35.606 61.352-.804.37.078c-.07-.786-.584-1.552-1.598-2.138l-55.134-31.83c-.986-.57-2.266-.862-3.59-.912" fill="#E6EFF6"/>
        <path d="M95.304 79.831l-1.4 35.606 61.352-.804.37.078c-.07-.786-.584-1.552-1.598-2.138l-55.134-31.83c-.986-.57-2.266-.862-3.59-.912z" stroke="#33475C" stroke-linecap="round" stroke-linejoin="round"/>
        <path fill-opacity=".1" fill="#33475C" d="M131.327 120.744l-10.043-5.799-10.044 5.8 10.044 5.798zM115.133 100.733l-10.042-5.799-10.044 5.8 10.044 5.798z"/>
        <path fill="#E5F5F8" d="M115.133 8.487l-10.042-5.8-10.044 5.8 10.044 5.8z"/>
        <path stroke="#33475C" stroke-linecap="round" stroke-linejoin="round" d="M115.133 8.487l-10.042-5.8-10.044 5.8 10.044 5.8z"/>
        <path fill="#7CD1DF" d="M95.046 8.487l10.044 5.8v77.55L95.046 86.04z"/>
        <path stroke="#33475C" stroke-linecap="round" stroke-linejoin="round" d="M95.046 8.487l10.044 5.8v77.55L95.046 86.04z"/>
        <path fill="#40BBCE" d="M115.133 8.487l-10.042 5.8v77.55l10.042-5.797z"/>
        <path stroke="#33475C" stroke-linecap="round" stroke-linejoin="round" d="M115.133 8.487l-10.042 5.8v77.55l10.042-5.797z"/>
        <path fill="#E4F8F6" d="M131.327 54.657l-10.043-5.799-10.044 5.8 10.044 5.798z"/>
        <path stroke="#33475C" stroke-linecap="round" stroke-linejoin="round" d="M131.327 54.657l-10.043-5.799-10.044 5.8 10.044 5.798z"/>
        <path fill="#7BDED2" d="M111.24 54.657l10.044 5.8v49.14l-10.044-5.799z"/>
        <path stroke="#33475C" stroke-linecap="round" stroke-linejoin="round" d="M111.24 54.657l10.044 5.8v49.14l-10.044-5.799z"/>
        <path fill="#40CEBB" d="M131.327 54.657l-10.043 5.8v49.14l10.043-5.799z"/>
        <path stroke="#33475C" stroke-linecap="round" stroke-linejoin="round" d="M131.327 54.657l-10.043 5.8v49.14l10.043-5.799z"/>
        <path fill="#F0F1FA" d="M147.365 96.381l-10.042-5.799-10.044 5.8 10.042 5.798z"/>
        <path stroke="#33475C" stroke-linecap="round" stroke-linejoin="round" d="M147.365 96.381l-10.042-5.799-10.044 5.8 10.042 5.798z"/>
        <g>
            <path fill="#E6EFF6" d="M147.365 131.172l-10.042-5.799-10.044 5.8 10.042 5.799z"/>
            <path stroke="#33475C" stroke-linecap="round" stroke-linejoin="round" d="M147.365 131.172l-10.042-5.799-10.044 5.8 10.042 5.799z"/>
        </g>
        <path fill="#B4BAEA" d="M127.278 96.381l10.043 5.8v34.79l-10.043-5.798z"/>
        <path stroke="#33475C" stroke-linecap="round" stroke-linejoin="round" d="M127.278 96.381l10.043 5.8v34.79l-10.043-5.798z"/>
        <path fill="#8E98DF" d="M147.365 96.381l-10.044 5.8v34.79l10.044-5.798z"/>
        <path stroke="#33475C" stroke-linecap="round" stroke-linejoin="round" d="M147.365 96.381l-10.044 5.8v34.79l10.044-5.798z"/>
        <path d="M120.215 40.468c-.216 0-.426-.04-.625-.118-.417-.16-.765-.49-.95-.905l-1.992-4.502-3.43 1.517c-.217.098-.452.15-.696.15-.335 0-.658-.097-.94-.28-.49-.318-.783-.86-.783-1.445l.006-17.845c0-.681.402-1.298 1.024-1.573.222-.098.456-.149.698-.149.431 0 .842.161 1.158.45l13.215 11.99c.432.39.636.97.544 1.55-.094.577-.468 1.063-1.004 1.298l-3.427 1.519 1.992 4.5c.184.415.195.894.03 1.318-.165.428-.487.767-.907.953l-3.214 1.425c-.218.096-.46.147-.699.147" fill="#FFF"/>
        <path d="M112.527 14.63c-.339 0-.667.07-.976.207-.872.385-1.435 1.251-1.435 2.204l-.004 17.845c0 .819.409 1.574 1.096 2.021.39.255.845.39 1.313.39.342 0 .67-.07.982-.21l2.793-1.236 1.715 3.872c.26.583.749 1.047 1.342 1.273.271.106.564.161.862.161.34 0 .669-.07.979-.21l3.213-1.421c.588-.26 1.041-.736 1.272-1.337.232-.596.217-1.253-.044-1.842l-1.715-3.872 2.8-1.24c.748-.33 1.272-1.011 1.403-1.82.13-.81-.154-1.62-.763-2.17l-13.214-11.99c-.442-.402-1.018-.625-1.62-.625m0 1.377c.253 0 .5.09.695.268l13.217 11.991c.259.234.381.585.326.93-.056.345-.282.64-.603.78l-4.056 1.798 2.27 5.13c.112.25.118.534.02.79-.1.255-.296.462-.545.573l-3.215 1.424c-.134.06-.277.09-.42.09-.126 0-.252-.024-.372-.07-.256-.099-.461-.295-.574-.546l-2.27-5.13-4.06 1.795c-.133.06-.275.09-.418.09-.195 0-.392-.057-.563-.167-.293-.191-.47-.517-.47-.866l.005-17.846c0-.41.24-.78.615-.946.134-.06.277-.088.419-.088" fill="#33475C"/>
    </g>
</svg>
