<svg width="200" height="183" viewBox="0 0 200 183" xmlns="http://www.w3.org/2000/svg">
    <g fill="none" fill-rule="evenodd">
        <path d="M106.324 70.239c-3.478-2.01-9.17-2.01-12.65 0L2.598 122.823c-3.478 2.008-3.46 5.263.04 7.233l90.999 51.216c3.5 1.97 9.228 1.97 12.728 0l90.999-51.216c3.5-1.97 3.518-5.225.04-7.233l-91.079-52.584z" fill-opacity=".5" fill="#F9D28C"/>
        <path d="M147.196 48.414L70.174 3.945c-.997-.576-1.901-.642-2.586-.31l-.025-.043-5.353 3.293c-.82.34-1.352 1.224-1.352 2.564v81.697L38.415 78.19v38.872L83.3 142.975v-29.497l58.417 33.727c.878.507 1.68.611 2.329.407l.01.017.096-.057c.192-.074.367-.177.525-.309l5.319-3.126-.015-.019c.647-.42 1.052-1.247 1.052-2.416V55.06c0-2.437-1.727-5.428-3.837-6.646" fill="#E5F5F8"/>
        <path d="M147.196 48.414L70.174 3.945c-.997-.576-1.901-.642-2.586-.31l-.025-.043-5.353 3.293c-.82.34-1.352 1.224-1.352 2.564v81.697L38.415 78.19v38.872L83.3 142.975v-29.497l58.417 33.727c.878.507 1.68.611 2.329.407l.01.017.096-.057c.192-.074.367-.177.525-.309l5.319-3.126-.015-.019c.647-.42 1.052-1.247 1.052-2.416V55.06c0-2.437-1.727-5.428-3.837-6.646z" stroke="#33475C" stroke-width="5" stroke-linecap="round" stroke-linejoin="round"/>
        <path d="M147.196 48.455L70.174 3.985c-.998-.575-1.902-.64-2.586-.309l-.025-.043L61.86 7.14l3.996 5.06.48-.225V92.843c0 2.437 1.726 5.428 3.837 6.646l71.862 41.49-1.354.636 3.373 6.054 5.94-3.49-.014-.02c.647-.42 1.052-1.247 1.052-2.417V55.101c0-2.437-1.727-5.428-3.837-6.646" fill="#CBD6E3"/>
        <path d="M147.196 48.455L70.174 3.985c-.998-.575-1.902-.64-2.586-.309l-.025-.043L61.86 7.14l3.996 5.06.48-.225V92.843c0 2.437 1.726 5.428 3.837 6.646l71.862 41.49-1.354.636 3.373 6.054 5.94-3.49-.014-.02c.647-.42 1.052-1.247 1.052-2.417V55.101c0-2.437-1.727-5.428-3.837-6.646z" stroke="#33475C" stroke-linejoin="round"/>
        <path d="M60.857 8.537c0-1.913 1.356-2.696 3.013-1.74l78.672 45.422c1.656.956 3.012 3.304 3.012 5.217v66.393c0 1.913-1.356 2.696-3.012 1.74L63.87 80.146c-1.657-.956-3.013-3.304-3.013-5.217V8.537z" fill="#E4EAEF"/>
        <path d="M60.857 8.537c0-1.913 1.356-2.696 3.013-1.74l78.672 45.422c1.656.956 3.012 3.304 3.012 5.217v66.393c0 1.913-1.356 2.696-3.012 1.74L63.87 80.146c-1.657-.956-3.013-3.304-3.013-5.217V8.537z" stroke="#33475C" stroke-linecap="round" stroke-linejoin="round"/>
        <path d="M60.857 30.691c0-1.913 1.356-2.696 3.013-1.739l78.672 45.42c1.656.957 3.012 3.305 3.012 5.218v66.393c0 1.913-1.356 2.696-3.012 1.74L63.87 102.301c-1.657-.957-3.013-3.305-3.013-5.218V30.691z" fill="#E4EAEF"/>
        <path d="M60.857 30.691c0-1.913 1.356-2.696 3.013-1.739l78.672 45.42c1.656.957 3.012 3.305 3.012 5.218v66.393c0 1.913-1.356 2.696-3.012 1.74L63.87 102.301c-1.657-.957-3.013-3.305-3.013-5.218V30.691z" stroke="#33475C" stroke-linecap="round" stroke-linejoin="round"/>
        <path fill="#FFF" d="M60.857 19.459l84.697 48.899v73.35l-84.697-48.9z"/>
        <path stroke="#33475C" stroke-linecap="round" stroke-linejoin="round" d="M60.857 19.459l84.697 48.899v73.35l-84.697-48.9z"/>
        <path fill="#CBD6E3" d="M60.857 19.459l84.697 48.899v16.124l-84.697-48.9z"/>
        <path stroke="#33475C" d="M60.857 19.459l84.697 48.899v16.124l-84.697-48.9z"/>
        <path fill="#FFF" d="M105.02 35.4v-.004L81.803 21.991v5.378l17.324 10.002v.004l23.218 13.405V45.4z"/>
        <path stroke="#33475C" stroke-linecap="round" stroke-linejoin="round" d="M105.02 35.4v-.004L81.803 21.991v5.378l17.324 10.002v.004l23.218 13.405V45.4z"/>
        <path d="M76.385 24.486c1.314.758 2.39.138 2.39-1.38 0-1.516-1.076-3.377-2.39-4.137-1.313-.758-2.388-.137-2.388 1.38s1.075 3.379 2.388 4.137" fill="#40CEBB"/>
        <path d="M76.385 24.486c1.314.758 2.39.138 2.39-1.38 0-1.516-1.076-3.377-2.39-4.137-1.313-.758-2.388-.137-2.388 1.38s1.075 3.379 2.388 4.137" stroke="#33475C" stroke-linecap="round" stroke-linejoin="round"/>
        <path d="M68.787 20.243c1.314.758 2.389.138 2.389-1.38 0-1.516-1.075-3.378-2.39-4.137-1.313-.758-2.388-.137-2.388 1.38s1.075 3.379 2.389 4.137" fill="#FFAB7D"/>
        <path d="M68.787 20.243c1.314.758 2.389.138 2.389-1.38 0-1.516-1.075-3.378-2.39-4.137-1.313-.758-2.388-.137-2.388 1.38s1.075 3.379 2.389 4.137" stroke="#33475C" stroke-linecap="round" stroke-linejoin="round"/>
        <path fill="#E5F5F8" d="M78.774 54.698l44.884 25.914v38.871L78.774 93.57z"/>
        <path stroke="#33475C" stroke-linecap="round" stroke-linejoin="round" stroke-dasharray="2,2,0,0" d="M78.774 54.698l44.884 25.914v38.871L78.774 93.57z"/>
        <path d="M78.774 54.698L38.414 78.23" fill="#E5F5F8"/>
        <path d="M78.774 54.698L38.414 78.23" stroke="#33475C" stroke-linecap="round" stroke-linejoin="round" stroke-dasharray="2,2,0,0"/>
        <path d="M123.659 119.483l-40.36 23.533" fill="#E5F5F8"/>
        <path d="M123.659 119.483l-40.36 23.533" stroke="#33475C" stroke-linecap="round" stroke-linejoin="round" stroke-dasharray="2,2,0,0"/>
        <path d="M78.774 93.57l-5.673 3.305" fill="#E5F5F8"/>
        <path d="M78.774 93.57l-5.673 3.305" stroke="#33475C" stroke-linecap="round" stroke-linejoin="round" stroke-dasharray="2,2,0,0"/>
        <path fill="#FFF" d="M38.415 78.23L83.3 104.144v38.872l-44.885-25.914z"/>
        <path stroke="#33475C" stroke-linecap="round" stroke-linejoin="round" d="M38.415 78.23L83.3 104.144v38.872l-44.885-25.914z"/>
        <path d="M123.659 80.612l-40.36 23.532" fill="#E5F5F8"/>
        <path d="M123.659 80.612l-40.36 23.532" stroke="#33475C" stroke-linecap="round" stroke-linejoin="round" stroke-dasharray="2,2,0,0"/>
        <path d="M43.606 87.652l8.255 4.766M47.733 90.035v10.417" stroke="#33475C" stroke-width="2" stroke-linecap="round" stroke-linejoin="round"/>
        <path d="M56.55 96.07l21.559 12.447M56.55 100.334l18.934 10.931M56.55 104.598l21.559 12.447" stroke="#33475C" stroke-linecap="round" stroke-linejoin="round"/>
        <path d="M77.462 133.327l-33.208-19.173c-.957-.552-1.74-1.786-1.74-2.743v-8.177c0-.957.783-1.287 1.74-.735l33.208 19.173c.956.552 1.739 1.786 1.739 2.743v8.177c0 .957-.783 1.287-1.74.735" fill="#D5DAF2"/>
        <path d="M46.302 107.377l29.98 17.31M46.302 111.641l26.192 15.123" stroke="#33475C" stroke-linecap="round" stroke-linejoin="round"/>
    </g>
</svg>
