<svg width="143" height="167" viewBox="0 0 143 167" xmlns="http://www.w3.org/2000/svg">
    <g fill="none" fill-rule="evenodd">
        <path d="M2.511 128.448c-2.735-1.579-2.735-4.163 0-5.743l63.778-36.822c2.735-1.58 7.211-1.58 9.947 0l63.778 36.822c2.736 1.58 2.736 4.164 0 5.743L76.236 165.27c-2.736 1.58-7.212 1.58-9.947 0L2.511 128.448z" fill="#F9D28C" opacity=".25"/>
        <path stroke="#33475C" stroke-width="5" stroke-linecap="round" stroke-linejoin="round" d="M14.434 117.509l56.828-32.811 56.83 32.81-56.83 32.81z"/>
        <path stroke="#33475C" stroke-width="5" stroke-linecap="round" stroke-linejoin="round" d="M2.5 85.419l68.763-39.7 68.763 39.7-68.763 39.7z"/>
        <path stroke="#33475C" stroke-width="5" stroke-linecap="round" stroke-linejoin="round" d="M71.263 45.719v38.979l-56.829 32.81L2.5 85.419z"/>
        <path stroke="#33475C" stroke-width="5" stroke-linecap="round" stroke-linejoin="round" d="M2.5 85.419l11.935 32.09 56.828 32.809v-25.2zM71.263 45.719v38.979l56.828 32.81 11.934-32.09z"/>
        <path stroke="#33475C" stroke-width="5" stroke-linecap="round" stroke-linejoin="round" d="M140.026 85.419l-11.934 32.09-56.83 32.809v-25.2zM90.119 102.036c3.38-1.952 8.86-1.952 12.24 0l13.615-7.86L66.02 65.335l-13.614 7.86c3.38 1.951 3.38 5.116 0 7.068-3.381 1.951-8.861 1.951-12.241 0l-13.614 7.86 49.953 28.841 13.614-7.861c-3.38-1.952-3.38-5.116 0-7.067z"/>
        <path d="M108.034 94.176l-6.487 3.746c-5.141-1.184-11.242-.577-15.398 1.822-4.155 2.399-5.207 5.92-3.156 8.89l-6.488 3.745-42.013-24.256 6.487-3.746c5.141 1.185 11.242.577 15.398-1.822 4.155-2.4 5.207-5.922 3.156-8.89l6.488-3.745 42.013 24.256M90.997 79.756L56.861 99.464M90.997 79.756l-.866.5M87.573 81.732L57.728 98.963M57.728 98.964l-.866.5" stroke="#33475C" stroke-width="5" stroke-linecap="round" stroke-linejoin="round"/>
        <path d="M90.119 102.036c3.38-1.952 8.86-1.952 12.24 0l13.615-7.86L66.02 65.335l-13.614 7.86c3.38 1.951 3.38 5.116 0 7.068-3.381 1.951-8.861 1.951-12.241 0l-13.614 7.86 49.953 28.841 13.614-7.861c-3.38-1.952-3.38-5.116 0-7.067z" stroke="#33475C" stroke-width="5" stroke-linecap="round" stroke-linejoin="round"/>
        <path stroke="#33475C" stroke-width="5" stroke-linecap="round" stroke-linejoin="round" d="M77.813 107.062l-6.429-3.71-15.498 8.946 6.43 3.712zM92.41 84.144c3.38-1.952 8.862-1.952 12.242 0l13.614-7.86-49.953-28.84-13.614 7.86c3.38 1.95 3.38 5.115 0 7.067-3.38 1.951-8.861 1.951-12.241 0l-13.614 7.86 49.953 28.841 13.614-7.86c-3.38-1.953-3.38-5.117 0-7.068z"/>
        <path d="M110.326 76.284l-6.488 3.746c-5.14-1.184-11.242-.577-15.397 1.822-4.156 2.4-5.208 5.921-3.157 8.89l-6.488 3.745-42.013-24.256 6.488-3.746c5.141 1.185 11.242.577 15.397-1.822 4.156-2.4 5.208-5.922 3.157-8.89l6.487-3.745 42.014 24.256M93.29 61.864L59.316 81.477M93.29 61.864l-.867.5M89.878 63.834L60.184 80.978M60.184 80.977l-.866.5" stroke="#33475C" stroke-width="5" stroke-linecap="round" stroke-linejoin="round"/>
        <path d="M92.41 84.144c3.38-1.952 8.862-1.952 12.242 0l13.614-7.86-49.953-28.84-13.614 7.86c3.38 1.95 3.38 5.115 0 7.067-3.38 1.951-8.861 1.951-12.241 0l-13.614 7.86 49.953 28.841 13.614-7.86c-3.38-1.953-3.38-5.117 0-7.068z" stroke="#33475C" stroke-width="5" stroke-linecap="round" stroke-linejoin="round"/>
        <path stroke="#33475C" stroke-width="5" stroke-linecap="round" stroke-linejoin="round" d="M46.6 71.626l-6.428-3.711-15.498 8.947 6.429 3.712zM91.265 67.407c3.38-1.95 8.86-1.95 12.24 0l13.615-7.859-49.953-28.84-13.614 7.858c3.38 1.952 3.38 5.116 0 7.068s-8.861 1.952-12.241 0l-13.614 7.86L77.65 82.335l13.614-7.86c-3.38-1.952-3.38-5.116 0-7.068z"/>
        <path d="M109.18 59.548l-6.487 3.745c-5.141-1.184-11.242-.577-15.398 1.822-4.155 2.4-5.207 5.922-3.156 8.89l-6.488 3.746-42.013-24.257 6.488-3.745c5.14 1.184 11.241.576 15.397-1.822 4.156-2.4 5.207-5.922 3.156-8.891l6.488-3.745 42.013 24.257M85.84 48.767L58.85 64.347M85.84 48.767l-.866.5M82.267 50.829L59.717 63.85M59.716 63.85l-.866.5" stroke="#33475C" stroke-width="5" stroke-linecap="round" stroke-linejoin="round"/>
        <path d="M91.265 67.407c3.38-1.95 8.86-1.95 12.24 0l13.615-7.859-49.953-28.84-13.614 7.858c3.38 1.952 3.38 5.116 0 7.068s-8.861 1.952-12.241 0l-13.614 7.86L77.65 82.335l13.614-7.86c-3.38-1.952-3.38-5.116 0-7.068z" stroke="#33475C" stroke-width="5" stroke-linecap="round" stroke-linejoin="round"/>
        <path stroke="#33475C" stroke-width="5" stroke-linecap="round" stroke-linejoin="round" d="M113.207 48.888l-6.429-3.711-15.498 8.947 6.43 3.712zM63.611 61.205c-4.462-2.576-4.462-6.792 0-9.368 4.462-2.577 11.765-2.577 16.228 0 4.462 2.576 4.462 6.792 0 9.368-4.463 2.576-11.766 2.576-16.228 0z"/>
        <path d="M65.933 59.865c-3.186-1.84-3.186-4.85 0-6.688 3.186-1.839 8.398-1.839 11.584 0 3.186 1.838 3.186 4.848 0 6.688-3.186 1.84-8.398 1.84-11.584 0z" stroke="#33475C" stroke-width="5" stroke-linecap="round" stroke-linejoin="round"/>
        <path d="M68.25 58.527c-1.912-1.104-1.912-2.909 0-4.013 1.91-1.103 5.039-1.103 6.95 0 1.912 1.104 1.912 2.91 0 4.013-1.911 1.104-5.04 1.104-6.95 0zM71.724 56.132V35.855" stroke="#33475C" stroke-width="5" stroke-linecap="round" stroke-linejoin="round"/>
        <path fill="#D4E7F7" d="M14.434 117.509l56.828-32.811 56.83 32.81-56.83 32.81z"/>
        <path stroke="#33475C" stroke-linecap="round" stroke-linejoin="round" d="M14.434 117.509l56.828-32.811 56.83 32.81-56.83 32.81z"/>
        <path stroke="#33475C" stroke-linecap="round" stroke-linejoin="round" d="M2.5 85.419l68.763-39.7 68.763 39.7-68.763 39.7z"/>
        <path fill="#FFF" d="M71.263 45.719v38.979l-56.829 32.81L2.5 85.419z"/>
        <path stroke="#33475C" stroke-linecap="round" stroke-linejoin="round" d="M71.263 45.719v38.979l-56.829 32.81L2.5 85.419z"/>
        <path fill="#E6EFF6" d="M2.5 85.419l11.935 32.09 56.828 32.809v-25.2z"/>
        <path stroke="#33475C" stroke-linecap="round" stroke-linejoin="round" d="M2.5 85.419l11.935 32.09 56.828 32.809v-25.2z"/>
        <path fill="#E6EFF6" d="M71.263 45.719v38.979l56.828 32.81 11.934-32.09z"/>
        <path stroke="#33475C" stroke-linecap="round" stroke-linejoin="round" d="M71.263 45.719v38.979l56.828 32.81 11.934-32.09z"/>
        <path fill="#FFF" d="M140.026 85.419l-11.934 32.09-56.83 32.809v-25.2z"/>
        <path stroke="#33475C" stroke-linecap="round" stroke-linejoin="round" d="M140.026 85.419l-11.934 32.09-56.83 32.809v-25.2z"/>
        <path d="M90.119 102.036c3.38-1.952 8.86-1.952 12.24 0l13.615-7.86L66.02 65.335l-13.614 7.86c3.38 1.951 3.38 5.116 0 7.068-3.381 1.951-8.861 1.951-12.241 0l-13.614 7.86 49.953 28.841 13.614-7.861c-3.38-1.952-3.38-5.116 0-7.067" fill="#DDF3F7"/>
        <path d="M90.119 102.036c3.38-1.952 8.86-1.952 12.24 0l13.615-7.86L66.02 65.335l-13.614 7.86c3.38 1.951 3.38 5.116 0 7.068-3.381 1.951-8.861 1.951-12.241 0l-13.614 7.86 49.953 28.841 13.614-7.861c-3.38-1.952-3.38-5.116 0-7.067z" stroke="#33475C" stroke-linecap="round" stroke-linejoin="round"/>
        <path d="M108.034 94.176l-6.487 3.746c-5.141-1.184-11.242-.577-15.398 1.822-4.155 2.399-5.207 5.92-3.156 8.89l-6.488 3.745-42.013-24.256 6.487-3.746c5.141 1.185 11.242.577 15.398-1.822 4.155-2.4 5.207-5.922 3.156-8.89l6.488-3.745 42.013 24.256M90.997 79.756l-.866.5" stroke="#7CD1DF" stroke-linecap="round" stroke-linejoin="round"/>
        <path d="M87.573 81.732L57.728 98.963" stroke="#7CD1DF" stroke-linecap="round" stroke-linejoin="round" stroke-dasharray="1.969,2.954,0,0"/>
        <path d="M57.728 98.964l-.866.5" stroke="#7CD1DF" stroke-linecap="round" stroke-linejoin="round"/>
        <path d="M90.119 102.036c3.38-1.952 8.86-1.952 12.24 0l13.615-7.86L66.02 65.335l-13.614 7.86c3.38 1.951 3.38 5.116 0 7.068-3.381 1.951-8.861 1.951-12.241 0l-13.614 7.86 49.953 28.841 13.614-7.861c-3.38-1.952-3.38-5.116 0-7.067z" stroke="#33475C" stroke-linecap="round" stroke-linejoin="round"/>
        <path fill="#F9D28C" d="M77.813 107.062l-6.429-3.71-15.498 8.946 6.43 3.712z"/>
        <path stroke="#33475C" stroke-linecap="round" stroke-linejoin="round" d="M77.813 107.062l-6.429-3.71-15.498 8.946 6.43 3.712z"/>
        <path d="M92.41 84.144c3.38-1.952 8.862-1.952 12.242 0l13.614-7.86-49.953-28.84-13.614 7.86c3.38 1.95 3.38 5.115 0 7.067-3.38 1.951-8.861 1.951-12.241 0l-13.614 7.86 49.953 28.841 13.614-7.86c-3.38-1.953-3.38-5.117 0-7.068" fill="#FFE2D4"/>
        <path d="M92.41 84.144c3.38-1.952 8.862-1.952 12.242 0l13.614-7.86-49.953-28.84-13.614 7.86c3.38 1.95 3.38 5.115 0 7.067-3.38 1.951-8.861 1.951-12.241 0l-13.614 7.86 49.953 28.841 13.614-7.86c-3.38-1.953-3.38-5.117 0-7.068z" stroke="#33475C" stroke-linecap="round" stroke-linejoin="round"/>
        <path d="M110.326 76.284l-6.488 3.746c-5.14-1.184-11.242-.577-15.397 1.822-4.156 2.4-5.208 5.921-3.157 8.89l-6.488 3.745-42.013-24.256 6.488-3.746c5.141 1.185 11.242.577 15.397-1.822 4.156-2.4 5.208-5.922 3.157-8.89l6.487-3.745 42.014 24.256M93.29 61.864l-.867.5" stroke="#FFA472" stroke-linecap="round" stroke-linejoin="round"/>
        <path d="M89.878 63.834L60.184 80.978" stroke="#FFA472" stroke-linecap="round" stroke-linejoin="round" stroke-dasharray="1.959,2.939,0,0"/>
        <path d="M60.184 80.977l-.866.5" stroke="#FFA472" stroke-linecap="round" stroke-linejoin="round"/>
        <path d="M92.41 84.144c3.38-1.952 8.862-1.952 12.242 0l13.614-7.86-49.953-28.84-13.614 7.86c3.38 1.95 3.38 5.115 0 7.067-3.38 1.951-8.861 1.951-12.241 0l-13.614 7.86 49.953 28.841 13.614-7.86c-3.38-1.953-3.38-5.117 0-7.068z" stroke="#33475C" stroke-linecap="round" stroke-linejoin="round"/>
        <path fill="#40BBCE" d="M46.6 71.626l-6.428-3.711-15.498 8.947 6.429 3.712z"/>
        <path stroke="#33475C" stroke-linecap="round" stroke-linejoin="round" d="M46.6 71.626l-6.428-3.711-15.498 8.947 6.429 3.712z"/>
        <path d="M91.265 67.407c3.38-1.95 8.86-1.95 12.24 0l13.615-7.859-49.953-28.84-13.614 7.858c3.38 1.952 3.38 5.116 0 7.068s-8.861 1.952-12.241 0l-13.614 7.86L77.65 82.335l13.614-7.86c-3.38-1.952-3.38-5.116 0-7.068" fill="#FCE9C6"/>
        <path d="M109.18 59.548l-6.487 3.745c-5.141-1.184-11.242-.577-15.398 1.822-4.155 2.4-5.207 5.922-3.156 8.89l-6.488 3.746-42.013-24.257 6.488-3.745c5.14 1.184 11.241.576 15.397-1.822 4.156-2.4 5.207-5.922 3.156-8.891l6.488-3.745 42.013 24.257M85.84 48.767l-.866.5" stroke="#F6C364" stroke-linecap="round" stroke-linejoin="round"/>
        <path d="M82.267 50.829L59.717 63.85" stroke="#F6C364" stroke-linecap="round" stroke-linejoin="round" stroke-dasharray="2.083,3.125,0,0"/>
        <path d="M59.716 63.85l-.866.5" stroke="#F6C364" stroke-linecap="round" stroke-linejoin="round"/>
        <path d="M91.265 67.407c3.38-1.95 8.86-1.95 12.24 0l13.615-7.859-49.953-28.84-13.614 7.858c3.38 1.952 3.38 5.116 0 7.068s-8.861 1.952-12.241 0l-13.614 7.86L77.65 82.335l13.614-7.86c-3.38-1.952-3.38-5.116 0-7.068z" stroke="#33475C" stroke-linecap="round" stroke-linejoin="round"/>
        <path fill="#F77D81" d="M113.207 48.888l-6.429-3.711-15.498 8.947 6.43 3.712z"/>
        <path stroke="#33475C" stroke-linecap="round" stroke-linejoin="round" d="M113.207 48.888l-6.429-3.711-15.498 8.947 6.43 3.712z"/>
        <path d="M63.611 61.205c-4.462-2.576-4.462-6.792 0-9.368 4.462-2.577 11.765-2.577 16.228 0 4.462 2.576 4.462 6.792 0 9.368-4.463 2.576-11.766 2.576-16.228 0" fill="#FFF" opacity=".25"/>
        <path d="M65.933 59.865c-3.186-1.84-3.186-4.85 0-6.688 3.186-1.839 8.398-1.839 11.584 0 3.186 1.838 3.186 4.848 0 6.688-3.186 1.84-8.398 1.84-11.584 0" fill="#FFF" opacity=".5"/>
        <path d="M68.25 58.527c-1.912-1.104-1.912-2.909 0-4.013 1.91-1.103 5.039-1.103 6.95 0 1.912 1.104 1.912 2.91 0 4.013-1.911 1.104-5.04 1.104-6.95 0" fill="#FFF"/>
        <path d="M71.724 56.132V35.855" stroke="#FFF" stroke-linecap="round" stroke-linejoin="round"/>
        <path d="M112.147 98.032l9.289 5.362c2.183 1.261 3.969.23 3.969-2.292V45.483c0-2.52-1.786-5.616-3.97-6.877" stroke="#F6C364" stroke-linecap="round" stroke-linejoin="round" stroke-dasharray="2,3,0,0"/>
        <path d="M27.41 79.998l-9.636 5.563" stroke="#7CD1DF" stroke-linecap="round" stroke-linejoin="round" stroke-dasharray="2,3,0,0"/>
        <path d="M17.774 85.561c-.315.182-.622.315-.916.404" stroke="#7CD1DF" stroke-linecap="round" stroke-linejoin="round"/>
        <path d="M14.243 85.105c-.28-.465-.44-1.085-.44-1.836V49.01c0-2.522 1.787-5.616 3.97-6.877l39.008-22.52" stroke="#7CD1DF" stroke-linecap="round" stroke-linejoin="round" stroke-dasharray="1.988,2.982,0,0"/>
        <path d="M56.782 19.61l.867-.5" stroke="#7CD1DF" stroke-linecap="round" stroke-linejoin="round"/>
        <path d="M121.435 38.607l-.866-.5" stroke="#F6C364" stroke-linecap="round" stroke-linejoin="round"/>
        <path d="M118.004 36.626l-34.21-19.752" stroke="#F6C364" stroke-linecap="round" stroke-linejoin="round" stroke-dasharray="1.975,2.963,0,0"/>
        <path d="M83.793 16.874l-.866-.5" stroke="#F6C364" stroke-linecap="round" stroke-linejoin="round"/>
        <path d="M71.724 35.884c-.584 0-1.159-.154-1.666-.445l-2.443-1.411h-2.82c-1.187 0-2.293-.64-2.887-1.665l-1.41-2.446-2.443-1.41c-1.027-.59-1.666-1.697-1.666-2.885V22.8l-1.41-2.442c-.594-1.031-.593-2.306-.002-3.331l1.412-2.445v-2.821c0-1.19.64-2.296 1.67-2.887l2.44-1.41 1.408-2.442c.595-1.03 1.701-1.666 2.887-1.666h2.821l2.442-1.411c.506-.291 1.083-.446 1.667-.446.584 0 1.16.155 1.667.447l2.442 1.41h2.821c1.188 0 2.295.639 2.887 1.67l1.407 2.439 2.445 1.41c1.027.59 1.665 1.697 1.665 2.886v2.82l1.413 2.445c.592 1.025.592 2.303 0 3.333l-1.41 2.44v2.82c0 1.189-.64 2.297-1.67 2.888l-2.44 1.409-1.41 2.444c-.595 1.028-1.7 1.667-2.887 1.667h-2.82l-2.443 1.41c-.502.29-1.08.446-1.667.446" fill="#00BEA5"/>
        <path d="M71.724 35.884c-.584 0-1.159-.154-1.666-.445l-2.443-1.411h-2.82c-1.187 0-2.293-.64-2.887-1.665l-1.41-2.446-2.443-1.41c-1.027-.59-1.666-1.697-1.666-2.885V22.8l-1.41-2.442c-.594-1.031-.593-2.306-.002-3.331l1.412-2.445v-2.821c0-1.19.64-2.296 1.67-2.887l2.44-1.41 1.408-2.442c.595-1.03 1.701-1.666 2.887-1.666h2.821l2.442-1.411c.506-.291 1.083-.446 1.667-.446.584 0 1.16.155 1.667.447l2.442 1.41h2.821c1.188 0 2.295.639 2.887 1.67l1.407 2.439 2.445 1.41c1.027.59 1.665 1.697 1.665 2.886v2.82l1.413 2.445c.592 1.025.592 2.303 0 3.333l-1.41 2.44v2.82c0 1.189-.64 2.297-1.67 2.888l-2.44 1.409-1.41 2.444c-.595 1.028-1.7 1.667-2.887 1.667h-2.82l-2.443 1.41c-.502.29-1.08.446-1.667.446" stroke="#33475C" stroke-linecap="round" stroke-linejoin="round"/>
        <path d="M71.724 35.884c-.584 0-1.159-.154-1.666-.445l-2.443-1.411h-2.82c-1.187 0-2.293-.64-2.887-1.665l-1.41-2.446-2.443-1.41c-1.027-.59-1.666-1.697-1.666-2.885V22.8l-1.41-2.442c-.594-1.031-.593-2.306-.002-3.331l1.412-2.445v-2.821c0-1.19.64-2.296 1.67-2.887l2.44-1.41 1.408-2.442c.595-1.03 1.701-1.666 2.887-1.666h2.821l2.442-1.411c.506-.291 1.083-.446 1.667-.446.584 0 1.16.155 1.667.447l2.442 1.41h2.821c1.188 0 2.295.639 2.887 1.67l1.407 2.439 2.445 1.41c1.027.59 1.665 1.697 1.665 2.886v2.82l1.413 2.445c.592 1.025.592 2.303 0 3.333l-1.41 2.44v2.82c0 1.189-.64 2.297-1.67 2.888l-2.44 1.409-1.41 2.444c-.595 1.028-1.7 1.667-2.887 1.667h-2.82l-2.443 1.41c-.502.29-1.08.446-1.667.446" fill="#00BEA5"/>
        <path d="M71.724 35.884c-.584 0-1.159-.154-1.666-.445l-2.443-1.411h-2.82c-1.187 0-2.293-.64-2.887-1.665l-1.41-2.446-2.443-1.41c-1.027-.59-1.666-1.697-1.666-2.885V22.8l-1.41-2.442c-.594-1.031-.593-2.306-.002-3.331l1.412-2.445v-2.821c0-1.19.64-2.296 1.67-2.887l2.44-1.41 1.408-2.442c.595-1.03 1.701-1.666 2.887-1.666h2.821l2.442-1.411c.506-.291 1.083-.446 1.667-.446.584 0 1.16.155 1.667.447l2.442 1.41h2.821c1.188 0 2.295.639 2.887 1.67l1.407 2.439 2.445 1.41c1.027.59 1.665 1.697 1.665 2.886v2.82l1.413 2.445c.592 1.025.592 2.303 0 3.333l-1.41 2.44v2.82c0 1.189-.64 2.297-1.67 2.888l-2.44 1.409-1.41 2.444c-.595 1.028-1.7 1.667-2.887 1.667h-2.82l-2.443 1.41c-.502.29-1.08.446-1.667.446" stroke="#33475C" stroke-width="3" stroke-linecap="round" stroke-linejoin="round"/>
        <path d="M69.5 25.635c-.41 0-.794-.16-1.083-.45l-3.99-3.99c-.289-.288-.449-.67-.449-1.081 0-.41.16-.793.448-1.083.596-.596 1.568-.596 2.165 0L69.5 21.94l7.358-7.358c.595-.596 1.567-.597 2.164-.001.598.597.598 1.568.001 2.164l-8.44 8.44c-.286.286-.68.45-1.083.45" fill="#FFF"/>
    </g>
</svg>
