<svg width="136" height="170" viewBox="0 0 136 170" xmlns="http://www.w3.org/2000/svg">
    <g fill="none" fill-rule="evenodd">
        <path d="M66.077 92.606c2.454-1.416 6.469-1.416 8.923 0l59.168 34.161c2.454 1.417 2.44 3.713-.028 5.103l-64.188 36.127c-2.47 1.39-6.51 1.39-8.98 0L1.86 134.8c-2.47-1.389-2.481-3.685-.028-5.102l64.245-37.092z" fill-opacity=".5" fill="#FBE1B2"/>
        <path d="M126.498 116.75L64.04 80.69l-16.855 9.732L18.1 107.216l-14.568 8.41c-.63.363-.943.842-.943 1.32 0 .479.314.957.943 1.32l59.732 34.487c1.258.727 3.316.727 4.574 0l14.567-8.41 29.088-16.794 8.479-4.895c2.386-1.38 4.617-3.457 6.526-5.903zM127.674 112.413l2.332-1.347c1.611-3.378 2.582-6.975 2.582-10.269V41.257c0-1.452-1.029-3.235-2.287-3.961L70.571 2.809c-.63-.363-1.203-.395-1.617-.156l-4.242 2.449 3.57 6.084v60.173c0 1.452 1.03 3.236 2.288 3.961l53.447 30.859 3.657 6.234z" stroke="#33475C" stroke-width="5" stroke-linecap="round" stroke-linejoin="round"/>
        <path d="M128.033 42.218c-.101-.261-.216-.52-.358-.765-.383-.663-.903-1.238-1.475-1.61-.047-.031-.092-.07-.141-.098L108.314 29.5 66.328 5.259c-.157-.091-.312-.161-.46-.211-.01-.004-.02-.004-.03-.007-.137-.044-.271-.075-.398-.087-.03-.002-.055.006-.084.005-.105-.003-.21-.004-.304.016-.082.016-.154.053-.228.086-.476.21-.783.732-.783 1.518V73.809c0 1.452 1.029 3.234 2.287 3.96l2.455 1.419c-2.955-1.706-4.742-2.74-4.742-2.74L47.186 86.18l-29.087 16.794-14.567 8.41c-.63.363-.943.842-.943 1.32 0 .479.314.957.943 1.32l59.73 34.487c1.259.727 3.318.727 4.576 0l12.709-7.337 1.858-1.073 29.088-16.794 4.235-2.445c3.47-2.003 6.624-5.464 8.91-9.425 2.289-3.962 3.708-8.425 3.708-12.432V43.706c0-.476-.12-.988-.313-1.488z" stroke="#33475C" stroke-width="5" stroke-linecap="round" stroke-linejoin="round"/>
        <path stroke="#33475C" stroke-width="5" stroke-linecap="round" stroke-linejoin="round" d="M64.04 14.872l64.307 37.127v12.242L64.04 27.114zM64.04 63.59v24.008"/>
        <path d="M128.346 43.706c0-1.452-1.029-3.234-2.287-3.961L66.327 5.259c-.628-.364-1.2-.397-1.615-.157-.415.24-.672.75-.672 1.477v8.293l64.306 37.127v-8.293z" stroke="#33475C" stroke-width="5" stroke-linecap="round" stroke-linejoin="round"/>
        <path d="M74.279 17.41c.997.576 1.813.104 1.813-1.047 0-1.15-.816-2.565-1.813-3.14-.997-.577-1.813-.106-1.813 1.046 0 1.152.816 2.566 1.813 3.141M68.51 14.079c.997.576 1.812.105 1.812-1.047 0-1.151-.815-2.565-1.813-3.14-.997-.577-1.813-.105-1.813 1.046 0 1.152.816 2.566 1.813 3.141M123.202 41.518l-13.621-7.864-15.391-8.886-13.621-7.864c-.972-.562-1.768-.102-1.77 1.021v.001c.002 1.124.798 2.503 1.77 3.065l13.62 7.864 15.392 8.886 13.62 7.864c.975.561 1.77.102 1.77-1.022 0-1.125-.795-2.503-1.77-3.065zM69.322 60.737l25.545 14.748M94.867 58.293L69.322 43.545v5.397L94.867 63.69zM94.867 81.485L69.322 66.737M122.43 82.002l-22.325-12.89M98.42 86.935l24.01 13.861V95.4L98.42 81.54zM122.43 67.808l-21.536-12.434M94.867 51.894L69.322 37.146M64.04 72.762v1.047c0 1.452 1.03 3.234 2.288 3.96-1.46-.841-2.287-1.32-2.287-1.32l-16.854 9.73-1.218.705 64.305 37.127 1.219-.704 4.236-2.445c3.469-2.003 6.624-5.464 8.91-9.425.536-.927 1.018-1.882 1.45-2.851L64.042 72.762zM13.435 110.063l17.142 9.896M26.178 103.655l17.142 9.897M33.203 103.36l-19.34 11.166M43.62 109.429l-19.341 11.166M48.289 131.039l17.142 9.896M61.03 124.63l17.144 9.898M72.044 118.486l17.142 9.897M80.615 113.21l17.142 9.897M96.835 119.803L59.132 141.57M86.213 113.853l-37.497 21.648" stroke="#33475C" stroke-width="5" stroke-linecap="round" stroke-linejoin="round"/>
        <path d="M130.301 37.296L70.571 2.81c-.63-.364-1.203-.396-1.617-.157l-4.242 2.449c.415-.24.986-.206 1.615.157l59.732 34.486c1.258.727 2.287 2.509 2.287 3.96v55.299c0 8.015-5.679 17.85-12.619 21.858L70.974 146.7l-3.137 1.81c-1.258.727-3.316.727-4.574 0L3.531 114.026c-.628-.364-.943-.842-.943-1.321v4.242c0 .479.315.957.943 1.32l58.346 33.686 1.386.8c.146.085.305.158.471.223 1.255.492 2.99.42 4.102-.221l52.132-30.1.005-.002c.415-.24.824-.502 1.228-.782.176-.12.346-.257.52-.385.224-.166.45-.328.67-.505.223-.18.441-.374.66-.566.16-.14.32-.272.477-.417.253-.233.501-.48.748-.726.111-.113.223-.221.334-.335.274-.286.542-.581.807-.883.072-.081.145-.161.215-.244.29-.335.57-.68.845-1.033l.12-.153c.293-.381.578-.77.855-1.167l.05-.071c.29-.42.572-.848.843-1.284l.001-.001v-.001c1.538-2.474 2.736-5.173 3.46-7.865.042-.152.085-.304.124-.458.067-.27.126-.54.183-.81.05-.233.097-.465.14-.697.04-.227.08-.453.112-.68.044-.293.078-.584.11-.875.017-.175.04-.35.054-.523.036-.47.06-.935.06-1.394V41.257c0-1.452-1.03-3.234-2.288-3.961z" stroke="#33475C" stroke-width="5" stroke-linecap="round" stroke-linejoin="round"/>
        <path d="M85.733 110.996l1.112-5.347-.103-.118-.503-.603c-1.656-1.994-3.215-3.869-5.318-3.869-.217 0-.442.019-.673.059-.292.052-.62.15-1.021.309-.388 1.068-1.141 2.018-2.007 2.518-.434.252-.87.379-1.295.379-.255 0-.498-.046-.723-.138l-.467.46-3.124-1.804.445-.46c.785-.812 1.558-1.518 2.299-2.1.423-.942 1.098-1.729 1.866-2.172.425-.245.873-.375 1.297-.375.344 0 .662.082.946.243.428-.142.818-.244 1.185-.307.441-.077.882-.116 1.309-.116 2.971 0 5.072 1.818 6.792 3.75l2.972-14.294 1.823 1.053-3.156 15.177.032.039c1.632 1.941 3.092 2.844 4.595 2.844.339 0 .688-.048 1.04-.142.427-.835 1.055-1.531 1.748-1.93.423-.245.851-.369 1.271-.369.155 0 .306.017.454.051 1.847-1.861 3.664-4.708 5.404-8.467l.231-.497 3.042 1.757-.195.416c-2.221 4.752-4.629 8.218-7.156 10.306-.372 1.116-1.147 2.117-2.051 2.639-.433.25-.869.378-1.295.378-.347 0-.672-.085-.963-.254-.191-.111-.36-.257-.503-.437-.34.049-.68.073-1.015.073-1.885 0-3.73-.77-5.495-2.292l-.976 4.693-1.824-1.053z" stroke="#33475C" stroke-width="5" stroke-linecap="round" stroke-linejoin="round"/>
        <path d="M90.374 86.232l-.281 1.354-2.635 12.667c-1.671-1.726-3.71-3.199-6.5-3.199-.455 0-.925.042-1.395.123-.332.058-.681.145-1.057.263-.305-.135-.642-.205-.987-.205-.511 0-1.047.152-1.548.443-.826.476-1.552 1.3-2.02 2.286-.73.581-1.486 1.277-2.254 2.071l-.89.921 1.109.64 2.24 1.293.656.38.527-.515c.188.046.385.07.587.07.513 0 1.033-.15 1.545-.446.903-.522 1.695-1.478 2.142-2.563.277-.102.515-.168.72-.204.2-.034.397-.052.588-.052 1.869 0 3.286 1.705 4.927 3.68l.459.55-.99 4.752-.146.708.626.361.912.526 1.197.692.28-1.354.67-3.215c1.663 1.255 3.397 1.89 5.172 1.89.272 0 .545-.016.82-.046.136.133.286.247.45.341.367.213.774.321 1.212.321.514 0 1.034-.15 1.546-.446.965-.557 1.798-1.602 2.225-2.775 2.546-2.143 4.962-5.637 7.184-10.389l.388-.83-.794-.459-2.171-1.254-.95-.548-.458.993c-1.66 3.583-3.381 6.318-5.127 8.141-.091-.01-.184-.016-.278-.016-.51 0-1.02.148-1.521.438-.716.412-1.367 1.101-1.831 1.927-.24.051-.473.077-.706.077-1.29 0-2.628-.825-4.088-2.52l3.033-14.584.147-.709-.626-.36-.912-.528-1.197-.69zm.697 1.558l.91.526-3.13 15.06.187.224c1.714 2.04 3.319 3.024 4.979 3.024.459 0 .922-.076 1.393-.225.365-.797.958-1.519 1.645-1.914.35-.204.698-.303 1.02-.303.208 0 .405.041.589.121 1.957-1.89 3.898-4.885 5.724-8.826l2.17 1.254c-2.227 4.765-4.618 8.191-7.134 10.225-.304 1.017-1.018 2.006-1.87 2.498-.36.208-.713.311-1.044.311-.255 0-.496-.06-.712-.186-.223-.129-.394-.32-.522-.55-.418.08-.834.12-1.248.12-1.991 0-3.93-.92-5.804-2.758l-1.015 4.88-.912-.527 1.09-5.24c-.087-.099-.175-.19-.262-.294l-.502-.603c-1.726-2.077-3.361-4.048-5.702-4.048-.244 0-.497.022-.758.067-.426.074-.876.231-1.336.424-.31 1.003-1.015 1.976-1.856 2.462-.36.207-.714.312-1.045.312-.255 0-.495-.062-.711-.187-.033-.019-.058-.05-.09-.072-.156.145-.313.305-.47.458l-2.24-1.294c.772-.798 1.559-1.52 2.349-2.13.357-.853.979-1.637 1.707-2.055.355-.206.714-.309 1.048-.309.255 0 .497.06.709.184.055.032.098.08.148.12.46-.166.916-.299 1.359-.376.424-.075.83-.109 1.223-.109 3.162 0 5.316 2.255 7.075 4.343L91.07 87.79z" stroke="#33475C" stroke-width="5" stroke-linecap="round" stroke-linejoin="round"/>
        <path d="M96.456 99.98c-.275 0-.53-.068-.758-.2-.501-.289-.79-.839-.79-1.507 0-.562.208-1.165.576-1.692l-3.067-8.593 2.675 1.546 1.893 5.302.86-3.712 1.81 1.044-.954 4.124c.124.252.19.538.19.837 0 .997-.627 2.083-1.491 2.581-.304.176-.631.27-.944.27z" stroke="#33475C" stroke-width="5" stroke-linecap="round" stroke-linejoin="round"/>
        <path d="M91.488 86.876l.915 2.563 2.527 7.078c-.335.556-.521 1.173-.521 1.756 0 .839.39 1.565 1.04 1.94.298.174.646.267 1.007.267.4 0 .813-.116 1.193-.334 1.01-.583 1.74-1.852 1.74-3.016 0-.311-.055-.61-.163-.886l.833-3.601.167-.722-.64-.37-.907-.523-1.17-.674-.303 1.315-.323 1.394-1.258-3.524-.124-.347-.32-.183-1.336-.772-2.357-1.361zm1.857 2.227l1.337.772 2.196 6.148c.124-.047.247-.081.367-.091l.934-4.037.907.522-.916 3.954c.137.204.22.46.22.759 0 .816-.533 1.74-1.24 2.148-.232.134-.471.202-.694.202-.182 0-.354-.043-.506-.132-.344-.2-.541-.59-.541-1.075 0-.554.258-1.147.637-1.605l-2.701-7.565zM118.09 109.586c-18.556-10.713-22.67-13.09-47.326-27.323M118.09 109.586c-18.556-10.713-22.67-13.09-47.326-27.323M108.677 110.247L71.515 88.792M108.677 110.247L71.515 88.792M108.184 116.153L63.606 90.416M108.184 116.153L63.606 90.416M32.127 124.554l8.486-4.9 8.489 4.9-8.488 4.899zM45.68 117.219l8.486-4.9 8.487 4.9-8.487 4.899zM59.363 109.617l8.486-4.899 8.487 4.9-8.487 4.9zM59.363 27.176l8.486-4.9 8.487 4.9-8.487 4.899z" stroke="#33475C" stroke-width="5" stroke-linecap="round" stroke-linejoin="round"/>
        <path stroke="#33475C" stroke-width="5" stroke-linecap="round" stroke-linejoin="round" d="M76.335 27.176l-8.485 4.899v64.209l8.486-4.9zM59.363 27.176l8.486 4.899v64.209l-8.486-4.9z"/>
        <path stroke="#33475C" stroke-width="5" stroke-linecap="round" stroke-linejoin="round" d="M45.68 54.397l8.486-4.899 8.487 4.9-8.487 4.898z"/>
        <path stroke="#33475C" stroke-width="5" stroke-linecap="round" stroke-linejoin="round" d="M62.653 54.397l-8.486 4.9v50.83l8.486-4.899zM45.68 54.397l8.486 4.9v50.83l-8.486-4.899z"/>
        <path stroke="#33475C" stroke-width="5" stroke-linecap="round" stroke-linejoin="round" d="M32.127 89.653l8.486-4.9 8.489 4.9-8.488 4.9zM32.127 119.05l8.486-4.898 8.489 4.899-8.488 4.899z"/>
        <path stroke="#33475C" stroke-width="5" stroke-linecap="round" stroke-linejoin="round" d="M49.101 89.653l-8.487 4.9v29.397l8.487-4.9zM32.127 89.653l8.486 4.9v29.397l-8.486-4.9zM75.379 61.242l16.444-9.494c.62-.359 1.186-.392 1.595-.155l2.147 1.24c.41.236.665.741.665 1.458v13.961c0 1.433-1.017 3.192-2.258 3.91l-5.18 2.99-2.505 5.58-2.507-2.687-6.254 3.611c-.62.358-1.183.391-1.593.154l-2.149-1.24c-.409-.236-.663-.74-.663-1.458v-13.96c0-1.434 1.017-3.193 2.258-3.91z"/>
        <path d="M73.122 65.151c0-1.434 1.016-3.192 2.257-3.909l16.445-9.494c.62-.359 1.185-.392 1.594-.156l2.148 1.241c-.41-.237-.972-.203-1.593.155l-16.446 9.494c-1.241.717-2.257 2.476-2.257 3.91v13.961c0 .716.254 1.221.664 1.457l-2.15-1.24c-.408-.236-.662-.74-.662-1.458v-13.96z" stroke="#33475C" stroke-width="5" stroke-linecap="round" stroke-linejoin="round"/>
        <path d="M75.379 61.242l16.444-9.494c.62-.359 1.186-.392 1.595-.155l2.147 1.24c.41.236.665.741.665 1.458v13.961c0 1.433-1.017 3.192-2.258 3.91l-5.18 2.99-2.505 5.58-2.507-2.687-6.254 3.611c-.62.358-1.183.391-1.593.154l-2.149-1.24c-.409-.236-.663-.74-.663-1.458v-13.96c0-1.434 1.017-3.193 2.258-3.91zM79.11 71.112l13.13-7.58M79.11 75.408l10.259-5.923M79.11 66.543l7.75-4.475M56.333 118.486L73.63 133.2l3.882-19.347 6.536 10.157 8.205-39.452 4.936 13.827 8.278-35.749 13.803 39.052" stroke="#33475C" stroke-width="5" stroke-linecap="round" stroke-linejoin="round"/>
        <path d="M106.473 62.799c0 .63-.443 1.399-.99 1.715-.548.315-.99.059-.99-.571 0-.632.442-1.4.99-1.716.547-.316.99-.06.99.572zM120.338 101.09c0 .633-.444 1.4-.99 1.717-.547.315-.99.059-.99-.572s.442-1.4.99-1.715c.546-.316.99-.06.99.57zM97.89 97.13c0 .632-.443 1.399-.99 1.715-.547.316-.99.06-.99-.571 0-.632.443-1.4.99-1.715.547-.317.99-.061.99.57zM93.268 84.586c0 .63-.443 1.399-.99 1.715-.547.316-.99.059-.99-.571 0-.632.443-1.4.99-1.716.547-.316.99-.06.99.572zM85.345 122.879c0 .63-.443 1.399-.99 1.715-.547.315-.99.059-.99-.571 0-.632.443-1.401.99-1.716.547-.316.99-.06.99.572zM78.744 113.636c0 .63-.443 1.399-.99 1.715-.547.315-.99.059-.99-.571 0-.632.443-1.4.99-1.716.547-.316.99-.06.99.572zM74.782 132.121c0 .632-.443 1.4-.99 1.716-.547.315-.99.059-.99-.572s.443-1.4.99-1.715c.547-.316.99-.06.99.571zM57.617 118.257c0 .632-.443 1.399-.99 1.716-.547.315-.99.059-.99-.572 0-.632.443-1.4.99-1.715.547-.317.99-.061.99.57z" stroke="#33475C" stroke-width="5" stroke-linecap="round" stroke-linejoin="round"/>
        <path d="M60.267 135.908c.855-5.51 2.346-11.24 4.407-16.955 1.517-4.202 3.4-8.499 6.041-12.22 2.642-3.723 6.16-6.805 9.234-7.339 3.754-.652 5.956 2.425 8.132 5.011 2.176 2.587 5.213 4.823 9.19 2.543 3.694-2.118 6.672-7.302 8.745-12.028 6.274-14.303 8.415-28.665 10.156-42.418" stroke="#33475C" stroke-width="5" stroke-linecap="round" stroke-linejoin="round"/>
        <path d="M117.949 51.477c0 1.133-.795 2.51-1.776 3.077-.982.566-1.778.107-1.778-1.026s.796-2.511 1.778-3.078c.98-.567 1.776-.108 1.776 1.026zM112.232 81.185c0 1.134-.796 2.512-1.777 3.078-.982.567-1.778.108-1.778-1.026 0-1.133.796-2.51 1.778-3.077.981-.567 1.777-.108 1.777 1.025zM99.08 105.944c0 1.133-.794 2.511-1.775 3.077-.982.567-1.778.108-1.778-1.025 0-1.134.796-2.512 1.778-3.078.98-.567 1.776-.108 1.776 1.026zM78.498 100.002c0 1.133-.796 2.51-1.777 3.078-.982.567-1.777.108-1.777-1.026 0-1.133.795-2.511 1.777-3.077.98-.568 1.777-.108 1.777 1.025zM62.044 134.882c0 1.133-.795 2.51-1.776 3.078-.983.567-1.779.107-1.779-1.026s.797-2.511 1.779-3.077c.98-.568 1.776-.108 1.776 1.025z" stroke="#33475C" stroke-width="5" stroke-linecap="round" stroke-linejoin="round"/>
        <path d="M126.498 116.75L64.04 80.69l-16.855 9.732L18.1 107.216l-14.568 8.41c-.63.363-.943.842-.943 1.32 0 .479.314.957.943 1.32l59.732 34.487c1.258.727 3.316.727 4.574 0l14.567-8.41 29.088-16.794 8.479-4.895c2.386-1.38 4.617-3.457 6.526-5.903" fill="#FFF"/>
        <path d="M126.498 116.75L64.04 80.69l-16.855 9.732L18.1 107.216l-14.568 8.41c-.63.363-.943.842-.943 1.32 0 .479.314.957.943 1.32l59.732 34.487c1.258.727 3.316.727 4.574 0l14.567-8.41 29.088-16.794 8.479-4.895c2.386-1.38 4.617-3.457 6.526-5.903z" stroke="#33475C" stroke-linecap="round" stroke-linejoin="round"/>
        <path d="M127.674 112.413l2.332-1.347c1.611-3.378 2.582-6.975 2.582-10.269V41.257c0-1.452-1.029-3.235-2.287-3.961L70.571 2.809c-.63-.363-1.203-.395-1.617-.156l-4.242 2.449 3.57 6.084v60.173c0 1.452 1.03 3.236 2.288 3.961l53.447 30.859 3.657 6.234z" fill="#CBD6E3"/>
        <path d="M127.674 112.413l2.332-1.347c1.611-3.378 2.582-6.975 2.582-10.269V41.257c0-1.452-1.029-3.235-2.287-3.961L70.571 2.809c-.63-.363-1.203-.395-1.617-.156l-4.242 2.449 3.57 6.084v60.173c0 1.452 1.03 3.236 2.288 3.961l53.447 30.859 3.657 6.234z" stroke="#33475C" stroke-linecap="round" stroke-linejoin="round"/>
        <path d="M128.033 42.218c-.101-.261-.216-.52-.358-.765-.383-.663-.903-1.238-1.475-1.61-.047-.031-.092-.07-.141-.098L108.314 29.5 66.328 5.259c-.157-.091-.312-.161-.46-.211-.01-.004-.02-.004-.03-.007-.137-.044-.271-.075-.398-.087-.03-.002-.055.006-.084.005-.105-.003-.21-.004-.304.016-.082.016-.154.053-.228.086-.476.21-.783.732-.783 1.518V73.809c0 1.452 1.029 3.234 2.287 3.96l2.455 1.419c-2.955-1.706-4.742-2.74-4.742-2.74L47.186 86.18l-29.087 16.794-14.567 8.41c-.63.363-.943.842-.943 1.32 0 .479.314.957.943 1.32l59.73 34.487c1.259.727 3.318.727 4.576 0l12.709-7.337 1.858-1.073 29.088-16.794 4.235-2.445c3.47-2.003 6.624-5.464 8.91-9.425 2.289-3.962 3.708-8.425 3.708-12.432V43.706c0-.476-.12-.988-.313-1.488" fill="#FFF"/>
        <path d="M128.033 42.218c-.101-.261-.216-.52-.358-.765-.383-.663-.903-1.238-1.475-1.61-.047-.031-.092-.07-.141-.098L108.314 29.5 66.328 5.259c-.157-.091-.312-.161-.46-.211-.01-.004-.02-.004-.03-.007-.137-.044-.271-.075-.398-.087-.03-.002-.055.006-.084.005-.105-.003-.21-.004-.304.016-.082.016-.154.053-.228.086-.476.21-.783.732-.783 1.518V73.809c0 1.452 1.029 3.234 2.287 3.96l2.455 1.419c-2.955-1.706-4.742-2.74-4.742-2.74L47.186 86.18l-29.087 16.794-14.567 8.41c-.63.363-.943.842-.943 1.32 0 .479.314.957.943 1.32l59.73 34.487c1.259.727 3.318.727 4.576 0l12.709-7.337 1.858-1.073 29.088-16.794 4.235-2.445c3.47-2.003 6.624-5.464 8.91-9.425 2.289-3.962 3.708-8.425 3.708-12.432V43.706c0-.476-.12-.988-.313-1.488z" stroke="#33475C" stroke-linecap="round" stroke-linejoin="round"/>
        <path fill="#E5F5F8" d="M64.04 14.872l64.307 37.127v12.242L64.04 27.114z"/>
        <path stroke="#33475C" d="M64.04 14.872l64.307 37.127v12.242L64.04 27.114z"/>
        <path d="M64.04 63.59v24.008" fill="#FFF"/>
        <path d="M64.04 63.59v24.008" stroke="#33475C" stroke-linecap="round" stroke-linejoin="round"/>
        <path d="M128.346 43.706c0-1.452-1.029-3.234-2.287-3.961L66.327 5.259c-.628-.364-1.2-.397-1.615-.157-.415.24-.672.75-.672 1.477v8.293l64.306 37.127v-8.293z" fill="#E4EAEF"/>
        <path d="M128.346 43.706c0-1.452-1.029-3.234-2.287-3.961L66.327 5.259c-.628-.364-1.2-.397-1.615-.157-.415.24-.672.75-.672 1.477v8.293l64.306 37.127v-8.293z" stroke="#33475C"/>
        <path d="M74.279 17.41c.997.576 1.813.104 1.813-1.047 0-1.15-.816-2.565-1.813-3.14-.997-.577-1.813-.106-1.813 1.046 0 1.152.816 2.566 1.813 3.141" fill="#40CEBB"/>
        <path d="M68.51 14.079c.997.576 1.812.105 1.812-1.047 0-1.151-.815-2.565-1.813-3.14-.997-.577-1.813-.105-1.813 1.046 0 1.152.816 2.566 1.813 3.141" fill="#FFAB7D"/>
        <path d="M123.202 41.518l-13.621-7.864-15.391-8.886-13.621-7.864c-.972-.562-1.768-.102-1.77 1.021v.001c.002 1.124.798 2.503 1.77 3.065l13.62 7.864 15.392 8.886 13.62 7.864c.975.561 1.77.102 1.77-1.022 0-1.125-.795-2.503-1.77-3.065" fill="#FFF"/>
        <path d="M69.322 60.737l25.545 14.748" stroke="#EAF0F6" stroke-width="2" stroke-linecap="round" stroke-linejoin="round"/>
        <path stroke="#E5F5F8" stroke-linecap="round" stroke-linejoin="round" d="M94.867 58.293L69.322 43.545v5.397L94.867 63.69z"/>
        <path d="M94.867 81.485L69.322 66.737" stroke="#EAF0F6" stroke-linecap="round" stroke-linejoin="round"/>
        <path d="M122.43 82.002l-22.325-12.89M98.42 86.935l24.01 13.861V95.4L98.42 81.54zM122.43 67.808l-21.536-12.434" stroke="#E5F5F8" stroke-linecap="round" stroke-linejoin="round"/>
        <path d="M94.867 51.894L69.322 37.146" stroke="#E5F5F8" stroke-width="2" stroke-linecap="round" stroke-linejoin="round"/>
        <path d="M64.04 72.762v1.047c0 1.452 1.03 3.234 2.288 3.96-1.46-.841-2.287-1.32-2.287-1.32l-16.854 9.73-1.218.705 64.305 37.127 1.219-.704 4.236-2.445c3.469-2.003 6.624-5.464 8.91-9.425.536-.927 1.018-1.882 1.45-2.851L64.042 72.762" fill="#E5F5F8"/>
        <path d="M13.435 110.063l17.142 9.896M26.178 103.655l17.142 9.897M33.203 103.36l-19.34 11.166M43.62 109.429l-19.341 11.166M48.289 131.039l17.142 9.896M61.03 124.63l17.144 9.898M72.044 118.486l17.142 9.897M80.615 113.21l17.142 9.897M96.835 119.803L59.132 141.57M86.213 113.853l-37.497 21.648" stroke="#EAF0F6" stroke-linecap="round" stroke-linejoin="round"/>
        <path d="M130.301 37.296L70.571 2.81c-.63-.364-1.203-.396-1.617-.157l-4.242 2.449c.415-.24.986-.206 1.615.157l59.732 34.486c1.258.727 2.287 2.509 2.287 3.96v55.299c0 8.015-5.679 17.85-12.619 21.858L70.974 146.7l-3.137 1.81c-1.258.727-3.316.727-4.574 0L3.531 114.026c-.628-.364-.943-.842-.943-1.321v4.242c0 .479.315.957.943 1.32l58.346 33.686 1.386.8c.146.085.305.158.471.223 1.255.492 2.99.42 4.102-.221l52.132-30.1.005-.002c.415-.24.824-.502 1.228-.782.176-.12.346-.257.52-.385.224-.166.45-.328.67-.505.223-.18.441-.374.66-.566.16-.14.32-.272.477-.417.253-.233.501-.48.748-.726.111-.113.223-.221.334-.335.274-.286.542-.581.807-.883.072-.081.145-.161.215-.244.29-.335.57-.68.845-1.033l.12-.153c.293-.381.578-.77.855-1.167l.05-.071c.29-.42.572-.848.843-1.284l.001-.001v-.001c1.538-2.474 2.736-5.173 3.46-7.865.042-.152.085-.304.124-.458.067-.27.126-.54.183-.81.05-.233.097-.465.14-.697.04-.227.08-.453.112-.68.044-.293.078-.584.11-.875.017-.175.04-.35.054-.523.036-.47.06-.935.06-1.394V41.257c0-1.452-1.03-3.234-2.288-3.961" fill="#CBD6E3"/>
        <path d="M130.301 37.296L70.571 2.81c-.63-.364-1.203-.396-1.617-.157l-4.242 2.449c.415-.24.986-.206 1.615.157l59.732 34.486c1.258.727 2.287 2.509 2.287 3.96v55.299c0 8.015-5.679 17.85-12.619 21.858L70.974 146.7l-3.137 1.81c-1.258.727-3.316.727-4.574 0L3.531 114.026c-.628-.364-.943-.842-.943-1.321v4.242c0 .479.315.957.943 1.32l58.346 33.686 1.386.8c.146.085.305.158.471.223 1.255.492 2.99.42 4.102-.221l52.132-30.1.005-.002c.415-.24.824-.502 1.228-.782.176-.12.346-.257.52-.385.224-.166.45-.328.67-.505.223-.18.441-.374.66-.566.16-.14.32-.272.477-.417.253-.233.501-.48.748-.726.111-.113.223-.221.334-.335.274-.286.542-.581.807-.883.072-.081.145-.161.215-.244.29-.335.57-.68.845-1.033l.12-.153c.293-.381.578-.77.855-1.167l.05-.071c.29-.42.572-.848.843-1.284l.001-.001v-.001c1.538-2.474 2.736-5.173 3.46-7.865.042-.152.085-.304.124-.458.067-.27.126-.54.183-.81.05-.233.097-.465.14-.697.04-.227.08-.453.112-.68.044-.293.078-.584.11-.875.017-.175.04-.35.054-.523.036-.47.06-.935.06-1.394V41.257c0-1.452-1.03-3.234-2.288-3.961z" stroke="#33475C" stroke-linecap="round" stroke-linejoin="round"/>
        <path d="M90.374 86.232l-.281 1.354-2.635 12.667c-1.671-1.726-3.71-3.199-6.5-3.199-.455 0-.925.042-1.395.123-.332.058-.681.145-1.057.263-.305-.135-.642-.205-.987-.205-.511 0-1.047.152-1.548.443-.826.476-1.552 1.3-2.02 2.286-.73.581-1.486 1.277-2.254 2.071l-.89.921 1.109.64 2.24 1.293.656.38.527-.515c.188.046.385.07.587.07.513 0 1.033-.15 1.545-.446.903-.522 1.695-1.478 2.142-2.563.277-.102.515-.168.72-.204.2-.034.397-.052.588-.052 1.869 0 3.286 1.705 4.927 3.68l.459.55-.99 4.752-.146.708.626.361.912.526 1.197.692.28-1.354.67-3.215c1.663 1.255 3.397 1.89 5.172 1.89.272 0 .545-.016.82-.046.136.133.286.247.45.341.367.213.774.321 1.212.321.514 0 1.034-.15 1.546-.446.965-.557 1.798-1.602 2.225-2.775 2.546-2.143 4.962-5.637 7.184-10.389l.388-.83-.794-.459-2.171-1.254-.95-.548-.458.993c-1.66 3.583-3.381 6.318-5.127 8.141-.091-.01-.184-.016-.278-.016-.51 0-1.02.148-1.521.438-.716.412-1.367 1.101-1.831 1.927-.24.051-.473.077-.706.077-1.29 0-2.628-.825-4.088-2.52l3.033-14.584.147-.709-.626-.36-.912-.528-1.197-.69zm.697 1.558l.91.526-3.13 15.06.187.224c1.714 2.04 3.319 3.024 4.979 3.024.459 0 .922-.076 1.393-.225.365-.797.958-1.519 1.645-1.914.35-.204.698-.303 1.02-.303.208 0 .405.041.589.121 1.957-1.89 3.898-4.885 5.724-8.826l2.17 1.254c-2.227 4.765-4.618 8.191-7.134 10.225-.304 1.017-1.018 2.006-1.87 2.498-.36.208-.713.311-1.044.311-.255 0-.496-.06-.712-.186-.223-.129-.394-.32-.522-.55-.418.08-.834.12-1.248.12-1.991 0-3.93-.92-5.804-2.758l-1.015 4.88-.912-.527 1.09-5.24c-.087-.099-.175-.19-.262-.294l-.502-.603c-1.726-2.077-3.361-4.048-5.702-4.048-.244 0-.497.022-.758.067-.426.074-.876.231-1.336.424-.31 1.003-1.015 1.976-1.856 2.462-.36.207-.714.312-1.045.312-.255 0-.495-.062-.711-.187-.033-.019-.058-.05-.09-.072-.156.145-.313.305-.47.458l-2.24-1.294c.772-.798 1.559-1.52 2.349-2.13.357-.853.979-1.637 1.707-2.055.355-.206.714-.309 1.048-.309.255 0 .497.06.709.184.055.032.098.08.148.12.46-.166.916-.299 1.359-.376.424-.075.83-.109 1.223-.109 3.162 0 5.316 2.255 7.075 4.343L91.07 87.79z" fill="#FFF"/>
        <path d="M91.488 86.876l.915 2.563 2.527 7.078c-.335.556-.521 1.173-.521 1.756 0 .839.39 1.565 1.04 1.94.298.174.646.267 1.007.267.4 0 .813-.116 1.193-.334 1.01-.583 1.74-1.852 1.74-3.016 0-.311-.055-.61-.163-.886l.833-3.601.167-.722-.64-.37-.907-.523-1.17-.674-.303 1.315-.323 1.394-1.258-3.524-.124-.347-.32-.183-1.336-.772-2.357-1.361zm1.857 2.227l1.337.772 2.196 6.148c.124-.047.247-.081.367-.091l.934-4.037.907.522-.916 3.954c.137.204.22.46.22.759 0 .816-.533 1.74-1.24 2.148-.232.134-.471.202-.694.202-.182 0-.354-.043-.506-.132-.344-.2-.541-.59-.541-1.075 0-.554.258-1.147.637-1.605l-2.701-7.565z" fill="#FFF"/>
        <path d="M118.09 109.586c-18.556-10.713-22.67-13.09-47.326-27.323M108.677 110.247L71.515 88.792M108.184 116.153L63.606 90.416" stroke="#F8FCFD" stroke-linecap="round" stroke-linejoin="round"/>
        <path fill="#EAF0F6" d="M32.127 124.554l8.486-4.9 8.489 4.9-8.488 4.899zM45.68 117.219l8.486-4.9 8.487 4.9-8.487 4.899zM59.363 109.617l8.486-4.899 8.487 4.9-8.487 4.9z"/>
        <path fill="#E5F5F8" d="M59.363 27.176l8.486-4.9 8.487 4.9-8.487 4.899z"/>
        <path stroke="#33475C" stroke-linecap="round" stroke-linejoin="round" d="M59.363 27.176l8.486-4.9 8.487 4.9-8.487 4.899z"/>
        <path fill="#7CD1DF" d="M76.335 27.176l-8.485 4.899v64.209l8.486-4.9z"/>
        <path stroke="#33475C" stroke-linecap="round" stroke-linejoin="round" d="M76.335 27.176l-8.485 4.899v64.209l8.486-4.9z"/>
        <path fill="#40BBCE" d="M59.363 27.176l8.486 4.899v64.209l-8.486-4.9z"/>
        <path stroke="#33475C" stroke-linecap="round" stroke-linejoin="round" d="M59.363 27.176l8.486 4.899v64.209l-8.486-4.9z"/>
        <path fill="#E4F8F6" d="M45.68 54.397l8.486-4.899 8.487 4.9-8.487 4.898z"/>
        <path stroke="#33475C" stroke-linecap="round" stroke-linejoin="round" d="M45.68 54.397l8.486-4.899 8.487 4.9-8.487 4.898z"/>
        <path fill="#7BDED2" d="M62.653 54.397l-8.486 4.9v50.83l8.486-4.899z"/>
        <path stroke="#33475C" stroke-linecap="round" stroke-linejoin="round" d="M62.653 54.397l-8.486 4.9v50.83l8.486-4.899z"/>
        <path fill="#40CEBB" d="M45.68 54.397l8.486 4.9v50.83l-8.486-4.899z"/>
        <path stroke="#33475C" stroke-linecap="round" stroke-linejoin="round" d="M45.68 54.397l8.486 4.9v50.83l-8.486-4.899z"/>
        <path fill="#F0F1FA" d="M32.127 89.653l8.486-4.9 8.489 4.9-8.488 4.9z"/>
        <path stroke="#33475C" stroke-linecap="round" stroke-linejoin="round" d="M32.127 89.653l8.486-4.9 8.489 4.9-8.488 4.9z"/>
        <path fill="#E6EFF6" d="M32.127 119.05l8.486-4.898 8.489 4.899-8.488 4.899z"/>
        <path stroke="#33475C" stroke-linecap="round" stroke-linejoin="round" d="M32.127 119.05l8.486-4.898 8.489 4.899-8.488 4.899z"/>
        <path fill="#B4BAEA" d="M49.101 89.653l-8.487 4.9v29.397l8.487-4.9z"/>
        <path stroke="#33475C" stroke-linecap="round" stroke-linejoin="round" d="M49.101 89.653l-8.487 4.9v29.397l8.487-4.9z"/>
        <path fill="#8E98DF" d="M32.127 89.653l8.486 4.9v29.397l-8.486-4.9z"/>
        <path stroke="#33475C" stroke-linecap="round" stroke-linejoin="round" d="M32.127 89.653l8.486 4.9v29.397l-8.486-4.9z"/>
        <path d="M75.379 61.242l16.444-9.494c.62-.359 1.186-.392 1.595-.155l2.147 1.24c.41.236.665.741.665 1.458v13.961c0 1.433-1.017 3.192-2.258 3.91l-5.18 2.99-2.505 5.58-2.507-2.687-6.254 3.611c-.62.358-1.183.391-1.593.154l-2.149-1.24c-.409-.236-.663-.74-.663-1.458v-13.96c0-1.434 1.017-3.193 2.258-3.91" fill="#FCE9C6"/>
        <path d="M75.379 61.242l16.444-9.494c.62-.359 1.186-.392 1.595-.155l2.147 1.24c.41.236.665.741.665 1.458v13.961c0 1.433-1.017 3.192-2.258 3.91l-5.18 2.99-2.505 5.58-2.507-2.687-6.254 3.611c-.62.358-1.183.391-1.593.154l-2.149-1.24c-.409-.236-.663-.74-.663-1.458v-13.96c0-1.434 1.017-3.193 2.258-3.91z" stroke="#33475C" stroke-linecap="round" stroke-linejoin="round"/>
        <path d="M73.122 65.151c0-1.434 1.016-3.192 2.257-3.909l16.445-9.494c.62-.359 1.185-.392 1.594-.156l2.148 1.241c-.41-.237-.972-.203-1.593.155l-16.446 9.494c-1.241.717-2.257 2.476-2.257 3.91v13.961c0 .716.254 1.221.664 1.457l-2.15-1.24c-.408-.236-.662-.74-.662-1.458v-13.96z" fill="#F6C364"/>
        <path d="M75.379 61.242l16.444-9.494c.62-.359 1.186-.392 1.595-.155l2.147 1.24c.41.236.665.741.665 1.458v13.961c0 1.433-1.017 3.192-2.258 3.91l-5.18 2.99-2.505 5.58-2.507-2.687-6.254 3.611c-.62.358-1.183.391-1.593.154l-2.149-1.24c-.409-.236-.663-.74-.663-1.458v-13.96c0-1.434 1.017-3.193 2.258-3.91z" stroke="#33475C" stroke-linecap="round" stroke-linejoin="round"/>
        <path d="M79.11 71.112l13.13-7.58M79.11 75.408l10.259-5.923M79.11 66.543l7.75-4.475" stroke="#F6C364" stroke-width="1.5" stroke-linecap="round"/>
        <path stroke="#BDA9EA" stroke-linecap="round" stroke-linejoin="round" d="M56.333 118.486L73.63 133.2l3.882-19.347 6.536 10.157 8.205-39.452 4.936 13.827 8.278-35.749 13.803 39.052"/>
        <path d="M106.473 62.799c0 .63-.443 1.399-.99 1.715-.548.315-.99.059-.99-.571 0-.632.442-1.4.99-1.716.547-.316.99-.06.99.572" fill="#BDA9EA"/>
        <path d="M106.473 62.799c0 .63-.443 1.399-.99 1.715-.548.315-.99.059-.99-.571 0-.632.442-1.4.99-1.716.547-.316.99-.06.99.572z" stroke="#BDA9EA" stroke-linecap="round" stroke-linejoin="round"/>
        <path d="M120.338 101.09c0 .633-.444 1.4-.99 1.717-.547.315-.99.059-.99-.572s.442-1.4.99-1.715c.546-.316.99-.06.99.57" fill="#BDA9EA"/>
        <path d="M120.338 101.09c0 .633-.444 1.4-.99 1.717-.547.315-.99.059-.99-.572s.442-1.4.99-1.715c.546-.316.99-.06.99.57z" stroke="#BDA9EA" stroke-linecap="round" stroke-linejoin="round"/>
        <path d="M97.89 97.13c0 .632-.443 1.399-.99 1.715-.547.316-.99.06-.99-.571 0-.632.443-1.4.99-1.715.547-.317.99-.061.99.57" fill="#BDA9EA"/>
        <path d="M97.89 97.13c0 .632-.443 1.399-.99 1.715-.547.316-.99.06-.99-.571 0-.632.443-1.4.99-1.715.547-.317.99-.061.99.57z" stroke="#BDA9EA" stroke-linecap="round" stroke-linejoin="round"/>
        <path d="M93.268 84.586c0 .63-.443 1.399-.99 1.715-.547.316-.99.059-.99-.571 0-.632.443-1.4.99-1.716.547-.316.99-.06.99.572" fill="#BDA9EA"/>
        <path d="M93.268 84.586c0 .63-.443 1.399-.99 1.715-.547.316-.99.059-.99-.571 0-.632.443-1.4.99-1.716.547-.316.99-.06.99.572z" stroke="#BDA9EA" stroke-linecap="round" stroke-linejoin="round"/>
        <path d="M85.345 122.879c0 .63-.443 1.399-.99 1.715-.547.315-.99.059-.99-.571 0-.632.443-1.401.99-1.716.547-.316.99-.06.99.572" fill="#BDA9EA"/>
        <path d="M85.345 122.879c0 .63-.443 1.399-.99 1.715-.547.315-.99.059-.99-.571 0-.632.443-1.401.99-1.716.547-.316.99-.06.99.572z" stroke="#BDA9EA" stroke-linecap="round" stroke-linejoin="round"/>
        <path d="M78.744 113.636c0 .63-.443 1.399-.99 1.715-.547.315-.99.059-.99-.571 0-.632.443-1.4.99-1.716.547-.316.99-.06.99.572" fill="#BDA9EA"/>
        <path d="M78.744 113.636c0 .63-.443 1.399-.99 1.715-.547.315-.99.059-.99-.571 0-.632.443-1.4.99-1.716.547-.316.99-.06.99.572z" stroke="#BDA9EA" stroke-linecap="round" stroke-linejoin="round"/>
        <path d="M74.782 132.121c0 .632-.443 1.4-.99 1.716-.547.315-.99.059-.99-.572s.443-1.4.99-1.715c.547-.316.99-.06.99.571" fill="#BDA9EA"/>
        <path d="M74.782 132.121c0 .632-.443 1.4-.99 1.716-.547.315-.99.059-.99-.572s.443-1.4.99-1.715c.547-.316.99-.06.99.571z" stroke="#BDA9EA" stroke-linecap="round" stroke-linejoin="round"/>
        <path d="M57.617 118.257c0 .632-.443 1.399-.99 1.716-.547.315-.99.059-.99-.572 0-.632.443-1.4.99-1.715.547-.317.99-.061.99.57" fill="#BDA9EA"/>
        <path d="M57.617 118.257c0 .632-.443 1.399-.99 1.716-.547.315-.99.059-.99-.572 0-.632.443-1.4.99-1.715.547-.317.99-.061.99.57z" stroke="#BDA9EA" stroke-linecap="round" stroke-linejoin="round"/>
        <path d="M60.267 135.908c.855-5.51 2.346-11.24 4.407-16.955 1.517-4.202 3.4-8.499 6.041-12.22 2.642-3.723 6.16-6.805 9.234-7.339 3.754-.652 5.956 2.425 8.132 5.011 2.176 2.587 5.213 4.823 9.19 2.543 3.694-2.118 6.672-7.302 8.745-12.028 6.274-14.303 8.415-28.665 10.156-42.418" stroke="#FEA58E" stroke-width="2.5" stroke-linecap="round" stroke-linejoin="round"/>
        <path d="M117.949 51.477c0 1.133-.795 2.51-1.776 3.077-.982.566-1.778.107-1.778-1.026s.796-2.511 1.778-3.078c.98-.567 1.776-.108 1.776 1.026" fill="#FFF"/>
        <path d="M117.949 51.477c0 1.133-.795 2.51-1.776 3.077-.982.566-1.778.107-1.778-1.026s.796-2.511 1.778-3.078c.98-.567 1.776-.108 1.776 1.026z" stroke="#FEA58E" stroke-linecap="round" stroke-linejoin="round"/>
        <path d="M112.232 81.185c0 1.134-.796 2.512-1.777 3.078-.982.567-1.778.108-1.778-1.026 0-1.133.796-2.51 1.778-3.077.981-.567 1.777-.108 1.777 1.025" fill="#FFF"/>
        <path d="M112.232 81.185c0 1.134-.796 2.512-1.777 3.078-.982.567-1.778.108-1.778-1.026 0-1.133.796-2.51 1.778-3.077.981-.567 1.777-.108 1.777 1.025z" stroke="#FEA58E" stroke-linecap="round" stroke-linejoin="round"/>
        <path d="M99.08 105.944c0 1.133-.794 2.511-1.775 3.077-.982.567-1.778.108-1.778-1.025 0-1.134.796-2.512 1.778-3.078.98-.567 1.776-.108 1.776 1.026" fill="#FFF"/>
        <path d="M99.08 105.944c0 1.133-.794 2.511-1.775 3.077-.982.567-1.778.108-1.778-1.025 0-1.134.796-2.512 1.778-3.078.98-.567 1.776-.108 1.776 1.026z" stroke="#FEA58E" stroke-linecap="round" stroke-linejoin="round"/>
        <path d="M78.498 100.002c0 1.133-.796 2.51-1.777 3.078-.982.567-1.777.108-1.777-1.026 0-1.133.795-2.511 1.777-3.077.98-.568 1.777-.108 1.777 1.025" fill="#FFF"/>
        <path d="M78.498 100.002c0 1.133-.796 2.51-1.777 3.078-.982.567-1.777.108-1.777-1.026 0-1.133.795-2.511 1.777-3.077.98-.568 1.777-.108 1.777 1.025z" stroke="#FEA58E" stroke-linecap="round" stroke-linejoin="round"/>
        <path d="M62.044 134.882c0 1.133-.795 2.51-1.776 3.078-.983.567-1.779.107-1.779-1.026s.797-2.511 1.779-3.077c.98-.568 1.776-.108 1.776 1.025" fill="#FFF"/>
        <path d="M62.044 134.882c0 1.133-.795 2.51-1.776 3.078-.983.567-1.779.107-1.779-1.026s.797-2.511 1.779-3.077c.98-.568 1.776-.108 1.776 1.025z" stroke="#FEA58E" stroke-linecap="round" stroke-linejoin="round"/>
    </g>
</svg>
