<?xml version="1.0" standalone="no"?>
<!DOCTYPE svg PUBLIC "-//W3C//DTD SVG 20010904//EN"
 "http://www.w3.org/TR/2001/REC-SVG-20010904/DTD/svg10.dtd">
<svg version="1.0" xmlns="http://www.w3.org/2000/svg"
 width="1251.000000pt" height="1251.000000pt" viewBox="0 0 1251.000000 1251.000000"
 preserveAspectRatio="xMidYMid meet">

<g transform="translate(0.000000,1251.000000) scale(0.100000,-0.100000)"
fill="#053219" stroke="none">
<path d="M2935 11581 c-94 -23 -175 -98 -201 -187 -12 -44 -15 -105 -12 -346
3 -272 4 -296 24 -338 29 -62 78 -108 149 -141 102 -46 99 -38 100 -277 l0
-207 -215 -2 c-118 -1 -239 -4 -268 -8 -81 -10 -198 -74 -263 -142 -46 -50
-298 -358 -794 -972 -133 -164 -150 -196 -149 -276 0 -68 16 -105 65 -153 54
-53 105 -62 346 -62 l213 0 -2 -927 -3 -928 -195 0 c-164 -1 -203 -4 -245 -19
-139 -51 -198 -102 -381 -333 -86 -109 -284 -352 -438 -541 -155 -189 -293
-366 -308 -394 -74 -135 0 -290 151 -318 29 -5 165 -10 302 -10 l248 0 6 -32
c3 -18 4 -593 3 -1278 l-3 -1245 -33 -48 c-87 -125 -139 -288 -149 -464 -7
-123 -2 -115 -77 -128 -52 -9 -124 -46 -158 -82 -58 -61 -72 -113 -78 -293
l-5 -165 -81 -6 c-146 -11 -204 -61 -204 -174 0 -75 24 -118 85 -149 l40 -21
5845 0 5845 0 44 23 c24 13 57 38 72 55 25 27 29 40 29 90 0 71 -20 105 -88
144 l-47 28 -355 5 -355 5 -3 391 -2 392 87 7 c49 4 196 5 328 3 233 -3 241
-2 290 20 58 27 88 53 121 104 19 30 24 51 24 106 l0 68 -205 349 -204 349 50
53 c58 62 79 105 79 167 0 67 -23 116 -188 400 l-150 259 35 45 c70 92 85 152
59 233 -10 29 -124 237 -253 463 -130 225 -250 440 -267 476 l-31 65 -3 800
c-2 440 0 819 3 842 l6 42 397 3 c380 3 399 4 437 24 22 11 53 39 69 61 54 78
53 170 -5 253 -19 26 -387 430 -819 896 -432 467 -1180 1276 -1663 1799 -484
522 -898 966 -922 986 -71 58 -111 74 -190 74 -80 -1 -129 -21 -197 -83 -36
-33 -350 -368 -633 -675 -54 -60 -117 -118 -139 -130 l-41 -22 -1285 4 c-707
2 -1287 5 -1290 8 -3 2 -5 91 -4 197 0 229 -1 226 114 284 60 30 81 47 107 85
18 27 37 65 43 85 15 56 23 432 12 548 -12 120 -32 164 -98 223 -85 75 -31 71
-1123 70 -537 -1 -989 -4 -1006 -8z m1875 -516 l0 -165 -870 0 -870 0 0 165 0
165 870 0 870 0 0 -165z m5250 -2160 c839 -906 1527 -1651 1528 -1656 5 -13
-435 -11 -480 1 -42 12 -67 38 -660 681 -181 195 -347 367 -370 382 -49 32
-129 37 -166 11 -38 -26 -64 -91 -69 -173 l-6 -77 269 -290 c539 -582 649
-705 674 -751 l25 -47 3 -830 c2 -703 0 -837 -12 -873 -8 -23 -130 -241 -271
-483 -323 -556 -334 -577 -342 -638 -7 -59 24 -135 76 -191 l31 -33 -151 -265
c-84 -146 -160 -287 -170 -314 -38 -98 -21 -166 60 -252 l51 -54 -56 -94 c-31
-52 -90 -155 -131 -229 -42 -74 -98 -170 -125 -213 -73 -115 -88 -153 -88
-225 0 -96 44 -172 125 -215 36 -20 56 -22 190 -23 83 0 234 -1 338 -2 l187
-2 0 -395 0 -395 -475 0 -474 0 -3 658 -3 657 -23 43 c-32 59 -72 82 -148 82
-71 0 -115 -24 -148 -80 -21 -34 -21 -50 -24 -692 l-3 -658 -739 0 -740 0 0
1375 0 1375 739 0 740 0 3 -357 c3 -344 4 -360 25 -398 30 -56 74 -80 148 -80
75 0 122 25 149 80 18 36 19 64 19 444 0 275 -4 424 -12 462 -15 73 -57 128
-123 165 l-53 29 -901 0 -901 0 -49 -30 c-52 -32 -105 -101 -126 -163 -10 -29
-13 -353 -16 -1475 l-2 -1437 -618 2 -617 3 0 2860 c0 2645 1 2863 17 2897 9
20 148 180 309 355 879 954 1990 2154 2012 2172 20 16 19 18 46 -37 22 -43
108 -140 529 -597 236 -255 252 -270 311 -297 76 -35 170 1 211 82 40 78 18
148 -77 251 -876 949 -903 978 -958 1005 -66 32 -103 28 -170 -19 -47 -33
-147 -140 -1578 -1692 -461 -500 -859 -927 -883 -947 -25 -21 -63 -42 -84 -48
-23 -6 -127 -9 -256 -8 l-218 3 1560 1687 1559 1687 30 -33 c17 -18 716 -774
1555 -1681z m-5522 1228 l-3 -398 -592 -3 -593 -2 0 400 0 400 595 0 595 0 -2
-397z m-1560 -405 c5 -7 15 -40 22 -73 40 -195 102 -256 283 -275 117 -12
1193 -13 1309 0 179 18 248 81 287 264 l18 81 1138 3 1138 2 -19 -22 c-39 -45
-513 -558 -647 -700 -96 -103 -152 -154 -185 -169 l-47 -23 -2231 -1 c-1228 0
-2235 3 -2239 7 -4 3 62 91 146 195 587 722 552 681 603 704 35 16 68 19 227
19 137 0 189 -3 197 -12z m2993 -1295 c-10 -16 -203 -226 -427 -468 -622 -672
-644 -696 -675 -750 -41 -71 -41 -152 0 -216 16 -25 46 -57 67 -70 l39 -24
405 -5 405 -5 0 -135 0 -135 -1745 0 -1745 0 0 135 0 135 1061 5 1060 5 60 30
c63 32 112 91 135 163 17 52 25 801 9 890 -22 125 -83 205 -185 240 -46 15
-139 17 -1097 20 l-1048 3 0 104 0 105 1851 0 1850 0 -20 -27z m-2481 -858 l0
-325 -600 0 -600 0 0 318 c0 175 3 322 7 325 3 4 273 7 600 7 l593 0 0 -325z
m780 -5 l0 -320 -205 0 -205 0 0 320 0 320 205 0 205 0 0 -320z m1508 -1308
c10 -7 12 -105 10 -458 l-3 -449 -795 -5 -795 -5 -39 -24 c-55 -35 -76 -74
-76 -146 0 -73 28 -122 87 -151 36 -18 76 -19 826 -22 l787 -3 0 -1864 0
-1865 -650 0 -650 0 0 117 c0 224 -30 302 -149 380 -34 23 -70 51 -78 63 -9
12 -36 81 -62 153 l-47 131 52 50 c93 91 88 33 92 1016 2 549 -1 883 -7 932
-18 136 -78 218 -186 255 -44 16 -93 18 -435 18 -355 0 -389 -1 -434 -19 -66
-25 -128 -84 -157 -149 l-24 -52 -5 -630 c-4 -481 -8 -635 -18 -652 -7 -13
-26 -25 -47 -29 -69 -13 -64 -62 -67 653 -3 596 -5 652 -21 695 -26 66 -86
131 -149 159 l-53 24 -400 0 -400 0 -53 -24 c-65 -29 -123 -93 -147 -163 -18
-49 -19 -100 -23 -745 l-3 -693 -22 -5 c-150 -34 -199 -45 -207 -45 -6 0 -10
419 -10 1145 l0 1145 1013 2 1012 3 42 23 c52 27 83 82 83 147 0 66 -22 109
-71 142 l-43 28 -1318 5 -1319 5 217 270 c286 355 446 546 486 580 33 28 62
42 113 55 40 11 4126 12 4143 2z m5347 -1704 l164 -283 -164 -3 c-90 -1 -240
-1 -333 0 l-169 3 166 287 c91 158 167 285 169 283 2 -2 77 -131 167 -287z
m-8571 -534 c3 -9 6 -307 6 -663 0 -747 3 -716 -84 -806 -30 -30 -63 -55 -73
-55 -30 1 -150 56 -190 88 -21 16 -54 34 -73 41 -42 13 -83 49 -107 94 -17 29
-18 83 -21 675 l-3 642 270 0 c236 0 270 -2 275 -16z m1374 -807 l2 -818 -29
20 c-55 39 -457 389 -484 421 l-27 32 0 584 0 584 268 -2 267 -3 3 -818z
m7308 670 c18 -19 295 -490 291 -494 -2 -2 -261 -2 -575 -1 l-570 3 143 245
c85 146 153 250 167 258 31 18 527 8 544 -11z m-115 -848 c272 2 275 1 308
-21 25 -17 76 -97 201 -313 92 -159 165 -293 163 -297 -7 -13 -1673 -10 -1673
3 0 6 35 70 79 143 43 72 106 185 139 252 48 96 71 131 112 167 29 26 55 47
59 47 3 1 29 7 56 15 38 11 78 13 165 8 63 -4 239 -6 391 -4z m-7882 -534
c165 -39 281 -153 337 -329 42 -135 77 -177 175 -219 19 -8 56 -34 84 -59 91
-83 150 -78 -881 -78 l-904 0 0 50 c0 118 82 232 191 264 65 20 87 20 169 0
88 -21 161 -22 195 -4 16 9 58 61 101 126 83 126 131 173 220 216 103 48 202
59 313 33z m-1386 -125 l68 -21 -60 -65 c-64 -70 -130 -192 -151 -279 -7 -27
-15 -84 -19 -125 l-6 -75 -166 -3 c-204 -3 -236 3 -266 47 -26 38 -29 82 -12
163 40 187 206 343 409 382 44 8 133 -3 203 -24z m9177 -720 l0 -390 -75 0
-75 0 0 383 c0 211 3 387 7 390 3 4 37 7 75 7 l68 0 0 -390z m-6910 -300 l0
-100 -1597 2 -1598 3 -3 84 c-2 46 -1 90 2 98 4 11 280 13 1601 13 l1595 0 0
-100z"/>
<path d="M7744 7630 c-105 -21 -180 -80 -216 -168 l-23 -57 -5 -740 c-3 -407
-7 -740 -8 -741 -1 -1 -35 -4 -74 -7 -152 -14 -224 -55 -277 -160 l-35 -67 -4
-169 c-7 -255 13 -337 100 -418 86 -78 4 -74 1289 -71 l1144 3 50 27 c64 34
108 80 137 143 22 47 23 62 23 270 0 209 -1 223 -23 270 -47 101 -120 148
-272 174 l-95 16 -5 740 -5 740 -23 50 c-42 91 -107 142 -210 164 -62 13
-1402 14 -1468 1z m1354 -1022 l2 -678 -625 0 -625 0 0 673 c0 371 3 677 7
680 3 4 284 6 622 5 l616 -3 3 -677z m400 -1135 l-3 -88 -1017 -3 -1018 -2 0
90 0 90 1020 0 1021 0 -3 -87z"/>
<path d="M7933 2850 c-64 -39 -68 -57 -68 -335 0 -233 1 -252 20 -285 30 -49
74 -72 144 -73 69 0 116 22 144 71 43 73 44 490 3 570 -26 50 -70 72 -146 72
-47 0 -74 -6 -97 -20z"/>
<path d="M4637 4379 c-93 -22 -169 -88 -204 -178 -16 -43 -18 -109 -21 -921
-2 -605 0 -895 8 -939 26 -151 100 -225 252 -251 42 -8 185 -10 414 -8 330 3
351 4 395 24 60 28 116 78 141 128 34 67 40 252 36 1126 l-4 805 -23 51 c-28
63 -80 116 -146 146 -49 23 -56 23 -430 25 -209 1 -397 -3 -418 -8z m661
-1146 l2 -803 -265 0 -265 0 0 805 0 805 263 -2 262 -3 3 -802z"/>
</g>
</svg>
