<?xml version="1.0" encoding="iso-8859-1"?>
<!-- Generator: Adobe Illustrator 19.0.0, SVG Export Plug-In . SVG Version: 6.00 Build 0)  -->
<svg version="1.1" id="Layer_1" xmlns="http://www.w3.org/2000/svg" xmlns:xlink="http://www.w3.org/1999/xlink" x="0px" y="0px"
	 viewBox="0 0 512 512" style="enable-background:new 0 0 512 512;" xml:space="preserve">
<circle style="fill:#FF5B62;" cx="256" cy="256" r="256"/>
<path style="fill:#807D7D;" d="M49.391,99.711h413.219c5.046,0,9.173,4.128,9.173,9.172v253.18c0,5.044-4.127,9.172-9.173,9.172
	H49.391c-5.046,0-9.173-4.128-9.173-9.172v-253.18C40.217,103.839,44.344,99.711,49.391,99.711z"/>
<path style="fill:#FFFFFF;" d="M59.455,118.133h393.091v239.564H59.455V118.133z"/>
<path style="fill:#DCE3DB;" d="M0.01,377.209h511.981v17.541c0,9.646-7.891,17.539-17.539,17.539H17.547
	c-9.646,0-17.538-7.893-17.538-17.539L0.01,377.209L0.01,377.209z"/>
<path style="fill:#C2C2C4;" d="M198.698,379.735h114.606l-4.214,8.088H202.91L198.698,379.735z"/>
<path style="fill:#FAD24D;" d="M59.455,118.135h40.037v15.045H59.455V118.135z"/>
<path style="fill:#21D0C3;" d="M452.546,118.135H99.489v15.045h353.057V118.135z"/>
<path style="fill:#666666;" d="M95.178,371.234h28.58v5.975h-28.58V371.234z M388.245,371.234L388.245,371.234h28.58v5.975h-28.58
	V371.234z"/>
<path style="fill:#FAD24D;" d="M244.992,158.505c5.096,0,10.077,0.487,14.907,1.402l0.34,0.066c0.523,0.103,1.044,0.21,1.561,0.319
	l0.135,0.028l0.338,0.076c0.45,0.099,0.898,0.203,1.343,0.31l0.336,0.081c0.555,0.137,1.112,0.279,1.663,0.428l0.331,0.09
	c0.552,0.151,1.102,0.305,1.649,0.469l0.327,0.098c0.437,0.131,0.87,0.265,1.303,0.403l0.326,0.106l0.323,0.105
	c0.431,0.144,0.861,0.291,1.29,0.441l0.321,0.111l0.072,0.027c0.51,0.182,1.017,0.365,1.521,0.556l0.001,0.001l0.318,0.122
	l0.015,0.006c0.475,0.183,0.949,0.369,1.423,0.56l0.139,0.058l0.313,0.129c0.408,0.169,0.815,0.341,1.223,0.516l0.024,0.011
	l0.308,0.135l0.308,0.136c0.39,0.174,0.778,0.35,1.163,0.527l0.069,0.032l0.306,0.143c0.502,0.239,1.004,0.479,1.502,0.725
	l0.017,0.007l0.301,0.151c26.021,13.035,43.888,39.949,43.888,71.036c0,31.091-17.865,58.002-43.888,71.039l-0.301,0.149
	l-0.017,0.008c-0.497,0.247-1,0.489-1.502,0.725l-0.306,0.143l-0.069,0.034c-0.384,0.177-0.772,0.351-1.163,0.523l-0.308,0.137
	l-0.308,0.136l-0.024,0.012c-0.406,0.176-0.814,0.347-1.223,0.515l-0.313,0.13l-0.139,0.057c-0.474,0.191-0.948,0.378-1.423,0.56
	l-0.015,0.008l-0.318,0.119l-0.001,0.001c-0.503,0.19-1.01,0.377-1.521,0.556l-0.072,0.027l-0.321,0.112
	c-0.429,0.15-0.859,0.295-1.29,0.437l-0.323,0.106l-0.326,0.105c-0.434,0.142-0.866,0.273-1.303,0.406l-0.327,0.098
	c-0.547,0.163-1.098,0.316-1.649,0.467l-0.331,0.092c-0.552,0.149-1.108,0.288-1.663,0.428l-0.336,0.079
	c-0.445,0.109-0.893,0.211-1.343,0.312l-0.338,0.072l-0.135,0.031c-0.516,0.112-1.037,0.219-1.561,0.32l-0.34,0.065
	c-4.83,0.918-9.811,1.402-14.907,1.402c-3.811,0-7.554-0.274-11.223-0.793h-0.001l-0.026-0.004c-1.218-0.172-2.421-0.372-3.619-0.6
	l-0.453-0.085c-0.451-0.09-0.899-0.181-1.348-0.278l-0.448-0.096l-0.037-0.009c-3.095-0.682-6.126-1.543-9.076-2.576l-0.066-0.022
	l-0.423-0.151c-0.425-0.154-0.851-0.306-1.27-0.466l-0.422-0.159c-29.825-11.433-50.999-40.327-50.999-74.173
	c0-33.843,21.175-62.738,50.999-74.17l0.422-0.158c0.418-0.159,0.844-0.316,1.27-0.467l0.423-0.151l0.066-0.022
	c2.95-1.033,5.981-1.895,9.076-2.579l0.037-0.007l0.448-0.097c0.449-0.096,0.897-0.187,1.348-0.274l0.453-0.089
	c1.197-0.228,2.403-0.424,3.619-0.599l0.026-0.002h0.001C237.435,158.779,241.182,158.505,244.992,158.505L244.992,158.505z
	 M233.978,179.503L233.978,179.503c-7.075,4.954-13.207,11.161-18.075,18.299c4.004,0.657,8.088,1.179,12.243,1.561
	C229.695,192.442,231.655,185.801,233.978,179.503z M207.257,196.155L207.257,196.155c7.273-11.734,17.517-21.434,29.685-28.049
	c-1.047-0.214-2.101-0.404-3.166-0.573c-17.118,2.707-32.206,11.51-42.979,24.109C196.077,193.406,201.575,194.914,207.257,196.155z
	 M185.099,199.289L185.099,199.289c-6.363,9.845-10.367,21.358-11.205,33.737h21.655c0.61-10.041,3.086-19.579,7.087-28.27
	C196.541,203.242,190.682,201.41,185.099,199.289L185.099,199.289z M210.796,206.564L210.796,206.564
	c-3.965,8.079-6.444,17.019-7.084,26.463h20.309c0.221-8.299,1-16.38,2.28-24.165C221.011,208.319,215.834,207.549,210.796,206.564z
	 M224.02,242.803L224.02,242.803h-20.308c0.549,8.123,2.462,15.871,5.508,23.02c5.356-1.1,10.87-1.958,16.512-2.554
	C224.789,256.635,224.207,249.795,224.02,242.803L224.02,242.803z M201.169,267.686L201.169,267.686
	c-3.139-7.761-5.09-16.128-5.62-24.883h-21.655c0.754,11.128,4.064,21.554,9.347,30.699
	C188.93,271.248,194.924,269.3,201.169,267.686L201.169,267.686z M188.409,281.238L188.409,281.238
	c10.87,14.175,26.944,24.15,45.366,27.063c1.066-0.17,2.12-0.36,3.166-0.575c-13.3-7.228-24.305-18.146-31.638-31.38
	C199.456,277.696,193.81,279.335,188.409,281.238L188.409,281.238z M213.723,274.633L213.723,274.633
	c5.163,8.572,12.078,15.971,20.254,21.698c-2.733-7.409-4.962-15.297-6.617-23.556C222.723,273.223,218.172,273.844,213.723,274.633
	z M256.286,300.699L256.286,300.699c10.814-5.823,19.949-14.359,26.498-24.699c-5.891-1.297-11.981-2.303-18.235-2.987
	C262.567,282.83,259.774,292.116,256.286,300.699z M291.069,278.058L291.069,278.058c-7.19,12.244-17.566,22.391-29.996,29.301
	c16.34-3.768,30.528-13.156,40.427-26.017C298.114,280.141,294.636,279.045,291.069,278.058z M306.682,273.612L306.682,273.612
	c5.318-9.169,8.651-19.636,9.409-30.809h-14.285c-0.579,9.49-2.82,18.529-6.441,26.83
	C299.252,270.828,303.029,272.158,306.682,273.612L306.682,273.612z M287.432,267.419L287.432,267.419
	c3.455-7.585,5.619-15.884,6.209-24.616h-25.705c-0.188,7.082-0.781,14.006-1.747,20.721
	C273.52,264.394,280.623,265.709,287.432,267.419z M267.935,233.026L267.935,233.026h25.705c-0.679-10.037-3.439-19.509-7.85-27.979
	c-6.484,1.56-13.229,2.759-20.176,3.56C266.921,216.472,267.712,224.638,267.935,233.026z M293.827,202.896L293.827,202.896
	c4.523,9.182,7.324,19.366,7.977,30.13h14.285c-0.842-12.426-4.871-23.977-11.274-33.848
	C301.265,200.536,297.598,201.779,293.827,202.896z M299.113,191.551L299.113,191.551c-9.733-11.348-22.974-19.603-38.041-23.077
	c11.319,6.291,20.939,15.271,27.996,26.074C292.497,193.649,295.848,192.647,299.113,191.551z M280.572,196.538L280.572,196.538
	c-6.331-8.865-14.641-16.211-24.286-21.405c3.047,7.501,5.565,15.542,7.474,24.005C269.513,198.536,275.122,197.661,280.572,196.538
	z M237.681,199.984L237.681,199.984c2.359,0.092,4.738,0.143,7.133,0.143c3.179,0,6.327-0.081,9.441-0.246
	c-2.058-9.314-4.852-18.125-8.275-26.277C242.541,181.788,239.741,190.631,237.681,199.984z M256.079,209.45L256.079,209.45
	c-3.711,0.229-7.466,0.351-11.265,0.351c-3.013,0-6-0.078-8.957-0.222c-1.212,7.562-1.949,15.404-2.164,23.447h24.569
	C258.049,224.938,257.301,217.053,256.079,209.45L256.079,209.45z M233.694,242.803L233.694,242.803
	c0.178,6.727,0.723,13.313,1.606,19.711c3.139-0.164,6.313-0.247,9.515-0.247c3.991,0,7.932,0.135,11.824,0.384
	c0.893-6.44,1.445-13.072,1.625-19.847L233.694,242.803L233.694,242.803z M236.903,272.114L236.903,272.114
	c2.108,10.736,5.184,20.851,9.076,30.113c3.877-9.232,6.944-19.304,9.051-29.999c-3.368-0.189-6.775-0.288-10.217-0.288
	C242.154,271.94,239.519,272.002,236.903,272.114z"/>
<path style="fill:#21D0C3;" d="M315.984,311.707c26.508,0,48.129-21.622,48.129-48.13c0-26.51-21.621-48.131-48.129-48.131
	c-26.51,0-48.133,21.621-48.133,48.131C267.851,290.085,289.474,311.707,315.984,311.707z"/>
<path style="fill:#FFFFFF;" d="M317.169,296.428c-4.544,0-8.707-0.716-12.472-2.194c-3.758-1.456-6.984-3.602-9.67-6.425
	c-2.685-2.818-4.767-6.267-6.268-10.319c-1.477-4.075-2.216-8.709-2.216-13.904c0-5.125,0.717-9.714,2.148-13.744
	c1.456-4.052,3.47-7.5,6.047-10.345c2.574-2.842,5.685-5.012,9.311-6.511c3.627-1.524,7.612-2.262,11.934-2.262
	c4.499,0,8.572,0.738,12.2,2.216c3.626,1.498,6.714,3.651,9.269,6.469c2.572,2.82,4.543,6.268,5.907,10.323
	c1.388,4.075,2.061,8.685,2.061,13.855v2.688h-47.213c0.267,3.624,0.916,6.762,1.926,9.447c1.028,2.663,2.394,4.881,4.073,6.648
	c1.68,1.771,3.629,3.091,5.799,3.964c2.194,0.871,4.569,1.321,7.164,1.321c1.835,0,3.672-0.249,5.506-0.764
	c1.837-0.493,3.494-1.232,4.948-2.193c1.456-0.963,2.663-2.15,3.582-3.582c0.919-1.412,1.388-3.046,1.433-4.881h11.685
	c-0.493,3.249-1.5,6.112-3.068,8.62c-1.542,2.528-3.514,4.633-5.887,6.336c-2.396,1.7-5.128,2.997-8.237,3.894
	C324.018,295.981,320.705,296.428,317.169,296.428L317.169,296.428z M333.622,257.475L333.622,257.475
	c-0.872-5.954-2.889-10.432-6.067-13.431c-3.178-3.023-7.029-4.546-11.573-4.546c-2.241,0-4.322,0.383-6.291,1.121
	c-1.97,0.74-3.717,1.857-5.262,3.358c-1.521,1.477-2.822,3.358-3.852,5.597c-1.05,2.261-1.809,4.881-2.238,7.902L333.622,257.475
	L333.622,257.475z"/>
<g>
</g>
<g>
</g>
<g>
</g>
<g>
</g>
<g>
</g>
<g>
</g>
<g>
</g>
<g>
</g>
<g>
</g>
<g>
</g>
<g>
</g>
<g>
</g>
<g>
</g>
<g>
</g>
<g>
</g>
</svg>
