<?xml version="1.0" standalone="no"?>
<!DOCTYPE svg PUBLIC "-//W3C//DTD SVG 20010904//EN"
 "http://www.w3.org/TR/2001/REC-SVG-20010904/DTD/svg10.dtd">
<svg version="1.0" xmlns="http://www.w3.org/2000/svg"
 width="1251.000000pt" height="1251.000000pt" viewBox="0 0 1251.000000 1251.000000"
 preserveAspectRatio="xMidYMid meet">

<g transform="translate(0.000000,1251.000000) scale(0.100000,-0.100000)"
fill="#053219" stroke="none">
<path d="M4205 12158 c-316 -35 -773 -192 -898 -308 -94 -86 -111 -189 -51
-301 48 -87 89 -110 315 -173 320 -88 623 -235 909 -440 105 -76 318 -255 319
-268 1 -14 -34 -8 -109 17 -308 105 -713 159 -1022 136 -342 -25 -614 -98
-923 -247 -543 -261 -918 -658 -1128 -1194 -92 -236 -86 -338 29 -439 86 -75
151 -71 366 27 435 197 831 299 1247 321 586 31 1190 -115 1683 -407 l77 -45
-48 -56 c-102 -118 -781 -975 -916 -1156 -385 -515 -815 -1209 -1180 -1905
-728 -1386 -1280 -2994 -1581 -4600 -41 -221 -51 -251 -90 -277 -26 -17 -53
-18 -386 -15 l-358 4 0 -251 0 -251 5665 0 5665 0 0 250 0 250 -360 0 -360 0
0 2114 0 2114 183 6 c100 4 274 6 387 4 203 -3 205 -3 261 23 122 58 178 212
120 329 -17 33 -482 505 -1704 1728 -925 926 -1709 1704 -1742 1729 -93 71
-164 99 -330 133 -130 26 -755 170 -763 175 -1 1 0 9 3 17 15 39 425 142 735
185 178 25 636 25 805 0 350 -52 671 -152 984 -306 175 -86 252 -90 338 -16
60 51 93 123 93 202 0 53 -9 86 -56 205 -129 327 -254 526 -474 752 -197 203
-387 339 -655 471 -93 46 -217 100 -274 120 -482 165 -996 185 -1494 55 -183
-47 -312 -96 -497 -188 -96 -48 -178 -88 -181 -90 -3 -1 -16 24 -29 55 -38 95
-138 290 -192 377 -177 283 -451 561 -732 744 -323 210 -667 335 -1059 387
-130 17 -457 19 -592 3z m646 -508 c266 -43 618 -199 852 -377 352 -268 559
-600 657 -1058 37 -172 70 -239 144 -289 33 -22 50 -26 110 -26 88 0 152 28
276 121 233 173 463 284 737 355 622 160 1276 15 1763 -391 80 -67 215 -204
207 -211 -2 -3 -98 16 -213 40 -115 25 -258 52 -319 60 -741 101 -1446 -20
-2127 -366 -181 -91 -284 -182 -345 -302 -81 -160 -1 -346 181 -418 23 -9 101
-26 172 -38 71 -12 260 -48 419 -81 160 -33 350 -72 423 -87 72 -14 132 -29
132 -32 0 -3 -210 -215 -467 -472 l-468 -468 -210 252 c-297 356 -590 651
-970 978 -639 550 -1252 840 -1980 937 -162 21 -652 25 -820 5 -155 -18 -338
-49 -492 -83 -189 -41 -187 -42 -113 41 221 250 596 465 957 549 281 65 576
69 866 10 298 -60 626 -216 861 -408 97 -80 260 -250 329 -343 108 -146 169
-188 274 -188 111 0 188 41 230 123 38 76 36 169 -7 302 -237 732 -673 1285
-1345 1707 -60 38 -148 88 -195 111 l-85 41 40 8 c60 14 239 24 330 20 44 -2
132 -12 196 -22z m656 -3213 l96 -94 -98 -134 c-659 -903 -1137 -1942 -1600
-3484 -380 -1266 -655 -2436 -855 -3635 -17 -102 -36 -202 -42 -222 l-11 -38
-624 0 c-621 0 -623 0 -623 20 0 27 77 392 135 640 402 1720 1006 3277 1812
4669 447 771 959 1496 1558 2204 77 91 144 166 148 166 5 1 51 -41 104 -92z
m4293 -1522 l1345 -1345 -2695 0 -2695 0 1345 1345 c740 740 1347 1345 1350
1345 3 0 610 -605 1350 -1345z m-3732 1028 c98 -88 247 -253 335 -371 66 -90
180 -272 197 -317 20 -54 -5 -81 -873 -953 -575 -578 -849 -860 -862 -887 -23
-50 -31 -142 -16 -187 18 -54 74 -113 133 -139 52 -23 59 -23 438 -26 l385 -3
0 -2113 0 -2112 -1145 -3 c-630 -1 -1150 0 -1156 2 -10 4 7 86 257 1241 359
1662 618 2603 986 3585 303 809 624 1475 938 1945 104 155 290 405 302 405 3
0 39 -30 81 -67z m4490 -5000 l-3 -2108 -925 0 -925 0 -3 533 -2 532 -250 0
-250 0 0 -530 0 -530 -935 0 -935 0 0 2105 0 2105 2115 0 2115 0 -2 -2107z"/>
</g>
</svg>
